<svg id="Grupo_136047" data-name="Grupo 136047" xmlns="http://www.w3.org/2000/svg" xmlns:xlink="http://www.w3.org/1999/xlink" width="143.567" height="159.541" viewBox="0 0 143.567 159.541">
  <defs>
    <clipPath id="clip-path">
      <rect id="Rectángulo_36248" data-name="Rectángulo 36248" width="143.567" height="159.541" fill="none"/>
    </clipPath>
  </defs>
  <g id="Grupo_136046" data-name="Grupo 136046" clip-path="url(#clip-path)">
    <path id="Trazado_128445" data-name="Trazado 128445" d="M139.037,225.028a7.734,7.734,0,0,0-2.112-.192c-9.6-.011-19.2-.045-28.805.032-1.492.012-1.832-.4-1.789-1.83.107-3.565.054-7.136.029-10.7-.017-2.493-.944-3.419-3.4-3.451-1.751-.023-3.5.007-5.255-.008s-3.846.53-5.147-.247c-1.41-.843-1.455-3.179-1.952-4.891-.616-2.12-1.834-2.849-3.982-2.814-2.223.036-4.483.405-6.689-.248a3.939,3.939,0,0,1-.131-.463,18.008,18.008,0,0,1-.057-4.335c-.028-17.98.009-35.96-.062-53.939-.007-1.74.451-2.124,2.144-2.114q15.382.094,30.765-.062c1.646-.014,1.8.369,1.261,1.832q-5.787,15.565-11.425,31.185c-.418,1.156-.963,1.67-2.228,1.573a37.118,37.118,0,0,0-4.282-.006,2.637,2.637,0,0,0-2.848,2.771c-.3,5.362.253,10.5,3.717,14.92,3.129,3.4,6.877,5.9,11.547,6.086,6.6.269,13.229.33,19.821,0,5.328-.267,9.505-3.075,12.561-7.49,2.789-4.029,2.968-8.593,2.8-13.238-.077-2.16-.914-2.992-3.145-3.053-1.49-.041-2.981-.021-4.472,0-.7.008-1.188-.114-1.473-.912-2.579-7.241-5.2-14.465-7.817-21.694-1.348-3.556-2.685-7.116-4.054-10.664-.339-.879-.26-1.34.834-1.28,1.354.075,2.712.077,4.069.11,1.681-.034,3.364-.043,5.044-.11,2.108-.083,3.049-1.031,3.087-3.162.042-2.332,0-4.666.015-7a2.979,2.979,0,0,0-1.919-3.066c-16.994-.024-33.988-.072-50.983-.036a3.556,3.556,0,0,1-3.474-1.824c-1.542-2.471-3.256-4.838-4.945-7.215-1.488-2.094-3.562-2.092-5.045,0-1.762,2.484-3.532,4.967-5.175,7.53a2.956,2.956,0,0,1-2.854,1.5q-24.422-.047-48.844.006c-.842,0-1.685.025-2.527.039a3.048,3.048,0,0,0-1.923,3.259c.04,1.36.008,2.721.008,4.082,0,5.557,0,5.557,5.416,5.992,2.252-.032,4.506-.039,6.757-.109,1-.031,1.253.288.891,1.238-1.9,4.977-3.761,9.965-5.637,14.949-2,5.6-4.035,11.182-5.975,16.8a2,2,0,0,1-2.407,1.588,29.858,29.858,0,0,0-4.082-.011c-1.946.093-2.818.983-2.869,2.922-.042,1.555-.03,3.113.027,4.668a16.674,16.674,0,0,0,14.07,16c5.724.86,11.524.115,17.283.365a18.651,18.651,0,0,0,14.627-5.458c4.055-4.549,4.8-10.021,4.426-15.813a2.6,2.6,0,0,0-2.541-2.669,10.174,10.174,0,0,0-1.166-.034c-5.061-.051-5.065-.049-6.782-4.728-3.409-9.293-6.79-18.6-10.244-27.874-.535-1.437-.566-1.986,1.272-1.968,10.377.1,20.756.1,31.134.089,1.15,0,1.713.13,1.71,1.537q-.056,28.7,0,57.405c.007.169.006.338,0,.508v.271c0,.378.089.785-.233,1.1v0a2,2,0,0,1-1,.212c-2.512.409-5.057-.059-7.577.115a3.6,3.6,0,0,0-1.982,2.488c-.42,1.425-1.028,2.8-1.394,4.235-.246.965-.73,1.195-1.643,1.181-3.049-.045-6.1-.026-9.147-.014-2.819.01-3.671.879-3.681,3.754-.011,2.855,0,5.709,0,8.564,0,3.629,0,3.629-3.612,3.629q-12.456,0-24.913.007c-2.113,0-3.363,1.048-3.35,2.694s1.252,2.628,3.383,2.673c.259.005.519,0,.778,0q63.645,0,127.289-.008a8.832,8.832,0,0,0,2.3-.211,2.608,2.608,0,0,0-.013-4.956m-2.251-45.421c1.2,0,1.548.366,1.528,1.549a11.756,11.756,0,0,1-11.772,11.739c-2.786.03-5.573.005-8.359,0s-5.573.036-8.359-.008a11.761,11.761,0,0,1-11.538-11.768c0-1.229.41-1.516,1.565-1.513q18.468.052,36.936,0m-12.5-18.277,4.787,12.815h-21.51L118.311,144.8l5.973,16.528M107.4,131.724c6.814,0,13.629-.023,20.443.027.917.007,2.35-.688,2.376,1.287.028,2.112-1.51,1.375-2.476,1.378-13.239.041-26.479-.02-39.718.078-2.011.015-2.925-.833-3.663-2.77Zm-63.921,47.87c1.553-.024,1.827.529,1.758,1.909A11.726,11.726,0,0,1,33.526,192.89c-5.637.044-11.275.065-16.912-.011a11.768,11.768,0,0,1-11.4-11.909c.021-1.415.758-1.35,1.725-1.347,6.091.016,12.182.008,18.273.008s12.183.055,18.273-.038m-7.5-5.462H14.493l3.616-9.679,7.115-19.646,10.755,29.325m19.767-39.645c-13.494-.083-26.988-.048-40.482-.034-1.112,0-2.115.074-1.948-1.554.081-.789.307-1.223,1.149-1.174.259.015.519,0,.778,0q21.214,0,42.429,0c.433,0,.866.046,1.487.08-.759,1.593-1.418,2.691-3.412,2.679m15.415-10.43c.376-.548.743-.689,1.176-.059,2.328,3.389,4.661,6.774,7.128,10.357H64.08c2.433-3.536,4.76-6.916,7.082-10.3m-2.119,18.019c-.005-1.689.3-2.4,2.192-2.307,3.221.163,3.227.037,3.227,3.179v27.446c0,9.473-.03,18.947.03,28.419.01,1.523-.265,2.215-1.993,2.148-4.109-.158-3.407.36-3.412-3.41-.025-18.492.009-36.984-.045-55.476M57.208,208.106c.089-.876.229-2.046,1.644-1.984.388.017.777,0,1.166,0q11.758,0,23.517,0a8.1,8.1,0,0,1,1.551.04c1.168.23,1.229,1.345,1.275,2.146.049.853-.889.5-1.384.5-4.47.032-8.94.018-13.411.018-4.276,0-8.552.021-12.827-.026-.552-.006-1.655.5-1.531-.7m43.821,14.879c.076,1.441-.334,1.864-1.817,1.852-9.147-.071-18.3-.036-27.443-.036s-18.3-.035-27.443.036c-1.48.011-1.9-.406-1.819-1.85a63.885,63.885,0,0,0,0-6.809c-.081-1.507.345-1.971,1.914-1.959,9.731.075,19.463.038,29.194.038,8.5,0,17,.042,25.5-.038,1.566-.015,2,.446,1.916,1.957a63.78,63.78,0,0,0,0,6.809" transform="translate(0 -70.664)" fill="#4c241d"/>
    <path id="Trazado_128446" data-name="Trazado 128446" d="M43.454,80.746c10.51.075,21.022-.022,31.532.057a4.936,4.936,0,0,0,4.679-2.443q2-3.1,4.175-6.1c2.069-2.852,4.534-2.852,6.6,0q2.171,2.992,4.175,6.1A4.94,4.94,0,0,0,99.3,80.8c12.652-.072,25.305-.135,37.956.023,3.931.049,7.874.315,11.813.446-2-.764-4.083-.279-6.12-.3-1.363-.012-2.089-.331-2.469-1.731a52.494,52.494,0,0,0-4.442-10.723,57.757,57.757,0,0,0-14.611-17.37,52.121,52.121,0,0,0-13.214-7.965,22.023,22.023,0,0,1-3.5,15.38A21.236,21.236,0,0,1,66.417,42.011a2.181,2.181,0,0,0,.016-.386L53.713,48.247a1.289,1.289,0,0,0-.049.188c-.183,1.585-2.151,2.171-2.3,3.42-.146,1.225,1.892,1.78,2.215,3.173a2.536,2.536,0,0,1-.977,2.759,2.292,2.292,0,0,1-2.719.261,4.392,4.392,0,0,1-1.334-1.094c-.942-1.3-1.723-1.106-2.623.049a2.956,2.956,0,0,1-3.95.957c.41.79-.052,1.335-.517,1.893A53.124,53.124,0,0,0,31.069,79.5a1.686,1.686,0,0,1-1.879,1.461c-1.322.019-2.7-.378-3.972.311,6.073-.354,12.148-.568,18.236-.525M119.22,62.627a2.669,2.669,0,0,1,2.495,2.682,2.666,2.666,0,1,1-2.495-2.682" transform="translate(-15.373 -25.375)" fill="#e9e9e9"/>
    <path id="Trazado_128447" data-name="Trazado 128447" d="M76.59,125.717a2.957,2.957,0,0,0,2.854-1.5c1.642-2.563,3.413-5.046,5.175-7.53,1.484-2.092,3.557-2.094,5.045,0,1.69,2.376,3.4,4.743,4.945,7.215a3.555,3.555,0,0,0,3.474,1.824c16.994-.036,33.988.011,50.983.036-3.939-.131-7.882-.4-11.813-.446-12.65-.159-25.3-.1-37.955-.023a4.941,4.941,0,0,1-4.679-2.443q-2-3.1-4.175-6.1c-2.069-2.852-4.534-2.853-6.6,0q-2.171,2.993-4.175,6.1a4.933,4.933,0,0,1-4.679,2.443c-10.51-.079-21.022.018-31.532-.057-6.089-.043-12.163.171-18.236.525.842-.013,1.685-.038,2.527-.039q24.423-.019,48.845-.006" transform="translate(-15.373 -69.865)" fill="#e9e9e9"/>
    <path id="Trazado_128448" data-name="Trazado 128448" d="M162.921,332.992h0" transform="translate(-99.316 -202.993)" fill="#e9e9e9"/>
    <path id="Trazado_128449" data-name="Trazado 128449" d="M111.269,237.644v-.508c-.057-1.355-.486-2.7-.481-4.064.069-16.8.039-33.6.039-50.4,0-3.85,0-3.851-3.781-3.851H81.165c-.389,0-.778,0-1.167,0-2.439.027-2.542.174-1.745,2.4q.951,2.656,1.925,5.3c2.836,7.733,5.7,15.458,8.487,23.207a2.9,2.9,0,0,0,3.127,2.225c6,.044,6.483.668,6.6,6.59a17.642,17.642,0,0,1-2.522,10.218c-.622.973-1.179,2.045-2.412,2.425a64.924,64.924,0,0,0,14.651,4.641c2.78.515,2.794.448,2.922,3.177h0a4.877,4.877,0,0,0,.232-1.364" transform="translate(-47.432 -109.009)" fill="#e9e9e9"/>
    <path id="Trazado_128450" data-name="Trazado 128450" d="M162.925,332.991h0" transform="translate(-99.319 -202.992)" fill="#e9e9e9"/>
    <path id="Trazado_128451" data-name="Trazado 128451" d="M94.359,227.647a17.643,17.643,0,0,0,2.522-10.218c-.123-5.922-.6-6.545-6.6-6.59a2.9,2.9,0,0,1-3.127-2.225c-2.792-7.749-5.651-15.474-8.487-23.207q-.972-2.649-1.925-5.3c-.8-2.225-.693-2.372,1.745-2.4.389,0,.778,0,1.168,0h25.881c3.78,0,3.781,0,3.781,3.85,0,16.8.03,33.6-.039,50.4-.005,1.367.423,2.709.481,4.064q-.013-28.7,0-57.4c0-1.407-.561-1.538-1.71-1.537-10.378.01-20.757.012-31.134-.089-1.838-.018-1.807.53-1.272,1.967,3.454,9.277,6.835,18.581,10.244,27.874,1.716,4.679,1.72,4.677,6.781,4.728a10.162,10.162,0,0,1,1.166.034,2.6,2.6,0,0,1,2.541,2.668c.376,5.792-.371,11.264-4.426,15.813,1.232-.38,1.789-1.452,2.411-2.424" transform="translate(-45.917 -107.891)" fill="#e9e9e9"/>
    <path id="Trazado_128452" data-name="Trazado 128452" d="M162.919,332.994v0l0-.005h0" transform="translate(-99.316 -202.993)" fill="#e9e9e9"/>
    <path id="Trazado_128453" data-name="Trazado 128453" d="M162.921,332.992l0,.005,0-.006h0" transform="translate(-99.316 -202.992)" fill="#e9e9e9"/>
    <path id="Trazado_128454" data-name="Trazado 128454" d="M162.923,330.86l0,.006c.322-.314.234-.721.234-1.1q0-.135,0-.271a4.864,4.864,0,0,1-.232,1.364h0" transform="translate(-99.316 -200.861)" fill="#e9e9e9"/>
    <path id="Trazado_128455" data-name="Trazado 128455" d="M217.12,221.688a37.622,37.622,0,0,1-.037-5.833c.084-2.257,1.137-3.4,3.393-3.8a13.04,13.04,0,0,1,3.106-.123,2.834,2.834,0,0,0,3.164-2.213c2.289-6.413,4.687-12.788,7.007-19.19,1.17-3.232,2.432-6.431,3.551-9.681.583-1.694.414-2.01-1.315-2.015q-14.691-.05-29.383,0c-1.847.006-2.009.266-2.01,2.677q-.012,20.821,0,41.642c0,3.5-.015,7.005.005,10.508.009,1.638-.716,3.244-.343,4.894.038.155.077.309.131.463.219-3.85-.508-3.039,3.069-3.809a78.781,78.781,0,0,0,13.786-4.828c-2.859-2.189-3.725-5.359-4.12-8.685" transform="translate(-124.449 -108.999)" fill="#e9e9e9"/>
    <path id="Trazado_128456" data-name="Trazado 128456" d="M217.422,214.351a2.637,2.637,0,0,1,2.848-2.771,37.118,37.118,0,0,1,4.281.006c1.265.1,1.809-.417,2.228-1.573q5.649-15.616,11.425-31.185c.544-1.463.385-1.847-1.261-1.832q-15.381.135-30.765.062c-1.693-.01-2.151.373-2.144,2.114.071,17.98.033,35.96.062,53.939a18.028,18.028,0,0,0,.057,4.335c-.373-1.649.353-3.256.343-4.893-.021-3.5-.006-7.005-.005-10.508q0-20.821,0-41.642c0-2.411.163-2.671,2.01-2.677q14.691-.048,29.383,0c1.729.006,1.9.321,1.315,2.016-1.119,3.25-2.381,6.449-3.551,9.681-2.319,6.4-4.717,12.777-7.007,19.19a2.834,2.834,0,0,1-3.164,2.213,13.017,13.017,0,0,0-3.106.123c-2.256.4-3.309,1.547-3.393,3.8a37.621,37.621,0,0,0,.037,5.833c.4,3.327,1.262,6.5,4.12,8.685-3.464-4.419-4.02-9.558-3.717-14.92" transform="translate(-124.348 -107.897)" fill="#e9e9e9"/>
    <path id="Trazado_128457" data-name="Trazado 128457" d="M130.956,18.665a20.072,20.072,0,0,0,6.477,17.685,19.514,19.514,0,0,0,17.553,5.265c8.617-1.525,14.146-6.878,16.6-15.286a16.354,16.354,0,0,0,.526-6.341c-.082-.761-.228-1.563.456-2.176q-.24-.942-.479-1.883A21.146,21.146,0,0,0,148.812.217C139.363,1.619,133.5,7.2,130.788,16.25c.674.757.254,1.63.168,2.415m20.49-13.338a15.949,15.949,0,1,1-15.9,16.023,15.959,15.959,0,0,1,15.9-16.023" transform="translate(-79.729 0)" fill="#4c241d"/>
    <path id="Trazado_128458" data-name="Trazado 128458" d="M129.964,42.012a21.236,21.236,0,0,0,38.295,16.556,22.023,22.023,0,0,0,3.5-15.381c-.684.613-.538,1.415-.456,2.176a16.362,16.362,0,0,1-.526,6.341c-2.449,8.408-7.979,13.761-16.6,15.286a19.517,19.517,0,0,1-17.553-5.265,20.074,20.074,0,0,1-6.478-17.685c.086-.785.506-1.657-.168-2.415a2.18,2.18,0,0,1-.016.386" transform="translate(-78.92 -25.375)" fill="#4c241d"/>
    <path id="Trazado_128459" data-name="Trazado 128459" d="M70.5,62.1c.663-.821,1.467-.6,2.182.077a9.317,9.317,0,0,0,1.469,1.253,1.885,1.885,0,0,0,2.614-.323,1.947,1.947,0,0,0,.217-2.636c-.6-.935-2.057-1.442-1.733-2.815.255-1.077,1.422-1.633,1.977-2.586a1.613,1.613,0,0,1,.794-.81c-.776-3.007-2.925-3.7-5.007-1.429-1.207,1.316-1.894,1.211-2.929-.066-1.054-1.3-2.426-1.749-3.906-.621-1.45,1.106-1.423,2.805.184,4.314,1.086,1.019,1.592,1.671.127,2.906-1.868,1.574-1.783,2.641-.207,4.611A5.547,5.547,0,0,0,70.5,62.1" transform="translate(-39.682 -31.384)" fill="#4c241d"/>
    <path id="Trazado_128460" data-name="Trazado 128460" d="M72.089,67.343c.9-1.155,1.681-1.35,2.623-.049a4.392,4.392,0,0,0,1.334,1.094,2.292,2.292,0,0,0,2.719-.261,2.536,2.536,0,0,0,.977-2.759c-.322-1.393-2.362-1.948-2.215-3.173.15-1.249,2.118-1.835,2.3-3.42a1.344,1.344,0,0,1,.049-.188,1.614,1.614,0,0,0-.794.81c-.555.953-1.722,1.509-1.977,2.586-.324,1.373,1.133,1.88,1.733,2.815a1.947,1.947,0,0,1-.217,2.636,1.885,1.885,0,0,1-2.614.323A9.315,9.315,0,0,1,74.539,66.5c-.714-.676-1.518-.9-2.182-.077A5.546,5.546,0,0,1,68.139,68.3a2.956,2.956,0,0,0,3.95-.957" transform="translate(-41.538 -35.714)" fill="#4c241d"/>
    <path id="Trazado_128461" data-name="Trazado 128461" d="M40.711,179.885c.65-1.755.443-1.922-1.455-2.046-1.7-.111-3.485.478-5.1-.508a48.921,48.921,0,0,0,2.012,16.079,14.2,14.2,0,0,1,1.268-4.629c1.132-2.951,2.18-5.932,3.277-8.9" transform="translate(-20.808 -108.101)" fill="#e9e9e9"/>
    <path id="Trazado_128462" data-name="Trazado 128462" d="M40.943,177.051c-2.251.069-4.5.076-6.757.109,1.617.986,3.4.4,5.1.508,1.9.124,2.105.291,1.455,2.046-1.1,2.963-2.145,5.945-3.277,8.9a14.2,14.2,0,0,0-1.268,4.629c1.876-4.984,3.742-9.972,5.637-14.949.362-.95.109-1.269-.891-1.238" transform="translate(-20.84 -107.929)" fill="#e9e9e9"/>
    <path id="Trazado_128463" data-name="Trazado 128463" d="M316.214,180.2c.714,1.862,1.261,3.787,2.077,5.608a25.786,25.786,0,0,1,.807,3.364,51.48,51.48,0,0,0,.849-11.833,3.017,3.017,0,0,1-2.2.507c-2.235.073-2.358.214-1.538,2.353" transform="translate(-192.481 -108.107)" fill="#e9e9e8"/>
    <path id="Trazado_128464" data-name="Trazado 128464" d="M313.667,178.329c1.368,3.548,2.7,7.108,4.053,10.664a25.723,25.723,0,0,0-.807-3.364c-.815-1.822-1.363-3.746-2.077-5.608-.821-2.139-.7-2.281,1.537-2.353a3.019,3.019,0,0,0,2.2-.507c-1.357-.034-2.715-.036-4.069-.11-1.094-.061-1.172.4-.834,1.279" transform="translate(-191.103 -107.927)" fill="#e9e9e8"/>
    <path id="Trazado_128465" data-name="Trazado 128465" d="M29.936,121.019a2.668,2.668,0,1,0-2.719-2.49,2.723,2.723,0,0,0,2.719,2.49" transform="translate(-16.588 -70.521)" fill="#4f2821"/>
    <path id="Trazado_128466" data-name="Trazado 128466" d="M306.5,343.2a2.578,2.578,0,0,0,2.717,2.613,2.616,2.616,0,1,0-.188-5.227A2.577,2.577,0,0,0,306.5,343.2" transform="translate(-186.845 -207.624)" fill="#4d251e"/>
    <path id="Trazado_128467" data-name="Trazado 128467" d="M147.45,333.034c.352-.016.711.029,1.066.032.335-.055.67-.123,1-.213h0c-2.859.153-5.747-.474-8.581.328,2.165-.318,4.342-.044,6.511-.146" transform="translate(-85.917 -202.852)" fill="#e9e9e9"/>
    <path id="Trazado_128468" data-name="Trazado 128468" d="M148.517,333.469c-.355,0-.714-.048-1.066-.032-2.169.1-4.347-.171-6.511.146,2.52-.174,5.065.294,7.577-.114" transform="translate(-85.917 -203.256)" fill="#e9e9e9"/>
    <path id="Trazado_128469" data-name="Trazado 128469" d="M162.92,332.992h0" transform="translate(-99.315 -202.992)" fill="#e9e9e9"/>
    <path id="Trazado_128470" data-name="Trazado 128470" d="M162.924,332.992h0" transform="translate(-99.319 -202.992)" fill="#e9e9e9"/>
    <path id="Trazado_128471" data-name="Trazado 128471" d="M165.475,367.715c-8.5.08-17,.038-25.5.038-9.732,0-19.464.037-29.195-.038-1.569-.012-1.995.452-1.914,1.959a63.886,63.886,0,0,1,0,6.809c-.077,1.444.339,1.861,1.819,1.85,9.147-.071,18.3-.036,27.443-.036s18.3-.036,27.443.036c1.483.012,1.893-.411,1.817-1.852a63.884,63.884,0,0,1,0-6.809c.082-1.511-.351-1.972-1.916-1.957" transform="translate(-66.361 -224.16)" fill="#b4a09b"/>
    <path id="Trazado_128472" data-name="Trazado 128472" d="M253.322,279.06c-1.155,0-1.567.284-1.565,1.512a11.761,11.761,0,0,0,11.538,11.768c2.786.044,5.573.007,8.359.008s5.573.026,8.359,0a11.756,11.756,0,0,0,11.772-11.738c.02-1.183-.324-1.553-1.528-1.549q-18.468.059-36.936,0" transform="translate(-153.471 -170.114)" fill="#fb8b29"/>
    <path id="Trazado_128473" data-name="Trazado 128473" d="M33.344,279.058c-6.091,0-12.182.008-18.273-.008-.967,0-1.7-.068-1.725,1.347a11.767,11.767,0,0,0,11.4,11.908c5.637.076,11.275.055,16.912.011a11.726,11.726,0,0,0,11.713-11.388c.07-1.38-.2-1.932-1.758-1.909-6.09.093-12.182.038-18.273.038" transform="translate(-8.135 -170.09)" fill="#fb8b29"/>
    <path id="Trazado_128474" data-name="Trazado 128474" d="M180.308,238.19c1.728.066,2-.626,1.993-2.148-.061-9.473-.031-18.946-.031-28.419V180.176c0-3.142-.006-3.017-3.227-3.179-1.9-.1-2.2.618-2.192,2.307.054,18.492.02,36.984.045,55.476.005,3.77-.7,3.252,3.412,3.41" transform="translate(-107.809 -107.892)" fill="#b4a09b"/>
    <path id="Trazado_128475" data-name="Trazado 128475" d="M46.387,209.559c1.836,3.273,3.382,6.718,5.743,9.68H64.257L53.5,189.913l-7.115,19.646" transform="translate(-28.278 -115.771)" fill="#e9e9e9"/>
    <path id="Trazado_128476" data-name="Trazado 128476" d="M275.517,219.25h9.78c1.886-3.432,3.915-6.784,5.6-10.33.4-.84.4-1.934,1.346-2.486l-5.973-16.528L275.517,219.25" transform="translate(-167.956 -115.768)" fill="#e9e9e9"/>
    <path id="Trazado_128477" data-name="Trazado 128477" d="M219.762,159.04c13.239-.1,26.479-.037,39.718-.078.965,0,2.5.734,2.476-1.378-.026-1.975-1.459-1.28-2.376-1.287-6.814-.05-13.629-.027-20.443-.027H216.1c.738,1.937,1.652,2.785,3.663,2.77" transform="translate(-131.734 -95.21)" fill="#6a4e5a"/>
    <path id="Trazado_128478" data-name="Trazado 128478" d="M36.008,156.4c-.26,0-.52.016-.778,0-.842-.05-1.069.384-1.149,1.174-.167,1.628.836,1.555,1.948,1.554,13.494-.015,26.989-.049,40.482.034,1.995.012,2.653-1.086,3.412-2.679-.62-.035-1.054-.08-1.487-.08q-21.214-.005-42.428,0" transform="translate(-20.764 -95.34)" fill="#6a4e5a"/>
    <path id="Trazado_128479" data-name="Trazado 128479" d="M172.4,135.964c-.433-.631-.8-.49-1.176.059-2.322,3.383-4.65,6.762-7.082,10.3h15.386c-2.467-3.583-4.8-6.969-7.128-10.357" transform="translate(-100.059 -82.631)" fill="#fb8b29"/>
    <path id="Trazado_128480" data-name="Trazado 128480" d="M148.054,349.635c4.275.047,8.551.026,12.827.026,4.47,0,8.941.013,13.411-.018.5,0,1.433.349,1.384-.5-.046-.8-.106-1.916-1.275-2.147a8.134,8.134,0,0,0-1.551-.04q-11.759,0-23.517,0c-.388,0-.778.017-1.166,0-1.415-.063-1.555,1.108-1.644,1.984-.123,1.2.98.695,1.531.7" transform="translate(-89.315 -211.492)" fill="#6a4e5a"/>
    <path id="Trazado_128481" data-name="Trazado 128481" d="M261.225,100.618a2.64,2.64,0,0,0,2.844-2.521,2.666,2.666,0,0,0-5.329-.157,2.622,2.622,0,0,0,2.485,2.678" transform="translate(-157.727 -58.162)" fill="#4e2620"/>
    <path id="Trazado_128482" data-name="Trazado 128482" d="M158.874,45.544a15.949,15.949,0,1,0-15.906-15.875,16.074,16.074,0,0,0,15.906,15.875m6.6-22.82a2.853,2.853,0,1,1-2.7,2.8,2.857,2.857,0,0,1,2.7-2.8M149.5,25.4a2.787,2.787,0,1,1,2.644,3.03A2.851,2.851,0,0,1,149.5,25.4m.374,7.389a2.669,2.669,0,0,1,3.53.342c2.733,2.336,8.271,2.328,11,.05,1.387-1.156,2.944-1.178,3.959-.055s.927,2.69-.389,3.975c-2.537,2.476-5.761,3.013-9.109,3.1-3.4-.1-6.61-.684-9.1-3.209-1.381-1.4-1.309-3.261.108-4.207" transform="translate(-87.154 -8.319)" fill="#fecd56"/>
    <path id="Trazado_128483" data-name="Trazado 128483" d="M167.933,69.277c3.348-.091,6.572-.629,9.109-3.1,1.317-1.285,1.416-2.839.39-3.975s-2.572-1.1-3.959.055c-2.733,2.277-8.271,2.286-11-.05a2.67,2.67,0,0,0-3.53-.342c-1.418.947-1.489,2.808-.108,4.207,2.492,2.525,5.707,3.112,9.1,3.209" transform="translate(-96.216 -37.395)" fill="#4c241d"/>
    <path id="Trazado_128484" data-name="Trazado 128484" d="M162.344,42.6a2.855,2.855,0,1,0-2.644-3.03,2.86,2.86,0,0,0,2.644,3.03" transform="translate(-97.351 -22.493)" fill="#4e261d"/>
    <path id="Trazado_128485" data-name="Trazado 128485" d="M196.489,42.6a2.853,2.853,0,1,0-2.781-2.9,2.85,2.85,0,0,0,2.781,2.9" transform="translate(-118.084 -22.491)" fill="#4e261d"/>
  </g>
</svg>
