<svg id="Grupo_136049" data-name="Grupo 136049" xmlns="http://www.w3.org/2000/svg" xmlns:xlink="http://www.w3.org/1999/xlink" width="136.46" height="141.395" viewBox="0 0 136.46 141.395">
  <defs>
    <clipPath id="clip-path">
      <rect id="Rectángulo_36249" data-name="Rectángulo 36249" width="136.46" height="141.395" fill="none"/>
    </clipPath>
  </defs>
  <g id="Grupo_136048" data-name="Grupo 136048" clip-path="url(#clip-path)">
    <path id="Trazado_128486" data-name="Trazado 128486" d="M125.522,257.649c-6.481.017-12.963.049-19.444.046q-17.09-.006-34.18-.046a3.138,3.138,0,0,1-.46-2.325c-.015-6.8-.006-13.6-.01-20.4a6.208,6.208,0,0,0-.2-2.113,1.841,1.841,0,0,0-3.527,0,6.317,6.317,0,0,0-.195,2.113c0,6.8.005,13.6-.01,20.4a3.138,3.138,0,0,1-.46,2.325c-4.509.016-9.019.014-13.528.066-.867.01-1.119-.272-1.116-1.126.033-9.476-.358-18.972.131-28.422.72-13.906,11.027-25.423,24.7-28.31a5.711,5.711,0,0,1,2.243-.292c.461.341.447.884.564,1.364a18.889,18.889,0,0,0,10.238,13,3.6,3.6,0,0,1,1.267.812,1.51,1.51,0,0,1,.185.442,33.979,33.979,0,0,0,1.794,11.2c4.438,11.789,12.839,18.788,25.289,20.813,4.343.706,3.829.689,3.847-3.388.014-3.092,0-6.185,0-9.277a8.911,8.911,0,0,1,.167-2.117,5.31,5.31,0,0,1,5.616-4.322,5.256,5.256,0,0,1,4.768,5.376c.027,2.65.075,5.248,1.373,7.689a11.749,11.749,0,0,0,8.085,6.124c.774.184,1.638.1,2.291.694.014,2.882,0,5.765.06,8.645.019.892-.315,1.1-1.144,1.095-4.5-.048-9-.048-13.5-.064a3.14,3.14,0,0,1-.46-2.325c-.015-6.8-.006-13.6-.01-20.4a6.208,6.208,0,0,0-.2-2.113,1.841,1.841,0,0,0-3.527,0,6.317,6.317,0,0,0-.195,2.113c0,6.8.005,13.6-.01,20.4a3.14,3.14,0,0,1-.46,2.325" transform="translate(-30.48 -116.322)" fill="#769eb5"/>
    <path id="Trazado_128487" data-name="Trazado 128487" d="M199.624,248.02a12.244,12.244,0,0,1-12.141-12.549c0-1.711.246-3.477-.92-4.97a4.784,4.784,0,0,0-5.4-1.749,5.045,5.045,0,0,0-3.414,4.89c-.028,4.263-.058,8.526.021,12.788.024,1.3-.4,1.682-1.64,1.58a32.271,32.271,0,0,1-19.163-7.808,31.7,31.7,0,0,1-10.123-16.876,27.155,27.155,0,0,1-.741-8.273c.6-.42,1.171-.085,1.738.07,10.9,2.989,21.184-2.943,24.04-13.866a3.152,3.152,0,0,1,.695-1.653,29.535,29.535,0,0,1,16.123,7.147,30.865,30.865,0,0,1,10.526,18.494,20.4,20.4,0,0,1,.409,3.458c.031,6.439,0,12.877-.007,19.316" transform="translate(-85.142 -116.369)" fill="#a1bccc"/>
    <path id="Trazado_128488" data-name="Trazado 128488" d="M148.071,113.483c-.744,7.82-7.98,15.283-15.71,16.445a23.927,23.927,0,0,1-10.763-1q-.031-.121-.053-.243a2.442,2.442,0,0,1-.412-1.733c-.008-4.005-.021-8.011.005-12.017.012-1.867.206-2.037,2.069-2.24a23.7,23.7,0,0,0,12.885-4.96,24.644,24.644,0,0,1-17.9-1.433,3.613,3.613,0,0,1-1.46-1.06,29.543,29.543,0,0,1-7.639-7.021A24.007,24.007,0,0,1,104.5,83.766c.018-1.162,0-2.325,0-3.488a2.852,2.852,0,0,1-.476-2c0-3.366-.027-6.731.008-10.094a16.453,16.453,0,0,1,2.336-9.571,15.252,15.252,0,0,1,8.184-6.428c.761-.252,1.553-.565,2.286.1a4.474,4.474,0,0,1,.276,2.356,11.191,11.191,0,0,0,.59,4.422c-.165.589-.686.688-1.168.827-.389.112-.79.178-1.18.291-3.242.937-3.549,1.447-2.849,4.748-.218.432-.658.422-1.043.506a1.9,1.9,0,0,0-1.6,1.615A2.127,2.127,0,0,0,110.9,69.1c.458.364,1.186.4,1.361,1.114-.046,1.164-.1,2.331-.036,3.494.047.874-.384,1.932.519,2.555,1.229.849,2.364,1.975,4.05,1.867a3.965,3.965,0,0,0,2.4-.826,6.808,6.808,0,0,1,.6-.462,2.858,2.858,0,0,1,3.957.449,2.77,2.77,0,0,1-.336,3.851,9.58,9.58,0,0,1-8.238,2.611c-.535-.1-1.212-.542-1.586-.164-.479.481.092,1.128.269,1.673a21.2,21.2,0,0,0,3.815,6.522,13.133,13.133,0,0,1,1.978,2.673c-.467,3.41,1.024,4.461,4.031,2.965.18-.089-.047.047.15-.011a35.35,35.35,0,0,1,3.939,1.6,24.155,24.155,0,0,0,19.761-1.3c.813-.4.817-.394,1.441-.093a21.712,21.712,0,0,1-6.992,6.817,1.7,1.7,0,0,0-.95,1.692c.056,1.921.069,3.846,0,5.766-.038,1.017.329,1.289,1.3,1.275a20.858,20.858,0,0,1,5.735.312" transform="translate(-60.639 -30.247)" fill="#f5b88c"/>
    <path id="Trazado_128489" data-name="Trazado 128489" d="M130.183,104.455c-1.306-1.788-2.846-3.391-4.032-5.281a21.844,21.844,0,0,1-2.452-5.519c-.083-.285-.322-.585-.113-.855.3-.39.672-.045.962.058,3.271,1.171,6.144.226,8.83-1.648a2.617,2.617,0,0,0,.795-3.932c-.968-1.146-2.474-1.109-3.873.1a4.391,4.391,0,0,1-5.161.377,7.665,7.665,0,0,0-2.172-1.36.581.581,0,0,1-.362-.417c.1-1.989-.455-4.011.286-5.968.68-.481,1.393-.135,2.056-.012,4.446.826,7.856-1.285,11.075-3.884a1.671,1.671,0,0,0,.286-2.455,1.957,1.957,0,0,0-2.59-.566c-1.161.513-2.136,1.356-3.25,1.965a7.077,7.077,0,0,1-5.71.741c-.623-.194-1.294-.322-1.6-1.019a2.848,2.848,0,0,1,.809-4.434,24.951,24.951,0,0,1,4.467-1.314c.977-.241,2-.014,2.974-.272a19.665,19.665,0,0,1,6.079,1.8A7.857,7.857,0,0,0,140,71.589c.94.486,2.253.4,2.647,1.727-.506,1.829.38,2.92,1.858,3.859a17.33,17.33,0,0,0,6.293,2.861,11.688,11.688,0,0,0,6.22-.817,2.372,2.372,0,0,0,1.527-1.583,1.922,1.922,0,0,0-2.351-2.3c-1,.142-1.932.621-2.944.7-1.977.155-3.826-.126-5.191-1.783.156-.77.819-.647,1.33-.713a15.253,15.253,0,0,0,8.51-3.672c.928-.836,1.574-.548,2.238.349a21.855,21.855,0,0,1,4.219,9.963c.208,3.241.074,6.482.082,9.722a2.008,2.008,0,0,1-.461,1.412c.251,5.822-.852,11.286-4.26,16.142-1.5.614-2.976,1.277-4.493,1.834-7.224,2.653-14.143,1.723-20.822-1.844.087-1.039.7-1.238,1.578-.962a7.29,7.29,0,0,1,1.643.779,3.444,3.444,0,0,0,3.99-.02c1.4-.911,2.673-1.191,4.042.216a1.851,1.851,0,0,0,2.726-.161,1.978,1.978,0,0,0,.018-2.763,18.86,18.86,0,0,0-2.453-2.477,2.1,2.1,0,0,0-2.679-.233c-2.437,1.672-4.77,1.8-7.24.04-1.091-.776-2.178-.342-3.164.524-.843.741-1.363,1.929-2.678,2.064" transform="translate(-71.379 -40.086)" fill="#f8ccad"/>
    <path id="Trazado_128490" data-name="Trazado 128490" d="M104.248,23.232c-4.592.518-7.783,3.117-10.158,6.887a14.62,14.62,0,0,0-2.059,8.568c-.418.148-.53-.2-.636-.446a6.038,6.038,0,0,0-3.59-3.437.926.926,0,0,1-.626-.6c-1.669-3-3.393-5.952-4.123-9.391C81,15.135,87.616,4.247,96.885,2.183c1.081-.29,1.225.552,1.291,1.216a13.664,13.664,0,0,0,5.549,9.585A2.241,2.241,0,0,1,104.6,14.2a76.837,76.837,0,0,1,.1,7.8,1.552,1.552,0,0,1-.448,1.233" transform="translate(-48.203 -1.238)" fill="#656b76"/>
    <path id="Trazado_128491" data-name="Trazado 128491" d="M259.045,188.969c.139,1.214-.605,3.012.29,4.03.816.928,2.552,1.049,3.885,1.52.477.169.975.288,1.439.485a2.388,2.388,0,0,1,1.517,3.19c-.452,1.5-.924,3-1.487,4.467a1.7,1.7,0,0,0,.484,2.24c.969.81,1.808,1.776,2.707,2.67a2.523,2.523,0,0,1,.575,3.181c-.772,1.54-1.513,3.1-2.331,4.613a2.37,2.37,0,0,1-3.326,1.145,2.43,2.43,0,0,1-1.037-3.259c.445-1.158,1.74-2.227,1.33-3.4-.364-1.038-1.547-1.841-2.479-2.617a3.423,3.423,0,0,1-1.056-4.574c.43-.909.615-1.93.993-2.868.308-.765.065-1.067-.678-1.278-1.265-.36-2.5-.812-3.753-1.224a2.579,2.579,0,0,1-1.952-2.734c.025-1.522,0-3.044,0-4.566,0-2.423,0-2.423-2.5-2.423-.71,0-1.421-.01-2.131,0a2.52,2.52,0,0,1-2.632-1.876c-.377-1.1-.783-2.2-1.079-3.322-.258-.98-.711-1.065-1.5-.572a7.413,7.413,0,0,1-1.506.717,2.28,2.28,0,0,1-2.966-1.142,2.209,2.209,0,0,1,.753-3.074,56.19,56.19,0,0,1,5.573-2.776,2.3,2.3,0,0,1,3.007,1.6,30.107,30.107,0,0,1,1.282,3.892c.3,1.307.9,1.865,2.284,1.706a26.37,26.37,0,0,1,3.5-.023c1.884.037,2.753.922,2.788,2.833.02,1.065,0,2.131,0,3.433" transform="translate(-139.646 -102.233)" fill="#656b76"/>
    <path id="Trazado_128492" data-name="Trazado 128492" d="M32.233,191.721c-.092,5.308.253,4.855-4.8,6.539-1.981.66-1.984.668-1.33,2.607,1.658,4.916,1.924,4.123-1.871,7.79-1.034,1-1.385,1.809-.515,3.039a7.508,7.508,0,0,1,.925,1.91,2.241,2.241,0,0,1-1.173,2.947,2.147,2.147,0,0,1-3.061-.779,58.912,58.912,0,0,1-2.736-5.423,2.26,2.26,0,0,1,.65-2.633c.923-.942,1.822-1.914,2.808-2.787a1.625,1.625,0,0,0,.528-2.1c-.533-1.311-.935-2.676-1.375-4.023-.724-2.212-.232-3.2,1.942-3.942,1.342-.457,2.67-.962,4.032-1.349a1.194,1.194,0,0,0,1.011-1.4c-.05-2.181-.035-4.363-.011-6.544.02-1.907.9-2.781,2.79-2.827.558-.014,1.116,0,1.674,0,3.53,0,3.53,0,4.658-3.416,1.48-4.482,2.015-4.708,6.222-2.613.907.452,1.822.889,2.7,1.387a2.423,2.423,0,1,1-2.122,4.354c-2.366-.974-2.364-.974-3.215,1.563-.226.672-.441,1.348-.7,2.005a2.373,2.373,0,0,1-2.212,1.581c-.3.018-.61-.008-.913.013-1.3.09-3.083-.579-3.764.282-.637.8-.136,2.509-.136,3.818" transform="translate(-10.185 -102.281)" fill="#656b76"/>
    <path id="Trazado_128493" data-name="Trazado 128493" d="M124.09,12.534c-3.647-2.47-6-5.748-6.39-10.248-.055-.628-.192-1.214-.959-1.341a10.032,10.032,0,0,1,4.112-.812c5.207-.028,10.427-.4,15.618.235a20.634,20.634,0,0,1,8.048,2.414c-.85,4.391-.289,8.831-.451,13.247a5.93,5.93,0,0,1-.166,1.65,1.979,1.979,0,0,1-2.121,1.066,7.443,7.443,0,0,1-3.054-.58,2.778,2.778,0,0,1-.438-2.021c-.023-1.873.006-3.746-.015-5.619a2.765,2.765,0,0,0-.592-1.988,1.9,1.9,0,0,0-3.3,1.1c-.178,1.41-.045,2.832-.086,4.248a4.852,4.852,0,0,1-.273,2.236,1.042,1.042,0,0,1-1.239.265c-1.35-.48-2.871-.568-3.962-1.664-.464-1.166-.193-2.389-.259-3.586a7.372,7.372,0,0,0-.146-1.8,1.848,1.848,0,0,0-2.028-1.452,1.918,1.918,0,0,0-1.8,1.746c-.208.961.254,2.037-.5,2.9" transform="translate(-68.06 0)" fill="#7b818d"/>
    <path id="Trazado_128494" data-name="Trazado 128494" d="M168.784,38.4c.936.106,1.87.24,2.809.309a2.195,2.195,0,0,0,2.063-.6c.383-.078.531.223.7.458a1.975,1.975,0,0,0,2.234.882,2.02,2.02,0,0,0,1.51-1.715,2.682,2.682,0,0,1,.327-1,8.784,8.784,0,0,1,11.9,1.314,9.525,9.525,0,0,0,7.79,3.962c.474,0,1.193-.11,1.177.765l-3.428,11.781a1.049,1.049,0,0,1-.284.338,6.674,6.674,0,0,0-4.229,3.74c-.1.258-.261.891-.8.329a49.565,49.565,0,0,1-.3-5.286,18.442,18.442,0,0,0-3.528-9.388c-.652-.961-1.114-1.126-2.136-.377a15.878,15.878,0,0,1-14.194,2.8c-.775-.213-1.6-.377-1.943-1.272a34.464,34.464,0,0,1-.12-5.969,1.327,1.327,0,0,1,.45-1.069" transform="translate(-98.097 -20.388)" fill="#656b76"/>
    <path id="Trazado_128495" data-name="Trazado 128495" d="M212.918,29.22c-.35-.516-.892-.394-1.38-.389a9.18,9.18,0,0,1-7.735-3.937,8.623,8.623,0,0,0-10.3-2.226c-.456.215-.907.442-1.359.663a1.941,1.941,0,0,1-.488-1.548q-.049-4.261,0-8.521a1.863,1.863,0,0,1,.505-1.538c.979.631,1.967,1.249,2.934,1.9a5.287,5.287,0,0,0,5.494.506c3.9-1.914,8.711-.689,11.212,3.955a13.936,13.936,0,0,1,1.112,11.137" transform="translate(-111.722 -6.836)" fill="#7b828d"/>
    <path id="Trazado_128496" data-name="Trazado 128496" d="M124.588,179.851a43.406,43.406,0,0,0,6.213,2.4,24.892,24.892,0,0,0,14.5-.852c-.693,1.229-1.076,1.6-3.867,3.216a24.08,24.08,0,0,1-10.673,3.1c-1.07.068-1.372.375-1.362,1.417.042,4.72.011,9.439.007,14.159-5.978-1.926-11.422-8.873-11.911-15.2,1.834-.6,3.729-.344,5.59-.3,1.254.029,1.527-.4,1.487-1.554-.073-2.127,0-4.258.017-6.388" transform="translate(-68.499 -104.853)" fill="#f2a168"/>
    <path id="Trazado_128497" data-name="Trazado 128497" d="M23.366,26.71c0-5.929.009-11.859-.007-17.789a2.607,2.607,0,0,1,1.385-2.65,2.386,2.386,0,0,1,3.473,2.115c.078,1.212.022,2.432.022,3.648q0,15.812,0,31.624c0,.456.024.914-.013,1.368a2.426,2.426,0,0,1-2.46,2.382,2.39,2.39,0,0,1-2.381-2.454c-.055-1.975-.018-3.953-.018-5.929q0-6.158,0-12.315" transform="translate(-13.615 -3.501)" fill="#545a63"/>
    <path id="Trazado_128498" data-name="Trazado 128498" d="M297.044,26.8c0,5.929.015,11.859-.007,17.789-.009,2.253-1.877,3.517-3.627,2.5a2.445,2.445,0,0,1-1.238-2.282q0-18.093.012-36.185a2.406,2.406,0,0,1,2.39-2.6A2.43,2.43,0,0,1,297.035,8.7c.023,6.031.009,12.062.009,18.093" transform="translate(-170.335 -3.507)" fill="#545a63"/>
    <path id="Trazado_128499" data-name="Trazado 128499" d="M295.567,302.667c-.936-.795-1.729-1.417-2.462-2.1a2.472,2.472,0,0,1-.375-3.538c.909-1.34,1.786-2.7,2.709-4.034.374-.54.367-.859-.3-1.126a11.259,11.259,0,0,1-1.753-.9,2.355,2.355,0,0,1-.957-3.152,2.279,2.279,0,0,1,3.067-1.159c1.753.782,3.483,1.633,5.159,2.569a2.32,2.32,0,0,1,.765,3.532c-.963,1.546-1.953,3.082-3.04,4.542-.6.805-.462,1.291.225,1.9a32.8,32.8,0,0,1,2.474,2.467,2.4,2.4,0,0,1-.639,4.042c-1.552.848-3.143,1.633-4.752,2.368a2.339,2.339,0,0,1-3.238-1.036,2.4,2.4,0,0,1,1.154-3.323c.517-.3,1.054-.564,1.961-1.046" transform="translate(-170.326 -166.99)" fill="#656b76"/>
    <path id="Trazado_128500" data-name="Trazado 128500" d="M18.161,302.77c.883.477,1.529.769,2.115,1.153a2.333,2.333,0,0,1,.821,3.2,2.208,2.208,0,0,1-2.98,1.075c-1.761-.774-3.5-1.625-5.172-2.569a2.349,2.349,0,0,1-.489-3.873c.851-.939,1.76-1.83,2.69-2.691a.992.992,0,0,0,.163-1.548c-1.057-1.488-2.06-3.015-3.042-4.554-1.053-1.648-.7-3,1.016-3.912q2.217-1.173,4.489-2.241a2.384,2.384,0,0,1,3.371,1.03,2.418,2.418,0,0,1-1.2,3.318c-2.178,1.266-2.178,1.266-.769,3.381.534.8,1.081,1.6,1.6,2.408.977,1.532.885,2.47-.407,3.786-.638.65-1.335,1.242-2.2,2.04" transform="translate(-6.797 -167.027)" fill="#656b76"/>
    <path id="Trazado_128501" data-name="Trazado 128501" d="M87.669,301.512q0-11.923-.006-23.845c0-1.915.911-2.949,2.51-2.9,1.522.043,2.357,1.051,2.358,2.9q.005,11.923-.006,23.845H87.669" transform="translate(-51.107 -160.185)" fill="#608da8"/>
    <path id="Trazado_128502" data-name="Trazado 128502" d="M227.907,301.512q0-11.923-.006-23.845c0-1.915.911-2.949,2.51-2.9,1.522.043,2.357,1.051,2.358,2.9q0,11.923-.006,23.845h-4.856" transform="translate(-132.865 -160.185)" fill="#608da8"/>
    <path id="Trazado_128503" data-name="Trazado 128503" d="M315.541,41.407c0-2.987-.007-5.974,0-8.961.006-1.94.873-3.032,2.394-3.059s2.47,1.089,2.473,2.981q.014,9.19,0,18.379c0,1.894-.948,3.01-2.472,2.984s-2.39-1.127-2.4-3.058c-.009-3.088,0-6.177,0-9.266" transform="translate(-183.958 -17.132)" fill="#545a63"/>
    <path id="Trazado_128504" data-name="Trazado 128504" d="M51.621,41.571c0,3.088.012,6.177,0,9.265-.01,1.8-.932,2.878-2.408,2.894s-2.451-1.069-2.455-2.845q-.021-9.341,0-18.683c0-1.76,1-2.848,2.48-2.816,1.427.03,2.367,1.084,2.38,2.767.023,3.139.007,6.278.007,9.417" transform="translate(-27.251 -17.132)" fill="#545a63"/>
    <path id="Trazado_128505" data-name="Trazado 128505" d="M268.792,40.347c0-2.683-.011-5.366,0-8.048.01-1.806.911-2.883,2.386-2.912,1.525-.03,2.475,1.086,2.479,2.974q.016,7.972,0,15.945c0,1.9-.942,3.01-2.465,2.989s-2.395-1.123-2.4-3.051c-.01-2.632,0-5.264,0-7.9" transform="translate(-156.703 -17.132)" fill="#545a63"/>
    <path id="Trazado_128506" data-name="Trazado 128506" d="M0,40.184c0-2.632-.012-5.264,0-7.9.011-1.8.921-2.878,2.4-2.9s2.459,1.061,2.464,2.834q.024,8.124,0,16.249c-.005,1.762-1,2.853-2.474,2.825S.018,50.2.008,48.384c-.015-2.733,0-5.466,0-8.2" transform="translate(0 -17.133)" fill="#545a63"/>
    <path id="Trazado_128507" data-name="Trazado 128507" d="M221.878,86.605c.924-2.218,2.3-3.942,4.824-4.4.5.477.415,1.111.423,1.7.021,1.615.042,3.231,0,4.845a7.2,7.2,0,0,0,2.55,5.9c.431.378,1.061.666.966,1.421a10.788,10.788,0,0,1-8.805,3.083q-.008-5.785-.015-11.571a.792.792,0,0,1,.057-.978" transform="translate(-129.239 -47.923)" fill="#f2a168"/>
    <path id="Trazado_128508" data-name="Trazado 128508" d="M87.973,79.035a6.932,6.932,0,0,1,4.851,4.487q.016,6.291.031,12.582a10.921,10.921,0,0,1-8.8-3.1c-.1-.689.453-.982.859-1.327a7.32,7.32,0,0,0,2.659-6.187c-.06-1.569-.018-3.143-.007-4.715a2.6,2.6,0,0,1,.376-1.746Z" transform="translate(-48.996 -46.073)" fill="#f2a168"/>
    <path id="Trazado_128509" data-name="Trazado 128509" d="M186.025,8.492q-.01,5.8-.019,11.607c.093,1.442-.344,2.623-1.859,2.995-1.5.367-2.444-.431-3.008-1.77-.006-4.15.016-8.3-.04-12.45a4.381,4.381,0,0,1,.94-2.49c2.588-.525,3.369-.112,3.985,2.108" transform="translate(-105.58 -3.603)" fill="#545a63"/>
    <path id="Trazado_128510" data-name="Trazado 128510" d="M237.634,95.914c-1.691-1.442-3.384-2.888-3.811-5.244a29.079,29.079,0,0,1-.115-4.534c-.033-1.364-.011-2.728-.013-4.093l.3-.112c5.288.057,7.918,3.4,6.707,8.554a10.623,10.623,0,0,1-3.072,5.429" transform="translate(-136.232 -47.766)" fill="#f5b88d"/>
    <path id="Trazado_128511" data-name="Trazado 128511" d="M83.238,78.988c.015,2.619.113,5.242.02,7.857a7.151,7.151,0,0,1-3.138,5.43c-.275.214-.63.325-.767.688a10.932,10.932,0,0,1-3.371-7.707c-.094-3.065,2.2-6.654,7.258-6.268" transform="translate(-44.295 -46.033)" fill="#f5b88d"/>
    <path id="Trazado_128512" data-name="Trazado 128512" d="M140.57,149.545c.844-.8,1.709-1.585,2.525-2.416,1.02-1.04,2.231-1.408,3.419-.548,2.4,1.74,4.648,1.647,7.023-.031a2.346,2.346,0,0,1,3.185.418c.762.745,1.54,1.477,2.255,2.267a2.454,2.454,0,0,1,.025,3.544,2.316,2.316,0,0,1-3.407-.066c-.945-1.058-1.789-1.146-2.826-.339-2.083,1.622-4.064,1.044-6.018-.245-.8-.527-1.491-.6-1.962.411-1.1.875-2.285,1.383-3.572.425-1.227-.914-1.09-2.154-.646-3.419" transform="translate(-81.766 -85.176)" fill="#f05574"/>
    <path id="Trazado_128513" data-name="Trazado 128513" d="M134.358,22.844c.008-.959-.03-1.92.033-2.876a2.422,2.422,0,0,1,4.837.02c.068,1.663.025,3.33.029,5,.684,1.064.437,2.259.462,3.41s.028,2.331,0,3.5c-.045,1.663.039,3.327-.031,4.989-.044,1.053-.249,2.027-1.455,2.38a3.253,3.253,0,0,1-2.851,0,3.508,3.508,0,0,1-1.022-2.875c.059-1.356.013-2.717.012-4.076q-.008-4.73-.015-9.461" transform="translate(-78.328 -10.311)" fill="#545a63"/>
    <path id="Trazado_128514" data-name="Trazado 128514" d="M119.9,79.788a7.489,7.489,0,0,0,8.4-.852c.527-.392,1.082-.751,1.642-1.094a2.5,2.5,0,0,1,3.511.5,2.4,2.4,0,0,1-.7,3.454c-3.89,3.02-8.094,4.783-13.113,3.227-.222-.111-.44-.233-.667-.333-1.583-.7-2.349-1.748-2.054-2.96.379-1.556,1.51-2.035,2.989-1.937" transform="translate(-68.125 -45.096)" fill="#656b76"/>
    <path id="Trazado_128515" data-name="Trazado 128515" d="M188.451,69.708q-.028.489-.057.978a23.879,23.879,0,0,0-4.125-9.3c-.654-.886-.938-.982-1.779-.212a14.848,14.848,0,0,1-8.908,3.715c-.349.033-.715-.039-1.012.222-.358.318-.706.076-.936-.126a4.168,4.168,0,0,0-4.821-.677c-.45-1.113-1.752-.833-2.469-1.51a4.625,4.625,0,0,0,1.733-4.537,2.016,2.016,0,0,1,.428-1.844c5.981,2.142,11.454,1.291,16.311-2.862.74-.633.95-.282,1.354.268,2.874,3.914,4.632,8.175,4.251,13.146-.07.907.017,1.825.031,2.738" transform="translate(-95.812 -31.025)" fill="#f5b88c"/>
    <path id="Trazado_128516" data-name="Trazado 128516" d="M161.99,35.7c-.009,1.113-.063,2.228-.015,3.339a2.694,2.694,0,0,1-2.145,3.042,3.268,3.268,0,0,1-2.335-.991,2.062,2.062,0,0,1-.864-1.985c-.017-1.873-.046-3.746.013-5.618-.076-1.759-.029-3.52-.027-5.279a2.428,2.428,0,0,1,.465-1.707c0-2.022-.007-4.044.014-6.065.018-1.771.969-2.8,2.508-2.752,1.467.042,2.342,1.042,2.357,2.752.022,2.628.017,5.257.024,7.885l.006,7.379" transform="translate(-91.297 -10.31)" fill="#545a63"/>
    <path id="Trazado_128517" data-name="Trazado 128517" d="M169.846,78.363c1.482-1.289,2.381-1.359,4-.315.584.377,1.174.746,1.761,1.118a6.951,6.951,0,0,0,7.142.943c1.8-.707,3.1-.242,3.659,1.233.5,1.326-.205,2.615-1.867,3.284a11.677,11.677,0,0,1-11.014-.957c-.817-.5-1.6-1.063-2.392-1.6-1.652-1.125-1.881-1.791-1.285-3.7" transform="translate(-98.845 -45.08)" fill="#656b76"/>
    <path id="Trazado_128518" data-name="Trazado 128518" d="M182.6,118.152a11,11,0,0,1-6.457-2.657,2.481,2.481,0,0,1-.274-3.535,2.517,2.517,0,0,1,3.428-.258c2.727,1.945,3.99,1.949,6.562.015a2.519,2.519,0,0,1,3.432.223,2.479,2.479,0,0,1-.241,3.537,10.992,10.992,0,0,1-6.449,2.675" transform="translate(-102.17 -64.8)" fill="#f5b88d"/>
    <path id="Trazado_128519" data-name="Trazado 128519" d="M156.37,111.184c2.037-.046,3.233,1.539,2.7,3.194a5.917,5.917,0,0,1-.658,1.364c-.852,1.322-1.252,2.442.256,3.749.958.83.726,2.158-.168,3.146a2.386,2.386,0,0,1-3.3.175,29.1,29.1,0,0,1-2.787-2.786,2.221,2.221,0,0,1-.318-2.556c.816-1.683,1.66-3.353,2.5-5.022a2.187,2.187,0,0,1,1.772-1.263" transform="translate(-88.517 -64.819)" fill="#f5b88d"/>
    <path id="Trazado_128520" data-name="Trazado 128520" d="M149.507,53.668c.013,1.763.048,3.526.03,5.289a5.038,5.038,0,0,0,.413,2.2,46.838,46.838,0,0,0-6.29-1.834,3.468,3.468,0,0,0,1.03-2.74c-.049-1.465.017-2.933.033-4.4a5.935,5.935,0,0,1,4.785,1.483" transform="translate(-83.753 -30.376)" fill="#f5b88c"/>
    <path id="Trazado_128521" data-name="Trazado 128521" d="M131.078,99.5a2.429,2.429,0,1,1-2.5,2.316,2.418,2.418,0,0,1,2.5-2.316" transform="translate(-74.96 -58.006)" fill="#666c76"/>
    <path id="Trazado_128522" data-name="Trazado 128522" d="M189.46,104.352a2.428,2.428,0,1,1,2.408-2.41,2.419,2.419,0,0,1-2.408,2.41" transform="translate(-109.028 -58.007)" fill="#666c76"/>
    <path id="Trazado_128523" data-name="Trazado 128523" d="M115.855,22.626c0,.859.052,1.723-.012,2.578a2.327,2.327,0,0,1-2.416,2.221,2.294,2.294,0,0,1-2.417-2.213c-.074-1.766-.073-3.541,0-5.308a2.3,2.3,0,0,1,2.41-2.221,2.325,2.325,0,0,1,2.423,2.213c.067.905.013,1.819.013,2.73" transform="translate(-64.686 -10.309)" fill="#545a63"/>
    <path id="Trazado_128524" data-name="Trazado 128524" d="M150.937,43.806a36.072,36.072,0,0,0-4.785-1.483q-.02-3.567-.04-7.135a25.535,25.535,0,0,0,4.854,1.52q-.015,3.549-.03,7.1" transform="translate(-85.183 -20.515)" fill="#656b76"/>
  </g>
</svg>
