<svg id="Grupo_136045" data-name="Grupo 136045" xmlns="http://www.w3.org/2000/svg" xmlns:xlink="http://www.w3.org/1999/xlink" width="160.367" height="162.873" viewBox="0 0 160.367 162.873">
  <defs>
    <clipPath id="clip-path">
      <rect id="Rectángulo_36247" data-name="Rectángulo 36247" width="160.367" height="162.873" fill="none"/>
    </clipPath>
  </defs>
  <g id="Grupo_136045-2" data-name="Grupo 136045" clip-path="url(#clip-path)">
    <path id="Trazado_128420" data-name="Trazado 128420" d="M89.658,162.957a2.751,2.751,0,0,1-3.045,1.777c-1.083-.1-1.6.236-1.421,1.384a3.117,3.117,0,0,1,0,.951c-.225,1.421.135,2.1,1.8,1.965a2.277,2.277,0,0,1,2.713,2.387,2.329,2.329,0,0,1-2.721,2.563c-1.681-.111-1.921.582-1.807,1.991s.041,2.857.021,4.287a2.785,2.785,0,0,1-2.779,3.006c-1.532.07-3.334-.464-4.529.178-1.118.6-.7,2.657-1.336,3.981a10.807,10.807,0,0,1-7.152,6.031c-.282.078-.659-.06-.809.337H64.456c-.159-.459-.617-.349-.937-.46a10.38,10.38,0,0,1-7.418-8.663c-.175-1.124-.515-1.521-1.658-1.409a24.51,24.51,0,0,1-3.492.009,2.3,2.3,0,0,1-2.5-2.474c-.073-1.851-.085-3.709-.008-5.559.042-1.017-.317-1.316-1.272-1.217a5.834,5.834,0,0,1-1.739-.069,2.507,2.507,0,0,1,.17-4.939,4.826,4.826,0,0,1,.634-.025c2.184-.06,2.184-.06,2.184-2.159,0-1.954,0-1.954-2.3-2.082-1.834-.1-2.737-.984-2.688-2.623.046-1.546.951-2.333,2.739-2.383,2.267-.063,2.211-.064,2.256-2.279a8.616,8.616,0,0,0-3.854-7.547c-11.627-8.621-16.8-20.339-15.639-34.632.885-10.895,6.191-19.617,14.74-26.379.456-.36.914-.717,1.371-1.075C46,86.373,47.575,85.758,49,85a35.051,35.051,0,0,1,12.021-3.934,2.284,2.284,0,0,0,2.284-2.229,12.522,12.522,0,0,1,8.516-10.2,1.467,1.467,0,0,0,1.2-1.7A13.566,13.566,0,0,1,84.84,52.888a8.8,8.8,0,0,1,4.078.39,1.354,1.354,0,0,0,1.906-.821A12.791,12.791,0,0,1,110.807,48.6c1.361,1.242,1.4,1.2,2.7-.018a12.5,12.5,0,0,1,18.907,2.653,9.957,9.957,0,0,1,.743,1.4,1.766,1.766,0,0,0,2.126,1.153,12.375,12.375,0,0,1,12.989,7.423,12.13,12.13,0,0,1,1.148,4.273,1.95,1.95,0,0,0,1.376,1.879c5.48,2.2,8.3,6.384,8.757,12.171a11.629,11.629,0,0,1-1.3,6.149c-1.22,2.428-1.222,2.443.754,4.4a13.294,13.294,0,0,1,3.868,7.484,12.9,12.9,0,0,1-2.676,10.294,2.994,2.994,0,0,0-.486,3.431,13.474,13.474,0,0,1-7.66,18.022c-1.255.49-1.317,1.3-1.318,2.353a13.1,13.1,0,0,1-4.992,10.536,11.641,11.641,0,0,1-10.545,2.537,1.893,1.893,0,0,0-2.489,1.165,12.45,12.45,0,0,1-17.641,4.783,7.636,7.636,0,0,1-1.936-1.631c-.761-.883-1.374-.836-2.235-.045a12.432,12.432,0,0,1-12.359,3.06,10.725,10.725,0,0,1-5.137-3.038,1.39,1.39,0,0,0-2.286-.094c-.828.741-1.75,1.373-2.615,2.073-2.3,1.862-2.982,4.4-2.941,7.225.018,1.218.924,1.053,1.7,1.13,2.212.221,3.056,1.49,2.4,3.585" transform="translate(-19.602 -30.921)" fill="#193651"/>
    <path id="Trazado_128421" data-name="Trazado 128421" d="M124.432,132.036c.054-2.513-.574-3.213-3.146-3.189-1.052.01-1.3-.3-1.346-1.332-.156-3.687,1.071-6.616,4.228-8.68.97-.634,1.746-1.9,2.745-2.064,1.049-.176,1.641,1.355,2.539,2.031a12.233,12.233,0,0,0,16.428-1.531c.652-.68.908-.809,1.633-.036a12.021,12.021,0,0,0,19.975-3.068c.46-.949.741-1.312,1.917-.929,6.479,2.108,13.762-2.4,15.36-9.386a13.945,13.945,0,0,0,.3-4.421c-.066-.711.115-.956.832-1.191a13.153,13.153,0,0,0,7.938-18.449,1.844,1.844,0,0,1,.316-2.446,12.994,12.994,0,0,0-2.128-19.176c-.948-.685-.854-1.065-.284-1.916A13.038,13.038,0,0,0,185.1,36.726a1.6,1.6,0,0,1-1.3-1.755,12.291,12.291,0,0,0-14.586-11.553c-.982.175-1.031-.348-1.286-.9-2.495-5.43-7.287-8.226-13.028-7.541a11.44,11.44,0,0,0-7.275,3.855c-.64.708-.924.614-1.55-.028-6.366-6.527-16.406-4.836-20.348,3.407-.314.656-.413,1.106-1.424.772-7.048-2.324-14.681,2.53-15.844,10a9.77,9.77,0,0,0-.134,3.789c.172.724-.146.9-.74,1.078-5.664,1.7-8.617,5.639-9.3,11.4-.08.683-.2,1-.971,1.086a39.077,39.077,0,0,0-17.5,6.578l1.6-7.573A10.235,10.235,0,0,0,81.8,47.1c.778-.14.7-.869.864-1.366A65.843,65.843,0,0,1,94.988,24.124,67.356,67.356,0,0,1,117.2,6.818,66.55,66.55,0,0,1,138.349.606,65.238,65.238,0,0,1,150.038.081a68.582,68.582,0,0,1,23.153,5.281,66.547,66.547,0,0,1,15.623,9.269A69.018,69.018,0,0,1,205.54,33.909a68.2,68.2,0,0,1,7.6,19.564,65.355,65.355,0,0,1,1.487,18.237,67.554,67.554,0,0,1-7.951,28.26,69.125,69.125,0,0,1-17.695,21.1,66.418,66.418,0,0,1-20.164,11.1,69.635,69.635,0,0,1-16.673,3.4,68.453,68.453,0,0,1-27.71-3.54" transform="translate(-54.376 0)" fill="#e0e5e8"/>
    <path id="Trazado_128422" data-name="Trazado 128422" d="M0,265.206c0-2.644,0-2.644,2.617-2.644,2.418,0,2.418,0,2.417,2.716,0,2.591,0,2.591-2.411,2.591-2.623,0-2.623,0-2.623-2.663" transform="translate(0 -178.867)" fill="#1b3853"/>
    <path id="Trazado_128423" data-name="Trazado 128423" d="M20.031,329.469c.485-.031.572.247.7.466.638,1.095,1.251,2.2,1.914,3.284.3.483.2.774-.278,1a2.624,2.624,0,0,0-.272.162c-3.413,2.171-4.292,1.859-5.749-2.046-.067-.18-.167-.514-.108-.551,1.289-.814,2.6-1.6,3.793-2.318" transform="translate(-11.05 -224.445)" fill="#1a3752"/>
    <path id="Trazado_128424" data-name="Trazado 128424" d="M73.044,142.18c.561.861.86,1.678-.376,2.237a1.323,1.323,0,0,0-.3.079c-1.013.544-2.547,1.794-2.931,1.507-1.011-.757-1.489-2.205-2.245-3.333-.425-.633-.2-.932.375-1.2.237-.109.453-.264.683-.391,1-.556,2.074-1.621,2.988-1.5.7.093,1.211,1.677,1.806,2.6" transform="translate(-45.624 -95.083)" fill="#1a3751"/>
    <path id="Trazado_128425" data-name="Trazado 128425" d="M22.7,193.156c-.761,1.306-1.271,2.95-2.384,3.846-.863.694-1.933-.791-2.923-1.265-.487-.234-1.542-.382-1.244-1.115a32.336,32.336,0,0,1,2.158-3.863c.026-.044.072-.113.106-.111,1.382.069,2.3,1.127,3.464,1.658.333.152.846.256.824.851" transform="translate(-10.964 -129.876)" fill="#1a3752"/>
    <path id="Trazado_128426" data-name="Trazado 128426" d="M298.322,114.552c0-.963,0-1.532,0-2.1q-.028-22.336-.043-44.673c0-2.685,1.664-4.416,3.857-5.585a6.63,6.63,0,0,1,7.337.551,8.8,8.8,0,0,1,3.519,5.122c.773,2.927,1.824,3.411,4.575,2.182,4.5-2.01,10.316,1.176,10.116,6.217-.214,5.375-1.42,10.839-6.86,13.923a12.212,12.212,0,0,1-5.124,1.53c-1.792.145-2.561.954-2.5,2.589.061,1.576.932,2.293,2.782,2.293,6.711,0,13.419-5.314,15.29-12.261.389-1.443.829-1.646,2.12-1,4.965,2.487,5.836,9.909,1.527,13.447a10.708,10.708,0,0,1-1.149.85,2.438,2.438,0,0,0-1.367,2.634,2.7,2.7,0,0,0,2.405,2.221,7.607,7.607,0,0,1,5.358,3.611,7.993,7.993,0,0,1-1.818,10.558,6.044,6.044,0,0,1-2.845.845c-5.839,1.133-10.548,3.983-13.714,9.121a10.337,10.337,0,0,0-1.588,5.419c-.013,1.783.744,2.81,2.184,2.947a2.563,2.563,0,0,0,2.8-2.607c.15-2.725,1.583-4.652,3.491-6.35a16.577,16.577,0,0,1,7.809-3.676,1.267,1.267,0,0,1,1.523.776c2.638,4.552-.271,10.915-5.421,11.8a3.028,3.028,0,0,1-1.57-.07,2.261,2.261,0,0,0-2.7.774,2.544,2.544,0,0,0-.282,2.94,8.031,8.031,0,0,1-1.871,9.706,6.6,6.6,0,0,1-6.336,1.582,2.937,2.937,0,0,1-2.438-2.312,12.938,12.938,0,0,0-11.461-9.306,2.6,2.6,0,0,0-3.05,2.311c-.13,1.551.86,2.6,2.611,2.713a7.732,7.732,0,0,1,6.116,3.5c2.264,3.279,1.179,7.628-2.372,9.892a7.236,7.236,0,0,1-10.087-2.449,5.24,5.24,0,0,1-.894-2.824c.05-8.426.231-16.856,0-25.275a10.055,10.055,0,0,1,9.47-10.166c2.063-.136,3.095-1.128,2.916-2.728-.185-1.646-1.371-2.365-3.4-2.194a15.663,15.663,0,0,0-4.631,1,20.44,20.44,0,0,0-4.291,2.519" transform="translate(-203.18 -41.785)" fill="#2ea1da"/>
    <path id="Trazado_128427" data-name="Trazado 128427" d="M97.606,258.862c-.024-3.119-.063-6.238-.069-9.357q-.017-8.582,0-17.164c0-2.486-.155-2.172,2.1-2.135a9.327,9.327,0,0,0,5.844-1.65,8.122,8.122,0,0,0,3.143-9.119,8.037,8.037,0,0,0-7.58-5.5,8.514,8.514,0,0,0-8.068,5.836,11.27,11.27,0,0,0-.369,4.09c.043.991-.2,1.479-1.3,1.4-1.316-.1-2.913.372-3.888-.224-1.022-.625-.322-2.34-.44-3.57a8.5,8.5,0,0,0-8.754-7.527,7.909,7.909,0,0,0-7.585,7.69,8.4,8.4,0,0,0,7.737,8.541c1.094.075,2.524-.486,3.2.285.7.805.223,2.231.225,3.382.008,5.3-.023,10.592-.04,15.888-.673.046-.7-.541-.854-.936a17.326,17.326,0,0,0-6.33-7.979,30.085,30.085,0,0,1-7.578-7.831,27.235,27.235,0,0,1,19.936-41.621,27.052,27.052,0,0,1,29.194,21.466c2.092,10.966-1.382,20.081-10.144,27.024a23.742,23.742,0,0,0-6.77,7.66,8.816,8.816,0,0,0-1.062,4.422c.059,1.747.038,3.5,0,5.246-.013.594.188,1.3-.539,1.682" transform="translate(-42.709 -130.237)" fill="#fcbe5e"/>
    <path id="Trazado_128428" data-name="Trazado 128428" d="M194.527,94.184c.021.373.061.737.061,1.1q0,27.344,0,54.688c0,4.424-2.544,7.672-6.517,8.358a7.242,7.242,0,0,1-6.383-2.106c-.706-.652-.773-1.141-.113-1.97a36,36,0,0,0,8.175-22.576c.107-14.962-6.537-26.3-19.274-34.084-1.767-1.08-1.794-1.036-.664-2.643a13.144,13.144,0,0,0,2.432-6.461c.164-1.8-.609-2.968-2.126-3.133-1.727-.188-2.687.656-2.843,2.574A9.2,9.2,0,0,1,164,93.916a1.214,1.214,0,0,1-1.306.3,33.308,33.308,0,0,0-8.244-1.541c-.838-.039-.906-.477-.848-1.155a7.235,7.235,0,0,1,8.108-6.238,2.3,2.3,0,0,0,2.392-.868,2.623,2.623,0,0,0,.277-2.961,7.926,7.926,0,0,1,2.2-9.857,6.819,6.819,0,0,1,7.032-1.036,2.424,2.424,0,0,1,1.582,1.795,12.6,12.6,0,0,0,11,9.4,3.3,3.3,0,0,0,1.411-.09c1.246-.393,2.344-1.755,2.155-2.806a2.436,2.436,0,0,0-2.578-2.091,8.023,8.023,0,0,1-7.118-5.466,6.979,6.979,0,0,1,3.543-8.181,7.228,7.228,0,0,1,8.828,1.589,8.366,8.366,0,0,1,2.151,5.665c.036,5.776-.019,11.553.042,17.328.012,1.086-.474,1.305-1.358,1.5a14.947,14.947,0,0,0-11.683,14.066c-.03,1.923.7,2.933,2.228,3.066,1.545.135,2.62-.84,2.749-2.784a9.932,9.932,0,0,1,6.11-8.931,3.118,3.118,0,0,1,1.861-.438" transform="translate(-104.629 -42.416)" fill="#f06051"/>
    <path id="Trazado_128429" data-name="Trazado 128429" d="M85.018,246.991c.024-1.852.164-3.711.05-5.555-.308-4.975,2.159-8.647,5.6-11.735,2.674-2.4,5.64-4.447,7.83-7.383,12.044-16.149,2.133-39.51-17.81-42.307-14.8-2.076-28.5,9.4-29.946,23.343-1.066,10.276,2.653,18.479,10.771,24.657a21.19,21.19,0,0,1,7.65,9.848c.016,2.753.005,5.507.066,8.26.018.834-.236,1.127-1.077,1.079-1.32-.075-2.931.4-3.888-.2-.987-.62-.276-2.345-.389-3.579a13.019,13.019,0,0,0-5.48-9.782A33.9,33.9,0,0,1,46.607,219c-7.747-18.744,4.127-40.778,24.061-44.61,18.7-3.594,36.185,8.254,39.135,26.973,2.069,13.128-2.844,23.826-13.2,31.915-4.037,3.152-6.083,6.954-5.808,11.977.091,1.661-.435,2.167-2.006,1.94-1.244-.18-2.529.218-3.766-.207" transform="translate(-30.121 -118.365)" fill="#fefefe"/>
    <path id="Trazado_128430" data-name="Trazado 128430" d="M144.092,327.966c0,4.338-.037,8.676.025,13.012.016,1.114-.3,1.515-1.42,1.411a13.542,13.542,0,0,0-2.852,0c-1.333.16-1.545-.44-1.539-1.615q.064-12.853,0-25.708c-.008-1.246.329-1.608,1.587-1.594,4.2.048,4.2,0,4.2,4.175v10.315" transform="translate(-94.216 -213.551)" fill="#fcbe5e"/>
    <path id="Trazado_128431" data-name="Trazado 128431" d="M119.233,424.02c-3.968,0-7.937-.034-11.9.023-1.053.015-1.468-.186-1.445-1.359.057-2.9-.007-2.9,2.924-2.9,7.457,0,14.915.025,22.371-.025,1.2-.008,1.662.237,1.618,1.549-.091,2.713-.013,2.715-2.769,2.715Z" transform="translate(-72.131 -285.954)" fill="#fefefe"/>
    <path id="Trazado_128432" data-name="Trazado 128432" d="M119.23,453.109c-3.974,0-7.949-.04-11.923.026-1.1.018-1.438-.272-1.417-1.4.055-2.824,0-2.825,2.83-2.825,7.525,0,15.05.027,22.574-.029,1.184-.009,1.538.278,1.5,1.487-.076,2.739-.008,2.741-2.759,2.74H119.23" transform="translate(-72.136 -305.795)" fill="#fefefe"/>
    <path id="Trazado_128433" data-name="Trazado 128433" d="M129.978,477.971c3.547,0,7.087.017,10.626-.012.872-.007.762.421.624,1a5.866,5.866,0,0,1-6.127,4.455,5.782,5.782,0,0,1-5.124-5.442" transform="translate(-88.546 -325.604)" fill="#fefefe"/>
    <path id="Trazado_128434" data-name="Trazado 128434" d="M173.714,284.076c-1.567.3-1.931-.451-1.806-1.856.107-1.206-.054-2.469.827-3.454a3.039,3.039,0,0,1,3.533-1.08,2.825,2.825,0,0,1,1.957,2.942,3.754,3.754,0,0,1-2.634,3.22,15.588,15.588,0,0,1-1.877.228" transform="translate(-117.095 -189.024)" fill="#fcfcfd"/>
    <path id="Trazado_128435" data-name="Trazado 128435" d="M109.491,282.913c.447,1.567-.432,1.855-1.945,1.762-2.156-.133-3.641-.916-4.046-2.387a2.939,2.939,0,0,1,1.783-3.743,3.194,3.194,0,0,1,3.831,1.714,5.217,5.217,0,0,1,.377,2.654" transform="translate(-70.415 -189.649)" fill="#fdfdfd"/>
    <path id="Trazado_128436" data-name="Trazado 128436" d="M189.6,39.181c.352.031.436.3.586.506,2.526,3.439,2.479,3.471-1.182,5.652-1.073.639-1.457.4-2.009-.59-1.716-3.088-1.759-3.065,1.261-4.809.455-.263.915-.517,1.344-.759" transform="translate(-126.589 -26.692)" fill="#1a3752"/>
    <path id="Trazado_128437" data-name="Trazado 128437" d="M446.088,108.8a.633.633,0,0,1,.745.424c.646,1.089,1.259,2.2,1.914,3.281.284.47.195.776-.276,1.01a3.089,3.089,0,0,0-.279.151c-3.449,2.19-4.15,1.941-5.742-2.025-.093-.231-.362-.477-.034-.675,1.26-.764,2.537-1.5,3.673-2.166" transform="translate(-301.283 -74.108)" fill="#1a3752"/>
    <path id="Trazado_128438" data-name="Trazado 128438" d="M375.984,372.983c-.127-.048-.33-.061-.388-.158-.747-1.276-1.516-2.543-2.18-3.862-.178-.354,4.2-2.874,4.417-2.541.819,1.227,1.533,2.524,2.266,3.806a.427.427,0,0,1-.13.392c-1.31.793-2.633,1.566-3.986,2.363" transform="translate(-254.382 -249.6)" fill="#1a3752"/>
    <path id="Trazado_128439" data-name="Trazado 128439" d="M380.421,42.535c-.787,1.309-1.558,2.619-2.363,3.908-.151.241-.371,0-.542-.089-.281-.144-.558-.3-.831-.455-3.541-2.03-3.586-2.263-1.122-5.527.224-.3.4-.673.861-.409q1.85,1.061,3.683,2.151c.115.068.175.229.314.42" transform="translate(-254.681 -27.164)" fill="#1a3751"/>
    <path id="Trazado_128440" data-name="Trazado 128440" d="M118.579,108.612c1.06.629,2.819,1.1,3.455,2.215.621,1.087-1.055,2.279-1.593,3.49-.164.37-.328,1.145-.875.891a42.233,42.233,0,0,1-3.715-2.108c-.283-.168-.2-.462-.063-.7.685-1.189,1.381-2.372,2.07-3.558.108-.186.214-.363.719-.232" transform="translate(-78.794 -73.96)" fill="#1a3751"/>
    <path id="Trazado_128441" data-name="Trazado 128441" d="M448.911,299.864c-.668,1.139-1.438,2.463-2.223,3.778-.147.245-.377.1-.548.007-1.15-.651-2.293-1.314-3.439-1.97a.467.467,0,0,1-.183-.769c.232-.353.417-.736.639-1.095.58-.938,1.349-2.728,1.72-2.65a14.9,14.9,0,0,1,3.755,1.87c.238.131.445.3.279.827" transform="translate(-301.372 -202.44)" fill="#1a3751"/>
    <path id="Trazado_128442" data-name="Trazado 128442" d="M469.936,207.811c0-2.5,0-2.5,2.463-2.5,2.575,0,2.575,0,2.575,2.585,0,2.636,0,2.636-2.656,2.636-2.382,0-2.382,0-2.382-2.722" transform="translate(-320.139 -139.867)" fill="#1a3651"/>
    <path id="Trazado_128443" data-name="Trazado 128443" d="M283.9,21.646c-2.545,0-2.545,0-2.545-2.571,0-2.391,0-2.391,2.419-2.391,2.813,0,2.813,0,2.814,2.348,0,2.614,0,2.614-2.687,2.614" transform="translate(-191.667 -11.365)" fill="#193651"/>
    <path id="Trazado_128444" data-name="Trazado 128444" d="M283.913,398.9c-2.562,0-2.562,0-2.562-2.4,0-2.557,0-2.557,2.561-2.557,2.672,0,2.672,0,2.671,2.636,0,2.319,0,2.319-2.671,2.319" transform="translate(-191.667 -268.368)" fill="#193651"/>
  </g>
</svg>
