<svg xmlns="http://www.w3.org/2000/svg" xmlns:xlink="http://www.w3.org/1999/xlink" width="175.475" height="163" viewBox="0 0 175.475 163">
  <defs>
    <clipPath id="clip-path">
      <circle id="Elipse_4989" data-name="Elipse 4989" cx="81.5" cy="81.5" r="81.5" fill="#ffb12e"/>
    </clipPath>
  </defs>
  <g id="Grupo_136023" data-name="Grupo 136023" transform="translate(8)">
    <g id="Grupo_135992" data-name="Grupo 135992">
      <circle id="Elipse_4973" data-name="Elipse 4973" cx="81.5" cy="81.5" r="81.5" transform="translate(4.475)" fill="#ffb12e"/>
      <g id="Enmascarar_grupo_104" data-name="Enmascarar grupo 104" transform="translate(-0.525)" clip-path="url(#clip-path)">
        <g id="Grupo_136028" data-name="Grupo 136028" transform="translate(11.448 23.35)">
          <g id="Grupo_136029" data-name="Grupo 136029">
            <path id="Trazado_128357" data-name="Trazado 128357" d="M6.982,232.766c-1.8-.3-2.827-1.464-3.483-3.3a5.084,5.084,0,0,1-3.5,3.4,4.913,4.913,0,0,1,3.438,3.56c.711-1.9,1.681-3.17,3.544-3.387Z" transform="translate(133.122 -166.611)" fill="#fff"/>
            <path id="Trazado_128358" data-name="Trazado 128358" d="M59.775,59.694v1.611q0,35.32,0,70.64c0,4.109,2.187,7.073,5.9,7.943a9.579,9.579,0,0,0,2.167.181q27.2.014,54.391,0c4.845,0,8.019-3.183,8.021-8.055q.011-48.3,0-96.6c0-4.937-3.173-8.161-8.089-8.166q-27.127-.026-54.254,0c-5.015,0-8.126,3.186-8.135,8.238,0,1.913-.059,3.828.023,5.738.044,1-.293,1.058-1.147.894a8.966,8.966,0,0,0-10.368,6.721,9.067,9.067,0,0,0,6.223,10.826,10.808,10.808,0,0,0,5.268.027" transform="translate(-3.311 -19.778)"/>
            <path id="Trazado_128359" data-name="Trazado 128359" d="M327.717,213.407c-.809.737-1.522,1.31-2.147,1.968a8.065,8.065,0,0,0,.006,11.32,7.967,7.967,0,0,0,11.2.248c4.086-3.9,8.072-7.9,11.986-11.97,3.382-3.515,2.821-9.632-2.388-12.718.7-.6,1.373-1.093,1.952-1.683a7.986,7.986,0,0,0-.988-12.54c-.741-.54-.613-.78-.062-1.274,2.062-1.846,3.64-3.968,3.6-6.9a7.724,7.724,0,0,0-4.587-7.323c-3.007-1.439-6.11-1.226-8.552,1.044-4.333,4.028-8.542,8.208-12.567,12.543a7.809,7.809,0,0,0,1.332,11.559c1.043.757.864,1.1.06,1.817-2.9,2.591-4.123,5.716-2.75,9.547a8.231,8.231,0,0,0,3.908,4.367" transform="translate(-299.333 -124.611)"/>
            <path id="Trazado_128360" data-name="Trazado 128360" d="M423.713,117.1a8.031,8.031,0,0,0-2.238-5.911c-3.872-3.916-7.735-7.841-11.687-11.675a8.065,8.065,0,0,0-11.382,11.428q5.707,5.876,11.588,11.58a8.1,8.1,0,0,0,13.718-5.422" transform="translate(-390.239 -77.864)"/>
            <path id="Trazado_128361" data-name="Trazado 128361" d="M379.189,54.895a1.762,1.762,0,0,0-1.739,2.034c.045.765-.193,1.053-.983,1a1.663,1.663,0,0,0-2,1.706c-.031,1.239.828,1.8,1.956,1.774.887-.021,1.069.315,1.034,1.109a1.741,1.741,0,1,0,3.474.024c-.019-.917.3-1.133,1.167-1.136a1.654,1.654,0,0,0,1.831-1.766,1.626,1.626,0,0,0-1.876-1.7c-.943.061-1.124-.32-1.115-1.166a1.776,1.776,0,0,0-1.745-1.876" transform="translate(-340.989 -49.858)" fill="#fcd189"/>
            <path id="Trazado_128362" data-name="Trazado 128362" d="M479.437,241.661a6.816,6.816,0,0,1-5.213,5.031,6.688,6.688,0,0,1,5.167,4.928c1.418-3.147,1.806-3.53,5.039-4.963a6.782,6.782,0,0,1-4.993-5" transform="translate(-474.224 -166.858)" fill="#133d60"/>
            <path id="Trazado_128363" data-name="Trazado 128363" d="M454.842,307.29a1.809,1.809,0,1,0,.013,3.618,1.769,1.769,0,0,0,1.859-1.877,1.79,1.79,0,0,0-1.872-1.741" transform="translate(-439.212 -215.987)" fill="#fb667e"/>
            <path id="Trazado_128364" data-name="Trazado 128364" d="M331.3,1.743a1.8,1.8,0,0,0,1.742,1.87,1.763,1.763,0,0,0,1.934-1.8A1.79,1.79,0,0,0,333.173,0,1.815,1.815,0,0,0,331.3,1.743" transform="translate(-280.212 -10)" fill="#133d60"/>
            <path id="Trazado_128365" data-name="Trazado 128365" d="M123.028,90.875q0-23.906,0-47.811c0-3.989-1.845-5.829-5.849-5.83q-26.711,0-53.422,0c-3.916,0-5.742,1.841-5.743,5.777,0,2.322.02,4.645-.013,6.967a2.014,2.014,0,0,0,.669,1.655,8.872,8.872,0,0,1-.065,13.285,1.742,1.742,0,0,0-.6,1.4q.02,36.678.019,73.356a4.729,4.729,0,0,0,4.909,4.915q27.6.022,55.2,0a4.781,4.781,0,0,0,4.89-4.676c.026-.408.009-.819.009-1.229q0-23.906,0-47.811" transform="translate(1.183 -27.034)" fill="#ecf3fb"/>
            <path id="Trazado_128366" data-name="Trazado 128366" d="M299.32,118.83c-1.725,0-3.451.022-5.176-.011-.724-.014-.983.117-.7.914a6.338,6.338,0,0,0,11.77.088c.307-.806.122-1.028-.721-1.005-1.724.047-3.451.014-5.176.014" transform="translate(-245.6 -86.269)" fill="#b497f7"/>
            <path id="Trazado_128367" data-name="Trazado 128367" d="M299.41,95.824c1.723,0,3.448-.029,5.17.013.81.02.908-.243.648-.95a6.32,6.32,0,0,0-11.754,0c-.271.717-.182.966.63.948,1.768-.04,3.537-.012,5.306-.012" transform="translate(-245.601 -65.995)" fill="#6fd5f8"/>
            <path id="Trazado_128368" data-name="Trazado 128368" d="M341.329,290.869a5.331,5.331,0,0,0-3.759,1.586c-1.359,1.343-2.686,2.718-4.064,4.041-.482.463-.592.753-.048,1.281,2.153,2.092,4.264,4.226,6.373,6.363.375.38.628.553,1.084.078,1.511-1.575,3.144-3.04,4.577-4.681a4.94,4.94,0,0,0,.7-5.73,5.009,5.009,0,0,0-4.863-2.937" transform="translate(-297.932 -211.195)" fill="#fb657d"/>
            <path id="Trazado_128369" data-name="Trazado 128369" d="M369.631,335.27a5.014,5.014,0,0,0,3.706-1.468c1.436-1.391,2.821-2.836,4.262-4.222.459-.441.517-.726.035-1.2q-3.264-3.2-6.464-6.455c-.448-.457-.7-.348-1.089.046-1.434,1.458-2.952,2.837-4.335,4.34a5.023,5.023,0,0,0-.955,5.809,5.107,5.107,0,0,0,4.84,3.148" transform="translate(-337.644 -233.528)" fill="#fbdc85"/>
            <path id="Trazado_128370" data-name="Trazado 128370" d="M347,186.805a5.1,5.1,0,0,0-3.085-4.465,4.951,4.951,0,0,0-5.618.7c-1.679,1.454-3.179,3.115-4.772,4.669-.327.319-.359.529-.013.87,1.813,1.785,3.6,3.6,5.406,5.391.121.12.331.291.444.257,1.484-.451,3.316.168,4.4-1.553a14.78,14.78,0,0,1,1.794-1.86A5.487,5.487,0,0,0,347,186.805" transform="translate(-298.185 -131.987)" fill="#fb657d"/>
            <path id="Trazado_128371" data-name="Trazado 128371" d="M341.717,236.427a5.345,5.345,0,0,0-3.887,1.431c-1.439,1.393-2.825,2.841-4.272,4.226-.5.481-.564.789-.027,1.3,1.673,1.609,3.292,3.275,4.942,4.909.186.184.491.482.643.431,1.393-.464,3.129.285,4.228-1.3.562-.811,1.435-1.4,2.079-2.161a5.072,5.072,0,0,0,.856-5.722,4.944,4.944,0,0,0-4.562-3.117" transform="translate(-297.955 -171.666)" fill="#fb657d"/>
            <path id="Trazado_128372" data-name="Trazado 128372" d="M371.786,275.725a5.211,5.211,0,0,0,1,3.057c1.5,2.119,2.412,2.211,4.191.436,2-1.992,3.972-4,6.006-5.958.513-.493.567-.752.038-1.256-1.448-1.38-2.87-2.791-4.245-4.245-.517-.547-.8-.459-1.277.029-1.33,1.369-2.719,2.682-4.073,4.028a5.3,5.3,0,0,0-1.64,3.909" transform="translate(-345.128 -194.143)" fill="#fbdc85"/>
            <path id="Trazado_128373" data-name="Trazado 128373" d="M371.748,221.414a5.29,5.29,0,0,0,2.525,4.356,1.23,1.23,0,0,0,1.862-.174c2.238-2.328,4.539-4.6,6.853-6.85.457-.445.543-.665.038-1.143-1.485-1.408-2.927-2.864-4.348-4.337-.444-.46-.723-.518-1.193-.025-1.415,1.479-2.9,2.89-4.316,4.369a5.256,5.256,0,0,0-1.42,3.805" transform="translate(-345.093 -154.579)" fill="#fbdc85"/>
            <path id="Trazado_128374" data-name="Trazado 128374" d="M436.886,112.307a5.419,5.419,0,0,0,1.519,3.888c1.393,1.436,2.838,2.821,4.223,4.263.448.467.71.495,1.184.009,2.127-2.18,4.291-4.323,6.459-6.463.382-.377.506-.621.042-1.064-1.511-1.444-2.924-2.994-4.469-4.4a5.056,5.056,0,0,0-5.827-.91,5.138,5.138,0,0,0-3.131,4.677" transform="translate(-428.322 -85.05)" fill="#fbdc85"/>
            <path id="Trazado_128375" data-name="Trazado 128375" d="M419.726,146.861a5.437,5.437,0,0,0-1.521-4.04c-1.364-1.4-2.793-2.746-4.131-4.175-.574-.612-.892-.454-1.394.061q-3.052,3.128-6.181,6.182c-.543.528-.6.837-.017,1.385,1.46,1.37,2.8,2.867,4.285,4.213a5.09,5.09,0,0,0,5.843.913,5,5,0,0,0,3.117-4.539" transform="translate(-388.994 -107.673)" fill="#fb657d"/>
            <path id="Trazado_128376" data-name="Trazado 128376" d="M171.678,127.777q0,18.714,0,37.428a7.752,7.752,0,0,0,.032,1.227,1.275,1.275,0,0,0,1.327,1.135,1.255,1.255,0,0,0,1.3-1.008,5.779,5.779,0,0,0,.075-1.356q0-37.5,0-74.993c0-.319.021-.64-.008-.956-.077-.829-.488-1.388-1.371-1.386a1.266,1.266,0,0,0-1.348,1.387c-.016.364-.006.728-.006,1.093q0,18.714,0,37.428" transform="translate(-81.338 -63.8)"/>
            <path id="Trazado_128377" data-name="Trazado 128377" d="M91.5,259.575a9.03,9.03,0,0,0,.073-18.06,9.03,9.03,0,1,0-.073,18.06" transform="translate(16.989 -175.36)"/>
            <path id="Trazado_128378" data-name="Trazado 128378" d="M91.448,76.781a9.032,9.032,0,1,0,9.081,8.927,9.056,9.056,0,0,0-9.081-8.927" transform="translate(16.994 -55.749)"/>
            <path id="Trazado_128379" data-name="Trazado 128379" d="M214.2,259.577a9.03,9.03,0,1,0-9.11-8.943,9.012,9.012,0,0,0,9.11,8.943" transform="translate(-139.263 -175.362)"/>
            <path id="Trazado_128380" data-name="Trazado 128380" d="M100.526,168.092a9.045,9.045,0,1,0-8.981,9.069,9.064,9.064,0,0,0,8.981-9.069" transform="translate(16.998 -115.482)"/>
            <path id="Trazado_128381" data-name="Trazado 128381" d="M214.1,324a9.038,9.038,0,1,0,9.084,8.935A9.062,9.062,0,0,0,214.1,324" transform="translate(-139.253 -235.248)"/>
            <path id="Trazado_128382" data-name="Trazado 128382" d="M91.574,324a9.039,9.039,0,1,0,8.956,9.051A9.064,9.064,0,0,0,91.574,324" transform="translate(16.992 -235.248)"/>
            <path id="Trazado_128383" data-name="Trazado 128383" d="M223.182,168.146a9.051,9.051,0,1,0-9.044,9.018,9.082,9.082,0,0,0,9.044-9.018" transform="translate(-139.253 -115.486)"/>
            <path id="Trazado_128384" data-name="Trazado 128384" d="M214.168,76.775a9.033,9.033,0,1,0,9.02,9,9.057,9.057,0,0,0-9.02-9" transform="translate(-139.261 -55.745)"/>
            <path id="Trazado_128385" data-name="Trazado 128385" d="M93.352,279.663a6.174,6.174,0,0,0,12.073,0Z" transform="translate(9.108 -203.058)" fill="#b497f8"/>
            <path id="Trazado_128386" data-name="Trazado 128386" d="M93.632,256.361h12.049c-.2-2.418-2.611-4.622-5.323-4.878a6.266,6.266,0,0,0-6.726,4.878" transform="translate(8.776 -182.576)" fill="#6fd5f8"/>
            <path id="Trazado_128387" data-name="Trazado 128387" d="M93.516,91.658h12.068a5.888,5.888,0,0,0-5.376-4.882,6.142,6.142,0,0,0-6.692,4.882" transform="translate(8.905 -62.992)" fill="#6fd5f7"/>
            <path id="Trazado_128388" data-name="Trazado 128388" d="M93.363,114.7a6.1,6.1,0,0,0,5.674,4.926,6.406,6.406,0,0,0,6.29-4.123c.167-.518.246-.821-.5-.815-3.815.027-7.629.013-11.463.013" transform="translate(9.093 -83.271)" fill="#b497f8"/>
            <path id="Trazado_128389" data-name="Trazado 128389" d="M228.032,279.589h-12.09a5.981,5.981,0,0,0,5.73,4.892,6.093,6.093,0,0,0,6.36-4.892" transform="translate(-147.078 -203.005)" fill="#b497f8"/>
            <path id="Trazado_128390" data-name="Trazado 128390" d="M216.12,256.387H228.2a6.017,6.017,0,0,0-5.7-4.892,6.163,6.163,0,0,0-6.382,4.892" transform="translate(-147.293 -182.602)" fill="#6fd5f8"/>
            <path id="Trazado_128391" data-name="Trazado 128391" d="M99.418,196.985c-1.73,0-3.46.02-5.189-.01-.711-.012-.989.076-.681.9a6.319,6.319,0,0,0,11.783.092c.3-.787.125-1.026-.724-1-1.728.052-3.459.016-5.189.016" transform="translate(9.047 -143.015)" fill="#b396f6"/>
            <path id="Trazado_128392" data-name="Trazado 128392" d="M105.433,173.968a6.094,6.094,0,0,0-5.818-4.93,6.378,6.378,0,0,0-6.122,4.125c-.137.426-.336.806.375.805h11.565" transform="translate(9.099 -122.731)" fill="#6fd5f8"/>
            <path id="Trazado_128393" data-name="Trazado 128393" d="M215.729,338.928c3.909,0,7.719-.012,11.529.007,1.169.006.537-.7.4-1.06A6.223,6.223,0,0,0,221.381,334a6.146,6.146,0,0,0-5.653,4.924" transform="translate(-146.939 -242.506)" fill="#6fd4f7"/>
            <path id="Trazado_128394" data-name="Trazado 128394" d="M228.132,361.98q-5.741,0-11.451,0c-.515,0-.713.073-.533.7a6.491,6.491,0,0,0,6.206,4.239,6.1,6.1,0,0,0,5.777-4.931" transform="translate(-147.216 -262.824)" fill="#b497f8"/>
            <path id="Trazado_128395" data-name="Trazado 128395" d="M99.249,333.978a6.312,6.312,0,0,0-5.706,3.935c-.288.73-.288,1.032.644,1.021q5.244-.063,10.488,0c.839.01.872-.268.634-.937a6.32,6.32,0,0,0-6.06-4.019" transform="translate(9.09 -242.494)" fill="#6fd4f7"/>
            <path id="Trazado_128396" data-name="Trazado 128396" d="M105.469,361.98q-5.736,0-11.441,0c-.519,0-.712.082-.534.7a6.5,6.5,0,0,0,6.205,4.235,6.081,6.081,0,0,0,5.77-4.931" transform="translate(9.044 -262.824)" fill="#b497f8"/>
            <path id="Trazado_128397" data-name="Trazado 128397" d="M222.079,196.992c-1.769,0-3.538.023-5.306-.011-.739-.014-.814.2-.579.868a6.316,6.316,0,0,0,11.807.086c.331-.872.013-.975-.752-.957-1.722.041-3.446.013-5.17.013" transform="translate(-147.213 -143.022)" fill="#b396f6"/>
            <path id="Trazado_128398" data-name="Trazado 128398" d="M222.139,173.966c1.725,0,3.451-.016,5.175.008.678.009,1.014-.056.71-.894a6.319,6.319,0,0,0-11.815.048c-.255.729-.048.856.619.847,1.77-.024,3.541-.008,5.312-.008" transform="translate(-147.226 -122.727)" fill="#6fd5f8"/>
            <path id="Trazado_128399" data-name="Trazado 128399" d="M221.414,99.357a6.324,6.324,0,0,0,6.3-6.351,6.314,6.314,0,0,0-12.627.007,6.382,6.382,0,0,0,6.331,6.344" transform="translate(-146.52 -62.994)" fill="#c6d6e4"/>
          </g>
        </g>
      </g>
      <g id="Grupo_134517" data-name="Grupo 134517" transform="translate(-8 69.629)">
        <path id="Trazado_113538" data-name="Trazado 113538" d="M35.19,0c-1.6,0-2.4,1.281-3.033,2.31s-1.081,1.68-1.9,1.68S29,3.352,28.355,2.31,26.926,0,25.323,0s-2.4,1.281-3.033,2.31-1.08,1.68-1.9,1.68-1.256-.638-1.9-1.68S17.061,0,15.457,0s-2.4,1.281-3.031,2.31-1.079,1.68-1.9,1.68-1.256-.638-1.9-1.68S7.2,0,5.6,0,3.2,1.281,2.565,2.31,1.486,3.99.666,3.99a.665.665,0,1,0,0,1.33c1.6,0,2.395-1.281,3.031-2.311S4.776,1.33,5.6,1.33s1.256.638,1.9,1.679S8.924,5.32,10.527,5.32s2.395-1.281,3.03-2.31,1.079-1.68,1.9-1.68,1.256.638,1.9,1.68,1.428,2.31,3.032,2.31,2.4-1.281,3.033-2.31,1.079-1.68,1.9-1.68,1.256.638,1.9,1.68,1.428,2.31,3.032,2.31,2.4-1.281,3.033-2.31,1.081-1.68,1.9-1.68,1.258.638,1.9,1.68,1.429,2.31,3.033,2.31a.665.665,0,1,0,0-1.33c-.822,0-1.258-.638-1.9-1.68S36.795,0,35.19,0Z" transform="translate(0 18.422)" fill="#133d60"/>
        <path id="Trazado_126924" data-name="Trazado 126924" d="M35.19,0c-1.6,0-2.4,1.281-3.033,2.31s-1.081,1.68-1.9,1.68S29,3.352,28.355,2.31,26.926,0,25.323,0s-2.4,1.281-3.033,2.31-1.08,1.68-1.9,1.68-1.256-.638-1.9-1.68S17.061,0,15.457,0s-2.4,1.281-3.031,2.31-1.079,1.68-1.9,1.68-1.256-.638-1.9-1.68S7.2,0,5.6,0,3.2,1.281,2.565,2.31,1.486,3.99.666,3.99a.665.665,0,1,0,0,1.33c1.6,0,2.395-1.281,3.031-2.311S4.776,1.33,5.6,1.33s1.256.638,1.9,1.679S8.924,5.32,10.527,5.32s2.395-1.281,3.03-2.31,1.079-1.68,1.9-1.68,1.256.638,1.9,1.68,1.428,2.31,3.032,2.31,2.4-1.281,3.033-2.31,1.079-1.68,1.9-1.68,1.256.638,1.9,1.68,1.428,2.31,3.032,2.31,2.4-1.281,3.033-2.31,1.081-1.68,1.9-1.68,1.258.638,1.9,1.68,1.429,2.31,3.033,2.31a.665.665,0,1,0,0-1.33c-.822,0-1.258-.638-1.9-1.68S36.795,0,35.19,0Z" transform="translate(0 6.141)" fill="#133d60"/>
        <path id="Trazado_113539" data-name="Trazado 113539" d="M35.19,0c-1.6,0-2.4,1.281-3.033,2.31s-1.081,1.68-1.9,1.68S29,3.352,28.355,2.31,26.926,0,25.323,0s-2.4,1.281-3.033,2.31-1.08,1.68-1.9,1.68-1.256-.638-1.9-1.68S17.061,0,15.457,0s-2.4,1.281-3.031,2.31-1.079,1.68-1.9,1.68-1.256-.638-1.9-1.68S7.2,0,5.6,0,3.2,1.281,2.565,2.31,1.486,3.99.666,3.99a.665.665,0,1,0,0,1.33c1.6,0,2.395-1.281,3.031-2.311S4.776,1.33,5.6,1.33s1.256.638,1.9,1.679S8.924,5.32,10.527,5.32s2.395-1.281,3.03-2.31,1.079-1.68,1.9-1.68,1.256.638,1.9,1.68,1.428,2.31,3.032,2.31,2.4-1.281,3.033-2.31,1.079-1.68,1.9-1.68,1.256.638,1.9,1.68,1.428,2.31,3.032,2.31,2.4-1.281,3.033-2.31,1.081-1.68,1.9-1.68,1.258.638,1.9,1.68,1.429,2.31,3.033,2.31a.665.665,0,1,0,0-1.33c-.822,0-1.258-.638-1.9-1.68S36.795,0,35.19,0Z" transform="translate(0 12.281)" fill="#133d60"/>
        <path id="Trazado_126923" data-name="Trazado 126923" d="M35.19,0c-1.6,0-2.4,1.281-3.033,2.31s-1.081,1.68-1.9,1.68S29,3.352,28.355,2.31,26.926,0,25.323,0s-2.4,1.281-3.033,2.31-1.08,1.68-1.9,1.68-1.256-.638-1.9-1.68S17.061,0,15.457,0s-2.4,1.281-3.031,2.31-1.079,1.68-1.9,1.68-1.256-.638-1.9-1.68S7.2,0,5.6,0,3.2,1.281,2.565,2.31,1.486,3.99.666,3.99a.665.665,0,1,0,0,1.33c1.6,0,2.395-1.281,3.031-2.311S4.776,1.33,5.6,1.33s1.256.638,1.9,1.679S8.924,5.32,10.527,5.32s2.395-1.281,3.03-2.31,1.079-1.68,1.9-1.68,1.256.638,1.9,1.68,1.428,2.31,3.032,2.31,2.4-1.281,3.033-2.31,1.079-1.68,1.9-1.68,1.256.638,1.9,1.68,1.428,2.31,3.032,2.31,2.4-1.281,3.033-2.31,1.081-1.68,1.9-1.68,1.258.638,1.9,1.68,1.429,2.31,3.033,2.31a.665.665,0,1,0,0-1.33c-.822,0-1.258-.638-1.9-1.68S36.795,0,35.19,0Z" fill="#133d60"/>
      </g>
    </g>
    <g id="Grupo_135995" data-name="Grupo 135995" transform="translate(146.326 50.554)">
      <path id="Trazado_113320" data-name="Trazado 113320" d="M2603.007,1502.774a7.536,7.536,0,1,0-7.536-7.535A7.544,7.544,0,0,0,2603.007,1502.774Zm0-11.513a3.977,3.977,0,1,1-3.977,3.977A3.982,3.982,0,0,1,2603.007,1491.261Z" transform="translate(-2595.472 -1487.703)" fill="#133d60"/>
    </g>
  </g>
</svg>
