<svg xmlns="http://www.w3.org/2000/svg" xmlns:xlink="http://www.w3.org/1999/xlink" width="167.475" height="163" viewBox="0 0 167.475 163">
  <defs>
    <clipPath id="clip-path">
      <circle id="Elipse_4989" data-name="Elipse 4989" cx="81.5" cy="81.5" r="81.5" transform="translate(719.256 4235)" fill="#ffb12e"/>
    </clipPath>
    <clipPath id="clip-path-2">
      <rect id="Rectángulo_36196" data-name="Rectángulo 36196" width="130.739" height="245.173" fill="none"/>
    </clipPath>
  </defs>
  <g id="Grupo_136022" data-name="Grupo 136022" transform="translate(-719.256 -4235)">
    <g id="Grupo_135992" data-name="Grupo 135992">
      <circle id="Elipse_4973" data-name="Elipse 4973" cx="81.5" cy="81.5" r="81.5" transform="translate(719.256 4235)" fill="#ffb12e"/>
      <g id="Enmascarar_grupo_104" data-name="Enmascarar grupo 104" clip-path="url(#clip-path)">
        <g id="Grupo_136026" data-name="Grupo 136026" transform="translate(739.309 4243.081)">
          <path id="Trazado_128272" data-name="Trazado 128272" d="M407.273,444.375l-29.443-.475-3.913,8.751,39.585-.259Z" transform="translate(-339.029 -377.103)" fill="#fff"/>
          <g id="Grupo_136025" data-name="Grupo 136025" transform="translate(0 0)">
            <g id="Grupo_136024" data-name="Grupo 136024" transform="translate(0 0)" clip-path="url(#clip-path-2)">
              <path id="Trazado_128273" data-name="Trazado 128273" d="M385.365,448.088a.37.37,0,0,0,.338-.221l2.374-5.385a.852.852,0,0,1,.74-.5l28.188.5a.614.614,0,0,1,.48.24l3.9,5.065a.37.37,0,1,0,.585-.451l-3.9-5.065a1.35,1.35,0,0,0-1.053-.528l-28.209-.5a1.6,1.6,0,0,0-1.407.945l-2.374,5.385a.37.37,0,0,0,.338.519" transform="translate(-349.243 -374.843)" fill="#4997e8"/>
              <path id="Trazado_128274" data-name="Trazado 128274" d="M8.214,571.549C.691,537.458-4.325,516.348,5.3,497.761c7.527-14.537,21.482-21.666,36.946-29.437-.086.6-.186,1.256-.3,1.967A37.809,37.809,0,0,1,62,468.117c1.269.191,3.138.3,5.5.8l0-.049c.075.031.145.067.22.1,7.258,1.594,25.68,9.659,41.354,30.532,17.688,23.554,25.064,57.891,20.182,72.831-5.089,15.572-22.332,13.467-25.616,12.9,2.163,21.453,4.664,44.525,1.443,48.326C92.9,647.946,18.28,643.446,7.048,630.173c-4.815-5.678-1.8-38.741,1.166-58.624" transform="translate(0 -397.272)" fill="#fff"/>
              <path id="Trazado_128275" data-name="Trazado 128275" d="M197.733,1200.21a.448.448,0,0,0,.062-.891c-5.445-.763-15.248-3.8-19.992-8.175a.448.448,0,1,0-.607.659c5.161,4.755,15.3,7.678,20.475,8.4a.418.418,0,0,0,.063,0" transform="translate(-94.083 -1011.805)" fill="#4997e8"/>
              <path id="Trazado_128276" data-name="Trazado 128276" d="M513.977,1356.548c5.135,0,10.945-.926,15.444-4.2a.448.448,0,1,0-.527-.724c-6.092,4.431-14.965,4.265-19.712,3.771-6.943-.722-12.572-2.772-13.967-3.975a.448.448,0,1,0-.585.678c1.7,1.468,7.714,3.486,14.459,4.188a47.491,47.491,0,0,0,4.887.261" transform="translate(-473.273 -1147.973)" fill="#4997e8"/>
              <path id="Trazado_128277" data-name="Trazado 128277" d="M381.111,636.183h.019a.448.448,0,0,0,.429-.466c-.639-15.685-3.864-42.319-6.766-55.88a.448.448,0,1,0-.876.187c2.893,13.522,6.109,40.084,6.747,55.729a.448.448,0,0,0,.447.43" transform="translate(-307.084 -492.285)" fill="#4997e8"/>
              <path id="Trazado_128278" data-name="Trazado 128278" d="M345.787,1282.548a.448.448,0,0,0,.444-.393c.672-5.413-.909-23.427-1.62-30.92a.448.448,0,1,0-.892.085c.708,7.464,2.284,25.4,1.623,30.725a.448.448,0,0,0,.389.5.456.456,0,0,0,.056,0" transform="translate(-267.376 -1062.611)" fill="#4997e8"/>
              <path id="Trazado_128279" data-name="Trazado 128279" d="M.588,1015.148a.446.446,0,0,0,.238-.069C7.967,1010.591,8.7,992.8,4.9,979.005a.448.448,0,0,0-.864.238c3.639,13.21,3.021,30.865-3.682,35.078a.448.448,0,0,0,.239.827" transform="translate(123.554 -831.409)" fill="#4997e8"/>
              <path id="Trazado_128280" data-name="Trazado 128280" d="M200.946,836.851h.019a.448.448,0,0,0,.429-.466,34.907,34.907,0,0,0-1.383-8.131.448.448,0,0,0-.83.337,34.192,34.192,0,0,1,1.317,7.831.448.448,0,0,0,.447.43" transform="translate(-100.622 -703.385)" fill="#4997e8"/>
              <path id="Trazado_128281" data-name="Trazado 128281" d="M137.916,1019.555a.751.751,0,0,0,.707-.466c.289-.641-.339-1.444-1.209-2.556-.8-1.025-1.9-2.43-1.556-3.1a.262.262,0,0,1,.231-.164c.975-.11,3.7,2.124,6.068,4.974a.448.448,0,0,0,.689-.572c-1.708-2.058-5.075-5.487-6.855-5.292a1.147,1.147,0,0,0-.931.645c-.606,1.18.591,2.711,1.647,4.061a9.205,9.205,0,0,1,1.06,1.533,5.1,5.1,0,0,1-1.869-2.274.448.448,0,1,0-.889.11c.116.938,1.788,2.942,2.764,3.09a.94.94,0,0,0,.141.011" transform="translate(-32.511 -860.034)" fill="#4997e8"/>
              <path id="Trazado_128282" data-name="Trazado 128282" d="M783.226,1164.81a.448.448,0,0,0,.36-.714,17.678,17.678,0,0,0-2.388-2.409c-.668-.595-1.671-1.487-1.729-1.813l.011-.016a2.561,2.561,0,0,1,.378.064,6.159,6.159,0,0,0,3.286-.129.448.448,0,0,0-.243-.863,5.275,5.275,0,0,1-2.855.115c-.464-.1-1.041-.224-1.387.442-.4.779.581,1.655,1.943,2.868a17.083,17.083,0,0,1,2.264,2.273.447.447,0,0,0,.36.181" transform="translate(-770.089 -984.525)" fill="#4997e8"/>
              <path id="Trazado_128283" data-name="Trazado 128283" d="M186.837,896.616c.828-3.9,9.661-6.773,10.894-.984s1.763,19.766-3.48,14.631-7.414-13.647-7.414-13.647" transform="translate(-95.93 -758.075)" fill="#ffb8c1"/>
              <path id="Trazado_128284" data-name="Trazado 128284" d="M412.535,306.1c-1.359,4.9,16.329,13.7,24.233,11.734,3.381-.84,2.4-9.876,1.589-11.816-.257-.618-.5-1.264-.734-1.917a85.888,85.888,0,0,1-3.606-17.587l-.056-.025-21.313-11.667s2.739,20.983-.114,31.278" transform="translate(-370.469 -233.469)" fill="#ffb8c1"/>
              <path id="Trazado_128285" data-name="Trazado 128285" d="M422.637,295.745c-1.208,14.321,11.644,27.021,22.882,26.13a85.891,85.891,0,0,1-3.606-17.587l-.056-.025Z" transform="translate(-378.364 -251.242)" fill="#ff9ea8"/>
              <path id="Trazado_128286" data-name="Trazado 128286" d="M338.942,105.458c.056,1.541.19,3.319.4,5.217.591,5.441,1.787,11.834,3.59,16.187,3.759,9.09,13.315,15.62,23.124,14.762,7.644-.667,10.934-6.437,11.44-12.3.023-.267.033-.541.042-.815a37.651,37.651,0,0,0-1.6-10.113c-.761-2.913-1.6-5.728-2.031-8.094-.554-3.031-.9-6.323-1.239-9.117-.361-2.977-1.141-4.391-2.39-5.194-1.838-1.182-4.03-3.486-6.7-4.538a22.5,22.5,0,0,0-9.525-1.893c-3.016.253-6.259,2.134-9.046,4.481a32.834,32.834,0,0,0-3.971,3.967,25.1,25.1,0,0,0-1.724,2.29c-.347.527-.466,2.471-.364,5.159" transform="translate(-297.801 -76.05)" fill="#ffb8c1"/>
              <path id="Trazado_128287" data-name="Trazado 128287" d="M382.48,112.175a20.618,20.618,0,0,0,1.1,2.392c1,2.043,2.323,4.642,2.323,4.642s-1.332-2.675.245-3.132c.407-.118,2.223.358,2.6-.6.2-.511-.4-1.965-.33-3.046.028-.45.754-.462.774-.911.048-1.069.085-2.048.174-2.536.21-1.156,2.278-.286,2.8-1.033.816-1.172-1.342-3.944-.449-4.038,13.989,4.639,25.041,3.549,23.189-2.312a1.122,1.122,0,0,0-.348-.853,39.668,39.668,0,0,0-6.8-3.674l-7.761.02-10.723,2.391-3.051.681s-.384,1.24-.914,2.925c-.649,2.073-1.5,4.823-2.1,6.752-.415,1.328-.7,2.273-.721,2.33" transform="translate(-341.919 -82.469)" fill="#ff9ea8"/>
              <path id="Trazado_128288" data-name="Trazado 128288" d="M474.245,296.737a5.834,5.834,0,1,0-5.591,6.066,5.834,5.834,0,0,0,5.591-6.066" transform="translate(-413.118 -247.331)" fill="#ffabb7"/>
              <path id="Trazado_128289" data-name="Trazado 128289" d="M338.912,286.289a5.82,5.82,0,0,0,3.869,5.253,37.647,37.647,0,0,0-1.6-10.113,5.84,5.84,0,0,0-2.268,4.861" transform="translate(-263.045 -239.079)" fill="#ffabb7"/>
              <path id="Trazado_128290" data-name="Trazado 128290" d="M569.109,234.129c-2.856,2.923,4.782,14.873,7.825,8.681,3.018-6.14-4.353-12.235-7.825-8.681" transform="translate(-532.448 -198.005)" fill="#ffb8c1"/>
              <path id="Trazado_128291" data-name="Trazado 128291" d="M588.92,251.006A.364.364,0,0,0,589,251a.37.37,0,0,0,.283-.44,5,5,0,0,0-2.53-3.034,5.184,5.184,0,0,0-3.033-.915.369.369,0,1,0,.208.709,4.994,4.994,0,0,1,2.447.842,4.462,4.462,0,0,1,2.185,2.556.37.37,0,0,0,.361.291" transform="translate(-546.346 -209.468)" fill="#f26979"/>
              <path id="Trazado_128292" data-name="Trazado 128292" d="M590.233,263.792a.37.37,0,0,0,.354-.265,1.945,1.945,0,0,1,1.79-1.315.37.37,0,1,0,.009-.739,2.7,2.7,0,0,0-2.508,1.844.37.37,0,0,0,.354.475" transform="translate(-550.771 -222.127)" fill="#f26979"/>
              <path id="Trazado_128293" data-name="Trazado 128293" d="M402.922,348.236l-.12.074a.39.39,0,0,1-.121.053l-.067.024c-.03.008-.062.017-.095.028a3.33,3.33,0,0,1-.506.1,6.859,6.859,0,0,1-.709.045,15.661,15.661,0,0,1-1.851-.088c-.342-.037-.7-.092-1.055-.157s-.722-.14-1.083-.231-.719-.19-1.071-.293-.695-.218-1.022-.34-.644-.242-.938-.368-.57-.253-.821-.375-.478-.242-.677-.352-.369-.212-.51-.294-.247-.155-.322-.2l-.113-.072-.011-.007a.277.277,0,0,0-.331.443l.107.093c.071.059.17.153.3.26s.3.238.5.376.422.29.672.447.529.316.83.472.619.317.96.46a15.979,15.979,0,0,0,2.179.774,14.976,14.976,0,0,0,2.279.459,9.464,9.464,0,0,0,1.081.078,6.368,6.368,0,0,0,.986-.062,4.658,4.658,0,0,0,.838-.2,2.744,2.744,0,0,0,.627-.31c.042-.028.08-.056.116-.082s.075-.064.107-.093a.763.763,0,0,0,.141-.148l.081-.115a.283.283,0,0,0-.38-.4Z" transform="translate(-331.512 -293.716)" fill="#f26979"/>
              <path id="Trazado_128294" data-name="Trazado 128294" d="M348.258,292.038a5.2,5.2,0,0,0,3.789-1.331.554.554,0,0,0-.87-.687c-.544.689-2.91,1.269-4.581.63a.554.554,0,0,0-.4,1.036,5.812,5.812,0,0,0,2.058.352" transform="translate(-273.468 -246.199)" fill="#fa8f9c"/>
              <path id="Trazado_128295" data-name="Trazado 128295" d="M461.769,259.084a7.054,7.054,0,0,0,2.189-.347,5.648,5.648,0,0,0,2.017-1.169.554.554,0,0,0-.738-.827,4.541,4.541,0,0,1-1.622.941,6.153,6.153,0,0,1-5.074-.614c-1.391-.835-3.186-2.612-3.839-6.332a.555.555,0,0,0-.286-.394,39.98,39.98,0,0,0-8.081-3.388.554.554,0,1,0-.293,1.069,38.362,38.362,0,0,1,7.617,3.173c.765,3.951,2.757,5.89,4.311,6.823a7.388,7.388,0,0,0,3.8,1.064" transform="translate(-402.477 -209.777)" fill="#fa8f9c"/>
              <path id="Trazado_128296" data-name="Trazado 128296" d="M363.778,236.541a2.9,2.9,0,0,0,3.369,1.916,2.438,2.438,0,0,0,2.143-2.905,2.9,2.9,0,0,0-3.369-1.916,2.438,2.438,0,0,0-2.143,2.905" transform="translate(-293.348 -198.436)" fill="#fff"/>
              <path id="Trazado_128297" data-name="Trazado 128297" d="M379.345,239.856c.249,1.086,1.021,1.865,1.725,1.74s1.073-1.106.824-2.192-1.021-1.865-1.725-1.74-1.073,1.106-.824,2.192" transform="translate(-308.303 -201.889)" fill="#04153d"/>
              <path id="Trazado_128298" data-name="Trazado 128298" d="M449.73,248.594a3.483,3.483,0,0,0,4.14,1.909c1.8-.414,2.854-1.941,2.363-3.41a3.483,3.483,0,0,0-4.14-1.909c-1.8.414-2.854,1.941-2.363,3.41" transform="translate(-393.269 -208.201)" fill="#fff"/>
              <path id="Trazado_128299" data-name="Trazado 128299" d="M465.9,252.508c.339,1.11,1.258,1.859,2.052,1.672s1.164-1.237.825-2.347-1.258-1.859-2.052-1.672-1.164,1.237-.825,2.347" transform="translate(-408.254 -212.494)" fill="#04153d"/>
              <path id="Trazado_128300" data-name="Trazado 128300" d="M469.654,263.556c.12.393.445.658.726.592s.412-.438.292-.83-.445-.658-.726-.592-.412.438-.292.831" transform="translate(-410.642 -223.182)" fill="#fff"/>
              <path id="Trazado_128301" data-name="Trazado 128301" d="M382.459,251.594c.12.393.445.658.726.592s.412-.438.292-.831-.445-.658-.726-.592-.412.438-.292.83" transform="translate(-310.326 -213.02)" fill="#fff"/>
              <path id="Trazado_128302" data-name="Trazado 128302" d="M470.3,202.333s-.029-.059-.085-.156a.634.634,0,0,0-.052-.081c-.032-.034-.069-.071-.112-.108s-.089-.077-.14-.118a1.629,1.629,0,0,0-.153-.09,1.564,1.564,0,0,0-.363-.149,2.331,2.331,0,0,0-.415-.074,2.846,2.846,0,0,0-.429.009,2.682,2.682,0,0,0-.424.071,3.542,3.542,0,0,0-.4.121,3.457,3.457,0,0,0-.365.166,2.808,2.808,0,0,0-.584.405,2.082,2.082,0,0,0-.348.393,1.433,1.433,0,0,0-.106.191.285.285,0,0,0,.345.384l.076-.023s.056-.017.135-.05c.048-.015.1-.036.162-.06s.134-.051.215-.078.163-.06.255-.089.185-.065.283-.1.2-.063.3-.1.2-.068.307-.091c.051-.012.1-.028.153-.042l.149-.032c.1-.028.191-.031.285-.051.085,0,.177-.021.251-.017a1.028,1.028,0,0,1,.214.009c.031.005.066.007.1.009s.042.009.063.012a.667.667,0,0,0,.067.006.523.523,0,0,1,.078.042c.1.056.157.084.157.084a.293.293,0,0,0,.391-.139.3.3,0,0,0,0-.255" transform="translate(-409.755 -171.224)" fill="#04153d"/>
              <path id="Trazado_128303" data-name="Trazado 128303" d="M379.475,193.344a1.392,1.392,0,0,0-.082-.117.418.418,0,0,0-.126-.127,1.366,1.366,0,0,0-.254-.15,1.311,1.311,0,0,0-.314-.093c-.058-.007-.118-.015-.18-.02s-.121,0-.184.008a1.707,1.707,0,0,0-.368.076,2.149,2.149,0,0,0-.621.352,2.425,2.425,0,0,0-.238.226,2.209,2.209,0,0,0-.325.466,1.854,1.854,0,0,0-.147.383,1.341,1.341,0,0,0-.029.165.291.291,0,0,0,.443.272l.059-.036s.039-.024.094-.065l.25-.178a6.812,6.812,0,0,1,.719-.464c.062-.037.121-.056.178-.089.056-.016.112-.051.161-.062a.947.947,0,0,1,.146-.047,1.209,1.209,0,0,1,.139-.03c.045-.009.071-.011.112-.023s.1.01.138.012a1.393,1.393,0,0,0,.141.018.314.314,0,0,0,.286-.474Z" transform="translate(-305.451 -163.819)" fill="#04153d"/>
              <path id="Trazado_128304" data-name="Trazado 128304" d="M357.237,28.455c.333-.322,1.017-.591,1.153-.8.415-.643-.59-2.143-.16-2.527,1.025-.915,2.481-.018,3.061-.436.8-.575-.628-2.4.333-3.674,10.046,2.965,20.615.271,23.26-1.886.1,5.163,3.031,15.75,3.533,17.056-.661-4.21,2.336-8.313,1.3-10.789-.333-.8-1.69-.643-1.866-1.82-.184-1.231,2.5-3.518.533-4.93a3.463,3.463,0,0,0-3.121.129c4.395-10.1.325-16.088-5.423-18.032-9.581-3.24-25.711,4.2-28.927,18.506.957.553.3,1.478.15,1.784a8.736,8.736,0,0,0-.277,6.786c2.026,4.363,5.406,1.906,6.448.633" transform="translate(-311.9 0.005)" fill="#0e004c"/>
              <path id="Trazado_128305" data-name="Trazado 128305" d="M560.509,141.9c1.056,1.465,2.706,1.227,4.541,2.167,1.676.858,3.018,4.415,3.795,3.927.679-.428-.987-4.606-.252-5.295.462-.429,1.727-.141,2.183-.571.977-.917-1.8-3.906-.943-4.95-1.191-.4-1.725,1.078-2.566.889-.889-.2.491-3.217-.1-4.052-.776-1.1-2.832-.265-3.6-1.121-.794-.887,3.82-4.264-.061-4.919a3.168,3.168,0,0,1-.966,1.786c-1.3,1.021-2.141.677-2.578,2.055-.647,2.045,2.636,3.258,2.239,4.735-.333,1.266-2.775,3.855-1.7,5.348" transform="translate(-524.497 -108.716)" fill="#0a0036"/>
              <path id="Trazado_128306" data-name="Trazado 128306" d="M368.645,16.778l-.013-.208a1.7,1.7,0,0,0-.032-.244,3.245,3.245,0,0,0-.071-.325,3.744,3.744,0,0,0-.117-.368,4.117,4.117,0,0,0-.17-.4c-.063-.136-.145-.267-.222-.4s-.173-.265-.271-.39a4.049,4.049,0,0,0-.3-.364,4.32,4.32,0,0,0-.323-.322,4.044,4.044,0,0,0-.326-.273c-.107-.083-.212-.155-.31-.219a4.19,4.19,0,0,0-.5-.275c-.126-.056-.2-.084-.2-.084a.189.189,0,0,0-.2.305l.006.006s.052.055.145.144l.378.37c.074.08.161.158.245.249s.177.181.266.28c.181.2.368.409.542.631.092.108.167.227.252.336s.159.225.223.339a6.242,6.242,0,0,1,.352.63c.05.1.084.18.121.258s.067.151.09.213l.079.193a.187.187,0,0,0,.36-.083" transform="translate(-292.91 -10.953)" fill="#00123d"/>
              <path id="Trazado_128307" data-name="Trazado 128307" d="M562.449,28.9l-.468.31c-.148.1-.327.223-.53.373s-.438.311-.676.508l-.378.3-.391.339c-.271.23-.537.5-.819.765-.267.284-.549.571-.812.887-.136.154-.268.313-.392.479s-.258.327-.376.5l-.357.513c-.113.174-.218.353-.326.527s-.206.353-.3.528-.194.349-.275.527l-.247.518c-.08.169-.145.341-.214.5-.141.327-.252.645-.355.937s-.182.565-.255.806-.127.453-.171.627c-.09.349-.133.55-.133.55a.185.185,0,0,0,.352.112l0-.006s.079-.188.2-.519c.063-.166.137-.367.236-.593s.193-.487.32-.761.248-.577.4-.885l.231-.477.256-.489c.082-.168.186-.328.279-.5s.188-.339.3-.5.208-.335.317-.5l.336-.493c.235-.322.469-.644.723-.944s.505-.593.754-.874.5-.541.756-.776l.36-.352.347-.318c.221-.206.428-.389.613-.55s.347-.3.487-.415l.428-.363a.185.185,0,0,0-.222-.3" transform="translate(-515.505 -24.528)" fill="#00123d"/>
              <path id="Trazado_128308" data-name="Trazado 128308" d="M628.5,147.92l.045-.088a.406.406,0,0,0,.05-.129.723.723,0,0,0,.031-.226.915.915,0,0,0-.034-.251,1.241,1.241,0,0,0-.1-.264,2.5,2.5,0,0,0-.339-.52,11.594,11.594,0,0,0-1-1.028,13.246,13.246,0,0,1-1.089-1.11,4.452,4.452,0,0,1-.419-.609,2.186,2.186,0,0,1-.226-.624,1.6,1.6,0,0,1,.013-.6,1.4,1.4,0,0,1,.08-.281,1.972,1.972,0,0,1,.113-.259,1.549,1.549,0,0,1,.132-.233,2.247,2.247,0,0,1,.133-.208c.1-.124.171-.242.249-.327l.235-.28.01-.012a.185.185,0,0,0-.255-.265l-.309.241a3.975,3.975,0,0,0-.333.311,2.18,2.18,0,0,0-.188.215,2.032,2.032,0,0,0-.19.259,1.983,1.983,0,0,0-.178.311,2.029,2.029,0,0,0-.141.367,2.084,2.084,0,0,0-.073.864,2.549,2.549,0,0,0,.28.867,4.021,4.021,0,0,0,.5.736,7.772,7.772,0,0,0,.592.617c.2.188.408.366.6.533l.564.472c.172.151.339.289.472.426.071.067.126.134.187.2a2,2,0,0,1,.14.183.791.791,0,0,1,.088.163.486.486,0,0,1,.041.137.118.118,0,0,1,.007.052.255.255,0,0,0,0,.04c.011.02-.008.067-.016.1l-.028.095a.186.186,0,0,0,.343.137Z" transform="translate(-591.887 -119.413)" fill="#00102e"/>
              <path id="Trazado_128309" data-name="Trazado 128309" d="M339.434,114.41s.192,0,.5.02a4.851,4.851,0,0,1,.558.062,2.282,2.282,0,0,1,.642.2.592.592,0,0,1,.353.465,1.676,1.676,0,0,1-.174.8,6.887,6.887,0,0,1-.48.9c-.184.306-.384.615-.587.928s-.4.633-.586.981a1.585,1.585,0,0,0-.2,1.312,1.326,1.326,0,0,0,.4.551,3.7,3.7,0,0,0,.446.3,2.685,2.685,0,0,1,.643.47.871.871,0,0,1,.212.53,1.78,1.78,0,0,1-.049.515c-.036.147-.067.265-.095.344l-.039.122,0,.01a.185.185,0,0,0,.341.14l.063-.125a2.852,2.852,0,0,0,.16-.368,2.252,2.252,0,0,0,.136-.642,1.346,1.346,0,0,0-.259-.888,2.88,2.88,0,0,0-.753-.657c-.261-.178-.5-.361-.546-.542a.654.654,0,0,1-.018-.072c0-.023,0-.03-.005-.062l0-.067V119.6c0-.006,0,.039,0,.019l0-.009a.648.648,0,0,1,.018-.08,2.331,2.331,0,0,1,.183-.423c.161-.3.363-.609.559-.923a11.6,11.6,0,0,0,1.086-1.972,2.214,2.214,0,0,0,.163-1.159,1.114,1.114,0,0,0-.279-.564,1.336,1.336,0,0,0-.455-.314,2.523,2.523,0,0,0-.828-.179,5.313,5.313,0,0,0-.615,0c-.169.007-.3.023-.388.033l-.133.016h0a.185.185,0,0,0,.02.369" transform="translate(-262.449 -96.833)" fill="#00123d"/>
              <path id="Trazado_128310" data-name="Trazado 128310" d="M395.123,19.49l.393.02c.243.015.594.034,1.01.088a11.508,11.508,0,0,1,1.4.243c.247.068.5.132.751.227a5.054,5.054,0,0,1,.718.326,2.286,2.286,0,0,1,1,1,1.513,1.513,0,0,1,.136.609,2.058,2.058,0,0,1-.062.595,1.931,1.931,0,0,1-.073.27,2.493,2.493,0,0,1-.087.243c-.054.154-.123.282-.17.393l-.171.341-.005.01a.185.185,0,0,0,.307.2l.069-.081c.044-.054.113-.129.191-.234a4.027,4.027,0,0,0,.262-.4,2.033,2.033,0,0,0,.139-.263,2.446,2.446,0,0,0,.13-.31A2.588,2.588,0,0,0,401.21,22a2.161,2.161,0,0,0-.152-.9,2.441,2.441,0,0,0-.544-.794,3.575,3.575,0,0,0-.769-.556,4.692,4.692,0,0,0-.841-.355,6.7,6.7,0,0,0-.839-.213c-.274-.048-.54-.086-.792-.108s-.49-.033-.709-.038c-.438-.006-.8.02-1.059.035l-.392.042a.185.185,0,0,0,.01.369" transform="translate(-329.902 -16.176)" fill="#38498a"/>
              <path id="Trazado_128311" data-name="Trazado 128311" d="M512.111,54.2l.195.042c.122.029.3.071.523.14a3.446,3.446,0,0,1,.746.32,1.383,1.383,0,0,1,.62.675,1.71,1.71,0,0,1-.054,1.107,8.169,8.169,0,0,1-.578,1.307c-.117.229-.24.464-.359.716a2.858,2.858,0,0,0-.29.887,1.134,1.134,0,0,0,0,.156.752.752,0,0,0,.009.086l0,.022,0,.011c0-.018.009.038.008.034l0,.012.011.033a.541.541,0,0,0,.073.137.65.65,0,0,0,.069.082.94.94,0,0,0,.126.107,2.41,2.41,0,0,0,.429.234c.271.119.534.213.8.309.521.19,1.032.373,1.509.588a3.82,3.82,0,0,1,1.213.786.867.867,0,0,1,.165,1.036,3.232,3.232,0,0,1-.752.954,11.384,11.384,0,0,1-1.554,1.189c-.4.264-.635.407-.635.407a.185.185,0,0,0,.176.325l0,0s.251-.121.679-.359c.213-.12.471-.271.76-.456a8.917,8.917,0,0,0,.942-.686,3.77,3.77,0,0,0,.931-1.108,1.5,1.5,0,0,0-.212-1.738,4.271,4.271,0,0,0-1.42-.988c-.51-.245-1.04-.44-1.557-.631-.257-.1-.514-.191-.747-.3a1.787,1.787,0,0,1-.294-.159.188.188,0,0,1-.031-.026l0,0a.172.172,0,0,1,.023.048l0,.013v0l0-.012c0-.008.011.044.005.021v-.005a.053.053,0,0,1,0-.015.363.363,0,0,1,0-.048,2.3,2.3,0,0,1,.217-.642c.106-.232.226-.465.341-.7a8.416,8.416,0,0,0,.584-1.443,2.326,2.326,0,0,0-.038-1.521,1.861,1.861,0,0,0-.926-.915,3.916,3.916,0,0,0-.884-.29,5.132,5.132,0,0,0-.576-.09l-.2-.018a.185.185,0,0,0-.056.365" transform="translate(-464.365 -45.73)" fill="#38498a"/>
              <path id="Trazado_128312" data-name="Trazado 128312" d="M446.1,46.1l.3,0c.2-.006.5-.012.874-.044a13.387,13.387,0,0,0,3.062-.619,11.736,11.736,0,0,0,1.926-.845,9.6,9.6,0,0,0,1.921-1.382,6.477,6.477,0,0,0,.841-.957,3.635,3.635,0,0,0,.6-1.231,1.437,1.437,0,0,0-.434-1.485,3.431,3.431,0,0,0-1.233-.693,20.172,20.172,0,0,0-2.505-.608,12.857,12.857,0,0,1-2.294-.616,3.066,3.066,0,0,1-.889-.534,1.564,1.564,0,0,1-.288-.355l-.026-.049-.013-.024c0,.009-.013-.028.007.018l0-.008-.006-.016-.012-.032a.017.017,0,0,1,.005.008c0,.011,0,0,0,0a.326.326,0,0,1,.024-.13,1.62,1.62,0,0,1,.216-.382c.094-.13.2-.259.3-.385.214-.251.44-.49.657-.721a13.674,13.674,0,0,0,1.162-1.34,2.846,2.846,0,0,0,.375-.7,1.061,1.061,0,0,0,0-.775,1.049,1.049,0,0,0-.422-.453,1.987,1.987,0,0,0-.372-.169c-.1-.033-.18-.056-.232-.068l-.08-.02a.185.185,0,0,0-.108.353l.009,0,.069.025c.046.015.113.042.2.078a.951.951,0,0,1,.51.431c.091.209-.078.595-.388.969a13.173,13.173,0,0,1-1.164,1.231c-.227.223-.467.456-.709.716a5.008,5.008,0,0,0-.358.423,2.272,2.272,0,0,0-.318.549,1.017,1.017,0,0,0-.071.408.673.673,0,0,0,.018.133c.006.026.013.051.02.076l.012.033.006.016,0,.008a.191.191,0,0,0,.015.034l.019.038.039.076a2.268,2.268,0,0,0,.415.53,3.629,3.629,0,0,0,1.1.681,13.458,13.458,0,0,0,2.427.67,20.018,20.018,0,0,1,2.411.572,2.757,2.757,0,0,1,.974.528,1.118,1.118,0,0,1,.154.18.742.742,0,0,1,.056.1l.018.035,0,.009c-.011-.024,0,0,0-.008l0,.01a.23.23,0,0,1,.015.041.908.908,0,0,1,0,.441,2.973,2.973,0,0,1-.472.991,6.252,6.252,0,0,1-.74.87,8.97,8.97,0,0,1-1.757,1.333,11.143,11.143,0,0,1-1.808.85,13.231,13.231,0,0,1-2.922.717c-.362.047-.649.073-.842.089l-.3.02a.185.185,0,0,0,.014.369" transform="translate(-392.034 -26.73)" fill="#38498a"/>
              <path id="Trazado_128313" data-name="Trazado 128313" d="M396.574,85.339l.175.063c.113.042.287.1.483.184a5.678,5.678,0,0,1,.7.336l.2.116.2.138a1.621,1.621,0,0,1,.193.153,1.212,1.212,0,0,1,.181.174l.085.093c.027.032.046.068.069.1s.049.068.067.1l.047.11.025.055.012.057.027.114a.985.985,0,0,1-.012.237,1.274,1.274,0,0,1-.208.489c-.066.077-.12.16-.192.237s-.144.155-.23.226a5.872,5.872,0,0,1-1.165.778,11.777,11.777,0,0,1-1.362.614c-.234.093-.471.181-.711.261s-.479.159-.718.232c-.478.146-.953.283-1.418.4s-.915.223-1.344.321-.837.182-1.216.252c-.755.149-1.387.269-1.832.339l-.7.123h0a.185.185,0,0,0,.046.367l.711-.053c.226-.018.5-.044.815-.079s.67-.069,1.056-.127.8-.116,1.245-.193.906-.162,1.382-.278.97-.23,1.464-.376c.248-.074.5-.147.745-.234s.5-.17.743-.266a11.8,11.8,0,0,0,1.441-.662,6.029,6.029,0,0,0,1.291-.9c.1-.086.184-.192.275-.286s.163-.214.241-.32a1.925,1.925,0,0,0,.283-.772,1.613,1.613,0,0,0,0-.416c-.015-.067-.034-.132-.052-.2l-.028-.1-.042-.087-.087-.17c-.032-.053-.071-.1-.105-.147s-.07-.1-.109-.138l-.119-.118a3.347,3.347,0,0,0-.954-.625,6.172,6.172,0,0,0-.793-.3c-.226-.077-.4-.108-.514-.139l-.181-.043a.185.185,0,0,0-.106.354" transform="translate(-327.293 -72.192)" fill="#38498a"/>
              <path id="Trazado_128314" data-name="Trazado 128314" d="M430.623,236.791a7.026,7.026,0,0,0,2.185-.349,7.423,7.423,0,0,0,4.562-9.436,7.661,7.661,0,0,0-3.674-4.415,7.079,7.079,0,0,0-5.577-.513,7.423,7.423,0,0,0-4.562,9.436,7.661,7.661,0,0,0,3.674,4.415,7.188,7.188,0,0,0,3.392.862m-.32-14.323a6.45,6.45,0,0,1,3.045.775,6.925,6.925,0,0,1,3.319,3.992,6.683,6.683,0,0,1-4.089,8.5,6.346,6.346,0,0,1-5-.463,6.925,6.925,0,0,1-3.319-3.992,6.683,6.683,0,0,1,4.089-8.5,6.285,6.285,0,0,1,1.954-.312" transform="translate(-370.695 -188.363)" fill="#00102e"/>
              <path id="Trazado_128315" data-name="Trazado 128315" d="M529.84,235.871a.37.37,0,0,0,.154-.706c-5.812-2.665-12.68-5.486-14.507-5.411a.37.37,0,1,0,.03.738c1.372-.05,7.075,2.091,14.169,5.344a.369.369,0,0,0,.154.034" transform="translate(-476.986 -195.18)" fill="#00102e"/>
              <path id="Trazado_128316" data-name="Trazado 128316" d="M333.586,218.632a5.038,5.038,0,0,0,1.568-.249c3.12-1.018,4.659-4.91,3.43-8.675s-4.767-6-7.887-4.981-4.659,4.91-3.43,8.675a7.96,7.96,0,0,0,3.2,4.269,5.788,5.788,0,0,0,3.118.961m-1.329-13.413c2.348,0,4.7,1.881,5.625,4.718,1.1,3.377-.224,6.851-2.957,7.743a4.733,4.733,0,0,1-4.058-.632,7.22,7.22,0,0,1-2.9-3.875c-1.1-3.377.224-6.851,2.957-7.743a4.276,4.276,0,0,1,1.331-.211" transform="translate(-257.451 -173.711)" fill="#00102e"/>
              <path id="Trazado_128317" data-name="Trazado 128317" d="M367.268,246.348l.063.218c.043.144.1.354.189.619s.2.583.33.946.3.768.5,1.2.417.9.683,1.38.584.965.9,1.457.668,1,1.024,1.514.732,1.023,1.111,1.524a15.254,15.254,0,0,1,1.03,1.453,1.678,1.678,0,0,1,.216.643,1.62,1.62,0,0,1-.009.326l-.015.087,0,.022,0,.011v.005l0-.016-.012.054a.187.187,0,0,1-.009.03.282.282,0,0,1-.015.036.613.613,0,0,1-.363.254,2.8,2.8,0,0,1-.664.123,7.132,7.132,0,0,1-1.4-.068,11.252,11.252,0,0,1-2.107-.508,5.9,5.9,0,0,1-.752-.312.278.278,0,0,0-.308.46l0,0s.065.054.193.145a5.224,5.224,0,0,0,.571.354,8.718,8.718,0,0,0,2.224.814,6.662,6.662,0,0,0,1.62.174,3.3,3.3,0,0,0,.963-.152,2.039,2.039,0,0,0,.524-.256,1.487,1.487,0,0,0,.46-.506,1.359,1.359,0,0,0,.076-.164,1.542,1.542,0,0,0,.057-.181l.012-.054.007-.038,0-.017.005-.033.019-.134a2.715,2.715,0,0,0,0-.572,2.493,2.493,0,0,0-.388-1.07,6,6,0,0,0-.608-.8c-.211-.243-.424-.474-.638-.7-.426-.458-.843-.915-1.242-1.378s-.774-.935-1.116-1.4a16.638,16.638,0,0,1-.933-1.384c-.268-.456-.5-.9-.7-1.319a14.626,14.626,0,0,1-.774-2.1c-.073-.259-.126-.465-.156-.6l-.047-.218v0a.277.277,0,0,0-.542.117l0,.018" transform="translate(-298.943 -208.977)" fill="#f26979"/>
              <path id="Trazado_128318" data-name="Trazado 128318" d="M402.931,235.691a.37.37,0,0,0,.365-.313,2.232,2.232,0,0,1,1.524-1.626,1.776,1.776,0,0,1,1.882.752.37.37,0,1,0,.57-.471,2.463,2.463,0,0,0-2.648-.994,2.992,2.992,0,0,0-2.058,2.225.37.37,0,0,0,.309.422.363.363,0,0,0,.057,0" transform="translate(-337.192 -197.901)" fill="#00102e"/>
              <path id="Trazado_128319" data-name="Trazado 128319" d="M374.874,219.44a.369.369,0,0,0,.3-.153,3.591,3.591,0,0,1,1.711-1.3.37.37,0,1,0-.247-.7,4.327,4.327,0,0,0-2.063,1.563.369.369,0,0,0,.3.586" transform="translate(-302.746 -184.575)" fill="#fff"/>
              <path id="Trazado_128320" data-name="Trazado 128320" d="M363.726,217.058a.37.37,0,0,0,.139-.712,1.634,1.634,0,0,0-.2-.063c-.035-.009-.07-.018-.105-.03a.37.37,0,1,0-.243.7c.053.019.107.033.16.047a.889.889,0,0,1,.11.033.366.366,0,0,0,.139.027" transform="translate(-287.989 -183.694)" fill="#fff"/>
              <path id="Trazado_128321" data-name="Trazado 128321" d="M501.042,254.606a.37.37,0,0,0,.362-.3,4.945,4.945,0,0,1,.384-1.171.37.37,0,1,0-.667-.318,5.7,5.7,0,0,0-.442,1.346.37.37,0,0,0,.291.434.366.366,0,0,0,.072.007" transform="translate(-446.423 -214.597)" fill="#fff"/>
              <path id="Trazado_128322" data-name="Trazado 128322" d="M477.987,236.126a.368.368,0,0,0,.275-.122,5.45,5.45,0,0,1,2.5-1.533.37.37,0,1,0-.208-.709,6.142,6.142,0,0,0-2.838,1.747.369.369,0,0,0,.274.617" transform="translate(-422.154 -198.573)" fill="#fff"/>
              <path id="Trazado_128323" data-name="Trazado 128323" d="M462.315,233.3a.37.37,0,0,0,.113-.722,2.443,2.443,0,0,0-.257-.063c-.054-.011-.109-.022-.163-.037a.37.37,0,1,0-.195.713c.07.019.14.034.209.048a1.692,1.692,0,0,1,.179.042.37.37,0,0,0,.113.018" transform="translate(-401.396 -197.486)" fill="#fff"/>
              <path id="Trazado_128324" data-name="Trazado 128324" d="M243.988,964.6a36.712,36.712,0,0,0,12.21-2.228,62.534,62.534,0,0,0,16-8.773A104.256,104.256,0,0,0,294.2,931.277c.917-1.3-2.48-10.716-2.625-11.116-1.3-3.583-4.6-11.992-7.221-12.694-3.727-1-13.589,6.219-21.512,12.02-.749.548-1.471,1.077-2.156,1.575a.448.448,0,0,0,.527.725c.686-.5,1.408-1.027,2.158-1.576,6.944-5.084,17.439-12.767,20.751-11.878.392.105,1.517.778,3.505,4.75,3.412,6.817,6.212,16.643,5.83,17.695a103.3,103.3,0,0,1-21.793,22.105c-11.6,8.528-22.885,12.124-32.639,10.4-13.67-2.418-23.4-15.106-27.989-22.454-7.088-11.36-10.25-22.832-9.709-28.292a.448.448,0,0,0-.892-.089c-.648,6.543,3.491,18.678,9.841,28.855,4.664,7.475,14.581,20.384,28.593,22.862a29.341,29.341,0,0,0,5.119.443" transform="translate(-193.77 -770.836)" fill="#4997e8"/>
              <path id="Trazado_128325" data-name="Trazado 128325" d="M564.785,811.94a.448.448,0,0,0,.414-.619c-1.876-4.547-3.406-8.983-4.523-12.223-.68-1.971-1.17-3.395-1.489-4.116a.448.448,0,0,0-.82.361c.3.688.815,2.17,1.462,4.047,1.12,3.25,2.655,7.7,4.542,12.273a.448.448,0,0,0,.414.277" transform="translate(-518.508 -675.129)" fill="#4997e8"/>
              <path id="Trazado_128326" data-name="Trazado 128326" d="M452.092,1049.705a.928.928,0,0,0,.189-.02c.941-.2,1.988-1.923,3.618-4.725,1.246-2.141,3.331-5.724,4.2-5.384.737.289.514,1.234-.169,3.32-.586,1.79-1.316,4.018-.865,6.151a.448.448,0,0,0,.876-.186c-.4-1.9.258-3.91.84-5.686.641-1.957,1.247-3.805-.355-4.433s-3.31,2.338-5.3,5.767c-.98,1.685-2.457,4.224-3.017,4.3a1.42,1.42,0,0,1-.373-1.093c-.051-2.191,1.879-6.161,5.083-8.756a.448.448,0,1,0-.564-.7c-3.462,2.8-5.472,7.017-5.415,9.473a2.144,2.144,0,0,0,.748,1.8.84.84,0,0,0,.5.168" transform="translate(-398.551 -881.945)" fill="#4997e8"/>
              <path id="Trazado_128327" data-name="Trazado 128327" d="M625.587,643.833a.448.448,0,0,0,.409-.63q-.3-.676-.606-1.352a.448.448,0,0,0-.816.37q.3.673.6,1.346a.448.448,0,0,0,.41.266m-2.171-4.7a.448.448,0,0,0,.4-.643q-.323-.67-.653-1.333a.448.448,0,0,0-.8.4q.327.658.649,1.324a.448.448,0,0,0,.4.253m-2.349-4.612a.448.448,0,0,0,.394-.661q-.356-.659-.716-1.3a.448.448,0,0,0-.782.438q.357.637.709,1.29a.448.448,0,0,0,.395.235m-2.6-4.476a.448.448,0,0,0,.379-.687c-.27-.429-.543-.85-.81-1.251a.448.448,0,1,0-.745.5c.263.395.531.809.8,1.232a.448.448,0,0,0,.38.209m-2.974-4.233a.448.448,0,0,0,.35-.728c-.322-.4-.646-.79-.964-1.15a.448.448,0,1,0-.672.592c.308.349.623.725.936,1.117a.447.447,0,0,0,.35.168m-3.613-3.689a.448.448,0,0,0,.275-.8,12.6,12.6,0,0,0-1.261-.869.448.448,0,1,0-.46.769,11.74,11.74,0,0,1,1.171.807.446.446,0,0,0,.275.094m-5.158-1.92h.034c.121-.009.241-.014.362-.014h.071a.448.448,0,0,0,.006-.9h-.077c-.143,0-.288.005-.43.016a.448.448,0,0,0,.033.895" transform="translate(-586.525 -526.103)" fill="#4997e8"/>
              <path id="Trazado_128328" data-name="Trazado 128328" d="M171.911,533.494s-.173-.293-.487-.8c-.152-.254-.361-.555-.593-.9s-.507-.731-.812-1.145-.657-.846-1.024-1.308c-.383-.448-.78-.928-1.224-1.393s-.9-.946-1.382-1.423c-.494-.46-.986-.94-1.512-1.38-.513-.456-1.053-.879-1.575-1.306-.541-.4-1.063-.814-1.592-1.177-.262-.185-.519-.368-.776-.54l-.757-.5c-.487-.33-.972-.6-1.408-.872s-.854-.485-1.215-.692-.685-.371-.949-.51l-.835-.427a.224.224,0,0,0-.222.389l.006,0,.788.5c.252.155.559.341.9.57s.737.474,1.155.759.877.585,1.347.924l.727.515.746.555c.513.369,1.016.784,1.538,1.19.509.423,1.036.841,1.534,1.292s1,.9,1.486,1.346c.469.466.943.912,1.376,1.37s.846.9,1.241,1.326l.552.635c.179.2.353.4.511.6.32.391.619.744.869,1.068s.478.6.652.841c.354.478.562.747.562.747a.224.224,0,0,0,.37-.252" transform="translate(-64.594 -440.986)" fill="#3d8cff"/>
              <path id="Trazado_128329" data-name="Trazado 128329" d="M163.076,521.488l-.267-.476c-.083-.151-.2-.333-.333-.54s-.289-.436-.463-.683-.376-.5-.588-.778-.451-.551-.71-.826-.526-.56-.807-.84-.577-.555-.887-.812-.619-.514-.926-.765c-.319-.234-.627-.473-.94-.683s-.615-.413-.906-.6-.576-.343-.833-.5-.506-.275-.719-.391-.407-.206-.564-.283l-.5-.234a.224.224,0,0,0-.221.389l0,0,.449.3c.144.094.318.21.515.346l.662.454c.239.171.5.35.772.55s.556.408.846.631.585.459.885.7.6.489.886.75.578.519.86.777.547.525.8.787.494.519.727.759.438.481.628.7.368.424.517.607.286.338.393.477l.344.424a.225.225,0,0,0,.37-.252" transform="translate(-55.436 -435.857)" fill="#3d8cff"/>
              <path id="Trazado_128330" data-name="Trazado 128330" d="M431.422,450.785,457.3,467.319l-4.524,7.59-24.532-18.247Z" transform="translate(-391 -382.952)" fill="#fff"/>
              <path id="Trazado_128331" data-name="Trazado 128331" d="M378.951,455.17l4.385,5.518,1.5,15.285-7.689-4.929Z" transform="translate(-310.846 -386.678)" fill="#fff"/>
              <path id="Trazado_128332" data-name="Trazado 128332" d="M381.6,566.052a.448.448,0,0,0,.242-.825l-6.987-4.479a.448.448,0,0,0-.483.754l6.987,4.479a.445.445,0,0,0,.241.071" transform="translate(-307.615 -476.309)" fill="#4997e8"/>
              <path id="Trazado_128333" data-name="Trazado 128333" d="M436.975,576.523a.452.452,0,0,0,.088-.009.448.448,0,0,0,.3-.21l3.431-5.757a.448.448,0,1,0-.769-.459l-3.177,5.33-3.6-2.679a.448.448,0,1,0-.535.719l4,2.975a.447.447,0,0,0,.267.089" transform="translate(-375.2 -484.118)" fill="#4997e8"/>
              <path id="Trazado_128334" data-name="Trazado 128334" d="M513.741,517.658a.448.448,0,0,0,.268-.807l-13.964-10.386a.448.448,0,0,0-.534.719l13.963,10.386a.446.446,0,0,0,.267.089" transform="translate(-458.587 -430.178)" fill="#4997e8"/>
              <path id="Trazado_128335" data-name="Trazado 128335" d="M613.788,488.42a.448.448,0,0,0,.268-.807l-.889-.661a.448.448,0,1,0-.535.719l.889.661a.444.444,0,0,0,.267.089" transform="translate(-575.656 -413.602)" fill="#4997e8"/>
              <path id="Trazado_128336" data-name="Trazado 128336" d="M494.977,463.685a.37.37,0,0,0,.2-.681L477.9,451.964a.37.37,0,0,0-.4.623l17.278,11.04a.368.368,0,0,0,.2.058" transform="translate(-436.434 -383.905)" fill="#4997e8"/>
              <path id="Trazado_128337" data-name="Trazado 128337" d="M424.585,545.922a.37.37,0,0,0,.367-.328l.089-.78a.37.37,0,1,0-.734-.084l-.089.78a.37.37,0,0,0,.325.409l.042,0" transform="translate(-358.138 -462.483)" fill="#4997e8"/>
              <path id="Trazado_128338" data-name="Trazado 128338" d="M415.569,469.944a.369.369,0,0,0,.367-.331l1.09-10.559a.369.369,0,0,0-.735-.076l-1.09,10.558a.37.37,0,0,0,.33.405l.038,0" transform="translate(-348.766 -389.632)" fill="#4997e8"/>
              <path id="Trazado_128339" data-name="Trazado 128339" d="M377.921,506.69l.038,0a.369.369,0,0,0,.33-.4l-1.224-12.1a.37.37,0,1,0-.735.074l1.224,12.1a.369.369,0,0,0,.367.332" transform="translate(-304.179 -419.54)" fill="#4997e8"/>
              <path id="Trazado_128340" data-name="Trazado 128340" d="M445.859,917.552c-2.557-1.792-6-4.845-10.043-4.413s-9.516,5.833-9.223,7.445,8.538-3.506,9.575-2.865c.371.229-1.23,1.293-2.278,3.129-1.879,3.292-3.776,8.251-2.116,9.528,2.586,1.99,12.7-3.116,13.438-2.366.832.848,3.289,2.389,5.4,1.758,1.693-.507,5.026-3.023,5.026-3.023s-7.221-7.4-9.778-9.193" transform="translate(-389.087 -775.7)" fill="#ffb8c1"/>
              <path id="Trazado_128341" data-name="Trazado 128341" d="M526.091,983.948s-.139,0-.379.016a2.972,2.972,0,0,0-.452.058l-.287.052c-.1.022-.2.052-.3.08a6.08,6.08,0,0,0-.671.218c-.234.089-.473.2-.717.32a8.132,8.132,0,0,0-.724.417c-.244.148-.47.323-.7.493s-.446.358-.649.55-.4.385-.583.574-.35.384-.5.573-.291.368-.412.539-.231.328-.322.472-.17.269-.23.376c-.122.212-.184.338-.184.338a.379.379,0,0,0,.566.473l.007-.005s.111-.082.292-.235.438-.371.737-.635c.6-.524,1.379-1.223,2.186-1.853.1-.081.2-.154.3-.231s.2-.154.3-.224.2-.148.3-.215.2-.133.3-.2c.2-.127.392-.252.58-.361s.364-.218.534-.3c.084-.045.166-.086.242-.129l.215-.105c.134-.066.254-.131.371-.175.221-.095.346-.157.346-.157a.379.379,0,0,0-.171-.719" transform="translate(-473.821 -835.888)" fill="#f26979"/>
              <path id="Trazado_128342" data-name="Trazado 128342" d="M535.089,949.759s-.164.024-.446.08a1.422,1.422,0,0,0-.245.067c-.093.029-.192.066-.3.1a5.378,5.378,0,0,0-.667.3c-.238.116-.473.268-.728.426-.236.175-.507.343-.747.556s-.5.419-.739.658-.47.488-.7.739c-.216.263-.439.522-.632.8s-.384.544-.548.82-.309.552-.446.812-.24.525-.333.767a6.845,6.845,0,0,0-.215.682c-.049.211-.094.39-.113.546-.035.315-.044.491-.044.491a.371.371,0,0,0,.7.182l.024-.049s.069-.141.17-.379c.051-.119.139-.262.217-.427a2.651,2.651,0,0,1,.147-.258l.163-.285.4-.627c.156-.217.308-.45.486-.681l.263-.355.281-.356c.187-.241.392-.476.59-.714s.406-.47.62-.686l.309-.331.313-.31c.205-.205.414-.385.606-.57.205-.158.387-.336.569-.47s.35-.279.491-.361c.071-.048.14-.091.2-.137a1,1,0,0,1,.189-.117c.255-.133.4-.216.4-.216h0a.376.376,0,0,0-.244-.7" transform="translate(-484.259 -806.841)" fill="#f26979"/>
              <path id="Trazado_128343" data-name="Trazado 128343" d="M433.8,796.254c-3.234,2.595-10.53-7.728-6.361-10.633s9.958,7.747,6.361,10.633" transform="translate(-368.318 -666.982)" fill="#4997e8"/>
              <path id="Trazado_128344" data-name="Trazado 128344" d="M429.744,795.154a2.789,2.789,0,0,0,1.465-.41,3.351,3.351,0,0,0,1.427-3.24c-.126-3.03-2.452-6.886-4.881-8.089a3.065,3.065,0,0,0-3.273.133c-2.357,1.643-1.568,5.258.163,7.923,1.279,1.969,3.251,3.683,5.1,3.683m1.117-.985c-1.727,1.043-4.152-.752-5.654-3.064-1.56-2.4-2.332-5.618-.342-7.005a2.4,2.4,0,0,1,2.59-.083c2.2,1.092,4.393,4.744,4.508,7.515a2.8,2.8,0,0,1-1.1,2.637" transform="translate(-365.554 -665.185)" fill="#2a3f6e"/>
              <path id="Trazado_128345" data-name="Trazado 128345" d="M434.064,798.173c1.4-.993,5.54,3.8,3.5,5.847s-5.628-4.5-3.5-5.847" transform="translate(-372.599 -677.954)" fill="#2a3f6e"/>
              <path id="Trazado_128346" data-name="Trazado 128346" d="M434.337,802.983a1.85,1.85,0,0,0,1.2-.455c1.027-.852.99-2.522-.095-4.255-.935-1.494-2.527-2.714-3.76-2.156l-.054.031a2.479,2.479,0,0,0-.88,2.448,5.53,5.53,0,0,0,2.814,4.229,2.082,2.082,0,0,0,.776.159m-2-6.334c.816,0,1.868.922,2.529,1.98.68,1.086,1.149,2.624.235,3.382a1.187,1.187,0,0,1-1.3.19,4.953,4.953,0,0,1-2.4-3.682,1.894,1.894,0,0,1,.572-1.8.926.926,0,0,1,.356-.067" transform="translate(-370.353 -676.204)" fill="#fff"/>
              <path id="Trazado_128347" data-name="Trazado 128347" d="M479.594,506.019a.56.56,0,0,0,.51-.79c-2.906-6.453-8.739-13.432-14.38-20.182-5.918-7.08-12.036-14.4-14.693-21.026a10.6,10.6,0,0,1,.433-8.874,4.123,4.123,0,0,1,2.656-2.245.56.56,0,1,0-.173-1.106,5.13,5.13,0,0,0-3.456,2.8,11.773,11.773,0,0,0-.5,9.844c2.722,6.789,8.9,14.18,14.873,21.328,5.592,6.691,11.375,13.61,14.218,19.923a.56.56,0,0,0,.511.33" transform="translate(-417.001 -383.805)" fill="#2a3f6e"/>
              <path id="Trazado_128348" data-name="Trazado 128348" d="M255.467,691.559a.493.493,0,0,0,.486-.417,9.47,9.47,0,0,1,7.573-7.913,8.767,8.767,0,0,1,9.376,3.512.493.493,0,1,0,.83-.531,9.742,9.742,0,0,0-10.409-3.945,10.438,10.438,0,0,0-8.344,8.726.493.493,0,0,0,.488.569" transform="translate(-181.438 -579.39)" fill="#4997e8"/>
              <path id="Trazado_128349" data-name="Trazado 128349" d="M243.8,668.251a.56.56,0,0,0,.42-.93c-4.89-5.549-7.057-17.157-4.638-24.841.729-2.316,2.221-5.228,5.19-5.95,2.122-.516,4.239.313,6.292,2.465,5.311,5.566,8.358,18.4,6.153,25.91a.56.56,0,1,0,1.075.316c2.34-7.968-.779-21.088-6.417-27-2.316-2.428-4.863-3.389-7.367-2.781-2.752.669-4.824,2.987-5.994,6.7-2.52,8.006-.246,20.117,4.866,25.918a.559.559,0,0,0,.42.19" transform="translate(-164.069 -539.672)" fill="#2a3f6e"/>
              <path id="Trazado_128350" data-name="Trazado 128350" d="M238.374,814.635c1.46.235.93,5.1-1.123,4.774s-.915-5.1,1.123-4.774" transform="translate(-144.001 -692.039)" fill="#4997e8"/>
              <path id="Trazado_128351" data-name="Trazado 128351" d="M246.512,840.464c.4-.3-1.05-.773-1.064-.446s.759.676,1.064.446" transform="translate(-152.777 -713.522)" fill="#2a3f6e"/>
              <path id="Trazado_128352" data-name="Trazado 128352" d="M325.9,835.732c1.041-1.051,4.687,2.21,3.229,3.691s-4.682-2.224-3.229-3.691" transform="translate(-247.712 -709.801)" fill="#4997e8"/>
              <path id="Trazado_128353" data-name="Trazado 128353" d="M329.242,856.3c-.013-.5-1.239.4-.982.606s.991-.224.982-.606" transform="translate(-247.892 -727.319)" fill="#2a3f6e"/>
              <path id="Trazado_128354" data-name="Trazado 128354" d="M341.984,534.576a.553.553,0,0,0,.172-.027.56.56,0,0,0,.361-.7c-1.568-4.871-4.081-11.268-5.894-13.8a.56.56,0,0,0-.911.652c1.665,2.326,4.147,8.548,5.738,13.491a.56.56,0,0,0,.533.388" transform="translate(-262.306 -441.592)" fill="#2a3f6e"/>
              <path id="Trazado_128355" data-name="Trazado 128355" d="M312.5,607.389c1.286-.278,1.435,2.672,2,3.293.744.816,2.734.729,2.481,2.219-.164.972-2.414-.091-3.235.246s-2.184,1.6-2.867.885c-.714-.744,1.2-2.41,1.331-2.97s-1.173-3.357.289-3.673" transform="translate(-233.025 -515.976)" fill="#4997e8"/>
              <path id="Trazado_128356" data-name="Trazado 128356" d="M274.235,763.047l9.662-1.905-.939-4.879-9.662,1.906Z" transform="translate(-194.282 -642.464)" fill="#3d8cff"/>
            </g>
          </g>
        </g>
      </g>
      <g id="Grupo_134517" data-name="Grupo 134517" transform="translate(886.731 4328.371) rotate(180)">
        <path id="Trazado_113538" data-name="Trazado 113538" d="M35.19,5.32c-1.6,0-2.4-1.281-3.033-2.31s-1.081-1.68-1.9-1.68-1.257.638-1.9,1.68-1.428,2.31-3.032,2.31-2.4-1.281-3.033-2.31-1.08-1.68-1.9-1.68-1.256.638-1.9,1.68-1.428,2.31-3.032,2.31-2.4-1.281-3.031-2.31-1.079-1.68-1.9-1.68-1.256.638-1.9,1.68S7.2,5.32,5.6,5.32,3.2,4.039,2.565,3.01,1.486,1.33.666,1.33A.665.665,0,1,1,.666,0C2.269,0,3.061,1.281,3.7,2.311S4.776,3.99,5.6,3.99s1.256-.638,1.9-1.679S8.924,0,10.527,0s2.395,1.281,3.03,2.31,1.079,1.68,1.9,1.68,1.256-.638,1.9-1.68S18.786,0,20.389,0s2.4,1.281,3.033,2.31,1.079,1.68,1.9,1.68,1.256-.638,1.9-1.68S28.651,0,30.255,0s2.4,1.281,3.033,2.31,1.081,1.68,1.9,1.68,1.258-.638,1.9-1.68S38.521,0,40.126,0a.665.665,0,1,1,0,1.33c-.822,0-1.258.638-1.9,1.68S36.795,5.32,35.19,5.32Z" fill="#133d60"/>
        <path id="Trazado_126924" data-name="Trazado 126924" d="M35.19,5.32c-1.6,0-2.4-1.281-3.033-2.31s-1.081-1.68-1.9-1.68-1.257.638-1.9,1.68-1.428,2.31-3.032,2.31-2.4-1.281-3.033-2.31-1.08-1.68-1.9-1.68-1.256.638-1.9,1.68-1.428,2.31-3.032,2.31-2.4-1.281-3.031-2.31-1.079-1.68-1.9-1.68-1.256.638-1.9,1.68S7.2,5.32,5.6,5.32,3.2,4.039,2.565,3.01,1.486,1.33.666,1.33A.665.665,0,1,1,.666,0C2.269,0,3.061,1.281,3.7,2.311S4.776,3.99,5.6,3.99s1.256-.638,1.9-1.679S8.924,0,10.527,0s2.395,1.281,3.03,2.31,1.079,1.68,1.9,1.68,1.256-.638,1.9-1.68S18.786,0,20.389,0s2.4,1.281,3.033,2.31,1.079,1.68,1.9,1.68,1.256-.638,1.9-1.68S28.651,0,30.255,0s2.4,1.281,3.033,2.31,1.081,1.68,1.9,1.68,1.258-.638,1.9-1.68S38.521,0,40.126,0a.665.665,0,1,1,0,1.33c-.822,0-1.258.638-1.9,1.68S36.795,5.32,35.19,5.32Z" transform="translate(0 12.281)" fill="#133d60"/>
        <path id="Trazado_113539" data-name="Trazado 113539" d="M35.19,5.32c-1.6,0-2.4-1.281-3.033-2.31s-1.081-1.68-1.9-1.68-1.257.638-1.9,1.68-1.428,2.31-3.032,2.31-2.4-1.281-3.033-2.31-1.08-1.68-1.9-1.68-1.256.638-1.9,1.68-1.428,2.31-3.032,2.31-2.4-1.281-3.031-2.31-1.079-1.68-1.9-1.68-1.256.638-1.9,1.68S7.2,5.32,5.6,5.32,3.2,4.039,2.565,3.01,1.486,1.33.666,1.33A.665.665,0,1,1,.666,0C2.269,0,3.061,1.281,3.7,2.311S4.776,3.99,5.6,3.99s1.256-.638,1.9-1.679S8.924,0,10.527,0s2.395,1.281,3.03,2.31,1.079,1.68,1.9,1.68,1.256-.638,1.9-1.68S18.786,0,20.389,0s2.4,1.281,3.033,2.31,1.079,1.68,1.9,1.68,1.256-.638,1.9-1.68S28.651,0,30.255,0s2.4,1.281,3.033,2.31,1.081,1.68,1.9,1.68,1.258-.638,1.9-1.68S38.521,0,40.126,0a.665.665,0,1,1,0,1.33c-.822,0-1.258.638-1.9,1.68S36.795,5.32,35.19,5.32Z" transform="translate(0 6.141)" fill="#133d60"/>
        <path id="Trazado_126923" data-name="Trazado 126923" d="M35.19,5.32c-1.6,0-2.4-1.281-3.033-2.31s-1.081-1.68-1.9-1.68-1.257.638-1.9,1.68-1.428,2.31-3.032,2.31-2.4-1.281-3.033-2.31-1.08-1.68-1.9-1.68-1.256.638-1.9,1.68-1.428,2.31-3.032,2.31-2.4-1.281-3.031-2.31-1.079-1.68-1.9-1.68-1.256.638-1.9,1.68S7.2,5.32,5.6,5.32,3.2,4.039,2.565,3.01,1.486,1.33.666,1.33A.665.665,0,1,1,.666,0C2.269,0,3.061,1.281,3.7,2.311S4.776,3.99,5.6,3.99s1.256-.638,1.9-1.679S8.924,0,10.527,0s2.395,1.281,3.03,2.31,1.079,1.68,1.9,1.68,1.256-.638,1.9-1.68S18.786,0,20.389,0s2.4,1.281,3.033,2.31,1.079,1.68,1.9,1.68,1.256-.638,1.9-1.68S28.651,0,30.255,0s2.4,1.281,3.033,2.31,1.081,1.68,1.9,1.68,1.258-.638,1.9-1.68S38.521,0,40.126,0a.665.665,0,1,1,0,1.33c-.822,0-1.258.638-1.9,1.68S36.795,5.32,35.19,5.32Z" transform="translate(0 18.422)" fill="#133d60"/>
      </g>
    </g>
    <g id="Grupo_135995" data-name="Grupo 135995" transform="translate(735.334 4294.554)">
      <path id="Trazado_113320" data-name="Trazado 113320" d="M2605.744,1508.248a10.272,10.272,0,1,1,10.272-10.272A10.284,10.284,0,0,1,2605.744,1508.248Zm0-15.694a5.422,5.422,0,1,0,5.421,5.422A5.428,5.428,0,0,0,2605.744,1492.554Z" transform="translate(-2595.472 -1487.703)" fill="#133d60"/>
    </g>
  </g>
</svg>
