<svg xmlns="http://www.w3.org/2000/svg" xmlns:xlink="http://www.w3.org/1999/xlink" width="85" height="85" viewBox="0 0 85 85">
  <defs>
    <clipPath id="clip-path">
      <rect id="Rectángulo_36253" data-name="Rectángulo 36253" width="56.657" height="56.664" fill="#fff"/>
    </clipPath>
  </defs>
  <g id="Grupo_136064" data-name="Grupo 136064" transform="translate(-232.558 -3773)">
    <circle id="Elipse_4982" data-name="Elipse 4982" cx="42.5" cy="42.5" r="42.5" transform="translate(232.558 3773)" fill="#3ba3f8"/>
    <g id="Grupo_136063" data-name="Grupo 136063" transform="translate(246.558 3787)">
      <g id="Grupo_136062" data-name="Grupo 136062" transform="translate(0 0)" clip-path="url(#clip-path)">
        <path id="Trazado_128591" data-name="Trazado 128591" d="M55.181,55.454c-.977.029-1.955-.015-2.931.018-.4.013-.484-.116-.472-.491.027-.81.031-1.623-.006-2.433a6.16,6.16,0,0,0-1.754-4.12,1.071,1.071,0,0,1-.328-.822c.011-3.8,0-7.6.01-11.395a9.834,9.834,0,0,0-.885-4.287,10.07,10.07,0,0,0-10.917-5.7,9.865,9.865,0,0,0-8.343,9.462c-.069,3.981-.023,7.965-.017,11.947a1,1,0,0,1-.307.775,6.126,6.126,0,0,0-1.694,3.4,21.731,21.731,0,0,0-.086,3.2c0,.34-.058.488-.442.463-.569-.036-1.143-.02-1.714-.006a1.116,1.116,0,0,0-1.2.925c.015.884.4,1.278,1.278,1.283,1.509.008,3.019.014,4.528-.007.35,0,.424.1.422.432-.015,2.1-.009,4.2-.007,6.3,0,1.089.378,1.469,1.455,1.471s2.135,0,3.2,0c.914,0,1.217-.238,1.442-1.108.035-.017.071-.028.107-.042a1.335,1.335,0,0,0-1.417-1.229c-.608-.023-1.217-.016-1.825,0-.425.007-.587-.171-.583-.594.012-1.475.014-2.95,0-4.425,0-.453.169-.619.617-.618q6.305.01,12.609,0c.41,0,.6.142.6.577-.011,1.493-.013,2.987,0,4.48,0,.439-.185.582-.6.578-.7-.007-1.4-.035-2.1.015A1.349,1.349,0,0,0,42.47,64.7c.04.017.08.03.12.051.217.85.53,1.1,1.391,1.108q1.77.007,3.541,0c.982,0,1.386-.4,1.388-1.375,0-2.1.013-4.206-.009-6.308,0-.407.087-.525.509-.517,1.53.029,3.061.024,4.592,0,.37-.006.451.107.45.461q-.02,4.98,0,9.96c0,.385-.131.441-.469.441q-13.251-.012-26.5,0c-.377,0-.5-.077-.492-.476a28.424,28.424,0,0,0-.054-3.869,7.072,7.072,0,0,0-6.3-6.286c-.762-.129-1.522-.273-2.28-.429a1.18,1.18,0,0,1-1.021-.885c-.217-.325-.017-.482.237-.651a7.376,7.376,0,0,0,3.444-6.26c.04-1.492.032-2.986,0-4.478A7.508,7.508,0,0,0,6.074,44.32a38.864,38.864,0,0,0-.094,4.914,7.466,7.466,0,0,0,3.5,6.731.478.478,0,0,1,.188.691,1.524,1.524,0,0,1-1.3.886c-.85.158-1.7.305-2.552.465A7.077,7.077,0,0,0,.095,63.964.615.615,0,0,1,0,64.536v5.313a1.545,1.545,0,0,0,.885.885H55.772a1.544,1.544,0,0,0,.885-.885v-13.5a1.344,1.344,0,0,0-1.476-.893m-23.2-21.4a7.893,7.893,0,0,1,7.777-5.783,7.776,7.776,0,0,1,7.616,6.5,36.64,36.64,0,0,1,.105,4.637c.013.479,0,.959,0,1.438,0,1.807-.01,3.613.007,5.42,0,.4-.064.488-.489.38-.944-.238-1.908-.4-2.865-.582a1.507,1.507,0,0,1-.614-.228c-.5-.357-.5-.68-.009-1.03A6.69,6.69,0,0,0,46.453,39.5c.065-1.269.02-2.543.022-3.815a1.142,1.142,0,0,0-.606-1.044c-1.237-.728-2.468-1.467-3.714-2.18a1.07,1.07,0,0,0-1.5.228,5.591,5.591,0,0,1-4.6,1.846c-.718-.025-1.438-.017-2.156,0a1.022,1.022,0,0,0-1.116,1,23.492,23.492,0,0,0,.179,5.235,6.713,6.713,0,0,0,2.669,4c.182.135.54.16.467.516a.9.9,0,0,1-.7.709c-.644.153-1.3.262-1.947.392a7.7,7.7,0,0,0-1.184.255c-.492.183-.53-.019-.528-.434.013-2.747,0-5.494.011-8.24a15.572,15.572,0,0,1,.234-3.9m6.642,9.664a4.646,4.646,0,0,1-3.648-4.371c-.025-.718.019-1.439-.02-2.155-.023-.42.147-.472.5-.462a9.941,9.941,0,0,0,3.5-.366A7.046,7.046,0,0,0,41.4,35.01a.46.46,0,0,1,.661-.054c.62.4,1.259.761,1.9,1.12a.5.5,0,0,1,.3.515c-.022.5-.006.995-.006,1.728a5.759,5.759,0,0,1-.55,3.044,4.673,4.673,0,0,1-5.088,2.358m2.584,4.391c-.49.6-.926,1.236-1.373,1.866-.159.225-.267.247-.438.008-.588-.823-1.189-1.636-1.787-2.452-.075-.1-.2-.206-.094-.338a5.282,5.282,0,0,0,.695-1.182c.058-.137.231-.06.354-.062a5.536,5.536,0,0,0,2.084,0c.229-.044.389,0,.462.252a.854.854,0,0,0,.181.4c.637.552.33,1-.086,1.51m7.917,7.357c-3.17-.014-6.339-.008-9.509-.008-3.151,0-6.3-.008-9.453.01-.4,0-.545-.08-.519-.508.041-.661.005-1.327.012-1.99a4.19,4.19,0,0,1,3.433-4.268c.628-.14,1.273-.208,1.9-.369a.546.546,0,0,1,.676.277c.948,1.314,1.91,2.619,2.871,3.923.709.961,1.457.963,2.164,0q1.441-1.958,2.869-3.925a.548.548,0,0,1,.676-.279c.73.186,1.486.267,2.213.46a4.109,4.109,0,0,1,3.109,3.9c.032.773-.01,1.549.02,2.322.014.364-.1.457-.457.455M8.22,49.89a36.83,36.83,0,0,1,.061-5.3,5.293,5.293,0,0,1,10.528.826c.015.7,0,1.4,0,2.284a12.661,12.661,0,0,1-.317,3.706,5.326,5.326,0,0,1-8.27,2.388,5.144,5.144,0,0,1-2-3.9m6.744,7.785c-.5.137-.99.278-1.466.412-.554-.156-1.086-.3-1.615-.457-.214-.062-.133-.2-.1-.353.056-.222.167-.3.392-.252a6.579,6.579,0,0,0,1.87.1,4.389,4.389,0,0,0,.764-.1c.276-.064.344.09.42.3.1.281-.087.3-.269.355m9.3,10.857c-3.594-.02-7.188-.011-10.782-.011-3.576,0-7.152-.007-10.727.009-.416,0-.562-.081-.552-.533.03-1.247.007-1.247,1.265-1.247q3.042,0,6.082,0c.758,0,1.218-.339,1.3-.926.108-.767-.387-1.279-1.273-1.283-1.88-.008-3.76,0-5.64,0h-1c-.78,0-.8-.005-.57-.783a4.865,4.865,0,0,1,3.989-3.6,29.594,29.594,0,0,0,3.454-.716.887.887,0,0,1,.539.06c.885.25,1.771.495,2.652.756a1.682,1.682,0,0,0,.975.005,11.059,11.059,0,0,1,3.081-.78,22.053,22.053,0,0,1,3.075.581A5.713,5.713,0,0,1,23.225,61.4a4.878,4.878,0,0,1,1.561,3.651c.009.977-.019,1.955.012,2.93.013.423-.089.552-.535.549" transform="translate(0 -14.07)" fill="#fff"/>
        <path id="Trazado_128592" data-name="Trazado 128592" d="M4.193,20.789c.311.029.231.222.231.386q.007,1.577,0,3.154a1.371,1.371,0,0,0,.211.841c.439.619,1.209.622,1.851-.016q2.022-2.008,4.024-4.035a.972.972,0,0,1,.77-.318q3.374.019,6.749,0a4.386,4.386,0,0,0,4.544-4.526c.008-.737.011-1.475,0-2.213-.005-.254.05-.374.33-.346a3.312,3.312,0,0,0,.718,0,1.263,1.263,0,0,1,1.151.465c.849.9,1.743,1.751,2.611,2.63a1.182,1.182,0,0,0,1.389.378,1.151,1.151,0,0,0,.669-1.221c-.012-.572.026-1.146-.012-1.715-.028-.414.1-.535.518-.587a4.2,4.2,0,0,0,3.871-4c.114-1.855.056-3.724.014-5.585a4.065,4.065,0,0,0-1.191-2.722A4.869,4.869,0,0,0,29.989,0H15.16a4.068,4.068,0,0,0-3.553,2.41A5.493,5.493,0,0,0,11.128,5.1c.006.681-.035.715-.719.717-1.935,0-3.87,0-5.805,0a4.643,4.643,0,0,0-2.243.5A4.069,4.069,0,0,0,0,9.85v7.083a4.408,4.408,0,0,0,4.193,3.856m9.3-15.264c.03-.367,0-.737.009-1.106a2.152,2.152,0,0,1,2.212-2.2c1.678-.018,3.356-.005,5.034-.005q4.233,0,8.465,0A2.2,2.2,0,0,1,31.647,4.64q.006,2.213,0,4.427a2.2,2.2,0,0,1-2.417,2.443h-.166c-1.583,0-1.785.193-1.845,1.753a1.489,1.489,0,0,1-.053.215c-.487-.489-.949-.93-1.383-1.4a1.666,1.666,0,0,0-1.372-.577c-.57.026-1.262.2-1.681-.055s-.111-1.007-.186-1.538A4.387,4.387,0,0,0,18.092,5.98q-2.074-.026-4.15.006c-.369.006-.478-.1-.449-.46M2.227,10.28A2.134,2.134,0,0,1,4.542,8.192q6.443-.008,12.886,0c.276,0,.553-.008.829.006a2.123,2.123,0,0,1,2.092,2.087q.046,3.1,0,6.195a2.122,2.122,0,0,1-2.233,2.112c-2.415.012-4.83.022-7.245-.007a2.084,2.084,0,0,0-1.658.7c-.8.852-1.651,1.666-2.575,2.592,0-.782.012-1.408,0-2.035A1.141,1.141,0,0,0,5.4,18.6c-.369-.011-.738.009-1.106-.009A2.111,2.111,0,0,1,2.229,16.53q-.051-3.124,0-6.25" transform="translate(0 0)" fill="#fff"/>
        <path id="Trazado_128593" data-name="Trazado 128593" d="M83.965,56.94a.588.588,0,0,1-.7,0,1.04,1.04,0,0,0-1.455.266,1.1,1.1,0,0,0,.178,1.487,2.319,2.319,0,0,0,1.583.634,2.4,2.4,0,0,0,1.669-.632,1.087,1.087,0,0,0,.177-1.485,1.031,1.031,0,0,0-1.452-.271" transform="translate(-44.01 -30.611)" fill="#fff"/>
        <path id="Trazado_128594" data-name="Trazado 128594" d="M80.384,52.414a1.093,1.093,0,0,0-1.044-1.121A1.119,1.119,0,0,0,78.2,52.386a1.1,1.1,0,0,0,1.081,1.087,1.074,1.074,0,0,0,1.1-1.059" transform="translate(-42.179 -27.664)" fill="#fff"/>
        <path id="Trazado_128595" data-name="Trazado 128595" d="M91.242,52.375a1.127,1.127,0,0,0-1.087-1.092,1.1,1.1,0,0,0-1.091,1.132,1.072,1.072,0,0,0,1.105,1.052,1.093,1.093,0,0,0,1.073-1.093" transform="translate(-48.036 -27.66)" fill="#fff"/>
      </g>
    </g>
  </g>
</svg>
