<svg xmlns="http://www.w3.org/2000/svg" xmlns:xlink="http://www.w3.org/1999/xlink" width="85" height="85" viewBox="0 0 85 85">
  <defs>
    <clipPath id="clip-path">
      <rect id="Rectángulo_36252" data-name="Rectángulo 36252" width="58.313" height="53.419" transform="translate(0 0)" fill="#fff"/>
    </clipPath>
  </defs>
  <g id="Grupo_136061" data-name="Grupo 136061" transform="translate(-232.558 -3877)">
    <circle id="Elipse_4983" data-name="Elipse 4983" cx="42.5" cy="42.5" r="42.5" transform="translate(232.558 3877)" fill="#3ba3f8"/>
    <g id="Grupo_136060" data-name="Grupo 136060" transform="translate(245.901 3892.791)">
      <g id="Grupo_136059" data-name="Grupo 136059" transform="translate(0 0)" clip-path="url(#clip-path)">
        <path id="Trazado_128581" data-name="Trazado 128581" d="M0,31.617a.767.767,0,0,0,.109-.183A3.755,3.755,0,0,1,2.84,28.651c2.122-.642,4.24-1.3,6.371-1.906.457-.131.539-.338.578-.78A2.965,2.965,0,0,0,8.7,23.218,8.816,8.816,0,0,1,5.918,17.63a.883.883,0,0,0-.408-.569,2.808,2.808,0,0,1-.866-4.431,1.125,1.125,0,0,0,.232-.656c.021-1.309.047-2.62,0-3.928A7.679,7.679,0,0,1,12.32.027c2.807-.036,5.618-.048,8.423.038a3.482,3.482,0,0,1,3.146,2.351,1.793,1.793,0,0,0,.454.621,4.7,4.7,0,0,1,1.75,3.677c.008,1.727-.01,3.454.017,5.181a1.392,1.392,0,0,0,.3.8,2.792,2.792,0,0,1-.869,4.31.793.793,0,0,0-.512.71c-.076.617-.238,1.223-.371,1.874.165.089.342.191.525.282a38.74,38.74,0,0,1,3.494,1.777,2.4,2.4,0,0,0,2.947-.028.728.728,0,0,0,.4-.654c.057-1.954.147-3.907.207-5.86a11.562,11.562,0,0,1,23-1.236c.2,1.5.115,3.031.23,4.543q.4,5.191.872,10.375a1.381,1.381,0,0,1-.822,1.409,19.952,19.952,0,0,1-5.6,2.315l-.73.192c.279.124.455.209.636.281,1.952.784,3.905,1.562,5.855,2.349a3.791,3.791,0,0,1,2.639,3.9c0,1.443,0,2.885,0,4.327a.967.967,0,0,1-.719,1.08c-.129.039-.25.341-.252.523-.017,2.315-.01,4.631-.013,6.946a3.133,3.133,0,0,1-.047.679.826.826,0,0,1-1.587.04,2.962,2.962,0,0,1-.069-.733q-.008-3.388,0-6.776v-.63h-2.2V46.2q0,3.075,0,6.15c0,.686-.3,1.057-.834,1.065s-.868-.373-.869-1.041q-.01-5.153,0-10.306c0-.669.335-1.065.855-1.067s.839.386.85,1.06c0,.263,0,.526,0,.834H56.6V42.37c0-1.1.008-2.2,0-3.3a2.039,2.039,0,0,0-1.248-2c-1.072-.47-2.167-.887-3.3-1.347a8.73,8.73,0,0,1-14.519,3.358,7.967,7.967,0,0,1-2.237,3.559,2.524,2.524,0,0,1-.663.531c-.848.333-.753,1.03-.69,1.7a.624.624,0,0,0,.375.391c.873.316,1.76.591,2.638.892a3.776,3.776,0,0,1,2.8,3.881c0,.8.009,1.594,0,2.392-.008.632-.33.995-.849.991s-.84-.372-.852-1c-.015-.8,0-1.594-.006-2.391a2.364,2.364,0,0,0-2.173-2.42.579.579,0,0,0-.393.23,6.69,6.69,0,0,1-10.713,0,.644.644,0,0,0-.546-.17,2.282,2.282,0,0,0-2.02,2.643c0,.7.009,1.4,0,2.107-.011.627-.339,1-.849,1s-.845-.373-.854-.995q-.016-1.253,0-2.505a3.775,3.775,0,0,1,2.65-3.714c.892-.318,1.79-.622,2.7-.9a.627.627,0,0,0,.516-.669,1.509,1.509,0,0,0-.767-1.519,7.311,7.311,0,0,1-3.075-5.236c-.04-.319-.063-.64-.1-1.016a3.187,3.187,0,0,1-2.248-1.025c-.069-.078-.35-.035-.494.034a9.867,9.867,0,0,1-3.382.918,9.662,9.662,0,0,1-10.02-6.784c-.053-.18-.112-.357-.175-.56-.973.294-1.92.565-2.855.868A2,2,0,0,0,1.724,32.3c-.03,2.864-.011,5.728-.011,8.639h4.08c0-1.192.03-2.363-.02-3.532a2.135,2.135,0,0,0-.42-.917c-.392-.627-.825-1.228-1.223-1.852a.876.876,0,0,1,.174-1.3.859.859,0,0,1,1.227.333,17.92,17.92,0,0,1,1.481,2.29,5,5,0,0,1,.52,2.057c.044,4.764.023,9.528.022,14.292a2.576,2.576,0,0,1-.027.4.756.756,0,0,1-.766.7.758.758,0,0,1-.859-.656,3.532,3.532,0,0,1-.054-.678q-.005-4.328,0-8.655v-.695H2.721c-.011.239-.03.458-.03.678q0,4.27,0,8.541c0,.152.005.3,0,.455-.033.653-.324,1.005-.837,1.016-.538.011-.864-.352-.865-1.034q-.012-4.527,0-9.053c0-.367,0-.643-.472-.734-.2-.038-.344-.324-.513-.5V31.617M40.5,14.993c-.075.069-.114.089-.129.121a5.807,5.807,0,0,1-4.1,3.137.85.85,0,0,1-1.068-.513.841.841,0,0,1,.542-1.1c.261-.111.538-.182.8-.285a3.546,3.546,0,0,0,2.512-2.883.822.822,0,0,1,1.4-.55A12.478,12.478,0,0,0,45.317,14.9c1.549.356,3.116.672,4.622,1.165A4.564,4.564,0,0,1,53.3,19.98a9.247,9.247,0,0,1-4.011,9.239,1.521,1.521,0,0,0-.692,1.8.527.527,0,0,0,.167.019,20.745,20.745,0,0,0,5.363-1.987.691.691,0,0,0,.415-.809,131.762,131.762,0,0,1-.916-13.22,9.322,9.322,0,0,0-.492-2.668,9.844,9.844,0,0,0-19.071,1.678c-.212,1.706-.172,3.444-.239,5.167-.016.41,0,.82,0,1.3.528-.26,1.013-.5,1.5-.74.953-.461,1.5-.122,1.509.947.01,1.025-.014,2.05.015,3.073a1.5,1.5,0,0,0,.265.7c.624.988,1.264,1.966,1.91,2.939a2.023,2.023,0,0,0,.5.576,7.876,7.876,0,0,0,12.1-7.7,3.02,3.02,0,0,0-1.012-1.916,7.661,7.661,0,0,0-3.4-1.333A22.923,22.923,0,0,1,40.5,14.993M6.639,11.705a7.733,7.733,0,0,1,.876.006c.412.049.608-.1.711-.511.134-.531.365-1.037.511-1.565a1.056,1.056,0,0,1,1.106-.86q1.507-.052,3.012-.161a24.333,24.333,0,0,0,8.035-1.648.846.846,0,0,1,1.235.42.817.817,0,0,1-.561,1.124,28.394,28.394,0,0,1-3.011,1.006,36.817,36.817,0,0,1-7.778.931.6.6,0,0,0-.678.507c-.15.566-.372,1.114-.546,1.674a.988.988,0,0,1-1.088.791,8.2,8.2,0,0,0-1.534.014,1.9,1.9,0,0,0-1.049.438,1.035,1.035,0,0,0,.635,1.7c.916.233.995.325,1.074,1.254.024.284.03.57.075.85a7.916,7.916,0,0,0,15.721-.618c.094-1.164.095-1.162,1.2-1.5a1.023,1.023,0,0,0,.773-1.067.958.958,0,0,0-.786-.988,7.761,7.761,0,0,0-1.129-.085c-.593-.028-.959-.325-.983-.812s.361-.86.971-.893c.311-.017.624,0,.947,0,0-1.785.025-3.473-.01-5.159a2.923,2.923,0,0,0-1.232-2.271,2.274,2.274,0,0,1-.718-.9,2.15,2.15,0,0,0-2.277-1.669c-2.486-.011-4.972-.032-7.458,0A5.906,5.906,0,0,0,6.67,6.91a42,42,0,0,0-.032,4.795M22.207,31.152a2.309,2.309,0,0,0,.269.026,32.038,32.038,0,0,0,7.312-1.006c1.6-.445,3.134-1.106,4.685-1.7.679-.262,1.285-.054,1.372.572.068.491-.233.766-.628.978a21.765,21.765,0,0,1-5.5,1.952,39.318,39.318,0,0,1-7.327.931,1.174,1.174,0,0,0-1.153,1.107,1.119,1.119,0,0,0,1.121,1.126c.283.022.569,0,.854.011a.863.863,0,0,1,.933.92c.015.341,0,.683.009,1.025a6.065,6.065,0,0,0,3.883,5.466,5.992,5.992,0,0,0,8.067-5.57c.025-1.741.025-1.741,1.732-1.846a1.116,1.116,0,0,0,1.127-.788,1.162,1.162,0,0,0-.435-1.251,1.841,1.841,0,0,1-.457-.965c-.081-.539-.012-1.1-.055-1.647A7.513,7.513,0,0,0,36.7,26.725a1,1,0,0,1-1.328.152c-1.573-.794-3.159-1.565-4.727-2.37a.964.964,0,0,0-1-.013c-1.531.793-3.083,1.546-4.623,2.323-.5.254-.986.438-1.451-.106a8.03,8.03,0,0,0-1.362,4.442m15.848,5.721c1.107,2.138,4.105,3.462,6.866,3.048C47.478,39.538,50,37.3,50.382,35c-2.274-.575-4.012-1.645-3.488-4.51a10.04,10.04,0,0,1-7.143-.382c0,.3,0,.522,0,.747a2.535,2.535,0,0,0,.488,1.665,2.733,2.733,0,0,1-1.684,4.241c-.164.039-.33.074-.5.112M19.506,25.244a9.912,9.912,0,0,1-8.005.013c0,.8-.035,1.538.007,2.272a4.008,4.008,0,0,0,3.122,3.606,4.078,4.078,0,0,0,4.359-1.958c.694-1.218.48-2.531.517-3.934M7.777,28.951a7.831,7.831,0,0,0,1.538,3.18,7.922,7.922,0,0,0,9.531,2.252c.433-.213.754-.415.776-.978a1.455,1.455,0,0,1,.409-.914c.742-.7.347-1.576.481-2.378a5.731,5.731,0,0,1-5.952,2.724A5.65,5.65,0,0,1,9.85,28.329l-2.073.622M33.963,46.936a2.073,2.073,0,0,1-1.771-2.416H28.049A2.043,2.043,0,0,1,26.3,46.947a4.94,4.94,0,0,0,7.666-.012M23.428,22.16c-.713.67-1.387,1.3-2.053,1.938a.466.466,0,0,0-.148.287c-.011.917-.006,1.835-.006,2.826a1.343,1.343,0,0,0,.181-.156q.914-1.324,1.821-2.652a.862.862,0,0,0,.2-.386c.02-.618.009-1.237.009-1.855m4.79,1.143L25.169,21.78v3.045L28.219,23.3m3.825,0,3.045,1.514V21.784l-3.045,1.521" transform="translate(0 0)" fill="#fff"/>
        <path id="Trazado_128582" data-name="Trazado 128582" d="M99.2,57.687A3.466,3.466,0,0,1,96.539,56.5a.847.847,0,1,1,1.19-1.2c1.1.923,1.547.924,2.647,0a.837.837,0,0,1,1.222-.027.85.85,0,0,1-.024,1.223A3.265,3.265,0,0,1,99.2,57.687" transform="translate(-55.261 -31.588)" fill="#fff"/>
        <path id="Trazado_128583" data-name="Trazado 128583" d="M93.367,44.942a3.762,3.762,0,0,1,0,.4.9.9,0,0,1-.859.893.877.877,0,0,1-.839-.957c-.01-.265-.011-.532,0-.8a.864.864,0,0,1,.816-.919.893.893,0,0,1,.877.869,4.56,4.56,0,0,1,0,.512h0" transform="translate(-52.619 -25.006)" fill="#fff"/>
        <path id="Trazado_128584" data-name="Trazado 128584" d="M111.659,44.923c.007.888-.25,1.3-.817,1.314-.585.017-.885-.432-.883-1.329a3.756,3.756,0,0,1,.027-.567.837.837,0,0,1,1.671.071c.014.17,0,.341,0,.512" transform="translate(-63.124 -25.012)" fill="#fff"/>
        <path id="Trazado_128585" data-name="Trazado 128585" d="M32.741,46.248a3.51,3.51,0,0,1-2.661-1.216.852.852,0,0,1,.012-1.224.833.833,0,0,1,1.177.026c1.127.943,1.558.943,2.691,0a.836.836,0,0,1,1.219.012.856.856,0,0,1-.024,1.185,3.478,3.478,0,0,1-2.414,1.216" transform="translate(-17.123 -25.017)" fill="#fff"/>
        <path id="Trazado_128586" data-name="Trazado 128586" d="M43.565,33.414a4.358,4.358,0,0,1,0-.512.783.783,0,0,1,.781-.758.75.75,0,0,1,.857.66,4.671,4.671,0,0,1,.019,1.243.8.8,0,0,1-.859.743.84.84,0,0,1-.807-.865c-.012-.17,0-.341,0-.512h.007" transform="translate(-25.003 -18.452)" fill="#fff"/>
        <path id="Trazado_128587" data-name="Trazado 128587" d="M26.877,33.444c0,.114,0,.228,0,.342-.02.616-.352,1.007-.85,1a.9.9,0,0,1-.852-.957,4.981,4.981,0,0,1,.016-.909.845.845,0,0,1,.876-.8.836.836,0,0,1,.8.863c.011.151,0,.3,0,.455Z" transform="translate(-14.445 -18.442)" fill="#fff"/>
        <path id="Trazado_128588" data-name="Trazado 128588" d="M67.017,92.086A3.375,3.375,0,0,1,64.454,90.9a.837.837,0,0,1-.025-1.221.9.9,0,0,1,1.228.016,2.619,2.619,0,0,0,1.205.631,2.33,2.33,0,0,0,1.3-.522c.541-.391,1-.492,1.357-.126s.311.871-.146,1.347a3.34,3.34,0,0,1-2.355,1.061" transform="translate(-36.842 -51.348)" fill="#fff"/>
        <path id="Trazado_128589" data-name="Trazado 128589" d="M62.765,81.921a.812.812,0,0,1-.808-.838.83.83,0,1,1,1.658.044.808.808,0,0,1-.85.794" transform="translate(-35.568 -46.072)" fill="#fff"/>
        <path id="Trazado_128590" data-name="Trazado 128590" d="M76.43,80.256a.833.833,0,1,1-.837.814.82.82,0,0,1,.837-.814" transform="translate(-43.396 -46.073)" fill="#fff"/>
      </g>
    </g>
  </g>
</svg>
