<svg xmlns="http://www.w3.org/2000/svg" xmlns:xlink="http://www.w3.org/1999/xlink" width="134.056" height="136.39" viewBox="0 0 134.056 136.39">
  <defs>
    <clipPath id="clip-path">
      <path id="Trazado_128561" data-name="Trazado 128561" d="M39.019,114.048A67.028,67.028,0,1,0,106.047,47.02a67.028,67.028,0,0,0-67.028,67.028" transform="translate(-39.019 -47.02)" fill="none"/>
    </clipPath>
  </defs>
  <g id="Grupo_136057" data-name="Grupo 136057" transform="translate(1631.583 7441.061)">
    <g id="Grupo_136056" data-name="Grupo 136056" transform="translate(-1631.583 -7438.729)">
      <g id="Grupo_136055" data-name="Grupo 136055" transform="translate(0 0)" clip-path="url(#clip-path)">
        <path id="Trazado_128557" data-name="Trazado 128557" d="M105.386,73.138C124.6,55.052,148.422,51.66,170.763,54.522L88.348,0,3.71,127.939c40.548,2.2,54.393-10.287,101.676-54.8" transform="translate(-33.671 -39.898)" fill="#54c7fe"/>
        <path id="Trazado_128558" data-name="Trazado 128558" d="M118.581,220.716l87.787-132.7L170.2,64.093c-22.341-2.861-46.168.529-65.379,18.616-47.282,44.515-61.127,57-101.676,54.8L0,142.269Z" transform="translate(-33.109 -49.47)" fill="#5477cd"/>
        <path id="Trazado_128559" data-name="Trazado 128559" d="M79.187,154.792q0,12.773,0,25.545c-.024,1.1-.1,2.2-.052,3.295.034.7-.192,1-1.38,1q-24.145-.038-48.291,0c-1.116,0-1.438-.211-1.436-.966q.051-15.126,0-30.253c0-.8.434-.933,1.482-.932q24.04.028,48.078,0c1.175,0,1.692.194,1.546,1.027a5.7,5.7,0,0,0,.053,1.286" transform="translate(-37.354 -62.993)" fill="#0092b9"/>
        <path id="Trazado_128560" data-name="Trazado 128560" d="M76.954,181.425c-2.21,0-2.21,0-2.21-2.593,0-2,0-2,2.664-2,1.925,0,1.942,0,1.919,2.736-.019,2.188.317,1.814-2.373,1.853" transform="translate(-44.43 -66.682)" fill="#7dcbe5"/>
      </g>
    </g>
    <path id="Trazado_128562" data-name="Trazado 128562" d="M172.161,97.751c1.325.136,2.665-.148,3.987.244a6.874,6.874,0,0,1-1.836,13.545,4.583,4.583,0,0,1-.716,0c-1.112-.166-1.5.25-1.449,1.41a23.181,23.181,0,0,1-2.038,10.867c-3.953,8.487-10.466,13.8-19.864,14.932a54.976,54.976,0,0,1-17.4-.244c-9.415-1.891-15.681-7.623-19.016-16.6-.149-.4-.305-.8-.459-1.2-1.186-1.691-1.041-3.695-1.259-5.6a26.685,26.685,0,0,1-.019-3.694q-.1-6.782-.005-13.562a46.3,46.3,0,0,1,.151-6.679c.378-.759,1.106-.629,1.753-.658a38.3,38.3,0,0,0,5-.19c5.81-1.024,9.445-4.436,11.1-10.043a2.873,2.873,0,0,1,.437-1.2.664.664,0,0,1,.669-.009,2.556,2.556,0,0,1,.445,1.192A13.587,13.587,0,0,0,144.909,90.5c2.34.013,4.681-.035,7.02.018,1.12.025,1.544-.4,1.51-1.509a23.69,23.69,0,0,1,.063-3.721c.034-.272.1-.622.436-.664s.457.293.564.543c.3.7.485,1.447.767,2.158a15.851,15.851,0,0,0,14.681,10.066,3.284,3.284,0,0,1,2.211.361" transform="translate(-1681.661 -7490.591)" fill="#f4bd99"/>
    <path id="Trazado_128563" data-name="Trazado 128563" d="M103.978,110a36.285,36.285,0,0,0,.88,9.139c-4.443.005-8.887.051-13.328-.014-1.111-.016-1.353.326-1.322,1.368.075,2.518.025,5.041.025,7.823l-4.542-3.026c-2.7-1.8-5.418-3.583-8.1-5.415a3.935,3.935,0,0,0-2.385-.738c-4.061.041-8.122.031-12.183.014a6.875,6.875,0,0,1-7.2-7.21q-.019-18.059,0-36.118A6.816,6.816,0,0,1,62.516,68.7c14.667-.035,29.333,0,44,.005.289.668-.1,1.21-.361,1.753a18.191,18.191,0,0,0-1.723,7.917c-.028,3.011,0,6.021-.011,9.032a2.785,2.785,0,0,1-.4,1.921q-.024,3.429-.048,6.86c-.546.545-1.247.387-1.9.4a6.516,6.516,0,1,0,0,13.012c.652.014,1.353-.144,1.9.4" transform="translate(-1673.145 -7489.031)" fill="#87be40"/>
    <path id="Trazado_128564" data-name="Trazado 128564" d="M112.621,87.69c.081-4.692-.3-9.392.235-14.079a19.788,19.788,0,0,1,2.257-6.544,18.64,18.64,0,0,1,16.859-9.216c7.162.053,14.325,0,21.488.014a18.521,18.521,0,0,1,18.787,18.779c.014,5.969,0,11.937-.006,17.906-4.919.307-9.376-.807-13.107-4.215a15.95,15.95,0,0,1-4.659-7.581,2.386,2.386,0,0,0-.58-1.146c0,1.684.01,3.366-.008,5.05,0,.429.2,1.055-.593,1.022-4.185-.171-8.418.53-12.548-.6A13.609,13.609,0,0,1,131.185,76q-.234-.454-.473,0c-.629,6.18-6.423,11.421-12.929,11.66-1.719.064-3.441.023-5.162.03" transform="translate(-1681.741 -7487.39)" fill="#354f5c"/>
    <path id="Trazado_128565" data-name="Trazado 128565" d="M160.937,46.62c0-2.447,0-2.475,2.134-2.269a30.755,30.755,0,0,1,11.589,3.275,30.048,30.048,0,0,1,15.718,20.35c.188.774.125,1.283-.836,1.387-.845.091-1.672.338-2.514.472-.616.1-.982-.01-1.179-.809-2.654-10.766-9.536-17.237-20.259-19.734a18.4,18.4,0,0,0-2.536-.352c-2.117-.189-2.118-.176-2.118-2.321" transform="translate(-1689.067 -7485.333)" fill="#cbdbe4"/>
    <path id="Trazado_128566" data-name="Trazado 128566" d="M193.3,84.135a4.549,4.549,0,0,0-.714.005c-1.244.2-1.648-.272-1.606-1.558.089-2.753.017-2.755,2.689-2.754,1.93,0,1.93,0,1.931,1.91,0,.048,0,.1,0,.143-.036,2.584.327,2.216-2.3,2.254" transform="translate(-1693.616 -7490.718)" fill="#cbdbe4"/>
    <path id="Trazado_128567" data-name="Trazado 128567" d="M126.3,101.127c1.768,0,3.536-.014,5.3,0a4.532,4.532,0,0,1,4.753,4.8c.02,2.485.062,4.972-.02,7.454-.038,1.15.228,1.714,1.475,1.527a3.53,3.53,0,0,1,1.284.036,2.153,2.153,0,0,1,1.834,2.092,2.031,2.031,0,0,1-1.684,2.33,8.758,8.758,0,0,1-4.39-.164,4.48,4.48,0,0,1-3.074-4.384c-.025-2.58-.054-5.163.016-7.74.029-1.045-.233-1.412-1.341-1.386-3.2.075-6.4.033-9.6.023-1.829-.006-2.837-.835-2.837-2.3s1-2.279,2.838-2.288c1.816-.008,3.632,0,5.448,0" transform="translate(-1682.566 -7493.943)" fill="#a2783b"/>
    <path id="Trazado_128568" data-name="Trazado 128568" d="M110.935,114.913c-1.322-.129-2.658.136-3.977-.255a6.871,6.871,0,0,1,1.833-13.536c.714-.005,1.43-.015,2.144-.023v13.813" transform="translate(-1680.102 -7493.94)" fill="#eb907e"/>
    <path id="Trazado_128569" data-name="Trazado 128569" d="M152,101.128c1.431,0,2.863-.02,4.294.005a2.293,2.293,0,1,1,.074,4.57q-4.436.05-8.874,0a2.292,2.292,0,1,1,.07-4.569c1.479-.026,2.958-.006,4.437-.006" transform="translate(-1686.662 -7493.943)" fill="#a2783b"/>
    <path id="Trazado_128570" data-name="Trazado 128570" d="M144.224,136.285c.81,0,1.624-.046,2.431.01a2.219,2.219,0,0,1,2.154,2.232,2.188,2.188,0,0,1-2.075,2.3c-1.665.082-3.339.082-5,0a2.187,2.187,0,0,1-2.082-2.3,2.251,2.251,0,0,1,2.144-2.249,2.672,2.672,0,0,1,.286-.008h2.145Z" transform="translate(-1685.843 -7499.266)" fill="#a3783b"/>
    <path id="Trazado_128571" data-name="Trazado 128571" d="M125.643,113.818A2.288,2.288,0,1,1,128,111.633a2.266,2.266,0,0,1-2.355,2.185" transform="translate(-1683.385 -7495.173)" fill="#a3783c"/>
    <path id="Trazado_128572" data-name="Trazado 128572" d="M155.037,111.6a2.289,2.289,0,1,1-2.181-2.356,2.27,2.27,0,0,1,2.181,2.356" transform="translate(-1687.48 -7495.173)" fill="#a3783c"/>
    <path id="Trazado_128573" data-name="Trazado 128573" d="M133.942,79.045c-.037-.361-.162-.738.2-1.086.49.269.283.707.27,1.089l-.473,0" transform="translate(-1684.971 -7490.436)" fill="#696d6d"/>
    <path id="Trazado_128574" data-name="Trazado 128574" d="M82.691,94.9c-4.919,0-9.839-.021-14.758.018-.965.008-1.328-.233-1.331-1.27-.009-3.336-.053-3.336,3.259-3.336,9.123,0,18.245.02,27.366-.024,1.154-.005,1.577.259,1.551,1.492-.064,3.12,0,3.121-3.192,3.121h-12.9" transform="translate(-1674.779 -7492.302)" fill="#c4d95d"/>
    <path id="Trazado_128575" data-name="Trazado 128575" d="M78.109,105.713c-3.39,0-6.781-.028-10.17.018-.957.013-1.334-.22-1.337-1.264-.01-3.342-.054-3.342,3.252-3.342,6.112,0,12.223.021,18.334-.02,1.028-.008,1.419.222,1.411,1.339-.02,3.27.031,3.27-3.182,3.27H78.109" transform="translate(-1674.779 -7493.94)" fill="#c4d95d"/>
    <path id="Trazado_128576" data-name="Trazado 128576" d="M78.011,116.528c-3.39,0-6.781-.027-10.17.018-.929.012-1.225-.273-1.237-1.217-.045-3.39-.08-3.39,3.345-3.39,6.064,0,12.128.026,18.192-.024,1.118-.009,1.474.291,1.457,1.438-.047,3.174.006,3.174-3.135,3.174H78.011" transform="translate(-1674.778 -7495.579)" fill="#c4d95d"/>
    <path id="Trazado_128577" data-name="Trazado 128577" d="M92.022,84.081c-2.625,0-5.252-.037-7.876.02-.981.02-1.316-.261-1.319-1.282-.008-3.326-.049-3.326,3.266-3.326,4.582,0,9.165.03,13.747-.022,1.05-.012,1.4.265,1.392,1.357-.021,3.254.027,3.254-3.2,3.254H92.022" transform="translate(-1677.236 -7490.664)" fill="#c4d95d"/>
    <path id="Trazado_128578" data-name="Trazado 128578" d="M74.268,84.083c-2.622-.045-2.215.37-2.221-2.61,0-2.356-.35-1.961,2.706-1.969,2.241-.006,1.852-.289,1.866,2.67.012,2.242.211,1.874-2.351,1.909" transform="translate(-1675.601 -7490.666)" fill="#c4d95d"/>
    <path id="Trazado_128579" data-name="Trazado 128579" d="M146.418,173.015c4.871-1.685,9.5-3.963,14.27-5.891,1.944-.787,3.86-1.644,5.794-2.457,3.528-1.482,7.053-.192,8.393,3.065a6.255,6.255,0,0,1-3.8,8.356Q162,179.562,152.9,183.01c-5.925,2.255-11.807,4.631-17.785,6.737a36.713,36.713,0,0,1-26.8-.686c-6.711-2.73-13.391-5.538-20.085-8.311a2.176,2.176,0,0,1-.507-1.857q-.027-10.914,0-21.83a2.184,2.184,0,0,1,.507-1.858c2.482,0,4.965.022,7.447,0a51.722,51.722,0,0,1,23.459,5.336,15.184,15.184,0,0,0,6.894,1.566c5.68-.044,11.361-.02,17.041-.011a5.641,5.641,0,0,1,5.629,3.995,5.565,5.565,0,0,1-2.551,6.645,1.278,1.278,0,0,1-.787.479,1.055,1.055,0,0,1-.4.1c.222.1.371-.123.568-.136.283-.138.614-.018.9-.163" transform="translate(-1677.976 -7502.134)" fill="#f4bd99"/>
    <path id="Trazado_128580" data-name="Trazado 128580" d="M134.319,178.724c-3.625,0-7.249.006-10.873,0-1.741,0-2.695-.8-2.731-2.229-.037-1.5.938-2.353,2.746-2.355q10.872-.009,21.746,0c1.863,0,2.764.765,2.76,2.3s-.9,2.282-2.775,2.285q-5.439.011-10.873,0" transform="translate(-1682.975 -7505.001)" fill="#eb907f"/>
  </g>
</svg>
