<svg xmlns="http://www.w3.org/2000/svg" xmlns:xlink="http://www.w3.org/1999/xlink" width="167.475" height="163" viewBox="0 0 167.475 163">
  <defs>
    <clipPath id="clip-path">
      <circle id="Elipse_4989" data-name="Elipse 4989" cx="81.5" cy="81.5" r="81.5" transform="translate(719.256 4235)" fill="#ffb12e"/>
    </clipPath>
    <clipPath id="clip-path-2">
      <rect id="Rect치ngulo_36183" data-name="Rect치ngulo 36183" width="124.928" height="254.818" fill="none"/>
    </clipPath>
  </defs>
  <g id="Grupo_135997" data-name="Grupo 135997" transform="translate(-719.256 -4235)">
    <g id="Grupo_135992" data-name="Grupo 135992">
      <circle id="Elipse_4973" data-name="Elipse 4973" cx="81.5" cy="81.5" r="81.5" transform="translate(719.256 4235)" fill="#ffb12e"/>
      <g id="Enmascarar_grupo_104" data-name="Enmascarar grupo 104" clip-path="url(#clip-path)">
        <g id="Grupo_135984" data-name="Grupo 135984" transform="translate(728.606 4241.867)">
          <g id="Grupo_135983" data-name="Grupo 135983" transform="translate(0 0.004)" clip-path="url(#clip-path-2)">
            <path id="Trazado_128094" data-name="Trazado 128094" d="M245.437,57.987c-1.261,1.577-8.157,4.372-13.311,4.68-8.477-1.322-26.192-2.228-38.553-7.383-9.007-3.755-17.641-11.2-21.329-17.338a.763.763,0,0,1,.347-1.092c11.155-5.017,25.208-33.6,44.574-36.59a21.786,21.786,0,0,1,14.217,2.675c12.532-4.46,24.744,41.681,14.054,55.048" transform="translate(-142.898 -0.005)" fill="#1a107e"/>
            <path id="Trazado_128095" data-name="Trazado 128095" d="M336.452,208.614c-12,.717-27.766-2.02-38.553-7.383-.655-6.35,2.223-17.595,6.45-21.851,10.282-10.353,35.836,5.119,35.836,5.119-2.518,9.008-3.554,13.656-3.732,24.115" transform="translate(-247.224 -145.951)" fill="#070256"/>
            <path id="Trazado_128096" data-name="Trazado 128096" d="M327.606,83.14c-1.682-4.088,17.866-27.327,24.606-26.694,2.962.278,5.208,1.285,7.935,4.032,1.435-3.432,5.872-5.408,8.112-4.542,5.945,2.3.558,23.512-6.46,22.918Z" transform="translate(-271.877 -46.267)" fill="#070256"/>
            <path id="Trazado_128097" data-name="Trazado 128097" d="M235.621,240.44s-.033.054-.094.146-.154.224-.271.373a7.442,7.442,0,0,1-.963,1.016,6.275,6.275,0,0,1-1.149.809,4.484,4.484,0,0,1-.583.265.133.133,0,0,1-.131-.224l0,0s.047-.042.133-.108l.349-.279.488-.392c.176-.146.364-.3.55-.459.369-.319.733-.648,1.006-.9l.333-.3c.082-.074.13-.114.13-.114a.132.132,0,0,1,.2.171" transform="translate(-192.916 -199.436)" fill="#42459c"/>
            <path id="Trazado_128098" data-name="Trazado 128098" d="M239.345,175.7a6.578,6.578,0,0,1-.373.616c-.12.179-.265.385-.434.6s-.355.431-.553.642a8.745,8.745,0,0,1-1.183,1.06,6.074,6.074,0,0,1-.6.4h0a.106.106,0,0,1-.131-.162s.189-.217.482-.524.676-.716,1.056-1.128.758-.831,1.058-1.135.517-.5.517-.5a.106.106,0,0,1,.164.129Z" transform="translate(-195.951 -145.73)" fill="#42459c"/>
            <path id="Trazado_128099" data-name="Trazado 128099" d="M280.683,169.454s-.033.069-.095.186-.15.284-.264.479c-.226.392-.544.9-.892,1.4a14.987,14.987,0,0,1-1.033,1.307c-.3.338-.523.549-.523.549a.131.131,0,0,1-.206-.159v0s.037-.066.108-.178.169-.273.295-.459c.249-.376.589-.867.931-1.357s.7-.975.979-1.33c.138-.179.263-.322.346-.424s.137-.157.137-.157a.132.132,0,0,1,.216.146" transform="translate(-230.494 -140.517)" fill="#42459c"/>
            <path id="Trazado_128100" data-name="Trazado 128100" d="M334.2,130.957s-.029.063-.086.169-.136.259-.24.437c-.205.357-.5.82-.8,1.271s-.637.889-.9,1.208c-.128.161-.244.288-.321.38s-.127.14-.127.14a.132.132,0,0,1-.215-.147v0s.029-.063.085-.169.136-.26.24-.437c.2-.357.5-.82.805-1.271s.637-.888.9-1.208c.128-.161.244-.288.321-.38s.127-.14.127-.14a.132.132,0,0,1,.215.147Z" transform="translate(-275.196 -108.557)" fill="#42459c"/>
            <path id="Trazado_128101" data-name="Trazado 128101" d="M327.93,82.773s-.056.061-.158.162-.243.246-.421.414c-.352.338-.828.779-1.31,1.213s-.97.864-1.344,1.179l-.457.376c-.111.09-.177.139-.177.139a.131.131,0,0,1-.183-.186s.051-.065.143-.174.226-.266.392-.447c.331-.363.79-.831,1.276-1.272a16.945,16.945,0,0,1,1.392-1.146c.4-.29.681-.46.681-.46a.132.132,0,0,1,.165.2Z" transform="translate(-268.848 -68.531)" fill="#42459c"/>
            <path id="Trazado_128102" data-name="Trazado 128102" d="M392.274,72.536s-.055.052-.154.138l-.41.353c-.341.288-.791.664-1.215,1.063-.214.2-.42.407-.618.6s-.38.38-.542.534-.3.28-.4.371-.155.137-.155.137h0a.132.132,0,0,1-.195-.173,11.237,11.237,0,0,1,1.55-1.851,8.476,8.476,0,0,1,.689-.574c.228-.172.449-.318.641-.439.387-.239.654-.375.654-.375a.132.132,0,0,1,.177.058.133.133,0,0,1-.027.156" transform="translate(-322.571 -60.028)" fill="#42459c"/>
            <path id="Trazado_128103" data-name="Trazado 128103" d="M405.89,20.952l-.239.064c-.151.037-.365.1-.619.178s-.547.175-.854.293c-.154.058-.309.125-.466.194s-.322.145-.481.223c-.643.3-1.271.636-1.742.893l-.788.431a.131.131,0,0,1-.15-.213h0s.273-.244.718-.564a11.63,11.63,0,0,1,1.737-1.016c.167-.078.336-.152.5-.222s.341-.131.506-.185a7.009,7.009,0,0,1,.921-.229c.272-.05.5-.07.662-.086s.251-.015.251-.015h0a.131.131,0,0,1,.036.258" transform="translate(-332.482 -17.18)" fill="#42459c"/>
            <path id="Trazado_128104" data-name="Trazado 128104" d="M449.769,41.719s-.234-.005-.567-.019-.783-.025-1.229-.031h-1.23c-.337,0-.567-.008-.567-.008a.133.133,0,0,1-.04-.257h0a3.912,3.912,0,0,1,.566-.147,6.467,6.467,0,0,1,2.553.042,3.831,3.831,0,0,1,.56.164l.006,0a.132.132,0,0,1-.053.254" transform="translate(-370.288 -34.16)" fill="#42459c"/>
            <path id="Trazado_128105" data-name="Trazado 128105" d="M498.594,54.465s-.161-.17-.386-.416-.533-.574-.842-.895l-.866-.874c-.238-.239-.393-.409-.393-.409a.133.133,0,0,1,.154-.21h0a3.942,3.942,0,0,1,.5.3,6.236,6.236,0,0,1,.975.833,6.3,6.3,0,0,1,.792,1.01,3.828,3.828,0,0,1,.278.514l0,.006a.132.132,0,0,1-.218.141" transform="translate(-411.815 -42.877)" fill="#42459c"/>
            <path id="Trazado_128106" data-name="Trazado 128106" d="M593.124,140.147s-.008-.234-.013-.567-.019-.783-.038-1.229-.05-.893-.069-1.228-.023-.567-.023-.567a.133.133,0,0,1,.255-.055v0a3.93,3.93,0,0,1,.179.557,6.23,6.23,0,0,1,.178,1.27,6.3,6.3,0,0,1-.076,1.281,3.848,3.848,0,0,1-.132.568l0,.006a.132.132,0,0,1-.257-.039" transform="translate(-492.263 -113.252)" fill="#42459c"/>
            <path id="Trazado_128107" data-name="Trazado 128107" d="M615.223,265.622s.018-.233.05-.565.069-.78.1-1.225.05-.894.069-1.229.04-.566.04-.566a.133.133,0,0,1,.259-.026v0a3.924,3.924,0,0,1,.115.573,6.464,6.464,0,0,1-.186,2.546,3.823,3.823,0,0,1-.2.55l0,.006a.132.132,0,0,1-.251-.067" transform="translate(-510.728 -217.433)" fill="#42459c"/>
            <path id="Trazado_128108" data-name="Trazado 128108" d="M579.547,320.675s.052-.228.132-.551.182-.762.277-1.2l.247-1.205c.066-.331.122-.554.122-.554a.133.133,0,0,1,.26.012v0a3.962,3.962,0,0,1,.03.584,6.469,6.469,0,0,1-.554,2.492,3.835,3.835,0,0,1-.273.516l0,.005a.132.132,0,0,1-.238-.1" transform="translate(-481.11 -263.214)" fill="#42459c"/>
            <path id="Trazado_128109" data-name="Trazado 128109" d="M612.154,192.475s-.018-.233-.038-.566-.053-.781-.092-1.226l-.122-1.224c-.035-.336-.048-.565-.048-.565a.133.133,0,0,1,.252-.066v0a3.941,3.941,0,0,1,.2.548,6.223,6.223,0,0,1,.233,1.261,6.3,6.3,0,0,1-.02,1.283,3.834,3.834,0,0,1-.108.574l0,.006a.132.132,0,0,1-.258-.027" transform="translate(-507.931 -156.695)" fill="#42459c"/>
            <path id="Trazado_128110" data-name="Trazado 128110" d="M477.374,20.335l-.108-.114c-.033-.04-.075-.07-.119-.114s-.1-.088-.16-.141a5.051,5.051,0,0,0-.977-.617,11.542,11.542,0,0,0-1.095-.464l-.376-.14-.144-.057a.133.133,0,0,1,.048-.256h0a3.639,3.639,0,0,1,.575.057,4.387,4.387,0,0,1,.579.139,4.326,4.326,0,0,1,.641.254,3.581,3.581,0,0,1,.593.369,2.7,2.7,0,0,1,.445.427,2.13,2.13,0,0,1,.147.2,1.535,1.535,0,0,1,.1.166l.065.143a.132.132,0,0,1-.216.146" transform="translate(-393.751 -15.302)" fill="#42459c"/>
            <path id="Trazado_128111" data-name="Trazado 128111" d="M525.352,38.731l-.155.021c-.052,0-.1.021-.163.03s-.132.033-.207.048a5.04,5.04,0,0,0-1.071.433,11.5,11.5,0,0,0-1.015.618l-.333.224-.13.084A.133.133,0,0,1,522.1,40l0,0a3.619,3.619,0,0,1,.382-.434,4.546,4.546,0,0,1,1.031-.762,3.568,3.568,0,0,1,.646-.266,2.692,2.692,0,0,1,.606-.112,2.1,2.1,0,0,1,.25,0,1.494,1.494,0,0,1,.192.018l.154.03a.132.132,0,0,1-.008.261" transform="translate(-433.4 -31.894)" fill="#42459c"/>
            <path id="Trazado_128112" data-name="Trazado 128112" d="M275.361,270.523s-.012.061-.04.166-.056.245-.1.423l-.126.6c-.042.221-.09.457-.13.694l-.119.7-.094.608c-.023.178-.049.326-.059.431s-.02.164-.02.164v.006a.132.132,0,0,1-.259.009,3.566,3.566,0,0,1-.073-.632,5.442,5.442,0,0,1,.018-.645,7.238,7.238,0,0,1,.1-.73,6.8,6.8,0,0,1,.379-1.325c.07-.174.148-.322.2-.417s.085-.147.085-.147a.133.133,0,0,1,.242.1" transform="translate(-227.745 -224.443)" fill="#42459c"/>
            <path id="Trazado_128113" data-name="Trazado 128113" d="M622.055,114.07l.222.486c.069.155.154.344.243.565s.2.469.3.743c.212.546.44,1.19.662,1.888s.436,1.451.622,2.211c.1.379.174.763.258,1.14s.148.751.205,1.114.109.715.152,1.05.074.652.094.947.042.563.045.8.015.448.01.621c0,.345-.012.541-.012.541a.254.254,0,0,1-.5.033v0l-.09-.522c-.024-.166-.067-.366-.1-.6l-.14-.772-.177-.91-.213-1.013-.239-1.081-.265-1.113c-.086-.374-.181-.745-.274-1.111l-.276-1.075-.505-1.907-.358-1.353-.13-.519a.254.254,0,0,1,.477-.168" transform="translate(-515.998 -94.573)" fill="#070256"/>
            <path id="Trazado_128114" data-name="Trazado 128114" d="M168.323,161.055l-.365.393c-.117.123-.258.274-.431.441s-.359.362-.576.56-.444.421-.7.641-.517.46-.8.691-.579.473-.88.713-.618.473-.936.7-.642.452-.962.669-.643.42-.957.612l-.465.281-.455.253c-.293.169-.583.309-.846.442-.532.26-.99.449-1.314.572s-.515.179-.515.179a.254.254,0,0,1-.207-.46l.005,0,.456-.266.519-.31.666-.412c.239-.16.5-.32.779-.5l.861-.575.913-.63c.31-.215.621-.441.934-.665s.622-.451.928-.674.607-.443.893-.663l1.576-1.192,1.115-.849.43-.32a.254.254,0,0,1,.338.376" transform="translate(-130.986 -133.347)" fill="#070256"/>
            <path id="Trazado_128115" data-name="Trazado 128115" d="M513.08,26.592a.506.506,0,0,1-.445-.264c-.671-1.233-1.765-8.583.23-11.785a.506.506,0,1,1,.858.535c-1.742,2.8-.776,9.708-.2,10.767a.506.506,0,0,1-.444.747" transform="translate(-424.81 -11.875)" fill="#070256"/>
            <path id="Trazado_128116" data-name="Trazado 128116" d="M342.958,219.544c-2.1,1.5,27.161,32.7,27.161,32.7V221.3a26.448,26.448,0,0,1-3.171-7.639,20.21,20.21,0,0,1-.5-4.206,66.3,66.3,0,0,1,1.045-12.9L349.8,181.224l-4.085-3.1c6.49,16.97,4.266,36.423-2.757,41.416" transform="translate(-284.618 -147.874)" fill="#ffb8c1"/>
            <path id="Trazado_128117" data-name="Trazado 128117" d="M390.225,450.679c5.393,6.617,15.363,8.51,19.482,4.932s4.481,27.5,4.481,27.5l-9.422,2.872Z" transform="translate(-323.946 -374.133)" fill="#1996b5"/>
            <path id="Trazado_128118" data-name="Trazado 128118" d="M406.587,256.892a20.207,20.207,0,0,1-.5-4.206,66.3,66.3,0,0,1,1.045-12.9L390.656,230.2c-.833,11.538,7.622,24.921,15.931,26.688" transform="translate(-324.257 -191.105)" fill="#ff9ea8"/>
            <path id="Trazado_128119" data-name="Trazado 128119" d="M359.209,96.349c4.742,15.636,17.043,26.128,29.225,24.156,3.184-.516,7.557-6.665,8.716-13.106a18.186,18.186,0,0,0,.273-2.268,38.123,38.123,0,0,0-.3-8.535c-.259-1.691-.63-3.48-1.082-5.9-.549-2.935-.678-5.984-.982-8.631a16,16,0,0,0-1.087-4.8c-1.734-3.779-5.052-5.872-7.648-2.362-10.5-4.113-18.12,9.015-19.829,12.063a4.99,4.99,0,0,1-6.988,2.137,1.408,1.408,0,0,1-.123-.072,27.292,27.292,0,0,0-.178,7.323" transform="translate(-298.058 -60.686)" fill="#ffb8c1"/>
            <path id="Trazado_128120" data-name="Trazado 128120" d="M430.834,223.328a5.723,5.723,0,1,0-5.371,6.053,5.723,5.723,0,0,0,5.371-6.053" transform="translate(-348.165 -180.929)" fill="#ffabb7"/>
            <path id="Trazado_128121" data-name="Trazado 128121" d="M560.851,217.163a5.732,5.732,0,0,0,3.825,5.066,18.148,18.148,0,0,0,.273-2.268,38.119,38.119,0,0,0-.3-8.535,5.729,5.729,0,0,0-3.8,5.737" transform="translate(-465.583 -175.516)" fill="#ffabb7"/>
            <path id="Trazado_128122" data-name="Trazado 128122" d="M390.3,79.7c-13.136-2.042-19.374,27.356-26.469,14.731-.106-.189,2.082,1.72,6.353-3.375C372.5,88.3,379.8,75.589,390.3,79.7" transform="translate(-302.034 -65.492)" fill="#ff9ea8"/>
            <path id="Trazado_128123" data-name="Trazado 128123" d="M528.426,82.067c-1.156-4.119-3.571-8.2-8.735-7.165,2.6-3.509,5.916-1.417,7.648,2.361a16.024,16.024,0,0,1,1.087,4.8" transform="translate(-431.422 -60.691)" fill="#ff9ea8"/>
            <path id="Trazado_128124" data-name="Trazado 128124" d="M322.92,158.434c-2.77,3.5,5.588,15.992,7.285,7.572.717-3.56.239-5.543-1.494-7.159-2.266-2.113-4.847-1.607-5.791-.413" transform="translate(-267.61 -130.667)" fill="#ffb5c0"/>
            <path id="Trazado_128125" data-name="Trazado 128125" d="M336.637,176.9h-.011a1.811,1.811,0,0,1-1.346-.912,1.086,1.086,0,0,1,.123-.923.8.8,0,0,0,.13-.507,2.391,2.391,0,0,0-1.105-1.88,2,2,0,0,0-1.725-.121.261.261,0,0,1-.207-.479,2.542,2.542,0,0,1,2.19.147,2.852,2.852,0,0,1,1.364,2.266,1.293,1.293,0,0,1-.183.812.587.587,0,0,0-.092.522,1.387,1.387,0,0,0,.873.555.261.261,0,0,1-.01.521" transform="translate(-275.892 -142.696)" fill="#f26979"/>
            <path id="Trazado_128126" data-name="Trazado 128126" d="M338.238,179.775a.261.261,0,0,1-.251-.33,1.472,1.472,0,0,1,1.25-1.069,1.229,1.229,0,0,1,1.257.591.261.261,0,0,1-.455.254.725.725,0,0,0-.739-.327.942.942,0,0,0-.81.69.261.261,0,0,1-.251.191" transform="translate(-280.572 -148.07)" fill="#f26979"/>
            <path id="Trazado_128127" data-name="Trazado 128127" d="M468.67,155.915l-.021-.079c-.015-.048-.033-.135-.062-.216a2.17,2.17,0,0,0-.118-.262,1.1,1.1,0,0,0-.206-.281.926.926,0,0,0-.316-.207,1.293,1.293,0,0,0-.443-.1,2.3,2.3,0,0,0-.543.01,4.6,4.6,0,0,0-.59.1c-.2.049-.4.11-.595.171s-.387.138-.573.209-.36.153-.529.223-.321.153-.466.221c-.285.144-.512.276-.665.372s-.228.157-.228.157l-.022.016a.254.254,0,0,1-.368-.339l.05-.078a1.926,1.926,0,0,1,.152-.21,3.968,3.968,0,0,1,.641-.608,5.974,5.974,0,0,1,1.042-.642,5.693,5.693,0,0,1,.639-.27,5.05,5.05,0,0,1,.7-.2,3.774,3.774,0,0,1,1.5-.06,2.121,2.121,0,0,1,.712.265,1.639,1.639,0,0,1,.518.484,1.767,1.767,0,0,1,.238.523,2.109,2.109,0,0,1,.07.423,2.161,2.161,0,0,1,0,.238l0,.082a.256.256,0,0,1-.5.056" transform="translate(-384.265 -127.674)" fill="#070256"/>
            <path id="Trazado_128128" data-name="Trazado 128128" d="M546.593,148.57l-.04-.038a1,1,0,0,0-.109-.1c-.039-.026-.085-.056-.145-.091a1.328,1.328,0,0,0-.193-.082,1.241,1.241,0,0,0-.233-.036,1.615,1.615,0,0,0-.28.016,3.21,3.21,0,0,0-.676.2,6.3,6.3,0,0,0-.7.341c-.111.063-.22.123-.321.185s-.2.119-.284.178c-.35.227-.572.394-.572.394l-.016.012a.257.257,0,0,1-.385-.32l.027-.053a1.633,1.633,0,0,1,.08-.149,3.17,3.17,0,0,1,.349-.472,4.144,4.144,0,0,1,.6-.559,3.927,3.927,0,0,1,.831-.487,2.572,2.572,0,0,1,1.006-.227,1.633,1.633,0,0,1,.959.271,1.369,1.369,0,0,1,.294.279c.034.048.067.09.094.133l.068.128a.714.714,0,0,1,.057.157l.016.053a.262.262,0,0,1-.43.266" transform="translate(-450.45 -122.267)" fill="#070256"/>
            <path id="Trazado_128129" data-name="Trazado 128129" d="M531.472,229.817s.091.089.243.248.37.388.622.674a12.081,12.081,0,0,1,.819,1.03,6.957,6.957,0,0,1,.4.652,3.3,3.3,0,0,1,.3.787,1.682,1.682,0,0,1,.04.227l.008.058,0,.015v.058a1,1,0,0,1,0,.121,1.239,1.239,0,0,1-.166.522,1.8,1.8,0,0,1-.647.629,2.829,2.829,0,0,1-.706.3,3.357,3.357,0,0,1-.653.12,3.594,3.594,0,0,1-.974-.04,2.677,2.677,0,0,1-.265-.059l-.092-.025a.2.2,0,0,1,.059-.386h.006s.121,0,.329,0a4.6,4.6,0,0,0,.842-.107,3.193,3.193,0,0,0,1.054-.43,1.259,1.259,0,0,0,.375-.382.489.489,0,0,0,.06-.183.266.266,0,0,0,0-.067v-.026c0,.009,0-.023,0,.019v-.013l0-.035a.929.929,0,0,0-.023-.144,2.621,2.621,0,0,0-.227-.611,6.259,6.259,0,0,0-.331-.6c-.118-.193-.237-.381-.354-.558l-.335-.5c-.21-.31-.382-.574-.505-.757s-.187-.293-.187-.293a.2.2,0,0,1,.306-.243" transform="translate(-440.2 -190.737)" fill="#f26979"/>
            <path id="Trazado_128130" data-name="Trazado 128130" d="M490.785,283.209c-2.73,1.144-8.916.734-11.32-.05a12.144,12.144,0,0,0,7.97,4.11c1.743.1,2.82-2.153,3.349-4.06" transform="translate(-398.029 -235.066)" fill="#fff"/>
            <path id="Trazado_128131" data-name="Trazado 128131" d="M543.925,196.568c.079,1.42,1.859,2.31,3.441,2.065a2.525,2.525,0,0,0,2.288-2.955c-.318-1.386-1.86-1.143-3.442-.9s-2.345.75-2.287,1.788" transform="translate(-451.538 -161.54)" fill="#fff"/>
            <path id="Trazado_128132" data-name="Trazado 128132" d="M549.4,196.626c.231,1.13,1.012,1.955,1.743,1.843s1.138-1.119.906-2.249-1.012-1.955-1.744-1.843-1.138,1.119-.906,2.249" transform="translate(-456.033 -161.355)" fill="#04153d"/>
            <path id="Trazado_128133" data-name="Trazado 128133" d="M556.087,207.315c.115.409.445.692.737.63s.437-.443.322-.853-.445-.692-.737-.63-.437.443-.322.853" transform="translate(-461.604 -171.388)" fill="#fff"/>
            <path id="Trazado_128134" data-name="Trazado 128134" d="M457.8,206.115a3.934,3.934,0,0,0,4.239,2.076,2.9,2.9,0,0,0,2.528-3.472c-.268-1.01-2.371-1.294-4.239-.909s-3.1,1.251-2.527,2.3" transform="translate(-379.924 -169.057)" fill="#fff"/>
            <path id="Trazado_128135" data-name="Trazado 128135" d="M467.267,206.351c.324,1.157,1.257,1.954,2.084,1.781s1.235-1.252.911-2.409-1.257-1.954-2.084-1.781-1.235,1.252-.911,2.409" transform="translate(-387.81 -169.284)" fill="#04153d"/>
            <path id="Trazado_128136" data-name="Trazado 128136" d="M475.875,216.414c.115.409.445.692.737.63s.437-.443.322-.853-.445-.692-.738-.63-.437.443-.322.852" transform="translate(-395.016 -178.943)" fill="#fff"/>
            <path id="Trazado_128137" data-name="Trazado 128137" d="M538.994,191.8c-2.57,0-5.507-2.615-5.727-6.3-.128-2.142,2.993-3.467,5.948-3.793,2.337-.258,5.166.061,5.446,1.8a8.093,8.093,0,0,1-1.605,6.178,5.348,5.348,0,0,1-3.846,2.1c-.072,0-.144.006-.216.006m1.626-9.336a12.1,12.1,0,0,0-1.314.075c-2.591.285-5.3,1.4-5.206,2.914.2,3.311,2.841,5.639,5.062,5.509a4.511,4.511,0,0,0,3.243-1.792,7.234,7.234,0,0,0,1.433-5.523c-.118-.731-1.425-1.182-3.218-1.182" transform="translate(-442.689 -150.784)" fill="#070256"/>
            <path id="Trazado_128138" data-name="Trazado 128138" d="M424.02,200.37a9.5,9.5,0,0,1-5.625-1.891,7.051,7.051,0,0,1-2.995-5.087c-.135-2.256,4.18-3.317,7.915-3.54,4.4-.262,9.209.51,9.347,2.828.232,3.883-3.491,7.4-8.13,7.675q-.255.015-.512.015m.944-9.734c-.519,0-1.053.016-1.6.048-4.142.247-7.208,1.39-7.132,2.658a6.224,6.224,0,0,0,2.663,4.469,8.609,8.609,0,0,0,5.587,1.711c4.115-.246,7.549-3.42,7.347-6.792-.074-1.234-3.029-2.093-6.865-2.093" transform="translate(-344.842 -157.566)" fill="#070256"/>
            <path id="Trazado_128139" data-name="Trazado 128139" d="M512.472,198.979a.41.41,0,0,1-.093-.011.417.417,0,0,1-.313-.5c.207-.907,1.326-1.324,2.342-1.336,1.108-.013,1.9.413,2.074,1.111a.417.417,0,0,1-.809.206c-.072-.283-.61-.488-1.256-.483-.776.009-1.452.311-1.539.688a.417.417,0,0,1-.406.324" transform="translate(-425.083 -163.65)" fill="#070256"/>
            <path id="Trazado_128140" data-name="Trazado 128140" d="M369.934,172.627a.415.415,0,0,1-.26-.091l-9.39-7.476a.417.417,0,1,1,.52-.653l9.39,7.476a.417.417,0,0,1-.26.743" transform="translate(-298.96 -136.409)" fill="#070256"/>
            <path id="Trazado_128141" data-name="Trazado 128141" d="M126.129,561.183c0,4.855-95.947-4.423-95.965-11.048a79.888,79.888,0,0,1,.808-11.681c0-.033-26.6-15.2-28.967-27.436-3.907-20.2,13.464-66.188,28.282-85.008,7.98-10.136,24.161-17.817,32.831-18.87l23.989,35.3,1.471-33.887c4.55,1.46,14.585,11.69,19.257,18.418,12.428,17.9,7.449,66.846,8.183,81.592.731,14.681,10.112,47.165,10.112,52.626" transform="translate(-1.201 -337.988)" fill="#fff"/>
            <path id="Trazado_128142" data-name="Trazado 128142" d="M630.737,938.6a.506.506,0,0,1-.5-.461c-.956-10.7-3.275-61.051.01-75.729a.506.506,0,1,1,.987.221c-3.262,14.573-.943,64.744.01,75.418a.506.506,0,0,1-.459.549l-.046,0" transform="translate(-521.787 -715.606)" fill="#4997e8"/>
            <path id="Trazado_128143" data-name="Trazado 128143" d="M620.023,661.013a.506.506,0,0,1-.486-.647c.3-1.04.671-2.086,1.062-3.193,1.215-3.445,2.591-7.349,2.182-12.131-.247-2.885-2.242-6.586-4-9.852a26.612,26.612,0,0,1-2.506-5.42c-.9-4.045-.839-8.484.153-10.795a.506.506,0,1,1,.929.4c-.9,2.1-.941,6.38-.1,10.176a26.926,26.926,0,0,0,2.409,5.16c1.807,3.352,3.854,7.152,4.119,10.245.428,5-.987,9.012-2.236,12.553-.385,1.094-.75,2.126-1.044,3.139a.506.506,0,0,1-.485.365" transform="translate(-511.072 -513.59)" fill="#4997e8"/>
            <path id="Trazado_128144" data-name="Trazado 128144" d="M163.349,827.4c-1.018.376-5.342,13.034-6.627,15.373a73.891,73.891,0,0,0-3.153,7.544,17.452,17.452,0,0,1,3.949,1.072c1.179.634,7.82,6.049,7.82,6.049s2.045-4.168,1.142-13.113a113.514,113.514,0,0,0-3.131-16.925" transform="translate(-127.486 -686.869)" fill="#abd8f7"/>
            <path id="Trazado_128145" data-name="Trazado 128145" d="M506.673,684.862a.505.505,0,0,1-.5-.488c-.448-12.851-.808-25.315-.808-27.068a26,26,0,0,1,.8-5.22,49.482,49.482,0,0,0,1.4-11.181c0-3.786-1.614-8.376-3.323-13.236-1.845-5.245-3.752-10.669-3.81-15.625a.506.506,0,0,1,.5-.512.5.5,0,0,1,.512.5c.056,4.79,1.935,10.133,3.753,15.3,1.739,4.943,3.381,9.612,3.381,13.571a50.372,50.372,0,0,1-1.422,11.394,25.382,25.382,0,0,0-.774,5.007c0,1.745.36,14.192.808,27.033a.505.505,0,0,1-.488.523h-.018" transform="translate(-415.426 -507.665)" fill="#4997e8"/>
            <path id="Trazado_128146" data-name="Trazado 128146" d="M214.417,877.445h-.032a.505.505,0,0,1-.473-.536c.017-.275.063-.635.121-1.09.4-3.1,1.321-10.357-2.395-22.563a.506.506,0,1,1,.967-.295c3.779,12.413,2.834,19.822,2.431,22.985-.056.437-.1.782-.115,1.025a.506.506,0,0,1-.5.474" transform="translate(-175.673 -707.79)" fill="#4997e8"/>
            <path id="Trazado_128147" data-name="Trazado 128147" d="M88.551,464.091l.628-1.374.734-1.572.454-.966.524-1.063c.359-.743.776-1.536,1.209-2.379.216-.422.457-.845.7-1.283s.487-.882.758-1.323.532-.9.814-1.352l.889-1.353c.3-.458.635-.892.953-1.343.163-.223.321-.45.489-.67l.524-.646.524-.645.262-.322.279-.307,1.109-1.221c.385-.387.776-.763,1.158-1.138.194-.184.375-.38.577-.55l.6-.514c.4-.336.774-.683,1.173-.984l1.175-.877c.192-.14.376-.287.567-.417l.572-.373,1.085-.708c.342-.237.7-.415,1.027-.6l.938-.522c.581-.342,1.123-.572,1.555-.787l1.372-.649a.2.2,0,0,1,.176.349l-.011.006-1.327.708c-.42.229-.946.476-1.507.836l-.905.55c-.315.2-.663.381-.994.622l-1.051.721-.554.379c-.185.132-.362.28-.548.423l-1.133.887c-.2.146-.376.319-.565.484l-.569.5-.579.508c-.2.168-.372.362-.561.544-.371.371-.752.741-1.126,1.123l-1.077,1.2-.271.3-.255.317-.509.637-.51.637-.481.657c-.315.442-.65.866-.942,1.316l-.882,1.328c-.285.443-.551.89-.822,1.324s-.523.87-.767,1.3-.5.84-.72,1.254c-.451.825-.886,1.6-1.263,2.332l-2.54,4.865a.2.2,0,0,1-.351-.172" transform="translate(-73.496 -363.716)" fill="#3d8cff"/>
            <rect id="Rect치ngulo_36182" data-name="Rect치ngulo 36182" width="73.67" height="53.53" transform="translate(21.709 218.972) rotate(-48.561)" fill="#2bc2c7"/>
            <path id="Trazado_128148" data-name="Trazado 128148" d="M456.309,1062.73a.88.88,0,0,1-.585-.221l-19.749-17.435a.885.885,0,1,1,1.171-1.327l19.749,17.435a.885.885,0,0,1-.586,1.548" transform="translate(-361.677 -866.285)" fill="#fff"/>
            <path id="Trazado_128149" data-name="Trazado 128149" d="M165.9,1226.264a.416.416,0,0,1-.276-.1L125.5,1190.731a.417.417,0,1,1,.552-.625l39.817,35.152,48.481-54.914a.417.417,0,1,1,.625.552l-48.757,55.227a.418.418,0,0,1-.287.14H165.9" transform="translate(-104.066 -971.446)" fill="#007491"/>
            <path id="Trazado_128150" data-name="Trazado 128150" d="M159.521,1033.393c6.665,6.615,26.054,25.911,28.026,28.848,1.339,1.994-.6,9.024-5.889,10.237-7.046,1.616-41.132-16.543-41.511-21.22s19.373-17.865,19.373-17.865" transform="translate(-116.339 -857.874)" fill="#fff"/>
            <path id="Trazado_128151" data-name="Trazado 128151" d="M34.433,810.129a.5.5,0,0,1-.239-.06l-.1-.053c-7.621-4.09-32.582-18.3-33.8-29.4-.658-6.021-1.125-22.8,8.731-48.461a.506.506,0,1,1,.944.363C.2,757.975.655,774.558,1.306,780.506c.922,8.433,17.79,20.313,33.269,28.619l.1.053a.506.506,0,0,1-.24.951" transform="translate(0 -607.531)" fill="#4997e8"/>
            <path id="Trazado_128152" data-name="Trazado 128152" d="M152.721,723.18a.5.5,0,0,1-.355-.146c-10.089-9.964-16.9-16.153-19.71-17.9a8.636,8.636,0,0,0-5.416-1.373c-1.558,2.081-2.921,3.052-3.586,3.183a.781.781,0,0,1-.773-.215,1.574,1.574,0,0,1,.149-2.153,5.93,5.93,0,0,1,3.662-1.777,31.239,31.239,0,0,0,3.78-7.515c2.874-7.979,6.772-17.164,10.9-26.888,2.506-5.905,5.1-12.012,7.582-18.139a.506.506,0,1,1,.937.38c-2.488,6.135-5.081,12.245-7.589,18.154-4.121,9.711-8.013,18.883-10.878,26.835a33.382,33.382,0,0,1-3.445,7.083,9.955,9.955,0,0,1,5.211,1.566c2.91,1.809,9.6,7.877,19.887,18.036a.506.506,0,0,1-.355.865m-27.029-19.093a4.262,4.262,0,0,0-1.888,1.141c-.17.2-.334.476-.248.7a6.546,6.546,0,0,0,2.136-1.846" transform="translate(-101.711 -539.553)" fill="#4997e8"/>
            <path id="Trazado_128153" data-name="Trazado 128153" d="M209.924,1193.23c4.807,2.462,9.632,4.885,14.559,7.07,2.464,1.088,4.952,2.123,7.486,3a38.459,38.459,0,0,0,3.837,1.132,16.713,16.713,0,0,0,1.937.34,6.371,6.371,0,0,0,1.864-.027.585.585,0,0,1,.55.193l.054.01h0a10.99,10.99,0,0,0,1.963,2.284,18.756,18.756,0,0,0,2.416,1.891,39.828,39.828,0,0,0,5.495,2.949c.954.438,1.912.855,2.871,1.317a11.2,11.2,0,0,1,1.415.787,2.274,2.274,0,0,1,.65.622.886.886,0,0,1,.111.255.981.981,0,0,1,.025.116l.018.1c.024.139.043.275.059.408.124,1.071.125,2.119.245,3.151a9.721,9.721,0,0,0,.272,1.51,3.337,3.337,0,0,0,.642,1.293l0,0a.278.278,0,1,1-.416.368l0,0a3.858,3.858,0,0,1-.734-1.519,10.8,10.8,0,0,1-.282-1.594c-.056-.531-.094-1.06-.132-1.584s-.072-1.047-.139-1.555c-.017-.128-.037-.251-.058-.372l-.019-.1a.481.481,0,0,0-.018-.076.343.343,0,0,0-.05-.1,1.788,1.788,0,0,0-.5-.44,10.723,10.723,0,0,0-1.356-.711c-.948-.431-1.924-.828-2.893-1.246a40.673,40.673,0,0,1-5.678-2.88,17.848,17.848,0,0,1-4.917-4.284h0l.557.2a7.142,7.142,0,0,1-2.149.011,17.528,17.528,0,0,1-2.034-.388,39.177,39.177,0,0,1-3.909-1.215c-2.559-.928-5.045-2.005-7.506-3.134-4.92-2.265-9.718-4.761-14.492-7.291a.278.278,0,0,1,.258-.493" transform="translate(-173.932 -990.537)" fill="#007491"/>
            <path id="Trazado_128154" data-name="Trazado 128154" d="M400.67,1231.592c-1.854.257-2.061-7.234-2.58-8.1-.366-.6-12.188-6.334-14.07-8.821-5.434-7.162,1.579-14.583,5.932-10.039,1.445,1.509,17.656,16.7,18.265,18.068.572,1.267-.026,6.758-.256,6.765-1.155.033-1.3-4.841-1.905-5.053-.221.006-2.5,6.787-5.386,7.185" transform="translate(-317.151 -998.869)" fill="#ffb5c0"/>
            <path id="Trazado_128155" data-name="Trazado 128155" d="M497.853,1314.272l.473-1.66c.289-.993.665-2.32.98-3.652a12.611,12.611,0,0,0,.325-1.953,2.869,2.869,0,0,0-.007-.434l-.006-.049s0-.028,0-.013l-.006-.028-.024-.113c-.018-.07-.033-.116-.056-.178a2.561,2.561,0,0,0-.385-.654c-.152-.193-.314-.36-.458-.51l-.375-.4c-.105-.11-.186-.2-.239-.262l-.083-.1a.131.131,0,0,1,.183-.185l0,0,.359.3a9.276,9.276,0,0,1,.943.859,2.732,2.732,0,0,1,.5.755,2.4,2.4,0,0,1,.086.25l.027.111.007.028.008.045.01.066a2.977,2.977,0,0,1,.019.519,11.457,11.457,0,0,1-.334,2.047c-.322,1.358-.766,2.672-1.1,3.655s-.6,1.622-.6,1.622h0a.131.131,0,0,1-.247-.084" transform="translate(-413.29 -1082.568)" fill="#f26979"/>
            <path id="Trazado_128156" data-name="Trazado 128156" d="M485.268,1318.733s.021-.156.056-.428.088-.659.139-1.126.119-1.01.172-1.594.107-1.206.143-1.827.056-1.244.032-1.814a3.432,3.432,0,0,0-.106-.769.348.348,0,0,0-.025-.067l-.012-.028-.024-.043c-.032-.059-.062-.112-.092-.162l-.185-.3a5.669,5.669,0,0,0-.368-.5c-.119-.141-.222-.265-.315-.359a3.9,3.9,0,0,0-.3-.284l0,0a.131.131,0,0,1,.147-.215l.1.059a2.75,2.75,0,0,1,.275.19,3.86,3.86,0,0,1,.389.339,6.028,6.028,0,0,1,.445.5,3.718,3.718,0,0,1,.226.311c.038.058.075.115.108.17l.026.042c.013.023.021.041.031.062a.757.757,0,0,1,.049.119,3.537,3.537,0,0,1,.144.906,15.4,15.4,0,0,1-.035,1.874c-.045.632-.111,1.261-.191,1.848s-.168,1.132-.249,1.6c-.173.931-.326,1.543-.326,1.543a.131.131,0,0,1-.256-.048" transform="translate(-402.07 -1086.838)" fill="#f26979"/>
            <path id="Trazado_128157" data-name="Trazado 128157" d="M515.659,1311.742s-.061-.224-.13-.553a7.731,7.731,0,0,0-.313-1.146c-.017-.048-.037-.1-.06-.149s-.041-.09-.065-.136a2.959,2.959,0,0,0-.144-.264,3.657,3.657,0,0,0-.317-.437c-.1-.122-.2-.222-.265-.291l-.107-.109h0a.132.132,0,0,1,.151-.213s.054.025.145.076a2.541,2.541,0,0,1,.36.247,2.588,2.588,0,0,1,.435.453,3.092,3.092,0,0,1,.195.3c.029.053.057.109.085.167s.049.107.072.166a3.765,3.765,0,0,1,.241,1.288,4.26,4.26,0,0,1-.021.579v0a.133.133,0,0,1-.259.018" transform="translate(-426.881 -1086.197)" fill="#f26979"/>
            <path id="Trazado_128158" data-name="Trazado 128158" d="M320.624,378.111,310.212,387.1l11.09,17.778,3.639-5.926v7.462l18.084,11.852Z" transform="translate(-257.523 -313.89)" fill="#fff"/>
            <path id="Trazado_128159" data-name="Trazado 128159" d="M484.731,387.332l3.171,38.586,4.661-13.827-3.191-6.249,4.954,1.64-3.351-13.169Z" transform="translate(-402.401 -321.545)" fill="#fff"/>
            <path id="Trazado_128160" data-name="Trazado 128160" d="M489.12,394.772a.506.506,0,0,1-.49-.381l-.586-2.3-6.161-6.889a.506.506,0,0,1,.754-.674l6.244,6.981a.5.5,0,0,1,.113.212l.617,2.425a.506.506,0,0,1-.49.63" transform="translate(-399.929 -319.074)" fill="#4997e8"/>
            <path id="Trazado_128161" data-name="Trazado 128161" d="M511.328,473.621a.506.506,0,0,1-.479-.667l1.378-4.089-3.095-6.059a.506.506,0,0,1,.609-.71l4.078,1.35L512,456.3a.506.506,0,1,1,.98-.249l2.045,8.036a.506.506,0,0,1-.649.6l-3.785-1.253,2.631,5.152a.5.5,0,0,1,.029.392l-1.447,4.291a.506.506,0,0,1-.479.344" transform="translate(-422.612 -378.279)" fill="#4997e8"/>
            <path id="Trazado_128162" data-name="Trazado 128162" d="M477.154,574.451a.5.5,0,0,1-.277-.083l-4.864-3.188a.506.506,0,0,1,.554-.846l4.317,2.829,2.418-7.174a.506.506,0,0,1,.958.323l-2.627,7.794a.5.5,0,0,1-.479.344" transform="translate(-391.652 -469.572)" fill="#4997e8"/>
            <path id="Trazado_128163" data-name="Trazado 128163" d="M457.077,583.806a.5.5,0,0,1-.277-.083l-1.16-.76a.506.506,0,0,1,.554-.846l1.16.76a.506.506,0,0,1-.278.928" transform="translate(-378.061 -483.178)" fill="#4997e8"/>
            <path id="Trazado_128164" data-name="Trazado 128164" d="M402.41,534.034a.5.5,0,0,1-.277-.083l-7.953-5.213a.505.505,0,0,1-.228-.423v-2.853a.506.506,0,1,1,1.011,0v2.58l7.725,5.063a.506.506,0,0,1-.278.929" transform="translate(-327.04 -435.795)" fill="#4997e8"/>
            <path id="Trazado_128165" data-name="Trazado 128165" d="M365.3,504.757h-.015a.505.505,0,0,1-.431-.266l-1.582-2.942a.506.506,0,0,1,.891-.479l1.166,2.168,3.179-5.177a.506.506,0,0,1,.936.264v2.963a.506.506,0,1,1-1.011,0v-1.173l-2.7,4.4a.505.505,0,0,1-.431.241" transform="translate(-301.523 -413.266)" fill="#4997e8"/>
            <path id="Trazado_128166" data-name="Trazado 128166" d="M316.271,398.147a.505.505,0,0,1-.423-.228l-8.53-13.016a.506.506,0,0,1,.093-.66l10.412-8.986a.506.506,0,1,1,.661.766l-10.076,8.7,8.287,12.646a.506.506,0,0,1-.422.783" transform="translate(-255.052 -311.419)" fill="#4997e8"/>
            <path id="Trazado_128167" data-name="Trazado 128167" d="M385.533,644.868l-11.66,1.1-.635-3.219,11.66-1.1Z" transform="translate(-309.844 -532.666)" fill="#4997e8"/>
            <path id="Trazado_128168" data-name="Trazado 128168" d="M443.993,773.536c-3.65,2.929-11.885-8.723-7.18-12s11.24,8.744,7.18,12" transform="translate(-361.446 -631.724)" fill="#4997e8"/>
            <path id="Trazado_128169" data-name="Trazado 128169" d="M434.515,768.41c-1.953-3.007-2.844-7.089-.184-8.943a3.46,3.46,0,0,1,3.694-.151c2.741,1.359,5.367,5.711,5.509,9.131a3.783,3.783,0,0,1-1.61,3.657,3.148,3.148,0,0,1-1.653.463c-2.087,0-4.313-1.935-5.756-4.157m8.262.069c-.13-3.128-2.6-7.251-5.088-8.483a2.709,2.709,0,0,0-2.924.093c-2.247,1.566-1.375,5.2.386,7.907,1.7,2.61,4.432,4.636,6.381,3.459a3.157,3.157,0,0,0,1.245-2.976" transform="translate(-359.181 -629.968)" fill="#2a3f6e"/>
            <path id="Trazado_128170" data-name="Trazado 128170" d="M455.725,774.04c1.584-1.121,6.253,4.29,3.952,6.6s-6.353-5.076-3.952-6.6" transform="translate(-377.71 -642.446)" fill="#2a3f6e"/>
            <path id="Trazado_128171" data-name="Trazado 128171" d="M455.212,779.555a6.242,6.242,0,0,1-3.176-4.773,2.8,2.8,0,0,1,.994-2.763l.061-.035c1.392-.63,3.189.747,4.244,2.433,1.224,1.956,1.266,3.842.107,4.8a2.087,2.087,0,0,1-1.353.513,2.349,2.349,0,0,1-.876-.179m-1.777-6.894a2.137,2.137,0,0,0-.646,2.034,5.59,5.59,0,0,0,2.705,4.156,1.34,1.34,0,0,0,1.463-.214c1.031-.856.5-2.591-.265-3.817-.747-1.194-1.934-2.235-2.855-2.235a1.046,1.046,0,0,0-.4.076" transform="translate(-375.233 -640.735)" fill="#fff"/>
            <path id="Trazado_128172" data-name="Trazado 128172" d="M298.866,488.85a.632.632,0,0,0,.576-.892c-3.28-7.284-9.864-15.162-16.231-22.78-6.679-7.992-13.586-16.256-16.585-23.733a11.963,11.963,0,0,1,.489-10.016,4.654,4.654,0,0,1,3-2.534.632.632,0,0,0-.2-1.249,5.791,5.791,0,0,0-3.9,3.158,13.289,13.289,0,0,0-.563,11.111c3.073,7.664,10.045,16.006,16.788,24.074,6.312,7.553,12.84,15.363,16.048,22.489a.632.632,0,0,0,.577.373" transform="translate(-219.579 -355.005)" fill="#2a3f6e"/>
            <path id="Trazado_128173" data-name="Trazado 128173" d="M540.089,668.637a.556.556,0,0,0,.549-.471,10.689,10.689,0,0,1,8.548-8.932c4.306-.907,8.46.649,10.583,3.964a.556.556,0,1,0,.936-.6c-2.375-3.708-6.988-5.456-11.749-4.453A11.782,11.782,0,0,0,539.538,668a.556.556,0,0,0,.55.642" transform="translate(-447.893 -546.13)" fill="#4997e8"/>
            <path id="Trazado_128174" data-name="Trazado 128174" d="M545.829,648.347a.632.632,0,0,0,.474-1.05c-5.519-6.263-7.966-19.366-5.235-28.04.823-2.614,2.507-5.9,5.858-6.716,2.4-.583,4.785.354,7.1,2.783,5.994,6.283,9.435,20.77,6.945,29.246a.632.632,0,1,0,1.213.356c2.641-8.993-.88-23.8-7.244-30.474-2.615-2.74-5.49-3.825-8.315-3.139-3.106.755-5.445,3.371-6.765,7.564-2.844,9.036-.278,22.707,5.493,29.255a.631.631,0,0,0,.474.214" transform="translate(-447.2 -507.317)" fill="#2a3f6e"/>
            <path id="Trazado_128175" data-name="Trazado 128175" d="M665.835,790.486c1.648.265,1.049,5.755-1.268,5.389s-1.033-5.759,1.268-5.389" transform="translate(-550.676 -656.209)" fill="#4997e8"/>
            <path id="Trazado_128176" data-name="Trazado 128176" d="M667.9,816.385c.455-.343-1.185-.873-1.2-.5s.856.763,1.2.5" transform="translate(-553.459 -677.202)" fill="#2a3f6e"/>
            <path id="Trazado_128177" data-name="Trazado 128177" d="M568.407,811.607c1.175-1.186,5.291,2.494,3.645,4.166s-5.285-2.51-3.645-4.166" transform="translate(-471.52 -673.566)" fill="#4997e8"/>
            <path id="Trazado_128178" data-name="Trazado 128178" d="M585.846,832.167c-.015-.569-1.4.456-1.108.683s1.119-.253,1.108-.683" transform="translate(-485.388 -690.684)" fill="#2a3f6e"/>
            <path id="Trazado_128179" data-name="Trazado 128179" d="M545.177,512.326a.625.625,0,0,0,.194-.031.632.632,0,0,0,.408-.8c-1.77-5.5-4.607-12.718-6.652-15.576a.632.632,0,1,0-1.028.736c1.879,2.626,4.681,9.648,6.477,15.228a.632.632,0,0,0,.6.438" transform="translate(-446.605 -411.474)" fill="#2a3f6e"/>
            <path id="Trazado_128180" data-name="Trazado 128180" d="M569.212,583.24c1.452-.314,1.62,3.016,2.259,3.717.839.921,3.086.823,2.8,2.5-.186,1.1-2.725-.1-3.651.277s-2.465,1.8-3.236,1c-.807-.84,1.356-2.72,1.5-3.353s-1.324-3.789.326-4.146" transform="translate(-470.865 -484.161)" fill="#4997e8"/>
          </g>
        </g>
      </g>
      <g id="Grupo_134517" data-name="Grupo 134517" transform="translate(886.731 4328.371) rotate(180)">
        <path id="Trazado_113538" data-name="Trazado 113538" d="M35.19,5.32c-1.6,0-2.4-1.281-3.033-2.31s-1.081-1.68-1.9-1.68-1.257.638-1.9,1.68-1.428,2.31-3.032,2.31-2.4-1.281-3.033-2.31-1.08-1.68-1.9-1.68-1.256.638-1.9,1.68-1.428,2.31-3.032,2.31-2.4-1.281-3.031-2.31-1.079-1.68-1.9-1.68-1.256.638-1.9,1.68S7.2,5.32,5.6,5.32,3.2,4.039,2.565,3.01,1.486,1.33.666,1.33A.665.665,0,1,1,.666,0C2.269,0,3.061,1.281,3.7,2.311S4.776,3.99,5.6,3.99s1.256-.638,1.9-1.679S8.924,0,10.527,0s2.395,1.281,3.03,2.31,1.079,1.68,1.9,1.68,1.256-.638,1.9-1.68S18.786,0,20.389,0s2.4,1.281,3.033,2.31,1.079,1.68,1.9,1.68,1.256-.638,1.9-1.68S28.651,0,30.255,0s2.4,1.281,3.033,2.31,1.081,1.68,1.9,1.68,1.258-.638,1.9-1.68S38.521,0,40.126,0a.665.665,0,1,1,0,1.33c-.822,0-1.258.638-1.9,1.68S36.795,5.32,35.19,5.32Z" fill="#133d60"/>
        <path id="Trazado_126924" data-name="Trazado 126924" d="M35.19,5.32c-1.6,0-2.4-1.281-3.033-2.31s-1.081-1.68-1.9-1.68-1.257.638-1.9,1.68-1.428,2.31-3.032,2.31-2.4-1.281-3.033-2.31-1.08-1.68-1.9-1.68-1.256.638-1.9,1.68-1.428,2.31-3.032,2.31-2.4-1.281-3.031-2.31-1.079-1.68-1.9-1.68-1.256.638-1.9,1.68S7.2,5.32,5.6,5.32,3.2,4.039,2.565,3.01,1.486,1.33.666,1.33A.665.665,0,1,1,.666,0C2.269,0,3.061,1.281,3.7,2.311S4.776,3.99,5.6,3.99s1.256-.638,1.9-1.679S8.924,0,10.527,0s2.395,1.281,3.03,2.31,1.079,1.68,1.9,1.68,1.256-.638,1.9-1.68S18.786,0,20.389,0s2.4,1.281,3.033,2.31,1.079,1.68,1.9,1.68,1.256-.638,1.9-1.68S28.651,0,30.255,0s2.4,1.281,3.033,2.31,1.081,1.68,1.9,1.68,1.258-.638,1.9-1.68S38.521,0,40.126,0a.665.665,0,1,1,0,1.33c-.822,0-1.258.638-1.9,1.68S36.795,5.32,35.19,5.32Z" transform="translate(0 12.281)" fill="#133d60"/>
        <path id="Trazado_113539" data-name="Trazado 113539" d="M35.19,5.32c-1.6,0-2.4-1.281-3.033-2.31s-1.081-1.68-1.9-1.68-1.257.638-1.9,1.68-1.428,2.31-3.032,2.31-2.4-1.281-3.033-2.31-1.08-1.68-1.9-1.68-1.256.638-1.9,1.68-1.428,2.31-3.032,2.31-2.4-1.281-3.031-2.31-1.079-1.68-1.9-1.68-1.256.638-1.9,1.68S7.2,5.32,5.6,5.32,3.2,4.039,2.565,3.01,1.486,1.33.666,1.33A.665.665,0,1,1,.666,0C2.269,0,3.061,1.281,3.7,2.311S4.776,3.99,5.6,3.99s1.256-.638,1.9-1.679S8.924,0,10.527,0s2.395,1.281,3.03,2.31,1.079,1.68,1.9,1.68,1.256-.638,1.9-1.68S18.786,0,20.389,0s2.4,1.281,3.033,2.31,1.079,1.68,1.9,1.68,1.256-.638,1.9-1.68S28.651,0,30.255,0s2.4,1.281,3.033,2.31,1.081,1.68,1.9,1.68,1.258-.638,1.9-1.68S38.521,0,40.126,0a.665.665,0,1,1,0,1.33c-.822,0-1.258.638-1.9,1.68S36.795,5.32,35.19,5.32Z" transform="translate(0 6.141)" fill="#133d60"/>
        <path id="Trazado_126923" data-name="Trazado 126923" d="M35.19,5.32c-1.6,0-2.4-1.281-3.033-2.31s-1.081-1.68-1.9-1.68-1.257.638-1.9,1.68-1.428,2.31-3.032,2.31-2.4-1.281-3.033-2.31-1.08-1.68-1.9-1.68-1.256.638-1.9,1.68-1.428,2.31-3.032,2.31-2.4-1.281-3.031-2.31-1.079-1.68-1.9-1.68-1.256.638-1.9,1.68S7.2,5.32,5.6,5.32,3.2,4.039,2.565,3.01,1.486,1.33.666,1.33A.665.665,0,1,1,.666,0C2.269,0,3.061,1.281,3.7,2.311S4.776,3.99,5.6,3.99s1.256-.638,1.9-1.679S8.924,0,10.527,0s2.395,1.281,3.03,2.31,1.079,1.68,1.9,1.68,1.256-.638,1.9-1.68S18.786,0,20.389,0s2.4,1.281,3.033,2.31,1.079,1.68,1.9,1.68,1.256-.638,1.9-1.68S28.651,0,30.255,0s2.4,1.281,3.033,2.31,1.081,1.68,1.9,1.68,1.258-.638,1.9-1.68S38.521,0,40.126,0a.665.665,0,1,1,0,1.33c-.822,0-1.258.638-1.9,1.68S36.795,5.32,35.19,5.32Z" transform="translate(0 18.422)" fill="#133d60"/>
      </g>
    </g>
    <g id="Grupo_135995" data-name="Grupo 135995" transform="translate(735.334 4294.554)">
      <path id="Trazado_113320" data-name="Trazado 113320" d="M2605.744,1508.248a10.272,10.272,0,1,1,10.272-10.272A10.284,10.284,0,0,1,2605.744,1508.248Zm0-15.694a5.422,5.422,0,1,0,5.421,5.422A5.428,5.428,0,0,0,2605.744,1492.554Z" transform="translate(-2595.472 -1487.703)" fill="#133d60"/>
    </g>
  </g>
</svg>
