<svg xmlns="http://www.w3.org/2000/svg" xmlns:xlink="http://www.w3.org/1999/xlink" width="67" height="67" viewBox="0 0 67 67">
  <defs>
    <clipPath id="clip-path">
      <rect id="Rectángulo_36186" data-name="Rectángulo 36186" width="32.442" height="50.932" fill="#133d60"/>
    </clipPath>
  </defs>
  <g id="Grupo_136067" data-name="Grupo 136067" transform="translate(-556.256 -4806)">
    <g id="Grupo_136019" data-name="Grupo 136019">
      <circle id="Elipse_4976" data-name="Elipse 4976" cx="33.5" cy="33.5" r="33.5" transform="translate(556.256 4806)" fill="#deeefc"/>
      <g id="Grupo_135999" data-name="Grupo 135999" transform="translate(573.256 4814)">
        <g id="Grupo_135998" data-name="Grupo 135998" transform="translate(0 0)" clip-path="url(#clip-path)">
          <path id="Trazado_128235" data-name="Trazado 128235" d="M25.273,50.932c-.757-.558-.7-1.088.152-1.5a.454.454,0,0,0,.226-.322c.014-1.687.01-3.374.01-5.094h-3.25v5.288c.09.029.167.055.246.078.519.149.749.454.663.881s-.418.631-.948.581A1.625,1.625,0,0,1,20.893,49.3c-.021-2.42-.049-4.842.016-7.261a2.877,2.877,0,0,1,1.838-2.572c.164-.077.335-.138.523-.216,0-1.859.011-3.715-.018-5.571,0-.172-.259-.34-.473-.6-.364,1.055-.675,1.956-.985,2.858-.628,1.831-1.251,3.665-1.888,5.493-.073.21-.185.5-.351.562a1.255,1.255,0,0,1-.828-.008.6.6,0,0,1-.294-.807c.113-.393.256-.778.4-1.214H13.6l2.6,7.668c.1-.257.169-.4.22-.543.255-.735.492-1.476.764-2.2a.665.665,0,0,1,.92-.427.685.685,0,0,1,.473.9c-.144.492-.322.974-.488,1.459-.353,1.034-.715,2.064-1.056,3.1-.136.416-.29.8-.806.8s-.676-.372-.817-.79q-2.732-8.091-5.478-16.176c-.058-.171-.127-.338-.2-.524-.417.052-.581.236-.579.675.018,3.183.014,6.366,0,9.55a.627.627,0,0,0,.4.68,2.429,2.429,0,0,1,1.277,2.8A2.481,2.481,0,1,1,7.3,44.11c.156-.086.358-.283.359-.43.021-3.132.016-6.265.016-9.431a.691.691,0,0,0-.2.024c-1.26.628-2.538,1.223-3.77,1.9A4.071,4.071,0,0,0,1.5,39.921c-.023,3.233-.007,6.466-.008,9.7a3.243,3.243,0,0,1-.01.5.673.673,0,0,1-.716.619.681.681,0,0,1-.745-.588A2.195,2.195,0,0,1,0,49.7q0-4.775,0-9.549A5.775,5.775,0,0,1,3.4,34.641c.9-.456,1.8-.907,2.725-1.376-.261-.518-.526-.992-.746-1.487a11.742,11.742,0,0,1-1.012-4.825c0-5.09,0-10.18.007-15.269A11.5,11.5,0,0,1,6.27,5.4a.818.818,0,0,1,.844-.485.748.748,0,0,1,.442,1.232,9.923,9.923,0,0,0-1.4,3.268,10.248,10.248,0,0,0-.275,2.012c-.022,5.355-.034,10.71,0,16.065a9.481,9.481,0,0,0,1.627,5.1c.4-.2.778-.38,1.157-.569q1.312-.653,2.622-1.31a1.386,1.386,0,0,0,.864-1.416c-.051-1.474-.005-2.951-.029-4.426a.758.758,0,0,0-.294-.539A8.467,8.467,0,0,1,7.769,16.91c-.008-1.028,0-2.056.006-3.084.006-.6.258-.885.821-.9a6.534,6.534,0,0,0,6-4.109c.174-.356.309-.732.452-1.1A1.209,1.209,0,0,1,16.2,6.85a1.17,1.17,0,0,1,1.223.827A8.639,8.639,0,0,0,20.7,11.766a9.348,9.348,0,0,0,3.051,1.284c.832.193.946.335.935,1.186a38.794,38.794,0,0,1-.1,4.021A8.034,8.034,0,0,1,20.74,24.24a.805.805,0,0,0-.42.8c.019,1.426.031,2.852,0,4.277a1.29,1.29,0,0,0,.718,1.3c1.277.662,2.564,1.307,3.88,1.975a9.071,9.071,0,0,0,1.44-3.488,13.394,13.394,0,0,0,.216-2.319q.028-7.386.007-14.772A10.3,10.3,0,0,0,17.989,1.649a10.019,10.019,0,0,0-7.5,1.558c-.1.063-.19.134-.289.194a.741.741,0,1,1-.838-1.218,11.308,11.308,0,0,1,3.8-1.789,11.871,11.871,0,0,1,14.771,9.632,10.758,10.758,0,0,1,.128,1.683q.015,7.66.006,15.319a11.575,11.575,0,0,1-1.584,5.878c-.056.1-.1.2-.169.347.846.43,1.659.865,2.491,1.262a5.963,5.963,0,0,1,3.638,5.917c-.037,3.133-.007,6.267-.01,9.4,0,.564-.213.85-.646.9a.718.718,0,0,1-.84-.8c-.008-1.26,0-2.52,0-3.78,0-2.023,0-4.045,0-6.068a4.269,4.269,0,0,0-2.546-4.1c-1.185-.585-2.368-1.172-3.6-1.782v5.057c.187.078.391.147.58.245a3.065,3.065,0,0,1,1.77,2.839c.026,2.254,0,4.509.01,6.764a1.926,1.926,0,0,1-1.284,1.819ZM9.259,14.4c0,.958-.01,1.884,0,2.809A6.97,6.97,0,0,0,22.8,19.431c.585-1.629.328-3.3.394-4.974A10.26,10.26,0,0,1,16.27,8.77c-1.385,3.1-3.516,5.2-7.01,5.632m1.86,18.087a1.075,1.075,0,0,0,.025.206c.613,1.817,1.221,3.637,1.858,5.446a.6.6,0,0,0,.471.277c1.839.019,3.678.005,5.517.019a.465.465,0,0,0,.52-.388c.429-1.3.879-2.6,1.321-3.9.185-.543.368-1.086.555-1.637-.388-.213-.739-.4-1.08-.6A2.714,2.714,0,0,1,18.83,29.3c.043-1.141.009-2.286.009-3.428v-.724a8.7,8.7,0,0,1-5.217.008c0,1.465-.027,2.856.008,4.245a2.6,2.6,0,0,1-1.339,2.433c-.377.234-.776.433-1.172.652m11.3,9.971h3.226a1.643,1.643,0,0,0-1.725-1.774,1.586,1.586,0,0,0-1.5,1.774M7.449,46.31A.99.99,0,0,0,8.4,47.318a1.018,1.018,0,0,0,1.022-1,.991.991,0,0,0-.989-.971.959.959,0,0,0-.984.961" transform="translate(0 0)" fill="#133d60"/>
          <path id="Trazado_128236" data-name="Trazado 128236" d="M36.577,51.578a3.327,3.327,0,0,1-2.221-.88.743.743,0,1,1,.96-1.131,1.779,1.779,0,0,0,2.509.01.753.753,0,0,1,1.1.04.775.775,0,0,1-.152,1.1,3.311,3.311,0,0,1-2.2.862" transform="translate(-20.356 -29.504)" fill="#133d60"/>
        </g>
      </g>
    </g>
  </g>
</svg>
