<svg xmlns="http://www.w3.org/2000/svg" xmlns:xlink="http://www.w3.org/1999/xlink" width="67" height="67" viewBox="0 0 67 67">
  <defs>
    <clipPath id="clip-path">
      <rect id="Rectángulo_36191" data-name="Rectángulo 36191" width="43.796" height="49.095" fill="#133d60"/>
    </clipPath>
  </defs>
  <g id="Grupo_136069" data-name="Grupo 136069" transform="translate(-766.256 -4806)">
    <g id="Grupo_136015" data-name="Grupo 136015">
      <circle id="Elipse_4978" data-name="Elipse 4978" cx="33.5" cy="33.5" r="33.5" transform="translate(766.256 4806)" fill="#deeefc"/>
      <g id="Grupo_136005" data-name="Grupo 136005" transform="translate(778.256 4815)">
        <g id="Grupo_136004" data-name="Grupo 136004" clip-path="url(#clip-path)">
          <path id="Trazado_128246" data-name="Trazado 128246" d="M16.433,0c.878.155,1.769.257,2.631.474a11.244,11.244,0,0,1,8.6,9.582,8.582,8.582,0,0,1-.205,4.307,20.506,20.506,0,0,0-.834,2.613,3.947,3.947,0,0,1-2.732,2.9.593.593,0,0,0-.451.524,8.159,8.159,0,0,1-2.877,4.89.722.722,0,0,0-.306.643c.021.574,0,1.15.008,1.725a1.516,1.516,0,0,0,1.208,1.572c.766.225,1.536.434,2.3.662a9.042,9.042,0,0,1,6.621,8.748c.032,3.132.009,6.264.005,9.4,0,.786-.283,1.054-1.082,1.054H1.082c-.807,0-1.074-.257-1.075-1.049,0-3.116-.015-6.232,0-9.348A9.045,9.045,0,0,1,6.8,29.836c.706-.2,1.415-.39,2.117-.6a1.506,1.506,0,0,0,1.211-1.615v-.048a5.546,5.546,0,0,0-.045-1.806c-.182-.5-.735-.866-1.119-1.3A8.2,8.2,0,0,1,6.95,20.4a.582.582,0,0,0-.449-.522A4.275,4.275,0,0,1,3.58,15.995a.914.914,0,0,0-.1-.409,7.494,7.494,0,0,1-.827-5A19.1,19.1,0,0,1,3.1,8.427a.707.707,0,0,1,.908-.612.731.731,0,0,1,.462,1,9.985,9.985,0,0,0-.311,4.638c.02.093.05.184.078.275.018.058.042.115.088.24a2.95,2.95,0,0,1,2.287-.732c.592-2.415,2.356-3.456,4.561-4.01a15.662,15.662,0,0,1,9.463.462,4.766,4.766,0,0,1,3.031,3.166c.1.3.215.4.524.392a2.822,2.822,0,0,1,1.942.735,12.106,12.106,0,0,0,.247-1.606c.1-5.086-2.859-9.844-8.863-10.747A13.225,13.225,0,0,0,9.263,2.781,9.3,9.3,0,0,0,6,5.616c-.129.176-.291.427-.463.449a1.181,1.181,0,0,1-.81-.182c-.3-.235-.24-.6-.027-.907A10.663,10.663,0,0,1,7.846,1.93,12.607,12.607,0,0,1,13.432.089,3.518,3.518,0,0,0,13.844,0ZM28.925,47.633a1.419,1.419,0,0,0,.033-.192c0-2.94.025-5.88-.006-8.82a7.7,7.7,0,0,0-6.042-7.464A8.627,8.627,0,0,1,17.9,35.417a8.207,8.207,0,0,1-4.9.135,1.041,1.041,0,0,1-.583-.591.842.842,0,0,1,.243-.657c.125-.139.387-.156.626-.24l-2.806-3.928-1.64.682c.572.644,1.1,1.237,1.625,1.826a.743.743,0,0,1,.066,1.034A.669.669,0,0,1,9.5,33.7a19.162,19.162,0,0,1-1.378-1.524,10.33,10.33,0,0,1-.663-1.018,7.588,7.588,0,0,0-6,7.343c-.061,2.955-.016,5.912-.017,8.868a2.464,2.464,0,0,0,.025.246H5.181a16.68,16.68,0,0,0-.86-7.108c-.151-.385-.276-.783-.391-1.181a.7.7,0,0,1,.433-.889.706.706,0,0,1,.908.406c.047.1.073.211.114.315A18.078,18.078,0,0,1,6.652,46.9c-.015.246,0,.495,0,.718H23.735c0-.246.01-.454,0-.661a18.44,18.44,0,0,1,1.319-7.919c.21-.531.534-.748.967-.6s.565.53.39,1.067-.354,1.093-.547,1.633a17.2,17.2,0,0,0-.665,6.494ZM10.84,18.28a5.908,5.908,0,0,1-.721,5.263,6.809,6.809,0,0,0,10.146-.016,5.874,5.874,0,0,1-.936-4.376c.16-.915.172-.928-.671-1.33-.64-.3-1.3-.568-2.054-.895,0,.48.013.811,0,1.141a1.908,1.908,0,0,1-2.127,1.89.661.661,0,0,1-.643-.541.65.65,0,0,1,.33-.774,1.279,1.279,0,0,1,.505-.115.467.467,0,0,0,.491-.48c.019-.378,0-.757,0-1.165a8.386,8.386,0,0,0-4.323,1.4m10.473-2.227A9.571,9.571,0,0,1,19.8,11.346a.539.539,0,0,0-.457-.593,14.29,14.29,0,0,0-7.709-.154c-.959.247-.957.254-1.071,1.242-.007.063-.02.126-.028.189a9.883,9.883,0,0,1-1.445,4.005l.957.994c.073-.028.12-.041.163-.062.3-.149.6-.293.9-.451a8.181,8.181,0,0,1,8.19,0c1.064.569,1.076.546,1.9-.322.033-.034.059-.075.113-.145M11.564,26.436c0,.365.014.663,0,.959a6.18,6.18,0,0,1-.116,1.137.748.748,0,0,0,.143.694c1.113,1.541,2.213,3.09,3.319,4.636.089.124.189.24.3.384,1.062-1.486,2.086-2.932,3.126-4.367.4-.553.809-1.039.528-1.837a5.25,5.25,0,0,1-.029-1.608,8.588,8.588,0,0,1-7.272,0m5.554,7.62a6.725,6.725,0,0,0,4.35-3.276l-1.551-.644-2.8,3.919m5.139-16.77c-1.626,1.051-2.142,3.7-1,4.94.949-1.507.9-3.21,1-4.94M8.145,17.232c.077,1.789.043,3.5,1.027,5.051a3.781,3.781,0,0,0-1.027-5.051m-1.4,1.158c-.082-1.244-.162-2.469-.241-3.684-.848-.062-1.365.27-1.476.9a2.738,2.738,0,0,0,1.717,2.788m16.9,0a2.7,2.7,0,0,0,1.716-2.407,1.13,1.13,0,0,0-1.484-1.251c-.077,1.208-.154,2.424-.232,3.657M7.994,14.979a6.241,6.241,0,0,0,1.052-3.219,3.558,3.558,0,0,0-1.052,3.219m14.359,0a3.16,3.16,0,0,0-1.07-3.18,7.953,7.953,0,0,0,1.07,3.18" transform="translate(0)" fill="#133d60"/>
          <path id="Trazado_128247" data-name="Trazado 128247" d="M81.845,49.346c.019-.139.034-.231.045-.323a.979.979,0,0,1,1.024-.984c.67-.025,1.343-.027,2.013,0,.693.028.931.327,1.087,1.308.385,0,.78-.007,1.175,0a1.318,1.318,0,0,1,1.431,1.437c0,.192,0,.383,0,.575a.565.565,0,0,0,.575.632c.4.01.608-.241.615-.641.007-.383-.005-.767.006-1.15.016-.518.3-.844.722-.845s.7.322.71.845c.008.447.015.9-.011,1.342a2.029,2.029,0,0,1-4.053-.06c-.008-.206,0-.413,0-.659H85.96v.5c0,1.07,0,2.141,0,3.212,0,.524-.279.836-.713.835s-.717-.312-.72-.837c-.008-1.486,0-2.972,0-4.458V49.51H83.355V78.443h1.167v-.566q0-9.73,0-19.461a2.437,2.437,0,0,1,.023-.525.71.71,0,0,1,1.407.072,3.414,3.414,0,0,1,.007.383q0,10.21,0,20.42c0,.921-.234,1.151-1.166,1.151-.639,0-1.278,0-1.917,0-.7-.005-.987-.282-.989-.991-.006-2.061,0-4.122,0-6.183q0-5.44,0-10.881v-.544l-1.138.1c-.438,1.16-.635,1.295-1.893,1.3-.224,0-.448,0-.671,0-1.02-.006-1.346-.257-1.64-1.282-.268-.03-.551-.043-.828-.095A2.087,2.087,0,0,1,73.957,59.3q-.028-3.475,0-6.95a2.03,2.03,0,0,1,1.393-1.931,6.615,6.615,0,0,1,.781-.226.657.657,0,0,0,.553-.428.658.658,0,0,1,1.14-.153.7.7,0,0,0,.683.285c.5-.012.994.073,1.414-.363.154-.16.5-.158.77-.177.377-.028.758-.007,1.155-.007M79.23,51.355a8.262,8.262,0,0,0-3.1.32c-.637.188-.741.326-.741.981q0,2.924,0,5.848c0,1.375.015,1.4,1.369,1.451a1.108,1.108,0,0,1,1.159.824c.112.515.389.526.775.5.17-.014.342,0,.5,0,.241-1.032.6-1.311,1.617-1.318.86-.005,1.079-.221,1.079-1.081q0-2.972,0-5.944c0-1.028-.157-1.2-1.2-1.324a2.107,2.107,0,0,1-1.779,1.816.774.774,0,0,1-.989-.591c-.071-.413.192-.721.723-.823a.648.648,0,0,0,.588-.652" transform="translate(-47.464 -30.823)" fill="#133d60"/>
          <path id="Trazado_128248" data-name="Trazado 128248" d="M28.709,10.783c.926.144,1.8.291,2.685.405.1.013.267-.135.328-.248.3-.547.562-1.11.846-1.664.247-.481.661-.651,1.048-.442a.748.748,0,0,1,.233,1.079c-.27.559-.55,1.114-.847,1.714.43.179.843.331,1.238.52q.841.4,1.661.851c.522.286.682.692.462,1.083s-.649.463-1.165.161a14.2,14.2,0,0,0-13.878-.313c-.1.052-.2.11-.3.156A.716.716,0,0,1,20,13.794a.685.685,0,0,1,.351-.963c.838-.424,1.694-.813,2.59-1.238-.258-.517-.534-1.066-.8-1.617-.261-.531-.169-.963.238-1.156s.791,0,1.06.528.515,1.063.8,1.58c.067.121.255.27.368.256.868-.109,1.732-.256,2.666-.4,0-.5,0-1.023,0-1.544,0-.352-.009-.7.005-1.055A.712.712,0,1,1,28.7,8.159c.025.686.009,1.374.011,2.061,0,.189,0,.377,0,.563" transform="translate(-12.786 -4.772)" fill="#133d60"/>
          <path id="Trazado_128249" data-name="Trazado 128249" d="M29.235,104.5a11.636,11.636,0,0,1-6.9-2.418c-.453-.347-.55-.745-.289-1.1.275-.377.685-.387,1.172-.028a9.83,9.83,0,0,0,12.092-.019.785.785,0,0,1,.964-.138.718.718,0,0,1-.035,1.239,10.912,10.912,0,0,1-4.735,2.181c-.749.143-1.516.193-2.275.286" transform="translate(-14.062 -64.626)" fill="#133d60"/>
          <path id="Trazado_128250" data-name="Trazado 128250" d="M54.184,109.226a2,2,0,0,1-.162.391,12.966,12.966,0,0,1-5.561,4.953,1.842,1.842,0,0,1-.173.079.715.715,0,0,1-.957-.379.7.7,0,0,1,.358-.925c.751-.447,1.534-.849,2.246-1.351a11.1,11.1,0,0,0,2.809-3.037,1.337,1.337,0,0,1,.506-.478c.433-.2.921.164.933.746" transform="translate(-30.34 -69.597)" fill="#133d60"/>
          <path id="Trazado_128251" data-name="Trazado 128251" d="M25.2,113.839c-.022.729-.579,1.055-1.123.74a29.013,29.013,0,0,1-2.97-1.9,11.157,11.157,0,0,1-2.65-3.056.729.729,0,0,1,.147-1.089.7.7,0,0,1,1.026.271,12.069,12.069,0,0,0,5.077,4.511c.236.112.387.4.493.518" transform="translate(-11.736 -69.59)" fill="#133d60"/>
          <path id="Trazado_128252" data-name="Trazado 128252" d="M85.387,68.237c0,.447.011.9,0,1.342a.711.711,0,0,1-.783.771q-1.27.018-2.541,0A.694.694,0,0,1,81.3,69.6c-.021-.894-.016-1.789,0-2.684a.7.7,0,0,1,.7-.769c.9-.034,1.813-.037,2.717.005a.7.7,0,0,1,.673.787c0,.432,0,.863,0,1.294M83.91,67.5H82.763v1.4H83.91Z" transform="translate(-52.177 -42.445)" fill="#133d60"/>
        </g>
      </g>
    </g>
  </g>
</svg>
