<svg xmlns="http://www.w3.org/2000/svg" xmlns:xlink="http://www.w3.org/1999/xlink" width="67" height="67" viewBox="0 0 67 67">
  <defs>
    <clipPath id="clip-path">
      <rect id="Rectángulo_36192" data-name="Rectángulo 36192" width="30.442" height="49.095" fill="#133d60"/>
    </clipPath>
  </defs>
  <g id="Grupo_136070" data-name="Grupo 136070" transform="translate(-871.256 -4806)">
    <g id="Grupo_136014" data-name="Grupo 136014">
      <circle id="Elipse_4979" data-name="Elipse 4979" cx="33.5" cy="33.5" r="33.5" transform="translate(871.256 4806)" fill="#deeefc"/>
      <g id="Grupo_136007" data-name="Grupo 136007" transform="translate(889.256 4815)">
        <g id="Grupo_136006" data-name="Grupo 136006" clip-path="url(#clip-path)">
          <path id="Trazado_128253" data-name="Trazado 128253" d="M.559,49.1a1.2,1.2,0,0,1-.534-1.138c.019-1.454.006-2.908.008-4.362a1.956,1.956,0,0,1,.039-.476.649.649,0,0,1,.7-.528.658.658,0,0,1,.678.671c.025.555.006,1.113.006,1.705H5.249c0-.294.01-.592,0-.889-.06-1.545.124-1.668.708-1.682.557-.015.785.13.739,1.713-.034,1.162-.007,2.327-.007,3.519h7.821v-1.21c0-1.726-.008-3.451.007-5.177a.681.681,0,0,0-.356-.657c-1.9-1.232-3.8-2.481-5.692-3.724A1.907,1.907,0,0,1,7.6,34.176a5.468,5.468,0,0,1-1.18-1.012,5.39,5.39,0,0,1-.446-1.487A7.332,7.332,0,0,0,3,34.076,7.649,7.649,0,0,0,1.47,38.82c0,.383.014.768-.014,1.15a.688.688,0,0,1-.713.688.7.7,0,0,1-.7-.7C-.413,34.3,3.049,30.838,6.732,29.888A4.226,4.226,0,0,0,8.91,28.537c.483-.54.507-.519,1.247-.573,0-.774.01-1.553-.011-2.331,0-.112-.14-.238-.242-.326a8.561,8.561,0,0,1-2.846-4.66.721.721,0,0,0-.43-.4A4.377,4.377,0,0,1,3.62,16.257,2.549,2.549,0,0,1,6.076,13.55c.126-.01.252-.016.454-.028a10.084,10.084,0,0,1,.609-5.5c-.641-.34-.564-.876-.441-1.455.329-1.545.623-3.1.947-4.643A2.3,2.3,0,0,1,9.994,0q5.225-.009,10.45,0a2.306,2.306,0,0,1,2.374,1.947c.346,1.655.684,3.313,1,4.975a1.039,1.039,0,0,1-.14.756.61.61,0,0,0-.1.714,8.917,8.917,0,0,1,.536,4.094c-.029.331-.044.663-.063.977.065.036.091.063.117.063,1.745,0,3.184,1.451,2.529,3.732a4.215,4.215,0,0,1-2.78,2.94.576.576,0,0,0-.441.478,8.183,8.183,0,0,1-2.858,4.641.763.763,0,0,0-.317.686c.02.651.006,1.3.006,1.992a1.278,1.278,0,0,1,1.283.562,4.182,4.182,0,0,0,2.23,1.354,8.89,8.89,0,0,1,6.591,8.5c.076,3.242.016,6.487.028,9.731a1.122,1.122,0,0,1-.531.947ZM15.212,10.47c-.536.215-1.105.488-1.7.673-.729.227-1.48.386-2.223.566a1.565,1.565,0,0,0-1.158.971c-.34.825-.651,1.668-1.063,2.457a6.846,6.846,0,0,0-.76,4.138,6.865,6.865,0,0,0,4.427,6.03,6.643,6.643,0,0,0,7.292-1.382c1.949-1.739,2.314-4.062,2.3-6.506a.878.878,0,0,0-.1-.315c-.627-1.466-1.265-2.927-1.882-4.4a1.6,1.6,0,0,0-1.19-1c-.683-.159-1.372-.3-2.04-.511-.642-.2-1.261-.478-1.9-.723M22.821,34.1a1.944,1.944,0,0,1-.839,2.766c-1.882,1.234-3.762,2.472-5.654,3.692a.757.757,0,0,0-.389.736c.017,1.9.008,3.8.008,5.7v.626H23.77c0-1.432,0-2.835,0-4.238,0-.691.24-1.02.732-1.016s.705.326.706,1.033c0,.522,0,1.043,0,1.561h3.748a2.617,2.617,0,0,0,.029-.266c0-2.045.01-4.09-.007-6.134a7.491,7.491,0,0,0-1.887-4.949,7.34,7.34,0,0,0-2.725-1.993c-.007,1.456-.138,1.663-1.546,2.477m-3.959-7.645A8.588,8.588,0,0,1,11.6,26.42c0,.229,0,.383,0,.537a4.15,4.15,0,0,1-.4,2.325c-.059.1.006.3.064.433q1.884,4.266,3.784,8.525c.047.106.116.2.2.351.109-.23.192-.4.269-.571.7-1.573,1.392-3.15,2.11-4.715a1.076,1.076,0,0,1,.517-.566.936.936,0,0,1,.727.179c.289.219.24.559.1.876q-.935,2.1-1.864,4.2c-.053.119-.091.244-.173.469l3.939-2.584c.952-.625.953-.624.3-1.526a.743.743,0,0,1,.316-1.245c.372-.183.754-.345,1.126-.528.338-.166.46-.455.2-.734-.654-.692-1.351-1.345-2.053-2.037-.15.316-.266.611-.424.882a.652.652,0,0,1-.856.322c-.357-.137-.619-.474-.441-.782a1.865,1.865,0,0,0-.07-1.742,2.533,2.533,0,0,1-.1-.754c-.015-.4,0-.8,0-1.273m2.9-22.493c-.126-.632-.224-1.2-.354-1.755a.884.884,0,0,0-.953-.767q-5.224-.008-10.447,0a.882.882,0,0,0-.953.765c-.13.558-.228,1.123-.355,1.758.654,0,1.272-.012,1.89,0,.54.014.827.284.821.732s-.29.692-.843.7c-.607.008-1.214.014-1.821,0-.262-.007-.381.09-.411.342-.026.216-.07.43-.12.725a47.64,47.64,0,0,1,14.013-.014C22.116,5.4,22.116,5.4,21.155,5.4h-.719c-2.093,0-4.185,0-6.278,0a.725.725,0,0,1-.815-.689.746.746,0,0,1,.776-.741c.143-.011.288,0,.431,0h7.21ZM15.949,7.319c0,.393,0,.661,0,.931A1.284,1.284,0,0,0,17.1,9.706c.742.188,1.48.4,2.228.556a3.131,3.131,0,0,1,2.427,2.076c.211.556.468,1.095.7,1.641a9.646,9.646,0,0,0,.224-1.672,8.353,8.353,0,0,0-.42-3.347c-.255-.755-.581-1.242-1.506-1.269-1.574-.046-3.144-.235-4.805-.372m-7.87,6.487c.248-.579.492-1.159.746-1.735a2.882,2.882,0,0,1,2.036-1.729c.866-.215,1.73-.439,2.6-.652a1.163,1.163,0,0,0,.965-.829,10.421,10.421,0,0,0,.108-1.54c-1.648.131-3.186.3-4.728.358-.875.032-1.218.483-1.494,1.221a9.738,9.738,0,0,0-.229,4.906m5.35,24.583.072-.075L9.693,29.751l-1.8,1.822a2.918,2.918,0,0,0-.232.241.446.446,0,0,0,.158.747c.4.2.812.37,1.209.573a.723.723,0,0,1,.309,1.15c-.659,1-.659,1,.339,1.652l.12.079,3.631,2.374M6.612,15.021c-.866-.077-1.4.23-1.535.833a2.729,2.729,0,0,0,1.765,2.859c-.077-1.239-.153-2.455-.231-3.691M5.227,46.48H1.507v1.15h3.72Zm20.017-.035v1.184h3.742a7.014,7.014,0,0,0-.012-.881c-.015-.11-.164-.289-.255-.29-1.146-.02-2.292-.013-3.475-.013M23.706,18.756a2.877,2.877,0,0,0,1.69-2.518c.039-.861-.544-1.342-1.453-1.192-.076,1.191-.153,2.393-.237,3.71" transform="translate(0 0)" fill="#133d60"/>
          <path id="Trazado_128254" data-name="Trazado 128254" d="M36.3,122.71a.692.692,0,0,1-.7.692.715.715,0,0,1-.726-.724.747.747,0,0,1,.711-.7.718.718,0,0,1,.713.736" transform="translate(-22.777 -79.669)" fill="#133d60"/>
          <path id="Trazado_128255" data-name="Trazado 128255" d="M35.577,131.074a.742.742,0,0,1-.7-.761.714.714,0,0,1,.733-.667.694.694,0,0,1,.687.75.718.718,0,0,1-.722.678" transform="translate(-22.781 -84.68)" fill="#133d60"/>
          <path id="Trazado_128256" data-name="Trazado 128256" d="M37.2,63.142a4.7,4.7,0,0,1-3.139-1.265.722.722,0,0,1-.143-1.093c.286-.321.692-.311,1.1.025a3.234,3.234,0,0,0,4.474,0c.41-.337.816-.347,1.1-.027a.723.723,0,0,1-.141,1.095A4.7,4.7,0,0,1,37.2,63.142" transform="translate(-22.029 -39.549)" fill="#133d60"/>
          <path id="Trazado_128257" data-name="Trazado 128257" d="M42.7,47.384c-.014.318,0,.64-.047.954A1.886,1.886,0,0,1,40.6,49.991a.716.716,0,0,1-.717-.69.727.727,0,0,1,.67-.74c.654-.1.691-.141.694-.816,0-.4-.011-.8.01-1.2a.67.67,0,0,1,.691-.7.7.7,0,0,1,.727.674.675.675,0,0,1,.008.1c0,.255,0,.511,0,.765H42.7" transform="translate(-26.049 -29.947)" fill="#133d60"/>
          <path id="Trazado_128258" data-name="Trazado 128258" d="M50.867,127.417a6.422,6.422,0,0,1,0,.654.658.658,0,0,1-.652.641.636.636,0,0,1-.748-.582,7.531,7.531,0,0,1,0-1.576c.044-.4.358-.576.763-.575,1.278,0,2.555-.006,3.833,0a.691.691,0,0,1,.772.674.7.7,0,0,1-.755.75c-.862.023-1.725.009-2.587.01h-.626" transform="translate(-32.282 -82.285)" fill="#133d60"/>
        </g>
      </g>
    </g>
  </g>
</svg>
