<svg xmlns="http://www.w3.org/2000/svg" xmlns:xlink="http://www.w3.org/1999/xlink" width="67" height="67" viewBox="0 0 67 67">
  <defs>
    <clipPath id="clip-path">
      <rect id="Rectángulo_36195" data-name="Rectángulo 36195" width="30.194" height="48.725" fill="#133d60"/>
    </clipPath>
  </defs>
  <g id="Grupo_136068" data-name="Grupo 136068" transform="translate(-661.256 -4806)">
    <g id="Grupo_136018" data-name="Grupo 136018">
      <circle id="Elipse_4977" data-name="Elipse 4977" cx="33.5" cy="33.5" r="33.5" transform="translate(661.256 4806)" fill="#deeefc"/>
      <g id="Grupo_136017" data-name="Grupo 136017" transform="translate(679.256 4815)">
        <g id="Grupo_136016" data-name="Grupo 136016" clip-path="url(#clip-path)">
          <path id="Trazado_128267" data-name="Trazado 128267" d="M.547,48.725A1.183,1.183,0,0,1,.017,47.6c.023-1.078,0-2.157.017-3.234a.7.7,0,0,1,.705-.741.726.726,0,0,1,.707.745c.01.126.006.253.006.38,0,.682,0,1.364,0,2.046,0,.154.014.308.024.484H5.2V45.225c0-.777,0-1.554,0-2.331,0-.534.257-.832.694-.839s.709.293.73.813c.006.141,0,.282,0,.459H7.768a.572.572,0,0,0-.332-.808A2.3,2.3,0,0,1,6.258,39.87a2.354,2.354,0,1,1,3.408,2.653c-.442.247-.442.247-.372.842.519,0,1.05,0,1.581,0,.8,0,1,.2,1,1.018,0,.949,0,1.9,0,2.881h1.21c0-.529.039-1.066-.007-1.6a8.089,8.089,0,0,1,.9-4.632c.252-.468.159-.714-.3-1.005-2.112-1.343-4.2-2.732-6.29-4.1-.744-.488-.8-.8-.261-1.493.145-.187.291-.373.473-.605-.612-.287-1.193-.556-1.772-.83-.714-.338-.812-.743-.336-1.384.434-.585.872-1.167,1.373-1.837a7.235,7.235,0,0,0-3.2,1.923,7.578,7.578,0,0,0-2.211,5.543c.005,1.142,0,2.283,0,3.425a2.425,2.425,0,0,1-.03.473.636.636,0,0,1-.668.555c-.386.006-.7-.2-.692-.572.028-2.552-.393-5.147.677-7.6a9.128,9.128,0,0,1,4.136-4.5.893.893,0,0,0,.415-.547,26.672,26.672,0,0,1,2.155-7.014.891.891,0,0,0,.008-.8,6.422,6.422,0,0,0-.567-1.642c-.318-.4-.98-.5-1.439-.814A4.057,4.057,0,0,1,3.588,14.8,2.494,2.494,0,0,1,6,12.148c.123-.01.246-.026.409-.043-.037-.6-.053-1.188-.111-1.768A9.161,9.161,0,0,1,8.484,2.961,7.078,7.078,0,0,1,11.209.939a15.674,15.674,0,0,1,2-.72,8.837,8.837,0,0,1,10.76,8.575c0,1.089-.1,2.178-.149,3.29.127.021.231.045.337.056A2.585,2.585,0,0,1,26.575,15.4a4.241,4.241,0,0,1-2.933,3.378.711.711,0,0,0-.386.435,8.522,8.522,0,0,1-2.881,4.643.606.606,0,0,0-.224.376c-.022.711-.01,1.423-.01,2.167a1.086,1.086,0,0,1,1.143.639,2.319,2.319,0,0,0,1.693,1.139,9.052,9.052,0,0,1,5.5,3.568,8.908,8.908,0,0,1,1.717,5.337c0,3.536,0,7.072.007,10.608a1.135,1.135,0,0,1-.528,1.035ZM11.694,2.266A7.376,7.376,0,0,0,8.559,5.307a8.253,8.253,0,0,0-.837,4.981c.04.409.065.819.106,1.339.167-.21.253-.321.342-.429.353-.427.763-.514,1.107-.237s.348.694,0,1.132c-.362.462-.749.9-1.091,1.38a1.1,1.1,0,0,0-.211.638c.067,1.33.143,2.66.262,3.985a6.89,6.89,0,0,0,13.6.7c.244-1.366.233-2.776.378-4.162a.749.749,0,0,0-.5-.9A21.491,21.491,0,0,1,14,7.7c-.407-.5-.811-1.006-1.245-1.544-.068.141-.116.237-.161.334-.382.816-.749,1.641-1.153,2.447a.7.7,0,0,1-.964.347.727.727,0,0,1-.285-1.019c.1-.214.226-.418.332-.63a8.233,8.233,0,0,0,1.169-5.369m17.036,45c.012-.118.029-.211.029-.3q0-4.946,0-9.892a7.455,7.455,0,0,0-1.09-3.934,7.608,7.608,0,0,0-4.334-3.381c.524.7.978,1.3,1.424,1.91.418.568.317.989-.313,1.294-.6.288-1.2.566-1.827.863l.535.7c.425.557.375.928-.194,1.307q-1.067.712-2.146,1.406c-.46.3-.889.244-1.126-.123s-.116-.758.354-1.073c.535-.358,1.074-.71,1.634-1.08-.207-.269-.389-.508-.573-.745-.511-.657-.42-1.06.321-1.413.583-.277,1.166-.553,1.777-.842L20.55,28.44l-3.9,9.757c.159-.064.213-.08.262-.107.56-.312.923-.282,1.165.1s.1.781-.431,1.13c-.556.366-1.114.728-1.667,1.1-.116.077-.264.16-.311.276a13.508,13.508,0,0,0-1.1,2.872,23.942,23.942,0,0,0-.045,3.7h9.059c0-1.478,0-2.92,0-4.362,0-.527.267-.834.7-.844.454-.011.724.3.726.855,0,1.284,0,2.568,0,3.852v.508ZM22.377,12.526c.055-1.463.191-2.824.142-4.179a7.431,7.431,0,0,0-8.163-6.881c-1.159.147-1.159.147-1.159,1.3,0,.079.006.159,0,.238a3.194,3.194,0,0,0,.881,2.522c.329.363.617.764.923,1.148a20.48,20.48,0,0,0,5.629,4.908c.54.319,1.1.6,1.748.95m-3.66,12.4a8.557,8.557,0,0,1-7.2.016c-.008.136-.014.2-.014.262a4.41,4.41,0,0,1-.455,2.625.313.313,0,0,0,.018.266,5.965,5.965,0,0,0,.634,1.033c.459.523.977.994,1.47,1.488l1.9,1.907a1.041,1.041,0,0,0,.157-.1c1.167-1.164,2.338-2.325,3.5-3.5a1.283,1.283,0,0,0,.246-1.489,3.638,3.638,0,0,1-.246-1.006c-.041-.471-.01-.949-.01-1.505M9.66,28.436,7.012,31.97c.644.3,1.26.584,1.87.879a.743.743,0,0,1,.311,1.266c-.212.284-.43.564-.655.859l4.9,3.2.086-.083L9.66,28.436m.414-2.039c0-.741,0-1.453,0-2.165a.388.388,0,0,0-.085-.255c-.485-.468-.979-.925-1.5-1.408A24.894,24.894,0,0,0,6.8,28.247a2.518,2.518,0,0,0,2.189-1.285,1.031,1.031,0,0,1,1.086-.564M6.645,47.265h3.771V44.83H6.645ZM12.9,32.344l-.1.09,2.31,5.769,2.314-5.788-.1-.071c-.5.5-.99,1-1.489,1.5-.578.578-.867.581-1.434.013-.5-.5-1-1.011-1.5-1.517m10.573-15.07A2.762,2.762,0,0,0,25.2,14.566a1.122,1.122,0,0,0-1.267-1,.338.338,0,0,0-.233.215c-.085,1.147-.151,2.3-.224,3.49M6.736,17.242c-.07-1.147-.134-2.282-.22-3.416a.376.376,0,0,0-.257-.244,1.114,1.114,0,0,0-1.225.825,2.667,2.667,0,0,0,1.7,2.834M8.544,41.386a.956.956,0,0,0,.922-.912.929.929,0,0,0-1.858-.033.953.953,0,0,0,.936.945" transform="translate(0 0)" fill="#133d60"/>
          <path id="Trazado_128268" data-name="Trazado 128268" d="M46.7,75.534A4.466,4.466,0,0,1,43.709,74.3c-.413-.376-.46-.783-.146-1.115.3-.315.676-.3,1.09.05a3.206,3.206,0,0,0,4.431-.01c.41-.342.8-.352,1.089-.029a.714.714,0,0,1-.132,1.084A4.67,4.67,0,0,1,46.7,75.534" transform="translate(-31.757 -53.44)" fill="#133d60"/>
          <path id="Trazado_128269" data-name="Trazado 128269" d="M54.037,55.6a7.311,7.311,0,0,1-.006.9,1.855,1.855,0,0,1-2.013,1.662.7.7,0,0,1-.735-.654.724.724,0,0,1,.638-.759c.7-.133.71-.14.713-.836,0-.38-.01-.76.007-1.139a.684.684,0,0,1,.664-.722.709.709,0,0,1,.75.695.8.8,0,0,1,.005.095q0,.38,0,.76h-.024" transform="translate(-37.56 -39.589)" fill="#133d60"/>
          <path id="Trazado_128270" data-name="Trazado 128270" d="M64.993,163.492a6.243,6.243,0,0,1,0,.652.656.656,0,0,1-.649.635.619.619,0,0,1-.729-.535,7.624,7.624,0,0,1-.006-1.611.64.64,0,0,1,.712-.566c1.284,0,2.568-.007,3.852,0a.685.685,0,0,1,.763.671.7.7,0,0,1-.751.741c-.855.022-1.712.009-2.568.01h-.619" transform="translate(-46.557 -118.7)" fill="#133d60"/>
          <path id="Trazado_128271" data-name="Trazado 128271" d="M64.836,22.583c-.181.229-.3.524-.485.576a1.04,1.04,0,0,1-.821-.1c-1.133-.932-2.233-1.9-3.325-2.883a6.591,6.591,0,0,1-.772-.9.7.7,0,0,1,.072-1.015.686.686,0,0,1,1.01.109,19.664,19.664,0,0,0,3.886,3.6,2.505,2.505,0,0,1,.435.611" transform="translate(-43.396 -13.25)" fill="#133d60"/>
        </g>
      </g>
    </g>
  </g>
</svg>
