<svg xmlns="http://www.w3.org/2000/svg" xmlns:xlink="http://www.w3.org/1999/xlink" width="168.315" height="163" viewBox="0 0 168.315 163">
  <defs>
    <clipPath id="clip-path">
      <circle id="Elipse_4990" data-name="Elipse 4990" cx="81.5" cy="81.5" r="81.5" transform="translate(1139.256 4235)" fill="#feb12e"/>
    </clipPath>
    <clipPath id="clip-path-2">
      <rect id="Rectángulo_36184" data-name="Rectángulo 36184" width="184.711" height="223.165" fill="none"/>
    </clipPath>
    <clipPath id="clip-path-3">
      <path id="Trazado_128205" data-name="Trazado 128205" d="M417.459,317.337c-.669,7.764,9.854,4.663,12.62-.421-2.766,1.364-9.748,1.429-12.62.421" transform="translate(-417.428 -316.916)" fill="none"/>
    </clipPath>
  </defs>
  <g id="Grupo_135996" data-name="Grupo 135996" transform="translate(-1133.941 -4235)">
    <g id="Grupo_135993" data-name="Grupo 135993">
      <circle id="Elipse_4974" data-name="Elipse 4974" cx="81.5" cy="81.5" r="81.5" transform="translate(1139.256 4235)" fill="#feb12e"/>
      <g id="Enmascarar_grupo_105" data-name="Enmascarar grupo 105" clip-path="url(#clip-path)">
        <g id="Grupo_135991" data-name="Grupo 135991" transform="translate(1150.709 4240.421)">
          <g id="Grupo_135986" data-name="Grupo 135986" transform="translate(0 0.004)">
            <g id="Grupo_135985" data-name="Grupo 135985" transform="translate(0 0)" clip-path="url(#clip-path-2)">
              <path id="Trazado_128181" data-name="Trazado 128181" d="M990.157,725.467c1.256,1.334-1.884,6.2-1.884,6.2l-6.436-5.1Z" transform="translate(-826.506 -610.696)" fill="#007491"/>
              <path id="Trazado_128182" data-name="Trazado 128182" d="M39.179,766.318a12.675,12.675,0,0,1,1.079-4.525c.663-1.851,1.583-4.077,2.643-6.408.962-2.108,4.733-9.933,5.844-12.009-1.567-2.242-22.847-19.44-27.71-21.878C12.953,734.821,0,759.381,0,766.746c0,17.964,19.165,33.364,38.061,38.852,3.659,1.06,6-9.493,5.618-10.043-4.35-6.263-2.7-18.713-4.5-29.237" transform="translate(0 -607.355)" fill="#b56a76"/>
              <path id="Trazado_128183" data-name="Trazado 128183" d="M90.92,723.979c10.811,1.147,26.9,10.729,29.256,12.455s4.52-9.656,4.52-9.656L98.435,710.9Z" transform="translate(-76.536 -598.43)" fill="#a14861"/>
              <path id="Trazado_128184" data-name="Trazado 128184" d="M245.717,464.678c-13.108,1.333-24.472,11.062-31.939,20.333-.386,1.606-1.78,19.574-1.98,27.538-.608,24.223-.149,55.232-.149,60.523H123.21c-2.126-9.183-1.542-61.681,1.615-89.521a34.933,34.933,0,0,0-2.633-2.924c-4.178-3.849-16.346-10.993-24.7-12.264,9.174-14.674,24.479-30.388,36.509-38.371,5.378-3.567,12.143-6.447,17.818-9.106.028,0,.057,0,.082-.009.141-.061.276-.12.4-.167,9.077-3.534,21.444-4.7,25.318-5.044,34.061,11.886,49.135,24.482,68.1,49.013" transform="translate(-82.067 -349.906)" fill="#2bc2c7"/>
              <path id="Trazado_128185" data-name="Trazado 128185" d="M814.953,778.525c0,29.719-48.865,42.921-64.2,39.731-3.739-.777-1.6-12.056.221-12.056,6.346,0,25.442-22.235,24.275-29.057-.7-4.064-7.281-13.469-14.974-21.964q-.9-1-1.818-1.971c6.242-9.565,17.973-20.985,31.786-24,2.129,2.838,4.269,5.8,6.35,8.821,9.826,14.267,18.362,29.935,18.362,40.5" transform="translate(-630.242 -613.845)" fill="#b56a76"/>
              <path id="Trazado_128186" data-name="Trazado 128186" d="M198.371,1004.746c-.121-.7-20.014,33.792-1.118,39.279,3.659,1.06,6-9.493,5.618-10.043-4.35-6.263-2.7-18.713-4.5-29.237" transform="translate(-159.192 -845.783)" fill="#b56a76"/>
              <path id="Trazado_128187" data-name="Trazado 128187" d="M848.561,738.029c-9.527-3.212-33.309,11.339-36.319,17.149q-.9-1-1.818-1.971c6.242-9.565,17.974-20.985,31.786-24,2.129,2.838,4.269,5.8,6.351,8.821" transform="translate(-682.212 -613.845)" fill="#a14861"/>
              <path id="Trazado_128188" data-name="Trazado 128188" d="M921.565,1030.576c-.665,0-1.6-.077-2.912-.2-1.421-.132-3.567-.331-3.961-.1a.388.388,0,1,1-.4-.667c.571-.342,2.055-.232,4.432-.012a26.907,26.907,0,0,0,3.274.184,25.681,25.681,0,0,0-3.3-1.046c-3-.819-4.222-1.223-4.291-1.921-.02-.2.053-.5.517-.727,2.358-1.179,10.714,1.179,12.366,1.664a.388.388,0,1,1-.219.745c-3.561-1.045-10.051-2.582-11.8-1.716a19.646,19.646,0,0,0,3.629,1.205c2.74.75,3.877,1.112,4.094,1.69a.554.554,0,0,1-.073.541c-.192.251-.595.352-1.358.352" transform="translate(-769.488 -863.487)" fill="#8f4056"/>
              <path id="Trazado_128189" data-name="Trazado 128189" d="M736.016,673.856a.388.388,0,0,1-.387-.365l-.024-.378a.388.388,0,0,1,.775-.049l.024.38a.388.388,0,0,1-.364.412h-.024m-.169-2.729a.389.389,0,0,1-.387-.366l-.056-.94a.389.389,0,0,1,.365-.411.393.393,0,0,1,.411.365l.056.94a.389.389,0,0,1-.365.411h-.023m-.19-3.291a.388.388,0,0,1-.387-.367l-.052-.941a.388.388,0,0,1,.367-.409.382.382,0,0,1,.409.367l.052.94a.388.388,0,0,1-.367.409h-.022m-.175-3.292a.388.388,0,0,1-.388-.369l-.047-.942a.389.389,0,0,1,.776-.038l.047.94a.388.388,0,0,1-.368.408h-.02m-.159-3.293a.389.389,0,0,1-.388-.371l-.043-.941a.389.389,0,0,1,.776-.034l.043.94a.389.389,0,0,1-.37.406h-.018m-.143-3.293a.388.388,0,0,1-.388-.372l-.037-.942a.388.388,0,1,1,.776-.03l.037.94a.389.389,0,0,1-.372.4h-.016m-.125-3.294a.388.388,0,0,1-.388-.375l-.033-.942a.389.389,0,0,1,.777-.026l.032.941a.389.389,0,0,1-.375.4h-.014m-.107-3.295a.388.388,0,0,1-.388-.377l-.027-.942a.389.389,0,1,1,.777-.022l.027.941a.389.389,0,0,1-.377.4h-.012m-.087-3.3a.388.388,0,0,1-.388-.379l-.021-.942a.389.389,0,1,1,.777-.017l.021.941a.389.389,0,0,1-.38.4h-.009m-.067-3.3a.388.388,0,0,1-.388-.382l-.015-.942a.388.388,0,0,1,.382-.394h.006a.388.388,0,0,1,.388.383l.015.941a.389.389,0,0,1-.382.4Zm-.044-3.3a.389.389,0,0,1-.389-.385l-.008-.943a.389.389,0,0,1,.385-.392h0a.389.389,0,0,1,.389.385l.009.941a.389.389,0,0,1-.385.393Zm-.022-3.3a.389.389,0,0,1-.389-.388v-.942a.389.389,0,0,1,.388-.389h0a.388.388,0,0,1,.389.388v.941a.389.389,0,0,1-.388.389Zm0-3.3h0a.389.389,0,0,1-.387-.39l.006-.943a.379.379,0,0,1,.391-.386.389.389,0,0,1,.386.391l-.006.941a.389.389,0,0,1-.389.386m.031-3.3h-.005a.388.388,0,0,1-.383-.393q.006-.475.014-.943a.393.393,0,0,1,.395-.382.388.388,0,0,1,.382.395q-.008.467-.014.94a.389.389,0,0,1-.388.383m.059-3.3h-.009a.388.388,0,0,1-.38-.4q.011-.474.022-.943a.389.389,0,0,1,.388-.379h.01a.389.389,0,0,1,.379.4q-.012.467-.022.94a.389.389,0,0,1-.388.38m.09-3.295H734.9a.389.389,0,0,1-.376-.4q.016-.475.032-.942a.384.384,0,0,1,.4-.375.389.389,0,0,1,.375.4q-.017.467-.032.94a.388.388,0,0,1-.388.376m.124-3.293h-.017a.388.388,0,0,1-.372-.4q.021-.475.042-.942a.389.389,0,1,1,.776.036q-.022.466-.042.939a.388.388,0,0,1-.388.372m.161-3.292h-.022a.389.389,0,0,1-.367-.409q.026-.475.053-.942a.389.389,0,0,1,.776.045q-.027.466-.053.939a.388.388,0,0,1-.388.367m.2-3.29h-.027a.389.389,0,0,1-.361-.414q.032-.475.066-.94a.389.389,0,1,1,.775.056q-.034.465-.066.938a.389.389,0,0,1-.387.362m.246-3.287h-.032a.389.389,0,0,1-.355-.419q.039-.475.08-.94a.389.389,0,1,1,.774.067q-.04.464-.079.936a.389.389,0,0,1-.387.357m.3-3.282-.039,0a.389.389,0,0,1-.348-.425q.047-.475.095-.939a.389.389,0,0,1,.773.08q-.048.462-.095.935a.388.388,0,0,1-.386.35m.352-3.276-.046,0a.388.388,0,0,1-.341-.431q.055-.474.112-.937a.388.388,0,1,1,.771.094q-.057.461-.112.933a.388.388,0,0,1-.385.343m.417-3.269a.393.393,0,0,1-.054,0,.389.389,0,0,1-.332-.438q.066-.474.133-.935a.388.388,0,1,1,.769.112q-.066.458-.132.93a.389.389,0,0,1-.384.335m.491-3.258a.4.4,0,0,1-.063-.005.388.388,0,0,1-.321-.446q.077-.474.156-.932a.388.388,0,0,1,.766.132q-.078.454-.155.925a.389.389,0,0,1-.383.326m.577-3.244a.384.384,0,0,1-.074-.007.389.389,0,0,1-.308-.455q.092-.473.184-.927a.389.389,0,0,1,.762.155q-.092.45-.183.92a.389.389,0,0,1-.381.315m.682-3.224a.389.389,0,0,1-.379-.476q.109-.473.218-.92a.389.389,0,1,1,.755.183q-.108.443-.216.912a.389.389,0,0,1-.378.3m.809-3.194a.383.383,0,0,1-.1-.014.389.389,0,0,1-.27-.478q.132-.473.26-.91a.388.388,0,1,1,.745.219q-.127.433-.257.9a.389.389,0,0,1-.374.284m.034-3.1a.389.389,0,0,1-.358-.236q-.187-.438-.366-.872a.389.389,0,0,1,.718-.3q.178.431.363.864a.388.388,0,0,1-.2.51.384.384,0,0,1-.152.031m-1.23-3.058a.388.388,0,0,1-.364-.251q-.168-.446-.328-.888a.389.389,0,1,1,.731-.265q.159.438.325.878a.389.389,0,0,1-.364.526m-1.093-3.11a.389.389,0,0,1-.37-.268q-.147-.453-.287-.9a.389.389,0,0,1,.742-.23q.138.444.284.892a.389.389,0,0,1-.37.509m-.943-3.158a.389.389,0,0,1-.375-.287q-.125-.46-.242-.916a.389.389,0,1,1,.753-.192q.115.45.239.9a.389.389,0,0,1-.273.477.4.4,0,0,1-.1.014m-.781-3.2a.389.389,0,0,1-.379-.307q-.1-.466-.192-.928a.388.388,0,0,1,.762-.152q.091.456.19.917a.389.389,0,0,1-.38.47m-.6-3.24a.389.389,0,0,1-.383-.329q-.074-.472-.139-.938a.388.388,0,1,1,.769-.107q.064.46.137.925a.388.388,0,0,1-.324.444.418.418,0,0,1-.061,0m-.411-3.27a.388.388,0,0,1-.386-.352q-.045-.476-.081-.946a.389.389,0,0,1,.775-.058q.035.462.079.931a.388.388,0,0,1-.351.423l-.037,0m-.2-3.289a.389.389,0,0,1-.388-.378q-.013-.478-.017-.949a.389.389,0,0,1,.385-.392h0a.389.389,0,0,1,.389.385q0,.463.017.934a.389.389,0,0,1-.378.4h-.011m.024-3.3h-.017a.389.389,0,0,1-.371-.405q.021-.479.051-.948a.389.389,0,1,1,.775.05q-.03.462-.05.932a.389.389,0,0,1-.388.372m.268-3.284-.047,0a.388.388,0,0,1-.339-.432q.057-.476.125-.942a.388.388,0,1,1,.769.111q-.066.457-.122.925a.388.388,0,0,1-.385.342m.53-3.252a.384.384,0,0,1-.079-.008.388.388,0,0,1-.3-.459q.1-.47.2-.929a.388.388,0,0,1,.757.177q-.1.449-.2.91a.389.389,0,0,1-.38.31m.813-3.193a.388.388,0,0,1-.372-.5q.14-.461.29-.908a.389.389,0,0,1,.737.248q-.146.436-.284.886a.389.389,0,0,1-.371.276m1.118-3.1a.389.389,0,0,1-.358-.54q.188-.446.385-.873a.389.389,0,0,1,.706.324q-.192.417-.375.851a.389.389,0,0,1-.358.237m1.451-2.958a.389.389,0,0,1-.337-.581c.161-.282.325-.559.488-.822a.389.389,0,1,1,.661.41c-.158.255-.318.523-.474.8a.388.388,0,0,1-.338.2m1.823-2.744a.388.388,0,0,1-.306-.627c.2-.255.4-.506.608-.744a.388.388,0,1,1,.589.507c-.2.229-.393.469-.584.714a.387.387,0,0,1-.307.15m2.252-2.4a.388.388,0,0,1-.254-.682c.25-.216.5-.421.756-.608a.389.389,0,0,1,.464.624c-.237.176-.476.368-.712.572a.387.387,0,0,1-.254.095m6.8-1.524a.387.387,0,0,1-.234-.078,2.817,2.817,0,0,0-.724-.394.389.389,0,0,1,.268-.73,3.591,3.591,0,0,1,.924.5.389.389,0,0,1-.234.7m-4.035-.236a.389.389,0,0,1-.146-.749,6.685,6.685,0,0,1,.95-.306.389.389,0,1,1,.18.756,5.873,5.873,0,0,0-.839.27.386.386,0,0,1-.145.028" transform="translate(-617.571 -451.715)" fill="#007491"/>
              <path id="Trazado_128190" data-name="Trazado 128190" d="M269.314,625.8l-.046,0a.389.389,0,0,1-.341-.431c.925-7.872,2.2-16,5.265-22.088a.389.389,0,1,1,.694.349c-3.007,5.984-4.271,14.028-5.188,21.83a.389.389,0,0,1-.385.343" transform="translate(-226.38 -507.658)" fill="#007491"/>
              <path id="Trazado_128191" data-name="Trazado 128191" d="M307.313,499.686a.389.389,0,0,1-.368-.513q.15-.446.318-.9a.389.389,0,0,1,.729.269q-.164.442-.31.878a.388.388,0,0,1-.368.265m1.2-3.071a.389.389,0,0,1-.355-.545q.19-.432.392-.866a.388.388,0,1,1,.7.328q-.2.427-.385.851a.389.389,0,0,1-.356.232m1.431-2.97a.389.389,0,0,1-.344-.568q.219-.419.445-.837a.388.388,0,1,1,.683.37q-.223.412-.439.826a.389.389,0,0,1-.345.209m1.606-2.881a.389.389,0,0,1-.334-.587q.243-.409.49-.812a.389.389,0,0,1,.662.407q-.245.4-.485.8a.389.389,0,0,1-.335.19m1.759-2.79a.389.389,0,0,1-.323-.6q.266-.4.534-.785a.389.389,0,0,1,.639.443q-.264.381-.526.774a.389.389,0,0,1-.324.173m1.911-2.689a.388.388,0,0,1-.309-.623q.292-.385.581-.752a.388.388,0,1,1,.61.481q-.284.36-.572.739a.388.388,0,0,1-.31.154m2.092-2.55a.388.388,0,0,1-.289-.648c.223-.247.443-.483.652-.7a.389.389,0,0,1,.558.541c-.2.21-.417.439-.633.679a.388.388,0,0,1-.289.128" transform="translate(-258.368 -405.131)" fill="#007491"/>
              <path id="Trazado_128192" data-name="Trazado 128192" d="M258.616,669.226c-.038.282-1.319,9.409-1.716,14.347-.407,5.018-.424,10.071-.631,13.424-.852-.984-1.728-1.966-2.632-2.925,1.074-9.786,2.967-19.852,4.98-24.847" transform="translate(-213.51 -563.352)" fill="#007491"/>
              <path id="Trazado_128193" data-name="Trazado 128193" d="M783.7,864.692c-.448,5.866-.912,12.2-1.24,20.261-.308-8.649-5.406-23.385-7.059-26.9l5.114,6.078a4.2,4.2,0,0,1,.427-2.464s1.405,1.463,2.759,3.02" transform="translate(-652.731 -722.31)" fill="#007491"/>
              <path id="Trazado_128194" data-name="Trazado 128194" d="M465.435,270.447c2.576,4.606-21.472,16.082-29.767,14.481-2.066-.4,1.464-11.4,2.258-13.426.252-.647.491-1.322.716-2.005,2.637-8.089,3.323-18.322,3.323-18.322l.057-.027,21.825-12.6s-2.5,24.6,1.588,31.9" transform="translate(-366.205 -200.807)" fill="#b56a76"/>
              <path id="Trazado_128195" data-name="Trazado 128195" d="M480.976,259.492c1.592,14.822-11.435,28.3-23.109,27.638,2.637-8.089,3.323-18.322,3.323-18.322l.057-.027Z" transform="translate(-385.43 -218.44)" fill="#a14861"/>
              <path id="Trazado_128196" data-name="Trazado 128196" d="M412,74.154c-.021,1.6-.118,3.447-.287,5.421-.485,5.656-1.573,12.313-3.341,16.869-3.683,9.515-13.438,16.514-23.629,15.857-7.943-.511-11.491-6.416-12.155-12.482a22.793,22.793,0,0,1,.217-5.647c.426-2.955,1.222-6.061,1.924-8.929.461-1.884.883-3.666,1.133-5.235.5-3.158.784-6.579,1.069-9.485.3-3.094,1.081-4.58,2.355-5.442,1.879-1.269,4.1-3.711,6.845-4.865,3.289-1.387,6.847-2.371,9.831-2.19,3.134.191,6.541,2.065,9.487,4.434a33.931,33.931,0,0,1,4.213,4.02,25.7,25.7,0,0,1,1.841,2.334c.372.537.542,2.552.5,5.34" transform="translate(-313.564 -48.829)" fill="#b56a76"/>
              <path id="Trazado_128197" data-name="Trazado 128197" d="M444.862,80.958a21.366,21.366,0,0,1-1.08,2.506c-.989,2.142-2.3,4.869-2.3,4.869s1.318-2.806-.328-3.242c-.425-.112-2.3.423-2.712-.558-.222-.525.366-2.047.271-3.167-.04-.467-.792-.461-.824-.926-.075-1.107-.137-2.121-.24-2.625-.245-1.193-2.369-.243-2.926-1-.873-1.2,1.3-4.122.37-4.2-14.4,5.141-25.883,4.273-24.1-1.849a1.165,1.165,0,0,1,.34-.893A41.168,41.168,0,0,1,418.3,65.9l8.048-.163,11.176,2.226,3.18.634s.428,1.277,1.017,3.011c.723,2.134,1.672,4.965,2.341,6.951.462,1.367.782,2.341.8,2.4" transform="translate(-345.818 -55.338)" fill="#a14861"/>
              <path id="Trazado_128198" data-name="Trazado 128198" d="M482.632,255.021c.06-2.577,2.817-4.629,6.158-4.583s6,2.173,5.941,4.75-2.817,4.629-6.158,4.583-6-2.173-5.942-4.75" transform="translate(-406.277 -210.818)" fill="#b35d6b"/>
              <path id="Trazado_128199" data-name="Trazado 128199" d="M380.005,234.531c-.059,2.423-2.494,4.377-5.557,4.566.426-2.955,1.222-6.061,1.924-8.929,2.176.73,3.678,2.418,3.633,4.363" transform="translate(-315.209 -193.755)" fill="#b35d6b"/>
              <path id="Trazado_128200" data-name="Trazado 128200" d="M606.19,197.944c3.031,2.963-4.607,15.536-7.909,9.187-3.275-6.3,4.224-12.79,7.909-9.187" transform="translate(-502.95 -165.76)" fill="#b56a76"/>
              <path id="Trazado_128201" data-name="Trazado 128201" d="M612.506,214.7a.375.375,0,0,1-.075-.007.388.388,0,0,1-.307-.455,5.2,5.2,0,0,1,2.554-3.21A5.388,5.388,0,0,1,617.806,210a.389.389,0,1,1-.2.75,5.186,5.186,0,0,0-2.514.93,4.623,4.623,0,0,0-2.2,2.7.389.389,0,0,1-.381.315" transform="translate(-515.277 -176.752)" fill="#8f4056"/>
              <path id="Trazado_128202" data-name="Trazado 128202" d="M620.876,227.614a.389.389,0,0,1-.37-.27,2.024,2.024,0,0,0-1.882-1.318.389.389,0,1,1-.027-.777,2.79,2.79,0,0,1,2.65,1.857.389.389,0,0,1-.37.507" transform="translate(-520.416 -189.614)" fill="#8f4056"/>
            </g>
          </g>
          <g id="Grupo_135988" data-name="Grupo 135988" transform="translate(66.039 50.141)">
            <g id="Grupo_135987" data-name="Grupo 135987" clip-path="url(#clip-path-3)">
              <path id="Trazado_128203" data-name="Trazado 128203" d="M398.36,275.825A10.761,10.761,0,1,0,387.6,286.587a10.761,10.761,0,0,0,10.761-10.761" transform="translate(-383.26 -273.267)" fill="#8f4056"/>
              <path id="Trazado_128204" data-name="Trazado 128204" d="M420.4,304.67c.362.379,8.6,1.934,10.664-2.527,2.286-4.93-11.372-.421-11.372-.421s.184,2.4.708,2.948" transform="translate(-419.332 -302.539)" fill="#fff"/>
            </g>
          </g>
          <g id="Grupo_135990" data-name="Grupo 135990" transform="translate(0 0.004)">
            <g id="Grupo_135989" data-name="Grupo 135989" transform="translate(0 0)" clip-path="url(#clip-path-2)">
              <path id="Trazado_128206" data-name="Trazado 128206" d="M400.686,210.915c-.08,1.423-1.864,2.314-3.448,2.066a2.529,2.529,0,0,1-2.291-2.962c.32-1.389,1.863-1.144,3.448-.9s2.349.753,2.291,1.793" transform="translate(-332.415 -175.878)" fill="#fff"/>
              <path id="Trazado_128207" data-name="Trazado 128207" d="M412.442,211.06c-.232,1.132-1.015,1.958-1.748,1.845s-1.139-1.122-.907-2.254,1.015-1.958,1.748-1.845,1.139,1.122.907,2.254" transform="translate(-344.902 -175.764)" fill="#04153d"/>
              <path id="Trazado_128208" data-name="Trazado 128208" d="M486.9,221.2a3.942,3.942,0,0,1-4.248,2.077,2.9,2.9,0,0,1-2.531-3.48c.27-1.012,2.376-1.3,4.248-.908s3.107,1.255,2.531,2.311" transform="translate(-404.086 -184.12)" fill="#fff"/>
              <path id="Trazado_128209" data-name="Trazado 128209" d="M498.454,221.556c-.325,1.159-1.26,1.957-2.088,1.783s-1.236-1.255-.911-2.414,1.26-1.957,2.088-1.783,1.236,1.255.911,2.414" transform="translate(-416.977 -184.453)" fill="#04153d"/>
              <path id="Trazado_128210" data-name="Trazado 128210" d="M500.267,232.491c-.115.41-.446.693-.739.631s-.438-.444-.323-.854.446-.693.739-.631.438.444.323.854" transform="translate(-420.196 -194.985)" fill="#fff"/>
              <path id="Trazado_128211" data-name="Trazado 128211" d="M414,222.655c-.115.41-.446.693-.739.631s-.438-.444-.323-.854.446-.693.739-.631.438.444.323.854" transform="translate(-347.574 -186.705)" fill="#fff"/>
              <path id="Trazado_128212" data-name="Trazado 128212" d="M468.679,174.551l.277-.074c.113-.028.294-.067.477-.1a2.406,2.406,0,0,1,.253-.034l.259-.027c.177-.015.36-.021.557-.032l.6-.007c.2,0,.417,0,.628.011s.427.013.64.025c.853.04,1.692.106,2.313.153.308.023.569.042.732.05l.222.012.116.006a.643.643,0,0,1,.082,1.274l-.1.018-.118.02-.131.019c-.2.029-.458.06-.772.1-.625.075-1.447.171-2.254.291-.2.029-.4.062-.6.094s-.385.069-.569.1l-.517.108c-.156.041-.308.076-.438.113l-.18.056a.87.87,0,0,0-.141.049c-.061.031-.1.041-.156.068l-.257.126-.018.009a1.3,1.3,0,0,1-1.148-2.337,1.379,1.379,0,0,1,.236-.089" transform="translate(-393.72 -146.705)" fill="#04153d"/>
              <path id="Trazado_128213" data-name="Trazado 128213" d="M406.883,164.081l.179.018c.112.012.27.03.459.056.379.052.883.135,1.4.259.256.061.515.135.761.215l.358.128.328.139c.1.047.2.1.284.143a2.371,2.371,0,0,1,.224.131l.2.127.068.044a1.326,1.326,0,0,1-1.437,2.229,1.347,1.347,0,0,1-.363-.347l-.058-.081a.619.619,0,0,0-.076-.1c-.036-.039-.073-.084-.122-.133l-.17-.159-.214-.176c-.157-.119-.334-.246-.522-.366-.374-.242-.781-.465-1.09-.622-.155-.078-.286-.142-.376-.184l-.14-.065-.029-.014a.654.654,0,0,1,.342-1.243" transform="translate(-341.906 -138.121)" fill="#04153d"/>
              <path id="Trazado_128214" data-name="Trazado 128214" d="M422.727,18.653c-.558-1.765-2.894-2.016-3.4-3.889-.4-1.5,1.435-2.957,1.073-4.394-.479-1.9-3.669-1.718-4.153-2.449-.246-.371-1.119-4.022-2.117-4.642-1.426-.885-4.575-.091-5.819-.268-1.148-.163-2.936-3.005-5.723-3.005-3.5,0-5.661,4.091-6.422,3.735a11.792,11.792,0,0,0-3.513-1.014c-3.182-.4-3.691,3.632-4.7,4.291-2.22,1.454-3.371-.565-5.438,1.088-1.481,1.184.374,4.477-1.226,6.342-.534.622-1.456.206-1.945,1-1.054,1.708,1.368,3.066,1.166,4.668-.155,1.225-1.565,1.1-1.892,1.932-1.012,2.591,2.442,6.785,1.856,11.167.49-1.366,3.284-12.425,3.262-17.781,2.793,2.174,13.566,4.718,23.913,1.406,1.026,1.3-.408,3.225.432,3.8.611.42,2.1-.545,3.185.38.455.388-.552,1.967-.106,2.624.145.215.861.477,1.214.8a5.233,5.233,0,0,0,.427.436c.147,1.315-1.953,3.9-1.036,4.719.483.434,1.789.106,2.278.54.779.7-.851,5.068-.136,5.5.817.488,2.125-3.233,3.842-4.162,1.88-1.017,3.6-.81,4.658-2.354,1.08-1.574-1.514-4.2-1.889-5.506-.446-1.521,2.881-2.841,2.209-4.963" transform="translate(-318.562 -0.005)" fill="#0a0036"/>
              <path id="Trazado_128215" data-name="Trazado 128215" d="M407.12,214.4l-.06.228c-.042.15-.1.37-.181.646s-.192.609-.32.989-.289.8-.486,1.257-.411.944-.675,1.448-.582,1.015-.9,1.533-.668,1.056-1.026,1.6-.734,1.079-1.115,1.608a15.779,15.779,0,0,0-1.032,1.531,1.738,1.738,0,0,0-.208.669,1.662,1.662,0,0,0,.018.336l.017.089,0,.022,0,.011v.006l0-.016.014.056a.183.183,0,0,0,.01.029.244.244,0,0,0,.017.037.627.627,0,0,0,.377.251,2.909,2.909,0,0,0,.689.111,7.418,7.418,0,0,0,1.445-.1,11.7,11.7,0,0,0,2.172-.575,6.124,6.124,0,0,0,.772-.34.293.293,0,0,1,.335.476l0,0s-.067.057-.2.156a5.44,5.44,0,0,1-.585.382,9.026,9.026,0,0,1-2.288.9,6.9,6.9,0,0,1-1.677.22,3.417,3.417,0,0,1-1-.135,2.127,2.127,0,0,1-.552-.254,1.554,1.554,0,0,1-.492-.516,1.407,1.407,0,0,1-.084-.169,1.622,1.622,0,0,1-.064-.188l-.015-.056-.008-.039,0-.017-.006-.034-.023-.139a2.8,2.8,0,0,1-.018-.594,2.6,2.6,0,0,1,.378-1.122,6.205,6.205,0,0,1,.613-.846c.213-.257.429-.5.645-.744.431-.484.853-.968,1.256-1.457s.781-.987,1.125-1.481a17.193,17.193,0,0,0,.935-1.456c.267-.479.5-.944.692-1.384a15.144,15.144,0,0,0,.753-2.192c.069-.271.12-.485.147-.631l.044-.227v0a.292.292,0,0,1,.573.11c0,.006,0,.013,0,.019" transform="translate(-336.68 -180.173)" fill="#8f4056"/>
              <path id="Trazado_128216" data-name="Trazado 128216" d="M241.683,1142.863c-.152.359-1.56.286-2.051,1.176-2.492,4.516-1.015,12.039-.344,13.12.488.787,6.081,2.594,7.237,2.364,1.048-.208,6.159-2.379,6.26-5.236.051-1.458-5.43-5.455-7.623-8.768,3.05,2.023,5.49,3.536,6.828,3.7a1.41,1.41,0,0,0,1.435-1.454c-.077-.843-2.25-3.177-5.166-5.426-2.205-1.7-4.074-3.819-5.465-4.151-.69-.165-1.648.82-1.742,2.013s.725,2.449.633,2.668" transform="translate(-200.548 -958.103)" fill="#b56a76"/>
              <path id="Trazado_128217" data-name="Trazado 128217" d="M250.706,1195.816s.159.136.429.381c.134.124.3.272.486.433s.391.35.628.549.482.421.754.646l.849.713.915.756c.308.261.636.51.951.773s.641.515.958.765.627.5.934.734l.878.68.791.6c.249.177.471.355.674.5s.377.272.523.369.258.173.336.221l.119.075.026.017a.291.291,0,0,1-.256.519l-.149-.055a4.3,4.3,0,0,1-.411-.168c-.173-.077-.379-.174-.605-.3s-.482-.26-.757-.419-.567-.334-.868-.533-.624-.4-.944-.629-.652-.462-.985-.705-.66-.505-.99-.764-.65-.53-.963-.8-.617-.539-.905-.807-.563-.532-.818-.788-.489-.506-.7-.737-.4-.458-.571-.654-.306-.372-.415-.517c-.22-.291-.341-.461-.341-.461a.294.294,0,0,1,.43-.393" transform="translate(-210.635 -1006.575)" fill="#8f4056"/>
              <path id="Trazado_128218" data-name="Trazado 128218" d="M240.833,1225.208s.148.1.4.3c.126.081.277.179.445.295s.385.24.6.383l.729.442.821.487.883.516.915.529c.305.18.615.351.918.524s.6.345.892.5l.836.462c.267.145.518.283.752.4s.447.23.637.329.355.168.492.235.239.1.313.132l.111.046.038.016a.29.29,0,0,1-.154.556l-.137-.021c-.087-.017-.228-.027-.387-.068s-.357-.082-.569-.153-.46-.14-.713-.242-.536-.2-.821-.327-.59-.254-.9-.4-.62-.3-.939-.465-.633-.341-.949-.519-.626-.364-.93-.552-.6-.377-.881-.568-.552-.382-.8-.567-.485-.372-.7-.544-.4-.344-.568-.5-.312-.306-.427-.425c-.2-.24-.316-.382-.316-.382a.294.294,0,0,1,.4-.423Z" transform="translate(-202.339 -1031.329)" fill="#8f4056"/>
              <path id="Trazado_128219" data-name="Trazado 128219" d="M289.208,1186.537a.7.7,0,0,1-.039.12,1.544,1.544,0,0,1-.192.328,1.906,1.906,0,0,1-.41.4,2.154,2.154,0,0,1-.677.328,2.5,2.5,0,0,1-.427.074l-.112.006-.057,0h-.075c-.069-.006-.117,0-.205-.016s-.177-.023-.253-.041l-.228-.054c-.148-.042-.3-.089-.441-.145a10.091,10.091,0,0,1-1.669-.853,21.392,21.392,0,0,1-2.736-2.037c-.351-.3-.631-.571-.825-.766-.1-.1-.171-.179-.224-.239a1.091,1.091,0,0,1-.1-.132.235.235,0,0,1,.4-.243s-.009-.016.044.033.126.1.23.183c.206.16.512.382.88.646.741.521,1.742,1.206,2.777,1.794a10.716,10.716,0,0,0,1.542.738c.124.045.244.082.361.115l.17.039c.055.012.094.014.14.024s.123.008.182.013h.131a2.432,2.432,0,0,0,.279-.032,2.291,2.291,0,0,0,.477-.138,2.7,2.7,0,0,0,.357-.18c.095-.057.173-.115.212-.141a.472.472,0,0,0,.078-.066.235.235,0,0,1,.406.239" transform="translate(-236.127 -995.977)" fill="#8f4056"/>
              <path id="Trazado_128220" data-name="Trazado 128220" d="M274.011,1251.184l-.064.105c-.038.065-.113.178-.2.3a8.369,8.369,0,0,1-.85.967,10.637,10.637,0,0,1-1.406,1.137,10.01,10.01,0,0,1-1.838,1,6.069,6.069,0,0,1-1.054.32,3.607,3.607,0,0,1-.566.071c-.054,0-.086.006-.157,0l-.122-.006c-.081,0-.186-.017-.277-.026a7.253,7.253,0,0,1-.952-.188c-.295-.072-.566-.158-.814-.241s-.473-.172-.672-.25-.368-.16-.507-.231-.249-.133-.324-.18l-.117-.078a.235.235,0,0,1,.2-.422l.029.009.1.03.32.08c.281.067.693.155,1.184.257l.792.154c.279.048.577.1.866.132.069,0,.124.013.206.015l.122,0c.01,0,.06,0,.089,0a2.564,2.564,0,0,0,.425-.048,5.194,5.194,0,0,0,.9-.262,10.776,10.776,0,0,0,1.723-.84,13.238,13.238,0,0,0,1.4-.957,7.75,7.75,0,0,0,.888-.794c.1-.1.17-.177.224-.242l.08-.094a.236.236,0,0,1,.382.276" transform="translate(-222.22 -1052.94)" fill="#8f4056"/>
              <path id="Trazado_128221" data-name="Trazado 128221" d="M242.411,1137.779l-.219-.151c-.142-.095-.353-.236-.624-.4a3.552,3.552,0,0,0-.99-.42c-.243-.057-.64.19-.9.591a2.253,2.253,0,0,0-.38,1.459,3.992,3.992,0,0,0,.188.851c.1.3.224.592.363.933a2.678,2.678,0,0,1,.1.306c.009.042.017.091.022.136a.484.484,0,0,1,0,.124.715.715,0,0,1-.014.079l-.01.038c-.021.045.032-.048-.052.11l-.037.055s-.034.043-.055.064a.936.936,0,0,1-.078.073,1.266,1.266,0,0,1-.385.2c-.1.034-.191.063-.279.089a3.312,3.312,0,0,0-.881.352.882.882,0,0,0-.264.253l-.023.036-.012.018,0,0c0-.009-.014.026.009-.019l-.008.016-.06.125-.121.25-.241.5-.175.488a8.464,8.464,0,0,0-.306,1.014c-.1.341-.15.7-.225,1.046a5.173,5.173,0,0,0-.083.525l-.068.523c-.045.347-.055.7-.086,1.035s-.024.678-.038,1.007.006.653.008.968c.019.629.053,1.225.106,1.772s.11,1.05.182,1.491c.029.222.072.426.108.616s.073.363.112.517a6.813,6.813,0,0,0,.195.7l.092.221.016.038a.186.186,0,0,1-.336.161l-.142-.26a6.055,6.055,0,0,1-.282-.732c-.053-.158-.108-.334-.156-.528s-.112-.4-.159-.626c-.106-.448-.209-.957-.3-1.517s-.156-1.17-.206-1.818c-.015-.325-.041-.658-.047-1s-.013-.692,0-1.048a18.369,18.369,0,0,1,.195-2.195,10.961,10.961,0,0,1,.22-1.12,9.345,9.345,0,0,1,.331-1.122l.2-.562.238-.5.119-.251.059-.125.007-.016c.026-.05.011-.02.018-.033l.007-.01.026-.041.053-.08a1.818,1.818,0,0,1,.528-.5,4.124,4.124,0,0,1,1.132-.455c.084-.024.163-.048.233-.072l.088-.033.022-.012.012,0a.143.143,0,0,0-.029.021.141.141,0,0,0-.026.032c0,.006-.019.039-.007.019l.038-.054c-.082.153-.029.054-.049.094l-.008.022a.235.235,0,0,0-.01.046c0,.032,0,.069,0,.059s0,.007,0,.006a1.935,1.935,0,0,0-.061-.193,6.484,6.484,0,0,1-.54-2.07,2.958,2.958,0,0,1,.153-1.054,2.908,2.908,0,0,1,.469-.874,2.319,2.319,0,0,1,.706-.618,1.4,1.4,0,0,1,.45-.162,1.138,1.138,0,0,1,.278-.015c.039,0,.06.01.091.014l.042.008.01,0c.063.012.021,0,.036.008l.006,0,.024.007a3.748,3.748,0,0,1,1.115.6c.273.2.467.373.6.491l.2.181a.189.189,0,0,1-.234.3Z" transform="translate(-198.379 -956.425)" fill="#8f4056"/>
              <path id="Trazado_128222" data-name="Trazado 128222" d="M606.815,1152.925c-3.388.518-15.14-11.828-17.31-11.828-4.066,0-12.543,5.72-12.045,6.631,1.419,2.594,7.673-2.226,8.612-1.4-2.728,1.672-7.795,7.952-7.161,9.994,1.161,3.741,12.244.464,12.244.464s9.464,9.929,13.486,8.929c2.337-.581,4.057-2.389,4.324-3.894a12.019,12.019,0,0,0-2.15-8.9" transform="translate(-486.086 -960.571)" fill="#b56a76"/>
              <path id="Trazado_128223" data-name="Trazado 128223" d="M605.227,1189.716l-.165-.008-.462-.012c-.4-.006-.97-.008-1.635.044a6.88,6.88,0,0,0-1.028.157,2.015,2.015,0,0,0-.458.167l-.51.315-.279.174-.26.182c-.173.126-.355.234-.532.372l-.537.4c-.176.141-.349.287-.527.425-.348.288-.7.58-1.022.886s-.653.6-.957.9-.6.594-.87.878l-.764.809-1.14,1.234c-.14.151-.254.265-.335.346l-.122.122a.292.292,0,0,1-.448-.37l.008-.011.354-.522c.229-.336.559-.82.985-1.384.213-.282.448-.585.707-.9s.536-.641.842-.964c.148-.165.307-.326.467-.491s.32-.332.494-.49c.338-.325.7-.638,1.062-.948.185-.152.375-.3.561-.445l.578-.417c.186-.141.4-.266.594-.392l.3-.187.289-.162.284-.157.14-.078.083-.045.1-.046a3.035,3.035,0,0,1,.711-.206,6.187,6.187,0,0,1,1.21-.078,11.03,11.03,0,0,1,1.732.177c.206.035.366.074.477.1l.166.04a.293.293,0,0,1-.082.577Z" transform="translate(-499.291 -1000.746)" fill="#8f4056"/>
              <path id="Trazado_128224" data-name="Trazado 128224" d="M620.017,1212.571l-.369.156-.4.18c-.156.071-.331.157-.522.247l-.611.307-.676.359-.717.4c-.245.135-.486.285-.734.425s-.49.29-.727.439-.474.29-.7.434l-.646.417-.569.383c-.347.241-.627.45-.8.6l-.154.143s-.013.013-.012.007a.044.044,0,0,0,0-.02.039.039,0,0,0-.006-.016.291.291,0,0,1-.583,0,.643.643,0,0,1,0-.068.791.791,0,0,1,.014-.084.68.68,0,0,1,.025-.075,1.566,1.566,0,0,1,.184-.34,5.964,5.964,0,0,1,.745-.844c.165-.155.342-.325.541-.488s.405-.34.631-.505.458-.338.7-.5.5-.321.751-.477.518-.3.777-.435.521-.264.778-.379.507-.221.75-.31.475-.17.693-.232a7.653,7.653,0,0,1,1.078-.243c.135-.024.231-.025.3-.033l.106-.009a.295.295,0,0,1,.141.566" transform="translate(-515.006 -1020.261)" fill="#8f4056"/>
              <path id="Trazado_128225" data-name="Trazado 128225" d="M622.093,1163.508s-.139,0-.379-.015c-.124-.011-.261,0-.415,0s-.33.012-.523.027a2.3,2.3,0,0,0-.3.035c-.1.015-.209.024-.317.045-.216.045-.442.091-.675.157-.117.027-.234.067-.354.107s-.241.072-.362.119c-.244.081-.49.185-.739.279l-1.472.6c-.236.1-.471.186-.691.273s-.433.16-.628.23c-.392.136-.723.239-.957.3s-.369.1-.369.1a.237.237,0,0,1-.176-.436l0,0s.12-.068.33-.181.513-.272.877-.457c.182-.093.377-.2.588-.3s.429-.221.662-.33c.461-.227.963-.459,1.48-.673.261-.106.526-.2.795-.288.132-.046.267-.086.4-.119s.267-.07.4-.094.264-.056.4-.073l.385-.04a5.026,5.026,0,0,1,.708,0l.313.023c.1.01.2.031.284.045a3.142,3.142,0,0,1,.444.1c.232.067.363.11.363.11a.238.238,0,0,1-.078.464" transform="translate(-516.542 -978.806)" fill="#8f4056"/>
              <path id="Trazado_128226" data-name="Trazado 128226" d="M585.585,1238.644a2.068,2.068,0,0,0,.224.283,2.2,2.2,0,0,0,.266.239,3,3,0,0,0,.63.366,5.527,5.527,0,0,0,1.454.391,13.645,13.645,0,0,0,3.1.017,32.815,32.815,0,0,0,6.15-1.235.419.419,0,0,1,.432.127l.007.009q.371.426.763.835t.8.8c.549.523,1.121,1.023,1.71,1.505a40.4,40.4,0,0,0,3.7,2.681c.64.414,1.295.8,1.955,1.18a20.647,20.647,0,0,0,2.012,1.022c.17.072.339.139.5.194.082.026.164.053.237.069l.028.007.014,0,.007,0-.012,0h0l.071.012c.046.007.1.018.138.022a3.832,3.832,0,0,0,.5.026,5.117,5.117,0,0,0,.53-.035,8.412,8.412,0,0,0,2.113-.553l.01,0a.421.421,0,0,1,.258-.017c.161.04.347.08.523.115s.359.068.541.1c.362.06.727.113,1.094.156.733.088,1.471.147,2.211.182.37.009.74.036,1.111.038s.742.011,1.113.005.742-.02,1.114-.03c.186,0,.371-.018.557-.027l.557-.03h.007a.235.235,0,0,1,.042.469l-.562.069c-.187.021-.374.051-.563.065-.376.03-.752.072-1.129.089s-.755.044-1.133.054-.757.015-1.135.014c-.757-.012-1.515-.049-2.272-.115q-.568-.048-1.135-.125c-.189-.025-.378-.054-.568-.084s-.374-.064-.577-.108l.268-.021a9.221,9.221,0,0,1-1.141.406,8.381,8.381,0,0,1-1.195.25,5.155,5.155,0,0,1-1.279.023c-.057-.006-.1-.014-.147-.022l-.071-.012-.035-.007-.021-.005-.042-.01c-.115-.025-.216-.058-.318-.089-.2-.066-.39-.14-.576-.217a21.576,21.576,0,0,1-2.114-1.058c-.342-.189-.676-.392-1.009-.594s-.662-.412-.988-.625a41.306,41.306,0,0,1-3.765-2.77c-.6-.5-1.185-1.018-1.749-1.562q-.423-.408-.827-.837c-.269-.286-.526-.585-.779-.887l.439.135a33.584,33.584,0,0,1-6.324,1.128q-.807.051-1.62.028a11.393,11.393,0,0,1-1.626-.16,6.091,6.091,0,0,1-1.59-.49,3.5,3.5,0,0,1-.719-.465,2.689,2.689,0,0,1-.31-.307,2.612,2.612,0,0,1-.253-.351l-.005-.01a.235.235,0,0,1,.4-.249" transform="translate(-492.58 -1042.598)" fill="#8f4056"/>
              <path id="Trazado_128227" data-name="Trazado 128227" d="M584.065,1173.167l-.1.025-.092.034c-.043.018-.09.035-.145.06-.221.092-.539.249-.924.443l-1.322.669c-.49.238-1.015.5-1.559.722a11.233,11.233,0,0,1-1.663.586,4.208,4.208,0,0,1-.871.138,2.234,2.234,0,0,1-.835-.135,2.317,2.317,0,0,1-.613-.332,2.214,2.214,0,0,1-.379-.369,1.5,1.5,0,0,1-.191-.294c-.019-.037-.032-.07-.041-.092l-.013-.033a.234.234,0,0,1,.345-.282l.058.039.066.044c.044.031.119.076.214.132a3.317,3.317,0,0,0,.354.174,2.778,2.778,0,0,0,.464.154,2.352,2.352,0,0,0,.547.055,3.307,3.307,0,0,0,.672-.1,14.147,14.147,0,0,0,1.554-.506c1.062-.407,2.124-.867,2.945-1.175a10.307,10.307,0,0,1,1.022-.341c.064-.018.126-.03.177-.042l.15-.027.1-.009a.236.236,0,0,1,.078.464Z" transform="translate(-484.285 -987.175)" fill="#8f4056"/>
              <path id="Trazado_128228" data-name="Trazado 128228" d="M510.516,727.8c4-.75,19.789.079,25.666,2.625,0,2.751-.452,7.727-.452,7.727s-14.853-2.808-25.214-2.481Z" transform="translate(-429.75 -612.438)" fill="#007491"/>
              <path id="Trazado_128229" data-name="Trazado 128229" d="M381.091,906.164l22.028-4.84a.679.679,0,0,1,.825.663l.576,14.177a.679.679,0,0,1-.576.671l-20.76,2.311a.679.679,0,0,1-.774-.565l-1.844-11.648a.679.679,0,0,1,.525-.769" transform="translate(-320.352 -758.717)" fill="#007491"/>
              <path id="Trazado_128230" data-name="Trazado 128230" d="M372.537,900.957l23.477-5.159v14.809l-21.428,3.3Z" transform="translate(-313.6 -754.08)" fill="#abd8f7"/>
              <path id="Trazado_128231" data-name="Trazado 128231" d="M373.265,913.03a.235.235,0,0,1-.232-.2l-1.981-12.514a.235.235,0,0,1,.182-.267L394.217,895a.235.235,0,1,1,.1.46l-22.767,5,1.946,12.295a.235.235,0,0,1-.2.269l-.037,0" transform="translate(-312.347 -753.403)" fill="#fff"/>
              <path id="Trazado_128232" data-name="Trazado 128232" d="M440.748,423.048l.422.361c.071.062.14.116.212.185l.214.225c.138.153.293.3.416.461l.368.485a7.753,7.753,0,0,1,1.042,2.222,9.029,9.029,0,0,1,.288,2.427,12,12,0,0,1-.309,2.369,19.834,19.834,0,0,1-1.626,4.336,37.454,37.454,0,0,1-2.3,3.907c-.845,1.243-1.724,2.453-2.653,3.621s-1.872,2.317-2.834,3.448-1.945,2.241-2.922,3.355l-2.936,3.329c-.98,1.107-1.938,2.232-2.906,3.348s-1.907,2.255-2.851,3.389-1.881,2.273-2.79,3.433-1.81,2.324-2.682,3.508-1.7,2.394-2.5,3.621-1.547,2.483-2.235,3.762a31.046,31.046,0,0,0-1.784,3.937,17.667,17.667,0,0,0-.992,4.079,1.048,1.048,0,0,1-2.015.277l-.025-.063h0c-.149-.57-.3-1.138-.455-1.7l-.408-1.7-.362-1.7-.319-1.707q-.3-1.708-.528-3.42c-.087-.57-.145-1.142-.21-1.714l-.1-.856-.084-.858c-.056-.572-.117-1.143-.153-1.717-.02-.286-.044-.573-.084-.857s-.09-.569-.145-.853c-.111-.568-.267-1.136-.377-1.707a10.692,10.692,0,0,1-.169-1.724,12.8,12.8,0,0,1,.113-1.732c.067-.577.179-1.152.239-1.726s.092-1.147.093-1.721-.022-1.149-.062-1.725a29.849,29.849,0,0,1-.148-3.466c.03-.576.081-1.15.14-1.724s.147-1.144.228-1.715c.183-1.14.411-2.272.657-3.4l.761-3.371c.252-1.122.525-2.24.829-3.349.151-.555.324-1.1.484-1.656l.269-.82c.091-.273.169-.55.27-.82.2-.541.377-1.088.6-1.619.109-.267.212-.536.327-.8l.36-.787a17.158,17.158,0,0,1,1.745-3,.235.235,0,1,1,.377.282v0l0,0a15.278,15.278,0,0,0-1.657,2.928l-.328.782c-.1.263-.2.531-.3.8-.2.527-.363,1.073-.541,1.61s-.315,1.09-.463,1.636c-.131.553-.273,1.1-.393,1.656-.242,1.109-.462,2.222-.643,3.343s-.307,2.251-.392,3.384c-.039.567-.086,1.132-.119,1.7s-.069,1.132-.1,1.7-.069,1.13-.115,1.694-.076,1.129-.139,1.691c-.107,1.126-.366,2.245-.53,3.375a13.363,13.363,0,0,0-.166,1.7,10.655,10.655,0,0,0,.046,1.7c.122,1.138.4,2.265.435,3.394a21.6,21.6,0,0,1-.2,3.412,9.246,9.246,0,0,0,.045,1.7c.049.566.122,1.129.191,1.692l.1.845.126.841c.09.56.174,1.121.286,1.676.195,1.116.451,2.22.724,3.316.145.546.291,1.091.452,1.632s.335,1.076.517,1.608.387,1.054.591,1.576c.219.515.448,1.025.676,1.534h0l-2.04.214a21.445,21.445,0,0,1,1.444-4.425,35.877,35.877,0,0,1,2.109-4.022c.77-1.292,1.61-2.531,2.466-3.753s1.754-2.409,2.667-3.581,1.841-2.329,2.785-3.472,1.9-2.278,2.854-3.405l2.891-3.367c.955-1.128,1.925-2.243,2.869-3.38s1.888-2.271,2.808-3.425,1.828-2.315,2.72-3.486,1.765-2.353,2.608-3.551,1.671-2.4,2.44-3.636a41.072,41.072,0,0,0,2.143-3.758c.156-.321.322-.639.46-.965l.217-.486.2-.491a17.291,17.291,0,0,0,.665-1.984c.078-.334.164-.669.212-1,.072-.335.092-.669.13-1a8.535,8.535,0,0,0-.117-1.974,6.946,6.946,0,0,0-.689-1.838l-.261-.428c-.086-.144-.191-.261-.285-.4l-.144-.2c-.053-.068-.121-.137-.181-.206l-.371-.413a.59.59,0,0,1,.823-.842" transform="translate(-340.037 -356.001)" fill="#00586e"/>
              <path id="Trazado_128233" data-name="Trazado 128233" d="M427.8,812.662h-.046a1.06,1.06,0,0,1-1.013-1.1c.011-.244.016-.514.016-.8,0-.436-.012-.926-.036-1.458a1.06,1.06,0,1,1,2.117-.1c.026.564.039,1.086.039,1.554,0,.32-.006.622-.018.9a1.06,1.06,0,0,1-1.058,1.014m-.182-4.708a1.06,1.06,0,0,1-1.055-.969c-.062-.721-.139-1.5-.23-2.321a1.06,1.06,0,1,1,2.106-.233c.093.836.171,1.635.235,2.372a1.06,1.06,0,0,1-.965,1.146q-.046,0-.092,0m-.513-4.688a1.06,1.06,0,0,1-1.05-.925c-.1-.748-.2-1.529-.315-2.323a1.06,1.06,0,0,1,2.1-.3c.114.8.221,1.594.319,2.351a1.061,1.061,0,0,1-1.052,1.195m-.663-4.67a1.06,1.06,0,0,1-1.046-.9c-.216-1.4-.372-2.307-.374-2.316a1.06,1.06,0,1,1,2.088-.359c0,.009.161.937.38,2.351a1.06,1.06,0,0,1-1.049,1.222" transform="translate(-357.769 -668.506)" fill="#00586e"/>
              <path id="Trazado_128234" data-name="Trazado 128234" d="M410.794,886.45s4.486,6.9,5.573,7.641,1.291-1.012,1.291-1.012-2.59-7.308-4.195-7.622a2.945,2.945,0,0,0-2.669.992" transform="translate(-345.805 -745.334)" fill="#007491"/>
            </g>
          </g>
        </g>
      </g>
      <g id="Grupo_133834" data-name="Grupo 133834" transform="translate(1174.731 4328.371) rotate(180)">
        <path id="Trazado_113538" data-name="Trazado 113538" d="M35.19,5.32c-1.6,0-2.4-1.281-3.033-2.31s-1.081-1.68-1.9-1.68-1.257.638-1.9,1.68-1.428,2.31-3.032,2.31-2.4-1.281-3.033-2.31-1.08-1.68-1.9-1.68-1.256.638-1.9,1.68-1.428,2.31-3.032,2.31-2.4-1.281-3.031-2.31-1.079-1.68-1.9-1.68-1.256.638-1.9,1.68S7.2,5.32,5.6,5.32,3.2,4.039,2.565,3.01,1.486,1.33.666,1.33A.665.665,0,1,1,.666,0C2.269,0,3.061,1.281,3.7,2.311S4.776,3.99,5.6,3.99s1.256-.638,1.9-1.679S8.924,0,10.527,0s2.395,1.281,3.03,2.31,1.079,1.68,1.9,1.68,1.256-.638,1.9-1.68S18.786,0,20.389,0s2.4,1.281,3.033,2.31,1.079,1.68,1.9,1.68,1.256-.638,1.9-1.68S28.651,0,30.255,0s2.4,1.281,3.033,2.31,1.081,1.68,1.9,1.68,1.258-.638,1.9-1.68S38.521,0,40.126,0a.665.665,0,1,1,0,1.33c-.822,0-1.258.638-1.9,1.68S36.795,5.32,35.19,5.32Z" fill="#133d60"/>
        <path id="Trazado_126924" data-name="Trazado 126924" d="M35.19,5.32c-1.6,0-2.4-1.281-3.033-2.31s-1.081-1.68-1.9-1.68-1.257.638-1.9,1.68-1.428,2.31-3.032,2.31-2.4-1.281-3.033-2.31-1.08-1.68-1.9-1.68-1.256.638-1.9,1.68-1.428,2.31-3.032,2.31-2.4-1.281-3.031-2.31-1.079-1.68-1.9-1.68-1.256.638-1.9,1.68S7.2,5.32,5.6,5.32,3.2,4.039,2.565,3.01,1.486,1.33.666,1.33A.665.665,0,1,1,.666,0C2.269,0,3.061,1.281,3.7,2.311S4.776,3.99,5.6,3.99s1.256-.638,1.9-1.679S8.924,0,10.527,0s2.395,1.281,3.03,2.31,1.079,1.68,1.9,1.68,1.256-.638,1.9-1.68S18.786,0,20.389,0s2.4,1.281,3.033,2.31,1.079,1.68,1.9,1.68,1.256-.638,1.9-1.68S28.651,0,30.255,0s2.4,1.281,3.033,2.31,1.081,1.68,1.9,1.68,1.258-.638,1.9-1.68S38.521,0,40.126,0a.665.665,0,1,1,0,1.33c-.822,0-1.258.638-1.9,1.68S36.795,5.32,35.19,5.32Z" transform="translate(0 12.281)" fill="#133d60"/>
        <path id="Trazado_113539" data-name="Trazado 113539" d="M35.19,5.32c-1.6,0-2.4-1.281-3.033-2.31s-1.081-1.68-1.9-1.68-1.257.638-1.9,1.68-1.428,2.31-3.032,2.31-2.4-1.281-3.033-2.31-1.08-1.68-1.9-1.68-1.256.638-1.9,1.68-1.428,2.31-3.032,2.31-2.4-1.281-3.031-2.31-1.079-1.68-1.9-1.68-1.256.638-1.9,1.68S7.2,5.32,5.6,5.32,3.2,4.039,2.565,3.01,1.486,1.33.666,1.33A.665.665,0,1,1,.666,0C2.269,0,3.061,1.281,3.7,2.311S4.776,3.99,5.6,3.99s1.256-.638,1.9-1.679S8.924,0,10.527,0s2.395,1.281,3.03,2.31,1.079,1.68,1.9,1.68,1.256-.638,1.9-1.68S18.786,0,20.389,0s2.4,1.281,3.033,2.31,1.079,1.68,1.9,1.68,1.256-.638,1.9-1.68S28.651,0,30.255,0s2.4,1.281,3.033,2.31,1.081,1.68,1.9,1.68,1.258-.638,1.9-1.68S38.521,0,40.126,0a.665.665,0,1,1,0,1.33c-.822,0-1.258.638-1.9,1.68S36.795,5.32,35.19,5.32Z" transform="translate(0 6.141)" fill="#133d60"/>
        <path id="Trazado_126923" data-name="Trazado 126923" d="M35.19,5.32c-1.6,0-2.4-1.281-3.033-2.31s-1.081-1.68-1.9-1.68-1.257.638-1.9,1.68-1.428,2.31-3.032,2.31-2.4-1.281-3.033-2.31-1.08-1.68-1.9-1.68-1.256.638-1.9,1.68-1.428,2.31-3.032,2.31-2.4-1.281-3.031-2.31-1.079-1.68-1.9-1.68-1.256.638-1.9,1.68S7.2,5.32,5.6,5.32,3.2,4.039,2.565,3.01,1.486,1.33.666,1.33A.665.665,0,1,1,.666,0C2.269,0,3.061,1.281,3.7,2.311S4.776,3.99,5.6,3.99s1.256-.638,1.9-1.679S8.924,0,10.527,0s2.395,1.281,3.03,2.31,1.079,1.68,1.9,1.68,1.256-.638,1.9-1.68S18.786,0,20.389,0s2.4,1.281,3.033,2.31,1.079,1.68,1.9,1.68,1.256-.638,1.9-1.68S28.651,0,30.255,0s2.4,1.281,3.033,2.31,1.081,1.68,1.9,1.68,1.258-.638,1.9-1.68S38.521,0,40.126,0a.665.665,0,1,1,0,1.33c-.822,0-1.258.638-1.9,1.68S36.795,5.32,35.19,5.32Z" transform="translate(0 18.422)" fill="#133d60"/>
      </g>
    </g>
    <g id="Grupo_135994" data-name="Grupo 135994" transform="translate(1265.334 4284.281)">
      <path id="Trazado_113320" data-name="Trazado 113320" d="M2605.744,1508.248a10.272,10.272,0,1,1,10.272-10.272A10.284,10.284,0,0,1,2605.744,1508.248Zm0-15.694a5.422,5.422,0,1,0,5.421,5.422A5.428,5.428,0,0,0,2605.744,1492.554Z" transform="translate(-2595.472 -1487.703)" fill="#133d60"/>
    </g>
  </g>
</svg>
