<svg xmlns="http://www.w3.org/2000/svg" xmlns:xlink="http://www.w3.org/1999/xlink" width="67" height="67" viewBox="0 0 67 67">
  <defs>
    <clipPath id="clip-path">
      <rect id="Rectángulo_36194" data-name="Rectángulo 36194" width="35.297" height="52.248" fill="#133d60"/>
    </clipPath>
  </defs>
  <g id="Grupo_136071" data-name="Grupo 136071" transform="translate(-981.256 -4806)">
    <g id="Grupo_136012" data-name="Grupo 136012">
      <circle id="Elipse_4980" data-name="Elipse 4980" cx="33.5" cy="33.5" r="33.5" transform="translate(981.256 4806)" fill="#deeefc"/>
      <g id="Grupo_136011" data-name="Grupo 136011" transform="translate(997.256 4813)">
        <g id="Grupo_136010" data-name="Grupo 136010" clip-path="url(#clip-path)">
          <path id="Trazado_128261" data-name="Trazado 128261" d="M18.465,0A15.441,15.441,0,0,1,19.98.414,3.712,3.712,0,0,1,22.639,3.3a.617.617,0,0,0,.3.348,7.72,7.72,0,0,1,4.222,7.656c-.051.9-.1,1.8-.156,2.741.235.023.45.033.66.065a2.773,2.773,0,0,1,2.3,3.382,4.455,4.455,0,0,1-3.032,3.65.737.737,0,0,0-.525.637,15.34,15.34,0,0,1-.61,1.938.758.758,0,1,1-1.4-.577,11.7,11.7,0,0,0,.759-4.391,1.674,1.674,0,0,0-.1-.546q-1.045-3.674-2.1-7.346c-.208-.726-.4-.871-1.156-.872q-4.158,0-8.317,0c-.754,0-.932.142-1.145.884-.678,2.367-1.382,4.726-2.013,7.105a7.054,7.054,0,0,0-.112,1.907,7.469,7.469,0,0,0,2.747,5.9,7.392,7.392,0,0,0,9.082.236c.109-.081.213-.17.326-.246a.768.768,0,1,1,.975,1.187,1.162,1.162,0,0,0-.283.64c-.039.593-.017,1.19-.012,1.785a1.613,1.613,0,0,0,1.333,1.735c1.289.371,2.6.683,3.864,1.119a8.614,8.614,0,0,1,6.14,7.579c.345,2.766.6,5.543.895,8.314.1.921-.167,1.239-1.1,1.29-.1.005-.2.028-.351.052,0,.552,0,1.093,0,1.633-.008.85-.292,1.135-1.133,1.135q-15.052,0-30.1,0c-.809,0-1.1-.291-1.108-1.108-.006-.542,0-1.084,0-1.683-.232-.014-.428-.022-.624-.039A.83.83,0,0,1,0,48.478Q.176,46.5.422,44.523a.7.7,0,0,1,.8-.625.747.747,0,0,1,.7.849c-.061.779-.16,1.555-.24,2.333-.026.249-.041.5-.065.782H7.027V46.2c0-.544-.005-1.089,0-1.633s.3-.893.76-.891.764.341.766.895c.007,1.939,0,3.878,0,5.816,0,.084.009.168.016.29H26.739v-.526c0-1.854,0-3.708,0-5.562,0-.6.356-.963.848-.91a.776.776,0,0,1,.677.869c.007,1.086,0,2.172,0,3.3h5.422c-.076-.749-.145-1.486-.226-2.222-.23-2.112-.351-4.243-.726-6.329a6.954,6.954,0,0,0-5.027-5.625c-1.1-.36-2.215-.652-3.331-.943a.711.711,0,0,0-.57.137q-3.319,3.1-6.6,6.234a.946.946,0,0,0-.239.618c-.018,1.99-.01,3.98-.011,5.97a3.121,3.121,0,0,1-.019.509.637.637,0,0,1-.691.608,1.4,1.4,0,0,1-.738-.491c-.11-.124-.078-.389-.078-.59,0-2.041.022-4.082-.017-6.122a1.7,1.7,0,0,1,.7-1.586c.153-.107.3-.229.463-.359-1.764-1.667-3.454-3.27-5.157-4.859a.552.552,0,0,0-.449-.082c-1.21.335-2.438.626-3.616,1.053A7.147,7.147,0,0,0,2.44,39.9c-.059.421-.076.848-.145,1.266a.74.74,0,0,1-.843.7C1.015,41.822.777,41.512.789,41a9.075,9.075,0,0,1,6.992-8.976c1.064-.3,2.124-.6,3.183-.912a1.611,1.611,0,0,0,1.29-1.72c0-.017,0-.034,0-.051a5.911,5.911,0,0,0-.048-1.922c-.194-.533-.785-.918-1.193-1.376a8.7,8.7,0,0,1-2.14-4.328.624.624,0,0,0-.479-.557,4.528,4.528,0,0,1-3.1-4.24,2.709,2.709,0,0,1,2.664-2.831l.329-.019c-.025-.5-.044-1.005-.075-1.506a11.775,11.775,0,0,1,.137-3.9,7.735,7.735,0,0,1,3.9-4.931.765.765,0,0,0,.472-.64,2.264,2.264,0,0,1,.191-.63c.237-.548.574-.746,1.016-.624.421.116.589.473.507,1.046h6.512a7.057,7.057,0,0,0-.85-.717,4.312,4.312,0,0,0-2.942-.592c-.74.118-1.147-.238-1.216-.611-.08-.439.183-.723.893-.961Zm3.057,28.139a9.164,9.164,0,0,1-7.759-.012c.074,1.42.124,2.762-1.051,3.769l4.937,4.668,4.94-4.671c-1.192-1-1.113-2.348-1.067-3.754M25.38,13.732l.1-.011q.086-1.4.172-2.795A6.109,6.109,0,0,0,20.675,4.52a29.749,29.749,0,0,0-5.086-.14A6.166,6.166,0,0,0,9.881,8.847c-.48,1.626-.09,3.249.033,4.889L11.167,9.47,10.9,9.185c-.418-.439-.462-.872-.122-1.209s.768-.282,1.21.125c.145.133.311.323.481.337.519.044,1.044.016,1.607.016,0-.692-.008-1.334,0-1.975a.774.774,0,0,1,.759-.845.791.791,0,0,1,.764.85c.014.459.015.919,0,1.377-.013.406.159.6.568.6q1.48,0,2.959,0c.406,0,.588-.188.573-.6s-.005-.816,0-1.224c0-.635.283-1,.762-1.008s.765.357.768.993c0,.6,0,1.207,0,1.827.87-.033,1.715.238,2.362-.563a.621.621,0,0,1,.919.078.7.7,0,0,1,.1.971,5.417,5.417,0,0,1-.471.541l1.247,4.252M6.991,49.46H3.047V50.7H6.991Zm25.27.008H28.3V50.68h3.965ZM26.64,19.578a2.908,2.908,0,0,0,1.835-2.627,1.192,1.192,0,0,0-1.585-1.262c-.082,1.274-.164,2.557-.25,3.889m-17.981.005c-.088-1.344-.172-2.64-.256-3.925-.9-.088-1.479.288-1.572.982a2.937,2.937,0,0,0,1.828,2.944" transform="translate(0)" fill="#133d60"/>
          <path id="Trazado_128262" data-name="Trazado 128262" d="M54.5,83.779a6.741,6.741,0,0,1-3.009-.649c-.513-.236-.7-.634-.524-1.053.188-.442.626-.577,1.16-.34a5.573,5.573,0,0,0,4.732-.006.773.773,0,1,1,.646,1.385,6.715,6.715,0,0,1-3.006.663" transform="translate(-36.833 -59.062)" fill="#133d60"/>
          <path id="Trazado_128263" data-name="Trazado 128263" d="M72.764,169.794a6.766,6.766,0,0,1,0,.7.7.7,0,0,1-.7.681.679.679,0,0,1-.795-.622,8.342,8.342,0,0,1-.007-1.628.7.7,0,0,1,.775-.657c1.377,0,2.753-.009,4.13,0a.736.736,0,0,1,.82.719.749.749,0,0,1-.806.8c-.917.024-1.835.009-2.753.011h-.665" transform="translate(-51.543 -121.764)" fill="#133d60"/>
          <path id="Trazado_128264" data-name="Trazado 128264" d="M61.445,62.85a8.138,8.138,0,0,1-.007,1.016,2,2,0,0,1-2.118,1.776.769.769,0,0,1-.828-.719.777.777,0,0,1,.747-.807c.63-.08.7-.155.7-.8,0-.441-.011-.883.009-1.323a.715.715,0,0,1,.721-.76.741.741,0,0,1,.788.7.656.656,0,0,1,.009.1c0,.272,0,.543,0,.815h-.025" transform="translate(-42.328 -44.312)" fill="#133d60"/>
          <path id="Trazado_128265" data-name="Trazado 128265" d="M65.4,144.222a.761.761,0,0,1-1.522-.026.761.761,0,0,1,1.522.026" transform="translate(-46.227 -103.808)" fill="#133d60"/>
          <path id="Trazado_128266" data-name="Trazado 128266" d="M64.642,156.132a.755.755,0,0,1,.759.728.761.761,0,1,1-1.522,0,.756.756,0,0,1,.762-.725" transform="translate(-46.227 -112.986)" fill="#133d60"/>
        </g>
      </g>
    </g>
  </g>
</svg>
