<svg xmlns="http://www.w3.org/2000/svg" xmlns:xlink="http://www.w3.org/1999/xlink" width="67" height="67" viewBox="0 0 67 67">
  <defs>
    <clipPath id="clip-path">
      <rect id="Rectángulo_36190" data-name="Rectángulo 36190" width="39.018" height="39.022" fill="#133d60"/>
    </clipPath>
  </defs>
  <g id="Grupo_136066" data-name="Grupo 136066" transform="translate(-451.256 -4806)">
    <g id="Grupo_136020" data-name="Grupo 136020">
      <circle id="Elipse_4975" data-name="Elipse 4975" cx="33.5" cy="33.5" r="33.5" transform="translate(451.256 4806)" fill="#deeefc"/>
      <g id="Grupo_136003" data-name="Grupo 136003" transform="translate(465.107 4819.852)">
        <g id="Grupo_136002" data-name="Grupo 136002" clip-path="url(#clip-path)">
          <path id="Trazado_128243" data-name="Trazado 128243" d="M0,32.39c.09-.314.159-.638.275-.942a4.848,4.848,0,0,1,2.691-2.718c1.48-.655,3.018-1.181,4.54-1.737,1.131-.412,2.276-.789,3.419-1.167a.4.4,0,0,0,.325-.461,4.416,4.416,0,0,0-.045-1.393c-.163-.384-.635-.637-.971-.949a7.42,7.42,0,0,1-2.376-4.643c-.008-.063-.015-.126-.025-.189,0-.01-.015-.019-.041-.048-.307-.021-.635-.025-.958-.07a2.8,2.8,0,0,1-2.427-2.588c-.031-.481-.023-.965-.008-1.447a1.583,1.583,0,0,1,.881-1.416.425.425,0,0,0,.252-.446c-.006-1.626.011-3.251-.008-4.877A2.944,2.944,0,0,1,7.072,4.493.468.468,0,0,0,7.264,4.2,4.424,4.424,0,0,1,9.815,1.132l.509.992c-.278.188-.536.346-.777.528a2.609,2.609,0,0,0-1.174,2.3c.011.23-.063.327-.293.392A1.717,1.717,0,0,0,6.674,7.2c0,1.6.006,3.2-.008,4.8,0,.315.085.437.405.4.225-.024.454,0,.745,0v-.658c0-.711-.01-1.423,0-2.134A1.686,1.686,0,0,1,9.51,7.834a1.722,1.722,0,0,0,1.723-1.523c.012-.061.035-.12.056-.186h1.081c.032.186.05.361.093.53a2.255,2.255,0,0,0,2.224,1.735c2.019.01,4.039,0,6.058,0a1.749,1.749,0,0,1,1.933,1.936c0,.584.01,1.168,0,1.752-.006.247.074.344.326.326s.505,0,.8,0c.008-.159.021-.294.021-.429q0-2.343,0-4.686A1.747,1.747,0,0,0,22.378,5.34c-.193-.057-.27-.138-.261-.34a2.78,2.78,0,0,0-1.281-2.416A7.213,7.213,0,0,0,17.416,1.3a13.422,13.422,0,0,0-5.879.368,1.489,1.489,0,0,1-.2.026L10.963.57,13.73.076c.148-.026.3-.051.445-.076H16.31c.76.128,1.526.227,2.278.39A7.751,7.751,0,0,1,21.475,1.62,4.043,4.043,0,0,1,23.226,4.2a.517.517,0,0,0,.22.309,2.9,2.9,0,0,1,1.517,2.674c0,1.651,0,3.3-.005,4.954a.493.493,0,0,0,.286.509,1.509,1.509,0,0,1,.835,1.323,9.26,9.26,0,0,1-.057,1.9,2.8,2.8,0,0,1-2.749,2.254c-.19.007-.38,0-.591,0-.064.35-.114.684-.188,1.014A7.3,7.3,0,0,1,19.537,23.6a.586.586,0,0,0-.295.558c.02.431-.01.865.016,1.295a.433.433,0,0,0,.223.316c.619.224,1.249.418,1.9.63a9.124,9.124,0,0,1,7.807-5.631,8.693,8.693,0,0,1,6.536,2.1A9.062,9.062,0,0,1,37.478,34.9l-.9-.6A8.017,8.017,0,1,0,34.3,36.567l.616.931a7.933,7.933,0,0,1-3,1.281,12.406,12.406,0,0,1-2.265.232q-14.823.022-29.647.01V32.39m1.155,5.464H13.411L11.37,26.863C9.012,27.685,6.7,28.456,4.426,29.3a9.027,9.027,0,0,0-1.977,1.115,2.8,2.8,0,0,0-1.281,2.236c-.046,1.723-.013,3.448-.013,5.2m10.6-29.938A2.988,2.988,0,0,1,9.631,8.972c-.517.037-.666.2-.67.723-.006.939-.01,1.879.006,2.819a.863.863,0,0,0,.177.475c.511.664,1.047,1.308,1.559,1.971a.388.388,0,0,0,.48.16c1.264-.329,2.532-.642,3.8-.947a1.147,1.147,0,0,1,.515,0c1.27.3,2.538.613,3.8.943a.41.41,0,0,0,.506-.176c.5-.653,1.034-1.287,1.534-1.942a.941.941,0,0,0,.184-.51c.021-.711.011-1.422.008-2.133,0-.639-.178-.814-.816-.814-1.9,0-3.809-.025-5.714.008a3.6,3.6,0,0,1-3.251-1.628m-.508,11.415c0,.914-.012,1.828.011,2.741a.734.734,0,0,0,.243.5,6.216,6.216,0,0,0,7.5,0,.679.679,0,0,0,.238-.461c.016-1.84.007-3.68.014-5.521a.327.327,0,0,0-.3-.386c-1.158-.277-2.31-.58-3.467-.862a1.072,1.072,0,0,0-.485,0c-1.133.273-2.26.57-3.395.835-.3.07-.373.2-.367.492.019.888.007,1.776.007,2.665m9.764,8.144-1.891-.612L17.08,37.852h8.246a9.3,9.3,0,0,1-4.317-10.375M14.574,37.86h1.341l1.823-9.829-2.509,2.292-2.473-2.27,1.818,9.807m.648-9.045a.723.723,0,0,0,.118-.075q1.313-1.352,2.622-2.707a.4.4,0,0,0,.13-.221c.012-.449.006-.9.006-1.4a7.635,7.635,0,0,1-5.707.006c0,.494,0,.923,0,1.351a.329.329,0,0,0,.082.2q1.368,1.424,2.744,2.841M7.793,13.549c-.565,0-1.107-.009-1.65,0a.552.552,0,0,0-.609.619c-.012.392-.019.787.007,1.178a1.743,1.743,0,0,0,2.252,1.563Zm14.9,3.391a1.79,1.79,0,0,0,2.266-1.9c0-.3.007-.608-.007-.912s-.158-.539-.468-.554c-.59-.028-1.181-.008-1.791-.008ZM10.06,21.05a.848.848,0,0,0,.04-.15q0-2.339,0-4.677a.392.392,0,0,0-.038-.22c-.332-.435-.674-.862-1.014-1.292C9.014,16.89,8.62,19.1,10.06,21.05m11.388-6.342c-.267.334-.559.652-.793,1.007a1.428,1.428,0,0,0-.254.712c-.023,1.394-.012,2.787-.01,4.181,0,.128.014.255.026.455,1.454-1.992,1.059-4.193,1.031-6.355" fill="#133d60"/>
          <path id="Trazado_128244" data-name="Trazado 128244" d="M96.741,83.33h2.222v1.146H97.876c-.008.188-.021.335-.021.483,0,1.473-.01,2.946,0,4.419a1.845,1.845,0,0,1-.973,1.8.492.492,0,0,0-.166.369c-.016.671-.008,1.343-.008,2.045H95.567c0-.668-.009-1.327,0-1.984a.487.487,0,0,0-.282-.51,1.723,1.723,0,0,1-.867-1.661c.007-1.486,0-2.972,0-4.457V84.49H93.307V83.332h2.237V81.638H94.45V80.519h3.383v1.1H96.741ZM95.6,84.5a2.284,2.284,0,0,0-.032.253q0,2.375,0,4.75a1.115,1.115,0,0,0,.02.226.521.521,0,0,0,.561.459.51.51,0,0,0,.534-.444,1.889,1.889,0,0,0,.025-.378q0-2.223,0-4.446c0-.135-.014-.269-.021-.421Z" transform="translate(-66.263 -57.181)" fill="#133d60"/>
          <path id="Trazado_128245" data-name="Trazado 128245" d="M122.071,121.3l.77.787-.831.741-.726-.728.787-.8" transform="translate(-86.131 -86.142)" fill="#133d60"/>
          <rect id="Rectángulo_36188" data-name="Rectángulo 36188" width="1.105" height="1.078" transform="translate(17.159 2.771)" fill="#133d60"/>
          <rect id="Rectángulo_36189" data-name="Rectángulo 36189" width="1.082" height="1.109" transform="translate(19.45 3.906)" fill="#133d60"/>
        </g>
      </g>
    </g>
  </g>
</svg>
