<svg xmlns="http://www.w3.org/2000/svg" xmlns:xlink="http://www.w3.org/1999/xlink" width="67" height="67" viewBox="0 0 67 67">
  <defs>
    <clipPath id="clip-path">
      <rect id="Rectángulo_36193" data-name="Rectángulo 36193" width="36.602" height="46.847" fill="#133d60"/>
    </clipPath>
  </defs>
  <g id="Grupo_136013" data-name="Grupo 136013" transform="translate(-1081.256 -4806)">
    <circle id="Elipse_4981" data-name="Elipse 4981" cx="33.5" cy="33.5" r="33.5" transform="translate(1081.256 4806)" fill="#deeefc"/>
    <g id="Grupo_136009" data-name="Grupo 136009" transform="translate(1096.256 4816)">
      <g id="Grupo_136008" data-name="Grupo 136008" clip-path="url(#clip-path)">
        <path id="Trazado_128259" data-name="Trazado 128259" d="M3.019,46.846c-.722-.427-.746-1.176-.8-1.873-.012-.167.32-.486.52-.508a1.042,1.042,0,0,1,.708.338c.145.143.161.417.239.65H14.869c-.248-.878-.486-1.725-.728-2.572-.425-1.492-.858-2.983-1.273-4.477-.08-.288-.189-.429-.524-.415-.744.03-1.49.009-2.218.009-.031.06-.062.092-.056.111.281.823-.16,1.193-.962,1.17-1.446-.042-2.9-.011-4.343-.012-.713,0-.922-.137-1.089-.837a.479.479,0,0,0-.593-.439C2.6,38.021,2.11,38,1.557,38c.137.5.259.962.39,1.422.2.7.408,1.4.606,2.1.15.531.008.9-.384,1.023-.431.14-.77-.079-.927-.623q-.6-2.082-1.19-4.169A.8.8,0,0,1,.9,36.632c.728-.017,1.458,0,2.217,0-.023-.167-.047-.284-.054-.4-.029-.507.312-.839.906-.846,1.036-.012,2.073,0,3.11,0H7.5A23.042,23.042,0,0,1,8.131,32.7a8.524,8.524,0,0,1,6.018-5.5c.681-.192,1.364-.375,2.041-.579A1.436,1.436,0,0,0,17.259,25.4a1.99,1.99,0,0,0-.276-.116,3.987,3.987,0,0,1-3.146-3.968q-.024-1.577,0-3.154a.531.531,0,0,0-.373-.574,3.992,3.992,0,0,1-2.443-3.667,2.43,2.43,0,0,1,2.255-2.531c.133-.014.267-.02.447-.033-.051-.792-.086-1.565-.152-2.335A8.553,8.553,0,0,1,14.012,5.2c.185-.489.554-.68.955-.509.373.159.506.518.319,1-.6,1.558-.328,3.147-.23,4.851.189-.175.307-.275.415-.387A4.016,4.016,0,0,1,18.4,8.869a7.516,7.516,0,0,0,3.425-.849,5.718,5.718,0,0,0,2.854-3.3c.2-.59.4-1.183.586-1.777.2-.612.061-.969-.542-1.134-2.726-.747-5.335-.7-7.63,1.24-.412.349-.807.347-1.082.011s-.206-.708.211-1.07A7.553,7.553,0,0,1,20.4.105,9.883,9.883,0,0,1,25.135.51a6.551,6.551,0,0,1,1.244.868,2.154,2.154,0,0,0,.364.2,3.957,3.957,0,0,1,1.014.447,8.287,8.287,0,0,1,2.851,7.4c-.055.621-.085,1.245-.127,1.884a.748.748,0,0,0,.17.059,2.539,2.539,0,0,1,2.414,3.447,3.941,3.941,0,0,1-2.325,2.762.545.545,0,0,0-.379.613c.014.99.007,1.981.005,2.972A3.993,3.993,0,0,1,27.144,25.3a1.078,1.078,0,0,0-.127.049c-.056.651.558,1.166,1.265,1.339,2.207.54,4.369,1.2,5.97,2.984a8.55,8.55,0,0,1,2.336,5.841c.014,3.444,0,6.888.012,10.332a.986.986,0,0,1-.565,1Zm25.7-18.014-2.487,9.944a5.953,5.953,0,0,0,.806-.959.67.67,0,0,1,.922-.234c.393.2.451.66.141,1.1-.854,1.205-1.716,2.4-2.572,3.609-.078.11-.192.233-.194.351-.016.936-.009,1.873-.009,2.807h4.934v-.471q0-1.737,0-3.474c0-.107,0-.213,0-.32.018-.473.269-.749.679-.748a.677.677,0,0,1,.687.748c.012,1.264,0,2.529,0,3.793v.461h3.584c0-3.341.046-6.647-.014-9.951a7.1,7.1,0,0,0-3.773-6.269c-.291-.172-.614-.29-.922-.433a8.367,8.367,0,0,0,.831,1.351c.4.562.39.746-.058,1.286l-.7.841c.263.243.506.452.731.679a.72.72,0,0,1,.084,1.126q-.591.842-1.2,1.673c-.324.449-.737.561-1.081.3s-.346-.65-.036-1.092.63-.885.987-1.386c-.157-.129-.291-.23-.414-.342s-.263-.254-.388-.387a.693.693,0,0,1-.048-1.085c.275-.343.56-.679.846-1.025l-1.351-1.891m-12.05-.909c.266,1.056.581,2.06.758,3.089a1.884,1.884,0,0,0,1.285,1.51,3.908,3.908,0,0,0,1.319.311c1.385.039,2.771.028,4.157.008A3.216,3.216,0,0,0,26.31,32a.9.9,0,0,0,.292-.391c.32-1.218.618-2.441.931-3.692-1.853-.688-2.1-2.2-1.959-3.942a8.163,8.163,0,0,1-6.817.051,17,17,0,0,1-.363,2.294,2.586,2.586,0,0,1-1.721,1.6m6.14-14.06c-.015-.116-.033-.234-.045-.352-.038-.4-.19-.732-.644-.745s-.6.3-.681.7a3.511,3.511,0,0,1-4.189,3.045,16.955,16.955,0,0,1-1.826-.416,6.647,6.647,0,0,0,3.728,6.567A6.3,6.3,0,0,0,26.125,22a6.637,6.637,0,0,0,2.618-5.962c-1.892.773-3.682.791-5.314-.776,0,.336.009.605,0,.873a1.759,1.759,0,0,1-1.274,1.655,2.178,2.178,0,0,1-.584.075.7.7,0,0,1-.8-.631.683.683,0,0,1,.714-.725c.439-.017.6-.214.579-.627-.015-.334,0-.67,0-1.005,0-.66.121-.821.753-1.018M18.173,33.806c.042.215.061.345.093.472.627,2.522,1.258,5.043,1.878,7.567a4.325,4.325,0,0,1,.119.945c.016.879.005,1.758.005,2.66h3.681c0-.4-.011-.774,0-1.15a14.642,14.642,0,0,1,.132-2.495c.4-1.9.926-3.778,1.4-5.665.189-.754.372-1.51.578-2.353a8.97,8.97,0,0,1-3.963.427,9.066,9.066,0,0,1-3.924-.408m-4.535-1.515c-.313-.381-.557-.689-.813-.986a.766.766,0,0,1-.029-1.073c.335-.449.65-.911,1.023-1.437a2.671,2.671,0,0,0-.293.061A7.393,7.393,0,0,0,9,35.155a.629.629,0,0,0,.073.289,8.779,8.779,0,0,1,.452.86c.088.236.185.334.448.33,1.006-.016,2.012-.009,3.017-.006.657,0,.83.133,1.007.755q.832,2.917,1.664,5.835c.215.753.438,1.5.649,2.225H18.9c0-.76-.021-1.49.007-2.218a1.715,1.715,0,0,0-.36-1.134q-2.872-3.983-5.716-7.987a.76.76,0,0,1,.1-1.2c.215-.213.458-.4.711-.615M26.724,2.934c-.134.389-.248.718-.362,1.047a5.846,5.846,0,0,0,.8,5.457,3.156,3.156,0,0,0,1.94,1.215c.476-2.941.117-5.621-2.375-7.719m-.182,8.444c-.68.192-1.34.35-1.975.575a.888.888,0,0,0-.486.5A2.454,2.454,0,0,0,25,14.784a2.965,2.965,0,0,0,2.844.108A2.251,2.251,0,0,0,28.993,12.8a.72.72,0,0,0-.475-.837c-.636-.223-1.293-.39-1.975-.59m-8.9,0c-.691.2-1.321.355-1.925.579a.9.9,0,0,0-.477.5,2.451,2.451,0,0,0,.9,2.3,2.937,2.937,0,0,0,2.88.122,2.214,2.214,0,0,0,1.127-2.093.725.725,0,0,0-.479-.832c-.667-.226-1.353-.392-2.025-.58M15.486,28.835,14.135,30.72c.165.2.3.369.433.532s.278.324.41.492a.707.707,0,0,1-.047,1.09c-.255.257-.546.479-.816.713l3.748,5.241.1-.048c-.814-3.258-1.628-6.517-2.475-9.905M19.2,10.216a8.836,8.836,0,0,1,1.51.818c.4.321.714.561,1.251.371.206-.073.477.057.718.055a.9.9,0,0,0,.451-.121,10.387,10.387,0,0,1,1.21-.789,11.1,11.1,0,0,1,1.536-.447L24.7,7.5c-2.364,2.012-2.941,2.3-5.507,2.716m11.19,2.577-.221,3.515A2.631,2.631,0,0,0,31.8,14.16c.132-.91-.428-1.476-1.412-1.367M14.044,16.311c-.08-1.218-.155-2.38-.231-3.533-.861-.051-1.338.292-1.411.962a2.642,2.642,0,0,0,1.643,2.571m-5.5,21.58c-.094-.352-.163-.66-.264-.958a.309.309,0,0,0-.225-.174c-1.122-.011-2.244-.008-3.429-.008.1.364.167.671.272.965a.347.347,0,0,0,.265.168c1.108.012,2.217.007,3.38.007m6.68-16.831a2.51,2.51,0,0,0,2.107,2.824c-.068-.3-.043-.655-.209-.845-.6-.692-1.265-1.329-1.9-1.978m13.734-.012c-.553.591-1.076,1.23-1.684,1.773a.964.964,0,0,0-.3,1.074,2.523,2.523,0,0,0,1.983-2.847" transform="translate(0 0)" fill="#133d60"/>
        <path id="Trazado_128260" data-name="Trazado 128260" d="M66.7,66.018a4.315,4.315,0,0,1-2.982-1.212.693.693,0,0,1-.117-1.041.685.685,0,0,1,1.017.012,3.072,3.072,0,0,0,4.3.015c.393-.324.769-.327,1.048-.008a.715.715,0,0,1-.15,1.045A4.44,4.44,0,0,1,66.7,66.018" transform="translate(-44.668 -44.762)" fill="#133d60"/>
      </g>
    </g>
  </g>
</svg>
