<svg xmlns="http://www.w3.org/2000/svg" xmlns:xlink="http://www.w3.org/1999/xlink" width="203" height="203" viewBox="0 0 203 203">
  <defs>
    <clipPath id="clip-path">
      <circle id="Elipse_4991" data-name="Elipse 4991" cx="101.5" cy="101.5" r="101.5" transform="translate(1008.558 2833)" fill="#133d60"/>
    </clipPath>
    <clipPath id="clip-path-2">
      <rect id="Rectángulo_36251" data-name="Rectángulo 36251" width="132.073" height="185.311" fill="none"/>
    </clipPath>
  </defs>
  <g id="Grupo_136073" data-name="Grupo 136073" transform="translate(-1008.558 -2833)">
    <circle id="Elipse_4986" data-name="Elipse 4986" cx="101.5" cy="101.5" r="101.5" transform="translate(1008.558 2833)" fill="#133d60"/>
    <g id="Enmascarar_grupo_106" data-name="Enmascarar grupo 106" clip-path="url(#clip-path)">
      <g id="Grupo_136053" data-name="Grupo 136053" transform="translate(1044.021 2850.688)">
        <g id="Grupo_136052" data-name="Grupo 136052" clip-path="url(#clip-path-2)">
          <path id="Trazado_128536" data-name="Trazado 128536" d="M14.053,235.291c-4.195,0-8.39-.028-12.584.02C.4,235.323-.047,235.228,0,233.892a43.506,43.506,0,0,1,4.69-18.381c4.657-9,7.643-18.525,10.557-28.141a38.919,38.919,0,0,1,9.3-15.861,24.451,24.451,0,0,1,15.813-7.727c-10.63-6.446-16.782-15.351-18.2-27.3-1.087-1.8-.65-3.784-.5-5.661a121.394,121.394,0,0,0,.683-12.525,61.643,61.643,0,0,1,8.69-27.808,6.709,6.709,0,0,1,2.223-2.629c1.05-.336,1.673.462,2.413.93,4.111,2.6,8.44,4.261,13.387,2.911a15.268,15.268,0,0,0,6.988-3.987c1-1.011,2-2.023,3.017-3.012a9.528,9.528,0,0,1,13.72-.056,48.692,48.692,0,0,0,4.854,4.441c6.1,4.459,11.953,4.431,17.972-.1.8-.6,1.448-1.521,2.6-1.558,1.283.554,1.847,1.77,2.516,2.848a61.174,61.174,0,0,1,8.823,27.985c-.235,5.177.741,10.289.789,15.448a3.876,3.876,0,0,1-.6,2.771,34.426,34.426,0,0,1-11.127,22.093c-1.656,1.512-3.554,2.76-5.349,4.118-.394.3-.959.414-1.059,1.148,6.547.639,11.791,3.822,16.051,8.621,5.385,6.066,8.384,13.378,10.355,21.137a72.766,72.766,0,0,0,6.126,16.63,66.239,66.239,0,0,1,7.023,20.751c.667,4.087.548,4.309-3.451,4.309H117.855a5.09,5.09,0,0,1-.855-2.914,25.864,25.864,0,0,0-1.866-7.257,10.212,10.212,0,0,0-5.512-5.622,44.539,44.539,0,0,0-5.2-12.435c-1.164-2.047-1.351-4.426-1.788-6.708-.914-4.781-2.666-9.166-6.164-12.7a4.528,4.528,0,0,0-1.714-1.234,1.475,1.475,0,0,0-1.889,2.208,5.3,5.3,0,0,0,.865,1.039A19.989,19.989,0,0,1,99.4,201.3a25.634,25.634,0,0,0,3.751,10.482,19.922,19.922,0,0,1,2.563,6.452,3.136,3.136,0,0,1-.059,2.271c-1.871,1.731-4.306,2.321-6.607,3.047a95.527,95.527,0,0,1-21.268,3.829,167.717,167.717,0,0,1-19.328.251c-10.145-.36-20.179-1.681-29.681-5.615a5.593,5.593,0,0,1-2.471-1.449,3.129,3.129,0,0,1-.078-2.438,20.068,20.068,0,0,1,2.586-6.43,24.686,24.686,0,0,0,3.677-10.28A19.514,19.514,0,0,1,38.2,189.649a5.217,5.217,0,0,0,.756-.878,1.584,1.584,0,0,0,.112-1.973,1.553,1.553,0,0,0-2.107-.28,9.663,9.663,0,0,0-3.191,3.04,27.237,27.237,0,0,0-4.835,12.5,18.531,18.531,0,0,1-2.617,7.21,34.672,34.672,0,0,0-4.009,10.2c-5.4,2.441-6.5,7.422-7.356,12.524-.191,1.14-.148,2.323-.9,3.3" transform="translate(0 -50)" fill="#fecdc6"/>
          <path id="Trazado_128537" data-name="Trazado 128537" d="M124.795,4.7A69.439,69.439,0,0,1,132.553.808a11.566,11.566,0,0,1,15.908,10.556c.066,1.87.01,3.744.01,5.616a2.748,2.748,0,0,1,.367,1.482c-.9,5.857-2.908,11.206-7.169,15.513a22.493,22.493,0,0,1-2.977,1.8c-5.517,2.471-10.341,1.028-14.656-2.737a40.913,40.913,0,0,1-5.4-5.535c-.658-.841-1.215-1.137-2.255-.56a7.823,7.823,0,0,1-7.952.017,1.52,1.52,0,0,0-2.272.542,42.717,42.717,0,0,1-5.253,5.408C95.681,37.6,89.369,38.64,83.125,33.977c-4.252-4.239-6.214-9.547-7.155-15.333a3.088,3.088,0,0,1,.353-1.679,37.212,37.212,0,0,1,.157-7.348A11.573,11.573,0,0,1,91.889.684a56.626,56.626,0,0,1,8.118,4.033c2.859,1.174,4.557,3.694,6.534,5.835,1.042,1.128,1.682,1.724,3.33,1.011a6.783,6.783,0,0,1,5.622.182,1.571,1.571,0,0,0,2.271-.62,48.756,48.756,0,0,1,5.049-5.29A4.116,4.116,0,0,1,124.795,4.7" transform="translate(-46.444 0)" fill="#f85d85"/>
          <path id="Trazado_128538" data-name="Trazado 128538" d="M48.541,436.072a36.362,36.362,0,0,0,10.571,3.991,105.094,105.094,0,0,0,17.477,2.7,160.428,160.428,0,0,0,19.133.24c10.3-.39,20.481-1.768,30.1-5.849a3.685,3.685,0,0,0,1.792-1.082c1.261-1.1,2.617-1.663,4.237-.764,3.5.646,4.955,3.336,6.161,6.229a31.938,31.938,0,0,1,1.969,9.692H36.174c.331-4.021.944-7.966,2.856-11.605a7.41,7.41,0,0,1,5.272-4.315c1.621-.9,2.977-.333,4.238.764" transform="translate(-22.122 -265.939)" fill="#f4f6fe"/>
          <path id="Trazado_128539" data-name="Trazado 128539" d="M263.178,98.364c-1.149-10.967-4.025-21.311-10.9-30.209a.71.71,0,0,1-.2-.56,25.321,25.321,0,0,1,2.144-3.623,32.761,32.761,0,0,0,3.762-12.619,1.778,1.778,0,0,1,.512-1.394c9.26,11.165,11.976,23.921,9.242,38-.037,3.8-1.809,6.961-3.734,10.06a.718.718,0,0,1-.822.344" transform="translate(-154.153 -30.552)" fill="#f85d85"/>
          <path id="Trazado_128540" data-name="Trazado 128540" d="M60.626,70.978c-5.223,7.015-8.091,15-9.671,23.512-.386,2.079-.575,4.195-.854,6.294a.72.72,0,0,1-.823-.343c-1.957-3.087-3.722-6.25-3.735-10.06-2.513-12.533-.5-24.19,6.76-34.824.4-.579.885-1.094,1.33-1.639a2.741,2.741,0,0,1,.77,1.925A23.864,23.864,0,0,0,60.409,69.57a1.742,1.742,0,0,1,.416.858.759.759,0,0,1-.2.55" transform="translate(-27.22 -32.973)" fill="#f85d85"/>
          <path id="Trazado_128541" data-name="Trazado 128541" d="M280.523,158.192c2.4-3.082,3.471-6.746,4.556-10.4,3.257.814,5.941,2.354,7.3,5.643,2.159,5.24-.186,17.306-5.74,20.987a14.32,14.32,0,0,1-5.392,2.445c.3-6.245-1.179-12.421-.72-18.672" transform="translate(-171.498 -90.379)" fill="#e78a89"/>
          <path id="Trazado_128542" data-name="Trazado 128542" d="M34.376,147.785c1.075,3.663,2.12,7.339,4.559,10.4.457,6.251-1.016,12.429-.72,18.674a13.448,13.448,0,0,1-10.2-9.282c-1.316-3.779-2.221-7.652-1.51-11.72.78-4.466,2.948-6.771,7.381-7.794a1.985,1.985,0,0,0,.494-.282" transform="translate(-16.054 -90.377)" fill="#e78a88"/>
          <path id="Trazado_128543" data-name="Trazado 128543" d="M162.675,10.194c-2.558,2.416-5.323,4.637-7.3,7.6-.547.82-1.108.357-1.663.089a7.446,7.446,0,0,0-6.847,0c-.651.319-1.2.657-1.792-.224-1.945-2.907-4.655-5.1-7.184-7.451a60.087,60.087,0,0,1,18.159-.97,26.541,26.541,0,0,1,6.629.954" transform="translate(-84.324 -5.493)" fill="#cb3664"/>
          <path id="Trazado_128544" data-name="Trazado 128544" d="M74.989,64.338c-4.483-4.66-6.5-10.353-7-16.685a15.561,15.561,0,0,1,3.465-3.979,28.205,28.205,0,0,0,7.07,16.812c-.754,1.676-1.547,3.315-3.54,3.852" transform="translate(-41.581 -26.708)" fill="#cb3664"/>
          <path id="Trazado_128545" data-name="Trazado 128545" d="M253.831,46.136a29.7,29.7,0,0,1-6.225,17.834c-1.753-.514-2.558-1.894-3.156-3.462a28.441,28.441,0,0,0,7.069-16.8,10.826,10.826,0,0,1,2.312,2.427" transform="translate(-149.492 -26.73)" fill="#cb3664"/>
          <path id="Trazado_128546" data-name="Trazado 128546" d="M147.546,74.549,150.7,78.01q.006.182.007.364c-1.161.911-2.27,1.9-3.493,2.719-5.263,3.519-10.592,3.437-15.921.133a32.371,32.371,0,0,1-5.837-5.032c-4.283-4.344-9.68-4.324-13.919.1-2.47,2.577-4.97,5.075-8.427,6.3-5.787,2.053-10.862.271-15.65-2.968-.471-.319-.812-.851-1.468-.85,0-.125,0-.251,0-.376,1.477-1.011,2.256-2.663,3.539-3.852,2.285,1.121,4.43,2.56,7.111,2.7a13.381,13.381,0,0,0,10.262-4.116,38.075,38.075,0,0,0,5.438-5.753,1.219,1.219,0,0,1,1.935-.4,7.355,7.355,0,0,0,8.517,0c1.151-.747,1.611-.01,2.178.7a39.139,39.139,0,0,0,7.586,7.4,12.018,12.018,0,0,0,13.467.254c.476-.3.859-.819,1.515-.782" transform="translate(-52.588 -40.77)" fill="#e78a88"/>
          <path id="Trazado_128547" data-name="Trazado 128547" d="M143.2,312.417a25.157,25.157,0,0,1-15.989-5.882,6.786,6.786,0,0,1-1.358-1.373,2.069,2.069,0,0,1-.428-2.321c.616-1.06,1.415-.223,2.039-.034a51.249,51.249,0,0,0,31.881-.563c.659-.221,1.524-1.038,2.04-.232.482.752.088,1.685-.585,2.453a23.409,23.409,0,0,1-17.6,7.952" transform="translate(-76.571 -184.481)" fill="#e78a89"/>
          <path id="Trazado_128548" data-name="Trazado 128548" d="M254.278,382.766c-1.494-.2-2.837.442-4.238.765a17.911,17.911,0,0,0-2.889-8.31,25.3,25.3,0,0,1-3.71-10.447,18.937,18.937,0,0,0-5.726-11.528c-1.156-1.091-1.976-2.319-.691-3.624,1.243-1.262,2.627-.557,3.756.484,3.962,3.653,5.971,8.344,6.9,13.519a25.524,25.524,0,0,0,3.125,9.234c1.859,3.01,3.39,6.23,3.474,9.907" transform="translate(-144.553 -213.396)" fill="#e78b89"/>
          <path id="Trazado_128549" data-name="Trazado 128549" d="M61.338,383.63c-1.4-.323-2.744-.961-4.238-.764a18.816,18.816,0,0,1,3.291-9.572,26.326,26.326,0,0,0,3.306-9.582c.908-5.037,2.842-9.626,6.629-13.258a4.155,4.155,0,0,1,1.736-1.191c.978-.256,2-.3,2.58.719a2,2,0,0,1-.3,2.661c-4.531,3.937-6.187,9.145-6.864,14.877a18.641,18.641,0,0,1-3.055,7.46,19.667,19.667,0,0,0-3.085,8.649" transform="translate(-34.919 -213.496)" fill="#e78b89"/>
          <path id="Trazado_128550" data-name="Trazado 128550" d="M154.715,225.427a16.086,16.086,0,0,1-9.671-2.788c-1.562-1.105-1.971-2.5-1.032-3.568,1.154-1.308,2.318-.806,3.591,0,4.422,2.8,9,2.611,13.626.494.349-.16.662-.4,1-.589,1.248-.721,2.395-.635,3.165.653.782,1.308.225,2.324-.958,3.1a17.222,17.222,0,0,1-9.718,2.7" transform="translate(-87.765 -133.481)" fill="#383844"/>
          <path id="Trazado_128551" data-name="Trazado 128551" d="M94.543,205.751c-3.311-.039-5.752-2.017-5.607-4.409a3.142,3.142,0,0,1,.77-1.928c2.242-2.584,7.789-2.356,9.845.392,1.26,1.684.6,3.878-1.627,5.117a5.745,5.745,0,0,1-3.381.827" transform="translate(-54.384 -120.844)" fill="#feaaaa"/>
          <path id="Trazado_128552" data-name="Trazado 128552" d="M232.178,197.608a5.328,5.328,0,0,1,3.309.82c1.217.747,2.319,1.726,2.267,3.335a3.915,3.915,0,0,1-2.258,3.153,7.52,7.52,0,0,1-7.825-.613,3.441,3.441,0,0,1,.331-5.468,6.924,6.924,0,0,1,4.177-1.226" transform="translate(-138.5 -120.833)" fill="#feaaaa"/>
          <path id="Trazado_128553" data-name="Trazado 128553" d="M139.383,176.535c-.007,1.034.088,2.116-.828,2.864a2.005,2.005,0,0,1-2.947-.153c-.953-.942-1-4.109-.061-5.1a2.063,2.063,0,0,1,2.958-.257c.894.647.855,1.673.877,2.646" transform="translate(-82.479 -106.032)" fill="#3c3b46"/>
          <path id="Trazado_128554" data-name="Trazado 128554" d="M195.514,176.732c.043-.951-.2-1.993.659-2.72a2.076,2.076,0,0,1,2.971.014c1.016.9,1.07,4.29.074,5.244a2.054,2.054,0,0,1-3.1.011c-.764-.7-.57-1.659-.605-2.549" transform="translate(-119.565 -106.038)" fill="#3a3945"/>
          <path id="Trazado_128555" data-name="Trazado 128555" d="M128.2,41.966c.789,0,1.369-.011,1.947,0,1.454.033,1.912.6,1.774,2.193-.18,2.064-.674,2.755-2.88,2.15-1.644-.451-3.4.275-5.105.587-1.351.247-2.851.43-3.2-1.464-.3-1.642.586-2.435,2.17-2.753a18.82,18.82,0,0,1,5.294-.715" transform="translate(-73.798 -25.645)" fill="#cb3664"/>
          <path id="Trazado_128556" data-name="Trazado 128556" d="M194.293,43.916a10.175,10.175,0,0,1,5.394,1.1,2,2,0,0,1,1.073,2.868,1.907,1.907,0,0,1-2.711,1.056,11.15,11.15,0,0,0-7.171-.355c-1.047.279-1.289-.11-.968-1.056a3.45,3.45,0,0,0,.2-.741c.288-2.849.285-2.849,3.21-2.869.258,0,.515,0,.975,0" transform="translate(-116.057 -26.843)" fill="#cb3664"/>
        </g>
      </g>
    </g>
  </g>
</svg>
