<svg xmlns="http://www.w3.org/2000/svg" xmlns:xlink="http://www.w3.org/1999/xlink" width="203" height="203" viewBox="0 0 203 203">
  <defs>
    <clipPath id="clip-path">
      <circle id="Elipse_4992" data-name="Elipse 4992" cx="101.5" cy="101.5" r="101.5" transform="translate(389.558 2833)" fill="#3ba3f8"/>
    </clipPath>
  </defs>
  <g id="Grupo_136072" data-name="Grupo 136072" transform="translate(-389.558 -2833)">
    <circle id="Elipse_4985" data-name="Elipse 4985" cx="101.5" cy="101.5" r="101.5" transform="translate(389.558 2833)" fill="#3ba3f8"/>
    <g id="Enmascarar_grupo_107" data-name="Enmascarar grupo 107" clip-path="url(#clip-path)">
      <g id="Grupo_136054" data-name="Grupo 136054" transform="translate(415.301 2833)">
        <path id="Trazado_128525" data-name="Trazado 128525" d="M106.671,310.256c-24.188,15.494-26.907,23.833-55.35,19.113-6.914-2.611-32.539-20.075-33.311-25.045.3-1.329,34.308,4.048,35.144,3.2a14.625,14.625,0,0,0-1.832-21.8,11.833,11.833,0,0,0-8.791-2.154c-2.566.353-2.564.368-3.482-2.076a6.348,6.348,0,0,0-8.517-3.77c-1.2.481-2.331,1.094-3.561,1.512-3.43,1.165-6.338.165-8.96-2.07a22.034,22.034,0,0,1-4.191-5.29,6.187,6.187,0,0,1-.6-3.95,123.587,123.587,0,0,1,3.9-23.829,95.034,95.034,0,0,1,13.337-28.645c1.34-1.943,2.81-3.394,5.279-3.808,2.279-.382,4.236-1.914,6.6-2.158a58.537,58.537,0,0,1,18.89,5.311c19.429,8.926,32.674,23.842,41.347,43.089a77.451,77.451,0,0,1,6.8,26.856c.5,7.648.454,15.343-1.633,22.843a6.221,6.221,0,0,1-1.06,2.669" transform="translate(-8.047 -128.159)" fill="#7aadec"/>
        <path id="Trazado_128526" data-name="Trazado 128526" d="M34.251,81.769c-3.088.66-5.794,2.52-9,2.864-.382.041-.74.664-1.038,1.069C14.69,98.653,9.184,113.22,6.828,129.047c-.6,4.022-.933,8.07-1.163,12.128a3.718,3.718,0,0,0,.7,2.537c.684.937,1.27,1.948,1.989,2.856,3.806,4.812,7.589,5.63,13.047,2.866,3.654-1.85,8.107-.985,9.429,2.607,1.127,3.061,2.652,2.885,5.223,2.768,6.546-.3,12.232,4.986,13.377,11.906,1.087,6.566-1.374,11.577-6.7,15.339-9.963,4.981-19.744,4.349-29.044-1.492C6,175.739,2.294,168.17.636,159.494a41.532,41.532,0,0,1,.437-16.5c.771-3.692.631-7.566,1.058-11.34A100.192,100.192,0,0,1,19.316,85.028c.326-.471.635-.953.952-1.431-8.452-5.407-5.06-14.671.35-18.812,7.325-5.608,15.448-8.59,24.923-8.222a28.508,28.508,0,0,1-2.64-6.536c-1.048-5.109.459-9.561,3.6-13.537,4.01-5.073,9.374-8.356,15-11.325S73.323,20.8,79.13,18.352A86.1,86.1,0,0,0,97.473,8.132a41.128,41.128,0,0,1,14.559-6.912c1.743-.448,2.872-.052,3.472,1.667.159,1.825-.35,2.517-2.525,3.125a34.785,34.785,0,0,0-11.063,4.948A118,118,0,0,1,89.892,18.69c-2.951,1.608-6.063,2.84-9.278,4.4a15.631,15.631,0,0,0,5.41,1.261A28.535,28.535,0,0,0,107.27,17.3a80.935,80.935,0,0,1,21.613-13.73,18.389,18.389,0,0,1,3.89-1.076C138.613.762,144.511-.434,150.667.149a21.633,21.633,0,0,1,10.378,3.288c5.5,3.721,7.931,8.961,7.474,15.559a309.284,309.284,0,0,1-5.231,38.278,302.758,302.758,0,0,1-11.239,42.712c-2.17,6.14-4.905,12.08-10.729,15.333-3.838,2.143-4.67,5.119-5.133,8.821a49.736,49.736,0,0,0,4.173,28.07,75.1,75.1,0,0,1,6.869,26.986c.208,2.945.286,2.942-2.6,2.941-.515,0-1.03-.029-1.546-.045-.812-.453-.82-1.25-.854-2.026a73.042,73.042,0,0,0-6.757-26.854,51.493,51.493,0,0,1-4.571-18.288,56.9,56.9,0,0,1,.906-13.822c.154-.556.488-1.229-.634-.926-4.832,1.071-9.475.3-14.055-1.336A214.205,214.205,0,0,1,72.7,96.313c-6.215-4.033-12.254-8.347-18.949-11.634a30.445,30.445,0,0,0-19.5-2.911" transform="translate(0 0)" fill="#2b2b38"/>
        <path id="Trazado_128527" data-name="Trazado 128527" d="M186.316,247.717a67.352,67.352,0,0,0-.925,14.206,50.437,50.437,0,0,0,4.415,17.882,73.3,73.3,0,0,1,7,28.084c.016.442-30.906,37.745-30.819,38.185-14.82,0-37.095-16.752-51.914-16.75,12.182-3.679,18.9-6.356,29.027-18.116s12.01-22.623,11.48-28.924a81.041,81.041,0,0,0-5.155-21.854,86.124,86.124,0,0,0-13.3-23.179,78.39,78.39,0,0,0-22.052-19.363,67.416,67.416,0,0,0-25.847-9c6.317-2.218,12.3-.807,18.151,1.734,5.4,2.347,10.276,5.62,15.161,8.864,14.087,9.354,28.6,17.923,44.448,24.01,4.925,1.891,9.792,4.033,15.244,3.764,1.412-.07,2.817-.265,4.225-.4.828-.252,1.141.01.863.863" transform="translate(-53.973 -127.116)" fill="#497ecd"/>
        <path id="Trazado_128528" data-name="Trazado 128528" d="M257.422,5.74c-9.871,3.615-18.315,9.482-26.4,16.106-7.561,6.2-16.354,7.809-25.838,5.158-.426-.119-.831-.317-1.437-.553,2.548-1.159,4.937-2.2,7.29-3.324a79.257,79.257,0,0,0,13.4-8.048A35.691,35.691,0,0,1,237.77,8.733a2.614,2.614,0,0,0,2.383-2.6,18.362,18.362,0,0,1,6.959-.751c3.444.356,6.88.134,10.311.356" transform="translate(-124.649 -3.246)" fill="#fecdc6"/>
        <path id="Trazado_128529" data-name="Trazado 128529" d="M55.589,272.4a13.591,13.591,0,0,1,8.247,2.9c1.572,1.212,2.554,1.1,4.073-.026a13.969,13.969,0,0,1,8.452-2.882,10.553,10.553,0,0,1,9.491,14.552,15.79,15.79,0,0,1-5.088,6.223,114.76,114.76,0,0,0-13.043,11.2c-1.384,1.421-2.348,1.382-3.781-.063a113.339,113.339,0,0,0-12.6-10.83c-3.057-2.292-5.543-5.044-6.2-8.994A10.62,10.62,0,0,1,55.589,272.4" transform="translate(-27.534 -166.646)" fill="#2b2b38"/>
        <path id="Trazado_128530" data-name="Trazado 128530" d="M194.88,25.45a328.165,328.165,0,0,1-8.039,51.124C184.32,87.43,181.5,98.2,177.36,108.582c-4.609,11.552-16.357,16.649-28.071,12.411-17.266-6.246-33.1-15.173-48.319-25.313-5.572-3.713-11.114-7.494-17.412-9.966-8.09-3.175-16.127-3.75-24.171.14a9.1,9.1,0,0,1-4.068,1.124,5.235,5.235,0,0,1-4.979-6.247,8.62,8.62,0,0,1,3.084-5.221c8.955-7.085,18.815-9.717,30.06-6.471,19.194,5.539,37.866,12.582,56.612,19.414,3.024,1.1,6.021,1.943,9.227.965,4.623-1.409,7.557-4.5,8.279-9.252,2.034-13.38,3.883-26.789,5.821-40.183.747-5.165,1.509-10.329,2.336-15.482A18.219,18.219,0,0,1,166.8,20.99c3.7-9.765,14.8-12.973,23.211-6.709a11.865,11.865,0,0,1,4.87,11.169" transform="translate(-30.734 -6.766)" fill="#fecdc6"/>
        <path id="Trazado_128531" data-name="Trazado 128531" d="M170.785,66.558c.129-1.186.242-2.4-1.108-3-1.265-.557-2.206.126-3.105.955-6.076,5.6-13.114,8.813-21.515,8.607-3.27-.08-6.319-1.152-9.4-2.09-2.835-.862-5.68-1.69-8.527-2.511a2.824,2.824,0,0,1-1.558-.7c-4.858-5.878-6.618-12.453-.81-18.987,4.8-5.4,11.126-8.475,17.643-11.212.059-.025.127-.032.183-.063,2.706-1.494,5.121-1.183,8.106-.018,12.389,4.838,23.787,2.524,33.937-5.955C191.307,26,198.417,21.17,206.613,18.089a4.521,4.521,0,0,1,2.613-.581,27.112,27.112,0,0,0-4.619,11.02c-.546,2.978-.932,5.985-1.389,8.979-3,9.21-7.247,17.916-10.873,26.873-1.137,2.808-2.249,5.631-3.595,8.351-3.01,6.085-8.583,8.823-15.186,7.416-1.891-.4-3.8-.761-5.657-1.3-1.685-.488-1.828-.846-.757-2.23A27.223,27.223,0,0,0,171.3,69.9a2.74,2.74,0,0,0-.517-3.341" transform="translate(-74.091 -10.686)" fill="#7aadec"/>
        <path id="Trazado_128532" data-name="Trazado 128532" d="M11.93,384.592c.742.786,1.441,1.619,2.234,2.352a12.8,12.8,0,0,0,15.34,2.142c.459-.232.9-.491,1.367-.717a2.306,2.306,0,0,1,2.959.641,2.4,2.4,0,0,1,.178,3.194c-.481.678-1.107,1.253-1.655,1.885a2.011,2.011,0,0,0-.116,2.8,2.067,2.067,0,0,0,2.765.576,23.416,23.416,0,0,0,2.536-1.4,9.251,9.251,0,0,1,13.568,3.417A10.509,10.509,0,0,1,46.674,413.9c-7.755,3.769-15.419,3.118-22.688-1.228-8.137-4.865-11.7-12.548-12.445-21.717-.167-2.037-.024-4.1-.024-6.151l.413-.212" transform="translate(-7.011 -235.283)" fill="#fecdc6"/>
        <path id="Trazado_128533" data-name="Trazado 128533" d="M221.271,98.137c2.129.167,1.655,1.569,1.252,2.805a24.441,24.441,0,0,1-5.525,8.7c4.281.575,8.046,2.53,12.341,1.781,5.545-.967,8.474-4.632,10.48-9.478,4.478-10.816,9.021-21.606,13.544-32.4a2.36,2.36,0,0,1,.341-.459c-1.03,7.447-2.04,14.9-3.1,22.341q-1.667,11.743-3.413,23.474c-.634,4.257-4.989,7.217-9.03,5.811-11.416-3.973-22.763-8.147-34.531-12.384a38.167,38.167,0,0,0,17.638-10.191" transform="translate(-124.577 -42.266)" fill="#497ecd"/>
        <path id="Trazado_128534" data-name="Trazado 128534" d="M339.532,308.779a.875.875,0,0,0-.862-.863c.309-.271.679-.486,1.016-.15s.118.707-.154,1.013" transform="translate(-207.189 -188.178)" fill="#3f639c"/>
        <path id="Trazado_128535" data-name="Trazado 128535" d="M62.853,283.514c2.631.155,5.174,1.742,7.527,3.708,2.22,1.855,2.485,1.867,4.729.007a16.079,16.079,0,0,1,6.369-3.506,5.64,5.64,0,0,1,6.314,2.192,5.7,5.7,0,0,1,.62,6.817,12.8,12.8,0,0,1-3.623,3.968,102.975,102.975,0,0,0-11.1,9.3c-.689.678-1.1.733-1.825.021a106.7,106.7,0,0,0-11.406-9.538,11.517,11.517,0,0,1-3.6-4.227c-1.873-3.864,1.174-8.738,5.995-8.742" transform="translate(-34.443 -173.435)" fill="#fefefe"/>
      </g>
    </g>
  </g>
</svg>
